<?xml version="1.0" encoding="UTF-8" standalone="no"?>
<!-- Generator: Adobe Illustrator 21.1.0, SVG Export Plug-In . SVG Version: 6.00 Build 0)  -->

<svg
   version="1.1"
   id="Layer_1"
   x="0px"
   y="0px"
   viewBox="0 0 461.79997 50.700001"
   xml:space="preserve"
   sodipodi:docname="logo.svg"
   width="461.79999"
   height="50.700001"
   inkscape:version="1.3.2 (091e20e, 2023-11-25)"
   xmlns:inkscape="http://www.inkscape.org/namespaces/inkscape"
   xmlns:sodipodi="http://sodipodi.sourceforge.net/DTD/sodipodi-0.dtd"
   xmlns="http://www.w3.org/2000/svg"
   xmlns:svg="http://www.w3.org/2000/svg"><defs
   id="defs18" /><sodipodi:namedview
   id="namedview18"
   pagecolor="#ffffff"
   bordercolor="#111111"
   borderopacity="1"
   inkscape:showpageshadow="0"
   inkscape:pageopacity="0"
   inkscape:pagecheckerboard="1"
   inkscape:deskcolor="#d1d1d1"
   inkscape:zoom="1.3975576"
   inkscape:cx="236.84176"
   inkscape:cy="27.905827"
   inkscape:window-width="1312"
   inkscape:window-height="449"
   inkscape:window-x="370"
   inkscape:window-y="232"
   inkscape:window-maximized="0"
   inkscape:current-layer="Layer_1" />
<style
   type="text/css"
   id="style1">
	.st0{fill:#322835;}
	.st1{fill:#fff;}
</style>
<g
   id="g18"
   transform="translate(-20.5,-29.4)">
	<g
   id="g12">
		<path
   class="st0"
   d="m 27.6,78.1 h -7.1 l 15.6,-48 h 7 z"
   id="path1" />
		<path
   class="st0"
   d="m 53,66.1 c 1.7,0 2.9,-0.1 3.8,-0.4 0.9,-0.3 1.3,-0.7 1.3,-1.5 C 58.1,63.7 58,63.3 57.7,63 57.4,62.7 57,62.4 56.5,62.1 56,61.9 55.4,61.6 54.8,61.4 c -0.6,-0.2 -1.3,-0.4 -2,-0.7 -1,-0.3 -2,-0.6 -3.1,-1 -1,-0.4 -2,-0.9 -2.8,-1.5 C 46,57.6 45.3,56.9 44.8,55.9 44.2,55 44,53.9 44,52.5 c 0,-1.1 0.2,-2.2 0.6,-3.1 0.4,-1 1.1,-1.9 2,-2.6 0.9,-0.8 2.1,-1.4 3.5,-1.8 1.4,-0.4 3.1,-0.6 5.1,-0.6 1.7,0 3.3,0.1 4.8,0.4 1.5,0.3 2.7,0.6 3.8,1.1 l -1.1,5.8 c -0.6,-0.2 -1.6,-0.5 -2.9,-0.9 -1.3,-0.4 -2.8,-0.6 -4.5,-0.6 -1.7,0 -2.9,0.2 -3.5,0.6 -0.6,0.4 -0.9,0.9 -0.9,1.4 0,0.4 0.1,0.8 0.4,1.1 0.3,0.3 0.6,0.6 1.1,0.9 0.5,0.3 1,0.5 1.6,0.8 0.6,0.2 1.3,0.5 2,0.7 1,0.3 2,0.7 3.1,1.1 1.1,0.4 2,0.9 2.9,1.5 0.9,0.6 1.6,1.4 2.1,2.3 0.5,0.9 0.8,2.1 0.8,3.5 0,1.1 -0.2,2.1 -0.6,3.1 -0.4,1 -1.1,1.8 -2,2.5 -0.9,0.7 -2.2,1.3 -3.7,1.7 -1.5,0.4 -3.4,0.6 -5.6,0.6 -2.3,0 -4.2,-0.3 -5.8,-0.8 -1.6,-0.5 -2.9,-1 -3.8,-1.4 l 1.1,-5.7 c 1.3,0.5 2.7,1 4.1,1.4 1.4,0.3 2.9,0.6 4.4,0.6 z"
   id="path2" />
		<path
   class="st0"
   d="m 68.5,58.4 c 0,-2.3 0.4,-4.3 1.1,-6.1 0.7,-1.7 1.6,-3.2 2.8,-4.4 1.1,-1.2 2.5,-2 3.9,-2.6 1.5,-0.6 3,-0.9 4.6,-0.9 3.9,0 6.8,1.1 8.8,3.4 2,2.3 3,5.6 3,10 0,0.4 0,0.9 0,1.4 0,0.5 0,0.9 -0.1,1.2 H 75.5 c 0,1.7 0.7,3 2.1,4 1.4,1 3.2,1.5 5.4,1.5 1.4,0 2.7,-0.1 3.9,-0.4 1.2,-0.3 2.3,-0.6 3.1,-0.9 l 0.9,5.8 c -1.2,0.4 -2.4,0.8 -3.8,1 -1.3,0.3 -2.8,0.4 -4.5,0.4 -2.2,0 -4.2,-0.3 -6,-0.9 -1.8,-0.6 -3.3,-1.4 -4.5,-2.6 -1.2,-1.1 -2.2,-2.5 -2.9,-4.2 -0.4,-1.5 -0.7,-3.5 -0.7,-5.7 z M 86,55.7 c 0,-0.7 -0.1,-1.4 -0.3,-2 -0.2,-0.6 -0.5,-1.2 -0.9,-1.7 -0.4,-0.5 -0.9,-0.9 -1.6,-1.3 -0.6,-0.3 -1.4,-0.5 -2.3,-0.5 -0.9,0 -1.7,0.1 -2.3,0.4 -0.6,0.3 -1.2,0.7 -1.6,1.2 -0.4,0.5 -0.8,1.1 -1,1.8 -0.2,0.7 -0.4,1.4 -0.5,2.1 z"
   id="path3" />
		<path
   class="st0"
   d="m 117.3,52.1 c -0.4,-0.1 -1,-0.2 -1.6,-0.3 -0.6,-0.1 -1.2,-0.2 -1.9,-0.3 -0.6,-0.1 -1.2,-0.2 -1.8,-0.2 -0.6,0 -1.1,-0.1 -1.5,-0.1 -1,0 -1.9,0 -2.8,0.1 -0.9,0.1 -1.9,0.3 -2.8,0.5 V 71.2 H 98 V 46.8 c 1.8,-0.7 3.7,-1.2 5.6,-1.6 1.9,-0.4 4.1,-0.6 6.7,-0.6 0.4,0 0.9,0 1.6,0.1 0.7,0 1.4,0.1 2.2,0.2 0.8,0.1 1.6,0.2 2.4,0.3 0.8,0.1 1.5,0.3 2.1,0.5 z"
   id="path4" />
		<path
   class="st0"
   d="m 131.3,71.2 c -1.7,-3.3 -3.4,-7.2 -5.1,-11.6 -1.7,-4.4 -3.4,-9.3 -4.9,-14.5 h 7.2 c 0.3,1.4 0.7,2.9 1.2,4.5 0.5,1.6 1,3.2 1.5,4.8 0.5,1.6 1,3.2 1.6,4.7 0.5,1.5 1,2.9 1.5,4.2 0.5,-1.3 1,-2.6 1.6,-4.2 0.6,-1.5 1.2,-3.1 1.8,-4.7 0.6,-1.6 1.1,-3.2 1.7,-4.8 0.5,-1.6 1,-3.1 1.3,-4.5 h 6.9 c -1.6,5.3 -3.3,10.1 -5.2,14.5 -1.9,4.4 -3.7,8.3 -5.3,11.6 z"
   id="path5" />
		<path
   class="st0"
   d="m 148.5,58.4 c 0,-2.3 0.4,-4.3 1.1,-6.1 0.7,-1.7 1.6,-3.2 2.8,-4.4 1.1,-1.2 2.5,-2 3.9,-2.6 1.5,-0.6 3,-0.9 4.6,-0.9 3.9,0 6.8,1.1 8.8,3.4 2,2.3 3,5.6 3,10 0,0.4 0,0.9 0,1.4 0,0.5 0,0.9 -0.1,1.2 h -16.9 c 0,1.7 0.7,3 2.1,4 1.4,1 3.2,1.5 5.4,1.5 1.4,0 2.7,-0.1 3.9,-0.4 1.2,-0.3 2.3,-0.6 3.1,-0.9 l 0.9,5.8 c -1.2,0.4 -2.4,0.8 -3.8,1 -1.4,0.2 -2.8,0.4 -4.5,0.4 -2.2,0 -4.2,-0.3 -6,-0.9 -1.8,-0.6 -3.3,-1.4 -4.5,-2.6 -1.2,-1.1 -2.2,-2.5 -2.9,-4.2 -0.5,-1.5 -0.9,-3.5 -0.9,-5.7 z M 166,55.7 c 0,-0.7 -0.1,-1.4 -0.3,-2 -0.2,-0.6 -0.5,-1.2 -0.9,-1.7 -0.4,-0.5 -0.9,-0.9 -1.6,-1.3 -0.6,-0.3 -1.4,-0.5 -2.3,-0.5 -0.9,0 -1.7,0.1 -2.3,0.4 -0.6,0.3 -1.2,0.7 -1.6,1.2 -0.4,0.5 -0.8,1.1 -1,1.8 -0.2,0.7 -0.4,1.4 -0.5,2.1 z"
   id="path6" />
		<path
   class="st0"
   d="m 197.3,52.1 c -0.4,-0.1 -1,-0.2 -1.6,-0.3 -0.6,-0.1 -1.2,-0.2 -1.9,-0.3 -0.6,-0.1 -1.2,-0.2 -1.8,-0.2 -0.6,0 -1.1,-0.1 -1.5,-0.1 -1,0 -1.9,0 -2.8,0.1 -0.9,0.1 -1.9,0.3 -2.8,0.5 V 71.2 H 178 V 46.8 c 1.8,-0.7 3.7,-1.2 5.6,-1.6 1.9,-0.4 4.1,-0.6 6.7,-0.6 0.4,0 0.9,0 1.6,0.1 0.7,0 1.4,0.1 2.2,0.2 0.8,0.1 1.6,0.2 2.4,0.3 0.8,0.1 1.5,0.3 2.1,0.5 z"
   id="path7" />
		<path
   class="st0"
   d="m 222.2,70.1 c -0.1,0.1 -0.4,0.2 -0.8,0.4 -0.4,0.2 -0.9,0.4 -1.5,0.6 -0.6,0.2 -1.4,0.4 -2.3,0.5 -0.9,0.1 -1.9,0.2 -3.1,0.2 -3.1,0 -5.4,-0.9 -6.9,-2.8 -1.4,-1.9 -2.2,-4.6 -2.2,-8.2 V 38.7 h -7.2 V 33 h 14.1 v 28.3 c 0,1.8 0.4,3 1.1,3.6 0.7,0.6 1.6,0.9 2.7,0.9 1.4,0 2.5,-0.2 3.4,-0.6 0.9,-0.4 1.5,-0.6 1.8,-0.7 z"
   id="path8" />
		<path
   class="st0"
   d="m 224.3,58.4 c 0,-2.3 0.4,-4.3 1.1,-6.1 0.7,-1.7 1.6,-3.2 2.8,-4.4 1.1,-1.2 2.5,-2 3.9,-2.6 1.5,-0.6 3,-0.9 4.6,-0.9 3.9,0 6.8,1.1 8.8,3.4 2,2.3 3,5.6 3,10 0,0.4 0,0.9 0,1.4 0,0.5 0,0.9 -0.1,1.2 h -16.9 c 0,1.7 0.7,3 2.1,4 1.4,1 3.2,1.5 5.4,1.5 1.4,0 2.7,-0.1 3.9,-0.4 1.2,-0.3 2.3,-0.6 3.1,-0.9 l 0.9,5.8 c -1.2,0.4 -2.4,0.8 -3.8,1 -1.4,0.2 -2.8,0.4 -4.5,0.4 -2.2,0 -4.2,-0.3 -6,-0.9 -1.8,-0.6 -3.3,-1.4 -4.5,-2.6 -1.2,-1.1 -2.2,-2.5 -2.9,-4.2 -0.6,-1.5 -0.9,-3.5 -0.9,-5.7 z m 17.5,-2.7 c 0,-0.7 -0.1,-1.4 -0.3,-2 -0.2,-0.6 -0.5,-1.2 -0.9,-1.7 -0.4,-0.5 -0.9,-0.9 -1.6,-1.3 -0.6,-0.3 -1.4,-0.5 -2.3,-0.5 -0.9,0 -1.7,0.1 -2.3,0.4 -0.6,0.3 -1.2,0.7 -1.6,1.2 -0.4,0.5 -0.8,1.1 -1,1.8 -0.2,0.7 -0.4,1.4 -0.5,2.1 z"
   id="path9" />
		<path
   class="st0"
   d="m 261.7,66.1 c 1.7,0 2.9,-0.1 3.8,-0.4 0.9,-0.3 1.3,-0.7 1.3,-1.5 0,-0.5 -0.1,-0.9 -0.4,-1.2 -0.3,-0.3 -0.7,-0.6 -1.2,-0.9 -0.5,-0.2 -1.1,-0.5 -1.7,-0.7 -0.6,-0.2 -1.3,-0.4 -2,-0.7 -1,-0.3 -2,-0.6 -3.1,-1 -1,-0.4 -2,-0.9 -2.8,-1.5 -0.9,-0.6 -1.6,-1.3 -2.1,-2.3 -0.6,-0.9 -0.8,-2 -0.8,-3.4 0,-1.1 0.2,-2.2 0.6,-3.1 0.4,-1 1.1,-1.9 2,-2.6 0.9,-0.8 2.1,-1.4 3.5,-1.8 1.4,-0.4 3.1,-0.6 5.1,-0.6 1.7,0 3.3,0.1 4.8,0.4 1.5,0.3 2.7,0.6 3.8,1.1 l -1.1,5.8 c -0.6,-0.2 -1.6,-0.5 -2.9,-0.9 -1.3,-0.4 -2.8,-0.6 -4.5,-0.6 -1.7,0 -2.9,0.2 -3.5,0.6 -0.6,0.4 -0.9,0.9 -0.9,1.4 0,0.4 0.1,0.8 0.4,1.1 0.3,0.3 0.6,0.6 1.1,0.9 0.5,0.3 1,0.5 1.6,0.8 0.6,0.2 1.3,0.5 2,0.7 1,0.3 2,0.7 3.1,1.1 1.1,0.4 2,0.9 2.9,1.5 0.9,0.6 1.6,1.4 2.1,2.3 0.5,0.9 0.8,2.1 0.8,3.5 0,1.1 -0.2,2.1 -0.6,3.1 -0.4,1 -1.1,1.8 -2,2.5 -0.9,0.7 -2.2,1.3 -3.7,1.7 -1.5,0.4 -3.4,0.6 -5.6,0.6 -2.3,0 -4.2,-0.3 -5.8,-0.8 -1.6,-0.5 -2.9,-1 -3.8,-1.4 l 1.1,-5.7 c 1.3,0.5 2.7,1 4.1,1.4 1.4,0.3 2.9,0.6 4.4,0.6 z"
   id="path10" />
		<path
   class="st0"
   d="m 287.2,66.1 c 1.7,0 2.9,-0.1 3.8,-0.4 0.9,-0.3 1.3,-0.7 1.3,-1.5 0,-0.5 -0.1,-0.9 -0.4,-1.2 -0.3,-0.3 -0.7,-0.6 -1.2,-0.9 -0.5,-0.2 -1.1,-0.5 -1.7,-0.7 -0.6,-0.2 -1.3,-0.4 -2,-0.7 -1,-0.3 -2,-0.6 -3.1,-1 -1,-0.4 -2,-0.9 -2.8,-1.5 -0.9,-0.6 -1.6,-1.3 -2.1,-2.3 -0.6,-0.9 -0.8,-2 -0.8,-3.4 0,-1.1 0.2,-2.2 0.6,-3.1 0.4,-1 1.1,-1.9 2,-2.6 0.9,-0.8 2.1,-1.4 3.5,-1.8 1.4,-0.4 3.1,-0.6 5.1,-0.6 1.7,0 3.3,0.1 4.8,0.4 1.5,0.3 2.7,0.6 3.8,1.1 l -1.1,5.8 c -0.6,-0.2 -1.6,-0.5 -2.9,-0.9 -1.3,-0.4 -2.8,-0.6 -4.5,-0.6 -1.7,0 -2.9,0.2 -3.5,0.6 -0.6,0.4 -0.9,0.9 -0.9,1.4 0,0.4 0.1,0.8 0.4,1.1 0.3,0.3 0.6,0.6 1.1,0.9 0.5,0.3 1,0.5 1.6,0.8 0.6,0.2 1.3,0.5 2,0.7 1,0.3 2,0.7 3.1,1.1 1.1,0.4 2,0.9 2.9,1.5 0.9,0.6 1.6,1.4 2.1,2.3 0.5,0.9 0.8,2.1 0.8,3.5 0,1.1 -0.2,2.1 -0.6,3.1 -0.4,1 -1.1,1.8 -2,2.5 -0.9,0.7 -2.2,1.3 -3.7,1.7 -1.5,0.4 -3.4,0.6 -5.6,0.6 -2.3,0 -4.2,-0.3 -5.8,-0.8 -1.6,-0.5 -2.9,-1 -3.8,-1.4 l 1.1,-5.7 c 1.3,0.5 2.7,1 4.1,1.4 1.4,0.3 2.9,0.6 4.4,0.6 z"
   id="path11" />
		<path
   class="st0"
   d="m 308.4,78.1 h -7.1 l 15.6,-48 h 7 z"
   id="path12" />
	</g>
	<polygon
   class="st0"
   points="334.6,29.4 482.3,29.4 468.2,78.5 320.5,78.5 "
   id="polygon12" />
	<g
   id="g17">
		<g
   id="g16">
			<path
   class="st1"
   d="m 347.1,39.1 h 12 c 9.6,0 16.2,6.1 16.2,15.3 0,9.2 -6.6,15.2 -16.2,15.2 h -12 z m 12,24.8 c 6,0 9.6,-4.3 9.6,-9.5 0,-5.4 -3.3,-9.6 -9.6,-9.6 h -5.5 v 19.1 z"
   id="path13" />
			<path
   class="st1"
   d="m 397.9,64.3 h -13.6 l -1.9,5.3 h -7.1 L 387,39.1 h 8.1 l 11.8,30.5 h -7.1 z M 386,58.7 h 10.1 l -5,-14 z"
   id="path14" />
			<path
   class="st1"
   d="m 414.6,57.1 -11.8,-18 h 7.4 l 7.6,12.3 7.5,-12.3 h 7.4 l -11.7,18 v 12.5 h -6.5 V 57.1 Z"
   id="path15" />
			<path
   class="st1"
   d="m 435.8,60.4 c 2.1,2.2 5.5,4.1 9.7,4.1 3.6,0 5.3,-1.7 5.3,-3.4 0,-2.3 -2.7,-3.1 -6.2,-3.9 -5,-1.1 -11.4,-2.5 -11.4,-9.3 0,-5.1 4.4,-9.2 11.6,-9.2 4.8,0 8.9,1.5 11.9,4.3 l -3.6,4.8 c -2.5,-2.3 -5.8,-3.3 -8.7,-3.3 -2.9,0 -4.5,1.3 -4.5,3.1 0,2.1 2.6,2.7 6.1,3.5 5,1.1 11.4,2.7 11.4,9.4 0,5.6 -4,9.8 -12.2,9.8 -5.9,0 -10.1,-2 -13,-4.8 z"
   id="path16" />
		</g>
	</g>
	<path
   class="st0"
   d="m 291.7,80.1 h -11.4 c -0.9,0 -1.6,-0.7 -1.6,-1.6 0,-0.9 0.7,-1.6 1.6,-1.6 h 11.4 c 0.9,0 1.6,0.7 1.6,1.6 0,0.9 -0.6,1.6 -1.6,1.6 z m -21.2,0 h -11.4 c -0.9,0 -1.6,-0.7 -1.6,-1.6 0,-0.9 0.7,-1.6 1.6,-1.6 h 11.4 c 0.9,0 1.6,0.7 1.6,1.6 0,0.9 -0.7,1.6 -1.6,1.6 z m -21.2,0 h -11.4 c -0.9,0 -1.6,-0.7 -1.6,-1.6 0,-0.9 0.7,-1.6 1.6,-1.6 h 11.4 c 0.9,0 1.6,0.7 1.6,1.6 0,0.9 -0.7,1.6 -1.6,1.6 z m -21.3,0 h -11.4 c -0.9,0 -1.6,-0.7 -1.6,-1.6 0,-0.9 0.7,-1.6 1.6,-1.6 H 228 c 0.9,0 1.6,0.7 1.6,1.6 0,0.9 -0.7,1.6 -1.6,1.6 z m -21.2,0 h -11.4 c -0.9,0 -1.6,-0.7 -1.6,-1.6 0,-0.9 0.7,-1.6 1.6,-1.6 h 11.4 c 0.9,0 1.6,0.7 1.6,1.6 0,0.9 -0.7,1.6 -1.6,1.6 z m -21.3,0 h -11.4 c -0.9,0 -1.6,-0.7 -1.6,-1.6 0,-0.9 0.7,-1.6 1.6,-1.6 h 11.4 c 0.9,0 1.6,0.7 1.6,1.6 0,0.9 -0.7,1.6 -1.6,1.6 z m -21.2,0 h -11.4 c -0.9,0 -1.6,-0.7 -1.6,-1.6 0,-0.9 0.7,-1.6 1.6,-1.6 h 11.4 c 0.9,0 1.6,0.7 1.6,1.6 0,0.9 -0.7,1.6 -1.6,1.6 z m -21.3,0 h -11.4 c -0.9,0 -1.6,-0.7 -1.6,-1.6 0,-0.9 0.7,-1.6 1.6,-1.6 H 143 c 0.9,0 1.6,0.7 1.6,1.6 0,0.9 -0.7,1.6 -1.6,1.6 z m -21.2,0 h -11.4 c -0.9,0 -1.6,-0.7 -1.6,-1.6 0,-0.9 0.7,-1.6 1.6,-1.6 h 11.4 c 0.9,0 1.6,0.7 1.6,1.6 0,0.9 -0.7,1.6 -1.6,1.6 z m -21.2,0 H 89.1 c -0.9,0 -1.6,-0.7 -1.6,-1.6 0,-0.9 0.7,-1.6 1.6,-1.6 h 11.4 c 0.9,0 1.6,0.7 1.6,1.6 0,0.9 -0.6,1.6 -1.5,1.6 z m -21.3,0 H 67.9 c -0.9,0 -1.6,-0.7 -1.6,-1.6 0,-0.9 0.7,-1.6 1.6,-1.6 h 11.4 c 0.9,0 1.6,0.7 1.6,1.6 0,0.9 -0.7,1.6 -1.6,1.6 z m -21.2,0 H 46.6 c -0.9,0 -1.6,-0.7 -1.6,-1.6 0,-0.9 0.7,-1.6 1.6,-1.6 H 58 c 0.9,0 1.6,0.7 1.6,1.6 0,0.9 -0.6,1.6 -1.5,1.6 z"
   id="path17" />
</g>
</svg>
