<?xml version="1.0" encoding="UTF-8" standalone="no"?>
<!-- Generator: Adobe Illustrator 21.1.0, SVG Export Plug-In . SVG Version: 6.00 Build 0)  -->

<svg
   version="1.1"
   x="0px"
   y="0px"
   viewBox="0 0 447.34381 410.18049"
   xml:space="preserve"
   id="svg78"
   sodipodi:docname="anteater.svg"
   inkscape:version="1.3.2 (091e20e, 2023-11-25)"
   width="447.34381"
   height="410.18048"
   xmlns:inkscape="http://www.inkscape.org/namespaces/inkscape"
   xmlns:sodipodi="http://sodipodi.sourceforge.net/DTD/sodipodi-0.dtd"
   xmlns:xlink="http://www.w3.org/1999/xlink"
   xmlns="http://www.w3.org/2000/svg"
   xmlns:svg="http://www.w3.org/2000/svg"><defs
   id="defs78" /><sodipodi:namedview
   id="namedview78"
   pagecolor="#ffffff"
   bordercolor="#111111"
   borderopacity="1"
   inkscape:showpageshadow="0"
   inkscape:pageopacity="0"
   inkscape:pagecheckerboard="1"
   inkscape:deskcolor="#d1d1d1"
   inkscape:zoom="0.51833957"
   inkscape:cx="223.79152"
   inkscape:cy="200.64067"
   inkscape:window-width="1312"
   inkscape:window-height="449"
   inkscape:window-x="106"
   inkscape:window-y="58"
   inkscape:window-maximized="0"
   inkscape:current-layer="svg78" />
<style
   type="text/css"
   id="style1">
	.st0{display:none;}
	.st1{fill:#EE365E;}
	.st2{fill:none;stroke:#000000;stroke-width:2;stroke-miterlimit:10;}
	.st3{fill:#DADFE5;}
	.st4{fill:#A7A9AC;}
	.st5{fill:#FFF200;stroke:#F7941D;stroke-width:2;stroke-linecap:round;stroke-miterlimit:10;}
	.st6{fill:none;stroke:#F7941D;stroke-width:2;stroke-linecap:round;stroke-miterlimit:10;}
	.st7{fill:#A7A9AC;stroke:#000000;stroke-width:3;stroke-miterlimit:10;}
	.st8{fill:#5C98D1;stroke:#000000;stroke-width:3;stroke-linecap:round;stroke-miterlimit:10;}
	.st9{fill:none;stroke:#000000;stroke-width:3;stroke-miterlimit:10;}
	.st10{fill:none;stroke:#000000;stroke-width:3;stroke-linecap:round;stroke-miterlimit:10;}
	.st11{fill:#443641;stroke:#000000;stroke-width:3;stroke-linecap:round;stroke-miterlimit:10;}
	.st12{fill:none;stroke:#000000;stroke-width:2;stroke-linecap:round;stroke-miterlimit:10;}
	.st13{fill:#EE365E;stroke:#000000;stroke-width:3;stroke-miterlimit:10;}
	.st14{fill:none;stroke:#000000;stroke-linecap:round;stroke-miterlimit:10;}
	.st15{fill:none;stroke:#000000;stroke-miterlimit:10;}
	.st16{fill:#A7A9AC;stroke:#000000;stroke-width:2;stroke-miterlimit:10;}
	.st17{fill:#FFFFFF;stroke:#000000;stroke-width:2;stroke-miterlimit:10;}
	.st18{fill:#A7A9AC;stroke:#000000;stroke-width:3;stroke-linejoin:round;stroke-miterlimit:10;}
	.st19{opacity:0.4;fill:#55285B;}
	.st20{opacity:0.3;fill:#55285B;}
	.st21{opacity:0.3;fill:#FFFFFF;}
	.st22{fill:#FFFFFF;}
	.st23{opacity:0.31;fill:#3E5A7D;}
</style>
<g
   id="Layer_1"
   class="st0"
   transform="translate(-16.6,-27.619517)">
	
		<image
   style="display:inline;overflow:visible;opacity:0.24"
   width="1291"
   height="1182"
   xlink:href="anteater_concept_wheel.png"
   transform="matrix(0.395,0,0,0.395,-26,4.2233)"
   id="image1">
	</image>
</g>
<g
   id="Layer_2"
   transform="translate(-16.6,-27.619517)">
	<path
   class="st1"
   d="m 410,187.1 c -10.2,18.4 -28.1,38.9 -48,51.1 -14.6,9 -43.5,16.3 -59,16.3 l -42.1,-25.1 24.6,-44.9 75.6,-10.6 46,2 z"
   id="path1" />
	<path
   class="st1"
   d="m 186.1,261.5 c -7.6,0 -41.2,2.4 -73.2,-17.9 C 77.6,221.2 72.7,204.2 62.5,190.8 l 1.3,-21.1 89.5,25.6 45.6,1.9 v 49.1 z"
   id="path2" />
	<g
   id="g3">
		<path
   d="m 257,430.8 c 3.9,-1.4 7.5,-3.6 10.6,-6.3 3.1,-2.7 5.9,-5.8 8.2,-9.2 2.3,-3.4 4.2,-7.1 5.7,-11 0.8,-1.9 1.4,-3.9 1.9,-5.9 0.5,-2 0.9,-4.1 1,-6.1 0.1,4.2 -0.9,8.3 -2.2,12.3 -1.4,4 -3.3,7.7 -5.6,11.3 -1.1,1.8 -2.5,3.4 -3.9,5 -1.4,1.5 -2.9,3 -4.6,4.3 -1.6,1.3 -3.4,2.5 -5.3,3.5 -1.8,0.9 -3.8,1.6 -5.8,2.1 z"
   id="path3" />
	</g>
	<path
   class="st2"
   d="m 301.5,254.8 c 15.5,0 44.4,-7.2 59,-16.3 19.9,-12.2 37.8,-32.8 48,-51.1"
   id="path4" />
	<g
   id="Layer_3">
		<g
   id="g6">
			<g
   id="g5">
				<path
   class="st3"
   d="m 204.2,279.4 c 1.4,-3.6 1.8,-7 1.3,-10.8 -0.4,-3.1 -5,-3.3 -5,0 0,1.9 0,3.9 -0.1,5.8 1.4,-0.6 2.8,-1.2 4.3,-1.8 -0.5,-1.3 -1,-2.7 -1.5,-4 -1.2,0.5 -2.4,1 -3.7,1.5 10.6,5.8 22.1,9 34.2,9.3 0,-1.7 0,-3.3 0,-5 -5.9,0.5 -11.9,0.3 -17.7,-0.9 -4.7,-1 -8.9,-3.2 -13.8,-2.3 -2,0.4 -2.5,3.7 -0.6,4.6 14.8,6.5 30.6,9.6 46.8,9.1 3,-0.1 3.2,-3.9 0.7,-4.9 -9.1,-3.7 -18.4,-6.6 -28,-8.7 -3.1,-0.7 -4.4,3.9 -1.3,4.8 12.2,3.6 24.7,5.7 37.3,6.2 0,-1.7 0,-3.3 0,-5 -6.7,0.4 -13.2,-0.3 -19.7,-2.1 -0.2,1.6 -0.4,3.3 -0.7,4.9 8.2,0.7 16.4,2 24.4,3.9 0.2,-1.6 0.4,-3.3 0.7,-4.9 -6.5,0.4 -12.4,-0.9 -18,-4.1 -0.4,1.6 -0.8,3.1 -1.3,4.7 9,-0.4 17.9,-0.5 26.9,-0.3 -0.2,-1.6 -0.4,-3.3 -0.7,-4.9 -8.1,2.7 -16.3,3.9 -24.9,3.5 -2.8,-0.1 -3.5,4.5 -0.7,4.9 10.8,1.6 21.5,1.4 32.2,-0.7 2.5,-0.5 2.3,-4.2 0,-4.8 -3.8,-1.1 -7.7,-2.2 -11.4,-3.4 -0.2,1.6 -0.4,3.3 -0.7,4.9 6.5,0.3 13,0.5 19.5,0.8 2.8,0.1 3.4,-4.3 0.7,-4.9 -3.2,-0.7 -5.7,0 -8.1,2.1 1,-0.1 2,-0.3 3,-0.4 -0.2,-0.2 -0.4,-0.5 -0.6,-0.7 -1.4,0.8 -2.8,1.6 -4.2,2.4 1.1,1 2.1,2.1 3.2,3.1 1.4,1.4 4.5,0.5 4.3,-1.8 -0.1,-0.9 -0.2,-1.9 -0.3,-2.8 -1.3,0.7 -2.5,1.4 -3.8,2.2 1.5,0.8 2.6,1.7 3.7,3 1.3,1.6 3.6,0.5 4.2,-1.1 0.4,-1.3 0.9,-2.6 1.3,-4 -1.2,0.5 -2.4,1 -3.7,1.5 1.3,0.4 2.1,1.3 2.5,2.6 0.9,2 4.1,1.4 4.6,-0.6 0.6,-2.3 1.3,-4.5 2.2,-6.7 -1.4,0 -2.9,0 -4.3,0 1.2,1.3 1.5,2.8 0.9,4.4 -0.8,3.2 3.7,4.3 4.8,1.3 1.1,-2.9 -0.2,-6 -2.9,-7.5 -5,-2.8 -9.9,2.4 -15,0.8 -3.1,-1 -4.4,3.9 -1.3,4.8 1.9,0.6 3.5,0.7 5.5,0.4 0.6,-0.1 10.2,-3.4 9,0.2 1.6,0.4 3.2,0.9 4.8,1.3 0.7,-3.1 0.4,-5.7 -1.4,-8.3 -0.9,-1.4 -3.5,-1.9 -4.3,0 -1.1,2.6 -2,5.1 -2.7,7.9 1.5,-0.2 3,-0.4 4.6,-0.6 -1,-2 -2.3,-3.4 -4.3,-4.4 -1.5,-0.7 -3.1,-0.1 -3.7,1.5 -0.4,1.3 -0.9,2.6 -1.3,4 1.4,-0.4 2.8,-0.7 4.2,-1.1 -1.4,-1.7 -2.8,-2.8 -4.7,-3.8 -1.5,-0.8 -4,0.1 -3.8,2.2 0.1,0.9 0.2,1.9 0.3,2.8 1.4,-0.6 2.8,-1.2 4.3,-1.8 -1.1,-1 -2.1,-2.1 -3.2,-3.1 -1.8,-1.7 -4.9,0 -4.2,2.4 0.5,1.7 1.3,2.8 2.9,3.7 1,0.6 2.2,0.4 3,-0.4 1.1,-0.3 2.1,-0.6 3.2,-0.8 0.2,-1.6 0.4,-3.3 0.7,-4.9 -6.5,-0.3 -13,-0.5 -19.5,-0.8 -2.9,-0.1 -3.3,4.1 -0.7,4.9 3.8,1.2 7.6,2.3 11.4,3.4 0,-1.6 0,-3.2 0,-4.8 -9.8,1.9 -19.7,2.2 -29.5,0.7 -0.2,1.6 -0.4,3.3 -0.7,4.9 9,0.4 17.7,-0.9 26.2,-3.7 2.6,-0.9 2.2,-4.8 -0.7,-4.9 -9,-0.2 -17.9,-0.1 -26.9,0.3 -2.4,0.1 -3.5,3.4 -1.3,4.7 6.4,3.6 13.3,5.2 20.6,4.8 2.7,-0.2 3.5,-4.2 0.7,-4.9 -8.5,-2 -17.1,-3.4 -25.8,-4.1 -2.9,-0.2 -3.3,4.2 -0.7,4.9 6.9,1.9 13.9,2.7 21,2.3 3.2,-0.2 3.2,-4.9 0,-5 -12.3,-0.5 -24.3,-2.6 -36,-6 -0.4,1.6 -0.9,3.2 -1.3,4.8 9.6,2.1 18.9,4.9 28,8.7 0.2,-1.6 0.4,-3.3 0.7,-4.9 -15.3,0.6 -30.3,-2.2 -44.2,-8.4 -0.2,1.5 -0.4,3 -0.6,4.6 3.1,-0.6 6.4,1.1 9.4,1.9 2.4,0.6 4.8,1 7.3,1.3 4.5,0.6 9,0.6 13.6,0.2 3.2,-0.3 3.3,-4.9 0,-5 -11.2,-0.3 -21.9,-3.3 -31.7,-8.7 -1.3,-0.7 -3.4,-0.2 -3.7,1.5 -0.5,3.5 0.2,6.3 2.7,8.8 1.5,1.6 4.2,0.4 4.3,-1.8 0,-1.9 0,-3.9 0.1,-5.8 -1.7,0 -3.3,0 -5,0 0.4,3.4 0.1,6.3 -1.1,9.5 -1.2,3.1 3.6,4.4 4.8,1.4 z"
   id="path5" />
			</g>
		</g>
	</g>
	<path
   class="st4"
   d="m 416.5,173.8 c 0.6,-2.2 0.2,-4.7 -1.6,-6.8 -7.7,-9.2 -19.7,-7.9 -29.9,-4.4 -0.6,0.2 -1.1,0.3 -1.7,0.5 -11.9,0.3 -23.6,-1.2 -35.2,-4.6 -1.5,-0.4 -2.9,-0.4 -4.1,0 -1.2,-0.3 -2.4,-0.6 -3.6,-0.9 -6.5,-2.3 -13.1,-4.6 -19.6,-7 -1.1,-0.4 -2.2,-0.5 -3.2,-0.4 -0.2,-0.2 -0.5,-0.4 -0.7,-0.7 -2.7,-2.7 -6,-2.7 -8.5,-1.3 l 1.8,-14 -4.4,-35.6 H 189.5 c 0,0 -3.6,27.5 15.9,59.5 l 99.9,1 c 0.3,0.4 0.5,0.7 0.9,1.1 3.5,3.6 5.7,6.3 5.7,11.5 0,6 -0.3,12 -0.5,18 -0.1,5.2 0.2,10.5 5.2,13.5 4.4,2.6 10.7,2.7 15.6,2.9 1.3,0.1 2.5,-0.2 3.5,-0.8 5.4,0.2 10.8,0 16.2,-0.5 2.6,0.1 5.1,-0.2 7.8,-0.9 1.3,-0.4 2.4,-0.9 3.2,-1.7 1.4,-0.3 2.8,-0.8 4.2,-1.4 3.5,-0.8 6.9,-1.8 10.2,-3 1.9,-0.3 3.8,-0.9 5.6,-1.7 0.5,0 0.9,0 1.1,0 3.5,-0.2 6.6,-1.1 9.7,-2.8 3.7,-2.1 6.9,-4.3 10.3,-6.1 3.3,-1.1 6.5,-2.3 9.7,-3.8 4.3,-1.9 4.6,-6.2 2.8,-9.6 z"
   id="path6" />
	<path
   class="st4"
   d="m 204.6,138.3 c -8.2,-4.5 -18,3.3 -26.7,0.5 -4.2,-1.4 -7.8,-3.5 -12.3,-3.7 -4.5,-0.1 -8.9,1.5 -11.9,4.9 -0.9,1 -1.4,2 -1.7,3.1 -1.1,0.1 -2.2,0.1 -3.2,0 -2.6,-0.2 -5,1.4 -6.3,3.6 -0.2,0.1 -0.5,0.2 -0.7,0.3 -1,-0.2 -2.1,-0.2 -3.3,0 -9.8,2.1 -19.6,4.2 -29.5,6.1 -8.7,1.7 -17.4,3 -26,0 -7.5,-2.6 -12.2,7.7 -7.2,12.6 -0.1,1.1 0.2,2.6 0.5,3.7 0.2,0.8 0.4,1.6 0.7,2.3 -7.3,-0.4 -12.4,10.1 -4.6,13.7 24.7,11.4 50.9,18.6 78,21.1 11.6,1.1 26.8,3.5 34.7,-7.3 1.3,-1.8 2.3,-3.8 3,-5.8 0.5,-0.5 1,-0.9 1.5,-1.5 2.7,-3.1 2.6,-6.8 0.7,-9.5 0.2,-1.5 0.3,-3 0.5,-4.5 2,-2.4 1.9,-5.2 0.7,-7.4 0.1,-0.6 0.1,-1.3 0.2,-1.9 6.9,-0.4 14.1,-1.5 17.6,-8 3.2,-6.4 2.3,-18.4 -4.7,-22.3 z"
   id="path7" />
	<g
   id="g9">
		<g
   id="g8">
			<path
   class="st4"
   d="m 229.4,304.7 c -0.6,-3.7 -1.2,-7.5 -1.7,-11.2 -0.5,-2.9 -4.8,-2 -4.9,0.7 -0.1,2.7 -0.3,5.3 -0.4,8 1.1,-0.8 2.1,-1.6 3.2,-2.4 -1.7,-0.5 -1.1,-3.1 -1,-4.2 -1.6,-0.2 -3.3,-0.4 -4.9,-0.7 -0.1,2.2 -0.1,4.3 -0.2,6.5 1.6,-0.4 3.1,-0.8 4.7,-1.3 -1.2,-1.8 -1.4,-3.5 -0.7,-5.6 -1.5,0.2 -3,0.4 -4.6,0.6 1.2,2.2 2.2,4.4 2.9,6.8 0.7,2.1 3.4,2.4 4.6,0.6 1.5,-2.3 2.2,-4.8 2.2,-7.5 -1.6,0.4 -3.1,0.8 -4.7,1.3 1.2,1.8 2.2,3.6 2.9,5.7 0.9,2.8 4.6,2.1 4.9,-0.7 0.2,-2 0.4,-4 0.5,-6 -1.6,0.4 -3.1,0.8 -4.7,1.3 1.1,1.6 1.8,3.2 1.9,5.2 1.7,0 3.3,0 5,0 -0.2,-2.4 0,-4.4 0.8,-6.7 -1.5,0.2 -3,0.4 -4.6,0.6 1.1,1.8 1.4,3.6 1.2,5.7 1.7,0 3.3,0 5,0 0,-0.8 -0.3,-2.8 0,-3.4 -0.5,0.4 -1,0.8 -1.5,1.1 0.2,-0.1 0.3,-0.1 0.5,-0.2 -0.6,-0.1 -1.3,-0.2 -1.9,-0.3 0.1,0.1 0.3,0.2 0.4,0.2 -0.4,-0.5 -0.8,-1 -1.1,-1.5 0.5,1.3 0.1,3.6 0.1,5 0,3.2 4.9,3.2 5,0 0.1,-2.2 0.1,-4.4 0.2,-6.5 -1.6,0.2 -3.3,0.4 -4.9,0.7 0.2,1.1 1,4.5 0.3,5.7 0.5,-0.4 1,-0.8 1.5,-1.1 -2.1,0.6 -4.7,-0.8 -6.5,-1.9 -2.7,-1.8 -5.2,2.6 -2.5,4.3 2.6,1.7 7.9,4.1 10.9,2.1 2.9,-1.8 1.5,-7.7 1.1,-10.4 -0.5,-2.9 -4.8,-2.1 -4.9,0.7 -0.1,2.2 -0.1,4.4 -0.2,6.5 1.7,0 3.3,0 5,0 0,-2.5 1,-7.9 -2.8,-8.3 -4.1,-0.5 -3.7,4.8 -3.7,7.3 0,3.3 4.7,3.2 5,0 0.3,-3 -0.4,-5.6 -1.9,-8.2 -1.2,-1.9 -3.9,-1.4 -4.6,0.6 -0.9,2.6 -1.3,5.3 -1,8 0.3,3.2 5.2,3.2 5,0 -0.2,-2.8 -1,-5.4 -2.6,-7.7 -1.4,-2 -4.5,-1.3 -4.7,1.3 -0.1,2 -0.3,4 -0.5,6 1.6,-0.2 3.3,-0.4 4.9,-0.7 -0.8,-2.5 -1.9,-4.7 -3.4,-6.9 -1.4,-2 -4.6,-1.3 -4.7,1.3 -0.1,1.9 -0.6,3.4 -1.6,5 1.5,0.2 3,0.4 4.6,0.6 -0.9,-2.8 -2,-5.5 -3.4,-8 -1.1,-2 -3.9,-1.3 -4.6,0.6 -1.2,3.2 -0.7,6.6 1.2,9.5 1.4,2 4.6,1.3 4.7,-1.3 0.1,-2.2 0.1,-4.3 0.2,-6.5 0.1,-2.7 -4.5,-3.5 -4.9,-0.7 -0.7,4.3 -0.4,8.9 4.5,10.4 1.6,0.5 3.1,-0.8 3.2,-2.4 0.1,-2.7 0.3,-5.3 0.4,-8 -1.6,0.2 -3.3,0.4 -4.9,0.7 0.6,3.7 1.2,7.5 1.7,11.2 0.6,3 5.5,1.6 5,-1.5 z"
   id="path8" />
		</g>
	</g>
	<path
   class="st5"
   d="m 261.2,58.2 c 0,0 -6,-6.1 -8,-11.4 -2,-5.3 -3.2,-17.1 0.4,-18.1 3.6,-1 13.1,9.5 15.6,15 2.5,5.5 4.8,14.5 4.8,14.5 z"
   id="path9" />
	<polyline
   class="st6"
   points="263.6,57.5 261.2,52.4 263.5,53 263.4,49.7 265.7,52.6 267.1,49.2 268.5,54.3 269.2,57.5  "
   id="polyline9" />
	<path
   class="st7"
   d="m 309.8,126.1 c 0,0 6.1,-2.5 18.9,-4.1 27.8,-3.4 48.4,3.1 52.7,3.3 7.5,0.4 8.4,-9 2,-19.4 C 378.5,97.8 302,47 238,60.7 187.6,71.5 181.3,102 181.3,102"
   id="path10" />
	<path
   class="st8"
   d="m 187.3,263.2 c 0,0.1 0.1,0.2 0.2,0.2 2.9,2.8 41.8,11.9 63.2,11.9 21.7,0 42.5,-2.4 47.3,-6 4.3,-3.2 4.3,-19 6.7,-26.7 2.3,-7.7 15,-35 13.3,-52.7 -1.7,-17.7 -8.7,-37.3 -9.3,-42.7 -0.5,-4.3 3.7,-15.4 5.5,-19.8 0.3,-0.8 -0.1,-1.5 -1,-1.4 -3.2,0.1 -4.2,0.1 -5.1,0.6 -0.3,0.2 -1.6,1.5 -1.8,1.8 -1.3,2.1 -7.3,11.1 -10.5,12.6 -3.6,1.7 -32.1,2.5 -34.4,0.8 -2.3,-1.7 -4.2,-22 -8.6,-22.7 -4.4,-0.7 -70.1,-14 -71.4,-17.3 -0.7,-1.8 -0.5,-3.3 -0.1,-4.2 0.2,-0.6 -0.2,-1.3 -0.9,-1.4 -2,-0.2 -5.4,-0.3 -7.3,1.1 -2.8,2.1 2.3,20.9 -3.8,27.6 -2.6,2.8 -10.1,5.9 -13.8,8.4 -1.1,0.7 -2.9,5.4 -1.7,5.9 8,3.1 30.6,12.4 29,37.3 -2,30.3 -17.3,31.8 -23.5,31.1 -0.9,-0.1 -1.5,0.9 -1,1.7 3.7,5 12.6,17.3 15.6,25.3 4.2,11.2 12.5,27 13.4,28.6 z"
   id="path11" />
	<path
   class="st7"
   d="m 399.3,158.8 c 0,0 1.6,-4.9 4.8,-10.8 2.7,-5 9,-10.2 11.9,-11.8 2.3,-1.3 3.9,3.9 2.1,7.9 -1.6,3.7 -5,6.9 -1,9.3 2.6,1.6 8.9,-4.1 14,-6.4 8.1,-3.7 16.8,-2.2 19,0 2.3,2.2 -2.9,5.2 -8.5,8 -4.6,2.3 -9.3,2.6 -7.5,5.5 1.8,3 7,0 10.8,-0.8 3.8,-0.8 15.3,-1.5 17.3,2.1 2,3.7 -8.5,9.2 -14.5,10.9 -3.1,0.8 -9.5,1.3 -9.5,3.3 0,2 4.7,1.9 9.4,3 4.5,1 10.1,2.5 8.1,4.7 -2,2.2 -16.9,7.2 -31.3,5.7 -5.3,-0.6 -20.1,-2.6 -20.1,-2.6"
   id="path12" />
	<path
   class="st9"
   d="m 161.7,214.1 c 15.6,0 22,-9.9 26.6,-25.3 7.3,-24.3 -7.9,-50.3 -32.1,-55.5"
   id="path13" />
	<path
   class="st9"
   d="m 73,187.5 c 14.5,5.8 22.3,7.8 37.3,11.8 22.8,6 38.6,7.2 59.7,6.5"
   id="path14" />
	<path
   class="st9"
   d="m 79.7,153.3 c 13.3,1.4 23.2,0.4 47,-4.5 10.9,-2.3 23,-5.4 28,-8.5"
   id="path15" />
	<line
   class="st9"
   x1="199.10001"
   y1="276.79999"
   x2="198.2"
   y2="267.20001"
   id="line15" />
	<line
   class="st9"
   x1="293.60001"
   y1="280.29999"
   x2="293.5"
   y2="271.29999"
   id="line16" />
	<path
   class="st9"
   d="m 308.5,144.8 c 10.9,5 25.9,10.2 48,15 18.8,4.1 31.5,2.1 42.8,-1"
   id="path16" />
	<path
   class="st9"
   d="m 317,203.8 c 9.2,2.8 26.5,5.1 48,-1 20,-5.7 31.2,-10.3 39,-16"
   id="path17" />
	<path
   class="st9"
   d="m 169.3,125.1 c 22.5,13.3 41,25.7 99.3,29.7 17,1.2 28.4,-1.9 41,-5.5"
   id="path18" />
	<path
   class="st10"
   d="m 399.3,158.8 c 3.4,1.2 5.9,3.3 6.8,11.9 0.9,8.3 -0.9,12.7 -2.1,16.1"
   id="path19" />
	<path
   class="st10"
   d="m 257,123.6 c 9,-2.1 27,-3.5 39.9,-4.5 15.3,-1.3 44.5,0.4 55,1.9"
   id="path20" />
	<path
   class="st8"
   d="m 296.8,301.2 c 7.2,4.9 -16,67.4 -24.3,75.6 -5.6,5.5 -17.6,2.8 -18.3,-3.6 -0.5,-4.8 2.7,-19.1 4.9,-33 2.9,-18.4 0.7,-32.5 2.9,-36.4 2.2,-3.9 30,-6 34.8,-2.6 z"
   id="path21" />
	<path
   class="st7"
   d="m 269.2,293.8 v 1.8 c 0,0 0,0.1 0,0.1 0,0.6 0,4.9 0.3,6.8 0.1,0.6 0.5,1.2 1.1,1.4 2.1,0.7 6.5,0.7 8.8,0.7 2.7,0 5.6,-0.7 5.6,-0.7 1.7,-0.7 2.7,-1.4 2.7,-2.9 v -6 c 0,-2.6 -2.1,-4.6 -4.6,-4.6 h -11 c -1.7,0.2 -3,1.7 -2.9,3.4 z"
   id="path22" />
	<path
   class="st11"
   d="m 314.3,372 c 0.3,38.8 -17.4,64.3 -56,64.3 -45.4,0 -59.3,-38.3 -57.6,-71.1 1.8,-34.4 14.1,-57.5 57.6,-57.5 47.9,0 55.8,37.7 56,64.3 z"
   id="path23" />
	<path
   class="st7"
   d="m 216.8,371.9 c 0.3,-24.6 10,-39.6 25.1,-39.6 15.1,0 27.4,9.4 27.4,39.5 0,31 -13.1,40.9 -28.4,38.5 -14.2,-2.2 -24.4,-18 -24.1,-38.4 z"
   id="path24" />
	<path
   class="st8"
   d="m 210.7,304 c -7.4,5.1 16.5,69.5 25.1,78 5.8,5.7 18.2,2.9 18.9,-3.7 0.6,-4.9 -2.8,-19.7 -5,-34.1 -3,-19 -0.7,-33.5 -3,-37.5 -2.3,-4 -31,-6.2 -36,-2.7 z"
   id="path25" />
	<path
   class="st12"
   d="m 257.5,129.3 c 8.7,2 17.5,2 26.8,2 10.5,0 16.5,-1.1 20.5,-2.5"
   id="path26" />
	<path
   class="st12"
   d="m 259.8,135.5 c 7.5,2 15.2,2 23.2,2 8.7,0 14.7,-1.2 17.8,-2.5"
   id="path27" />
	<path
   class="st2"
   d="m 273.2,58.4 c -13.4,-0.3 -31.6,11.4 -31.6,23.3 0,8.1 18.1,37.2 35.7,39.7"
   id="path28" />
	<circle
   class="st2"
   cx="248.10001"
   cy="82.199997"
   r="1.5"
   id="circle28" />
	<path
   class="st2"
   d="m 220.5,65.8 c -5.5,2.3 -11.8,16.5 -11.8,21.9 0,9.8 25.7,27.6 27,28"
   id="path29" />
	<circle
   class="st2"
   cx="215"
   cy="87.900002"
   r="1.5"
   id="circle29" />
	<path
   class="st13"
   d="m 198.6,288.3 c -3.1,-3.5 -4.6,-9.2 -1.9,-11.3 2.3,-1.8 21,5.1 53.8,5.7 33.8,0.6 45.7,-4.9 47.5,-2.3 2.4,3.4 0.7,8.9 -2.6,11.6 -2.9,2.4 -20.3,3.5 -44.4,3.6 -22,0.1 -49.7,-4.2 -52.4,-7.3 z"
   id="path30" />
	<path
   class="st12"
   d="m 330.5,153.5 c 6.2,1.6 9.9,13.7 9.9,22.3 -0.1,19.6 -5.2,26.9 -9.9,30.9"
   id="path31" />
	<path
   class="st12"
   d="m 353.8,159.8 c 6.2,1.4 9.9,11.9 9.9,19.4 -0.1,17.1 -5.2,23.3 -9.9,26.8"
   id="path32" />
	<path
   class="st12"
   d="m 373.5,162 c 6.2,1.1 9.9,9.9 9.9,16.1 -0.1,14.2 -5.2,19.4 -9.9,22.3"
   id="path33" />
	<path
   class="st12"
   d="m 392.7,160.6 c 4.1,1 6.6,8.4 6.6,13.6 0,12 -3.5,16.4 -6.6,18.9"
   id="path34" />
	<path
   class="st12"
   d="m 166,220.5 c 2.6,1.6 21.2,6.4 29.3,11 11,6.3 18.4,13.9 20,15.6 3.9,4.2 3.6,7.5 8,17.3 2.9,6.5 4,6.9 7.2,8.6"
   id="path35" />
	<path
   class="st12"
   d="m 215.3,247.1 c 13.7,6.6 31.1,8.4 58.1,7.6 14.4,-0.5 26.3,-4.5 30.2,-12"
   id="path36" />
	<path
   class="st14"
   d="m 183.5,225.3 4.8,-8 c 0.5,-0.7 1.4,-0.9 2.1,-0.5 l 21.9,10.7 c 0.7,0.4 0.9,1.4 0.5,2.1 l -5.2,9"
   id="path37" />
	<path
   class="st12"
   d="m 195.3,80.7 c -0.9,2.4 -8.8,9.6 -3.8,16.6 3.6,5.1 11.1,10.4 13.5,11.8"
   id="path38" />
	<circle
   transform="matrix(0.7606,-0.6492,0.6492,0.7606,-14.0942,149.6936)"
   class="st2"
   cx="195.89999"
   cy="94"
   id="ellipse38"
   r="1.5" />
	<path
   class="st2"
   d="m 140,144.8 c 2.6,2.3 16.5,4.3 16.5,31.5 0,16.5 -6.8,25.1 -9.5,29"
   id="path39" />
	<path
   class="st2"
   d="m 117.2,151 c 2.1,1.9 13.6,3.6 13.6,26.2 0,13.7 -5.6,20.8 -7.8,24.1"
   id="path40" />
	<path
   class="st2"
   d="m 101.4,153.1 c 1.1,1.8 7.9,3.9 6,23.3 -1.2,11.7 -5.1,17.6 -6.7,20.2"
   id="path41" />
	<path
   class="st2"
   d="m 84.8,153 c 1.1,1.7 8.4,4.1 5.6,21.4 -1.7,10.5 -6.2,15.4 -8,17.6"
   id="path42" />
	<path
   class="st7"
   d="m 76.4,185.8 c 0,0 -9.4,3.5 -26.8,6.2 -10.3,1.6 -20.3,0.7 -21.4,-2.4 -1.1,-3.2 4.5,-7.6 7.4,-8.1 4.8,-0.8 12,-3.5 11.7,-5.4 -0.3,-1.9 -9.9,0 -14.8,-1.2 -2.5,-0.6 -14.4,-4 -14.4,-9.1 0,-2 7.5,-5.5 10.8,-5.3 3.3,0.2 17.7,3.4 18.2,1.6 0.5,-1.8 -10,-6.6 -12.5,-8.5 -6.8,-5.1 -9.3,-11.8 -7,-13.1 2.3,-1.3 9.3,-0.7 14.2,2.8 3.2,2.3 9.4,8.4 13.8,7.8 7,-0.9 0.1,-4.2 -1.4,-8.3 -2.3,-6.3 -3.2,-11.5 -1.2,-11.7 2,-0.2 14.8,8.1 17.8,11 4.4,4.4 10.9,13.3 10.9,13.3"
   id="path43" />
	<line
   class="st15"
   x1="205"
   y1="109.2"
   x2="205"
   y2="143.3"
   id="line43" />
	<line
   class="st15"
   x1="206.89999"
   y1="109"
   x2="206.89999"
   y2="143.2"
   id="line44" />
	<ellipse
   class="st5"
   cx="63"
   cy="170.39999"
   rx="5"
   ry="10.5"
   id="ellipse44" />
	<path
   class="st12"
   d="M 52.1,191.8 C 47.3,181 48.1,174.4 48,169 c -0.2,-11.1 0.9,-16 3.9,-18.8"
   id="path44" />
	<path
   class="st2"
   d="m 58,149.1 c 5,2.3 3.1,2 10.8,3.5 6.3,1.2 9.8,-1.7 9.8,-1.7"
   id="path45" />
	<path
   class="st2"
   d="m 61.3,189.8 c 10.2,13.5 15.1,30.5 50.4,52.8 32,20.3 65.6,17.9 73.2,17.9"
   id="path46" />
	<path
   class="st16"
   d="m 233.6,168.1 43.3,5.1 c 0.9,0.3 1.9,0.2 2.8,-0.2 l 23.8,-5.3 c 2.5,-1.2 5.3,0.4 5.7,3.1 l 2.5,19 c 0.2,1.3 -0.3,2.5 -1.2,3.4 l -16,15.8 c -0.6,0.6 -1,1.3 -1.1,2.1 l -4.8,23.6 c -0.4,1.8 -1.9,3.1 -3.8,3.2 l -22.1,0.8 c -1.7,0.1 -3.2,-0.9 -3.9,-2.5 l -3.4,-27.7 c -0.3,-0.7 -0.7,-1.2 -1.3,-1.7 L 228.3,195 c -1.1,-0.8 -1.7,-2.2 -1.5,-3.6 l 1.8,-19.8 c 0.2,-2.4 2.6,-4.1 5,-3.5 z"
   id="path47" />
	<circle
   class="st7"
   cx="276.39999"
   cy="193.7"
   r="26.799999"
   id="circle47" />
	<circle
   class="st17"
   cx="277"
   cy="193.2"
   r="19.9"
   id="circle48" />
	<line
   class="st10"
   x1="218.3"
   y1="302.29999"
   x2="217.2"
   y2="293.10001"
   id="line48" />
	<line
   class="st10"
   x1="239.39999"
   y1="295.29999"
   x2="239.39999"
   y2="303.79999"
   id="line49" />
	<g
   id="g50">
		<path
   class="st5"
   d="m 193.4,37.3 c -4,3.5 4,15.9 9,21.6 5,5.7 22.6,15.6 24.7,15.8 2,0.2 3.1,0.1 6.5,-3.4 3.4,-3.5 -6.7,-14.9 -16,-24.1 -5.9,-5.8 -20.9,-12.9 -24.2,-9.9 z"
   id="path49" />
		<polyline
   class="st6"
   points="219.8,67.5 212.7,62.5 216.3,61.7 213.7,57.3 218.9,59.6 218.2,54 223.8,59.6 227.2,63.3   "
   id="polyline49" />
		<path
   class="st18"
   d="m 228.5,57.7 c -2.3,6 -6.9,10.6 -12.6,13.3 5.2,3.5 10.1,6.2 11.1,6.3 2.1,0.1 3.2,-0.1 6.8,-4.3 2.2,-2.7 -0.7,-8.7 -5.3,-15.3 z"
   id="path50" />
	</g>
	<g
   id="g51">
		<path
   d="m 253,312.3 c 2,0.3 3.9,0.8 5.8,1.4 1.9,0.6 3.7,1.4 5.5,2.4 1.8,0.9 3.4,2 5,3.3 1.6,1.2 3.1,2.6 4.4,4 1.4,1.5 2.6,3.1 3.7,4.7 1.1,1.7 2.1,3.4 2.8,5.3 1.6,3.7 2.6,7.6 2.8,11.5 -0.3,-1.9 -0.8,-3.9 -1.4,-5.7 -0.6,-1.9 -1.3,-3.7 -2.1,-5.5 -1.7,-3.5 -3.8,-6.8 -6.5,-9.6 -2.6,-2.9 -5.7,-5.3 -9.1,-7.3 -3.4,-2 -7.1,-3.5 -10.9,-4.5 z"
   id="path51" />
	</g>
	<path
   class="st10"
   d="m 80.6,153.5 c 1.5,5.4 2.5,9 1.1,17.5 -1.5,9.3 -3.5,11.9 -6.8,17.1"
   id="path52" />
	<path
   class="st7"
   d="m 240.4,378.1 c -4,1.1 -18.5,-4.6 -18.9,-6.3 -0.4,-1.8 14.3,-4.4 18.9,-2.7 4.6,1.7 4.3,7.9 0,9 z"
   id="path53" />
	<line
   class="st14"
   x1="304.39999"
   y1="330.60001"
   x2="285.5"
   y2="330.60001"
   id="line53" />
	<line
   class="st14"
   x1="307.60001"
   y1="339.60001"
   x2="287.70001"
   y2="339.60001"
   id="line54" />
	<line
   class="st14"
   x1="297.10001"
   y1="322.60001"
   x2="278.20001"
   y2="322.60001"
   id="line55" />
	<line
   class="st14"
   x1="289.60001"
   y1="316.60001"
   x2="270.70001"
   y2="316.60001"
   id="line56" />
	<line
   class="st14"
   x1="283.60001"
   y1="311.60001"
   x2="264.70001"
   y2="311.60001"
   id="line57" />
	<ellipse
   transform="matrix(0.992,-0.126,0.126,0.992,-18.1657,54.2735)"
   class="st5"
   cx="420.10001"
   cy="170.8"
   rx="4.6999998"
   ry="10.1"
   id="ellipse57" />
	<path
   class="st2"
   d="m 401.1,154.1 c 1.7,1.3 4.8,1 7,0.9 4.2,-0.1 6,-1.8 7,-4.3"
   id="path57" />
	<path
   class="st12"
   d="m 424.1,152 c 2.6,1.4 5.9,0.7 10.2,12.3 5.8,15.5 1,24 0,25.6"
   id="path58" />
	<path
   class="st9"
   d="m 276.2,87.6 c -1.2,-5.1 1.5,-10.2 6.8,-12.9 8.1,-4 17.2,3.4 16.1,8.8"
   id="path59" />
</g>
<g
   id="Layer_4"
   transform="translate(-16.6,-27.619517)">
	<path
   class="st19"
   d="m 250.7,62.4 c -3.3,1 -15.5,10.4 -20.2,29.8 -5.4,22 8.9,25 8.9,25 l -54.5,-13.4 c 0,0 -3,0.7 -3.5,-1.8 -0.5,-2.4 11.1,-20.5 17.7,-24.8 6.6,-4.3 13.7,-8.1 13.7,-8.1 l 5,0.9 4.5,-3.3 c 0,0 2.7,1.8 4.4,2.9 1.7,1.1 7.1,3.3 7.1,3.3 l 0.5,-4.5 -1.4,-3.9 c 0,0 5.5,-2 13.8,-2.8 11.5,-1.1 7.3,-0.2 4,0.7 z"
   id="path60" />
	<path
   class="st19"
   d="m 160.3,142.2 c -6.5,-2.8 -7.3,-1.5 -7.3,-1.5 l -4.4,2.4 c 0,0 19,1 24.4,25 0.8,3.6 1.3,6.9 1.6,9.8 -9.8,1.4 -26.5,3.4 -38.3,3 -17.7,-0.6 -56.7,-8.1 -56.7,-8.1 l -9.7,0.5 c 0,0 -1.4,8.8 -5.4,9.4 -4.8,0.8 -7.5,-2.4 -7.9,-8.4 -0.1,-1 -2.5,-0.1 -4.1,-1.2 -5.7,-3.9 -4.6,-4.2 -4.6,-4.2 0,0 -6,0.7 -12.5,0 -3,-0.3 -8.9,-5.3 -8.9,-5.3 l -8.3,2.1 c 0,0 8.6,5.9 15.1,6.7 7.2,0.9 14.7,0.7 14.7,0.7 0,0 2,6.8 -5.9,9.7 -1.6,0.6 -13,2 -13.7,4.6 -0.8,3.2 10.7,2.6 13.3,2.4 12.4,-0.9 35.7,-7.1 35.7,-7.1 v 2 c 0,0 27.4,9.6 37.1,11.9 8.9,2.1 41.9,6.5 53,6.5 -2.4,2.2 -4.5,2.8 -4.5,2.8 l 7,-0.2 c 0,0 1.6,-1.2 3.7,-3.7 2.5,-1.1 3,-3.1 4.4,-6.6 2.4,-4.6 4.5,-10.8 4.7,-18.7 0.7,-24.4 -15.7,-31.6 -22.5,-34.5 z"
   id="path61" />
	<path
   class="st19"
   d="m 247.8,274.8 c 0,0 -3.7,-0.9 -5.8,-4.7 -3.2,-5.8 -5.3,-15.5 -5.4,-16.8 -0.3,-2.3 -30.9,-28.4 -36,-47.9 -4.9,-18.9 12.9,-60.5 12.9,-60.5 l 1.7,-27 c 0.1,-0.9 -0.6,-1.8 -1.5,-2 -3.1,-0.7 -10.2,-2.2 -15,-3.2 -6.4,-1.4 -3.3,-5.8 -3.3,-5.8 0,0 0,0 -10.5,-3 -9.4,-2.7 -1.4,-7.9 -1.4,-7.9 L 173,97.5 c 0,0 4.7,32.6 -13.2,33.5 -5.2,0.3 -7.2,6.1 -5.2,9.1 2,3.1 5.8,2.1 5.8,2.1 0,0 40.3,10.1 21,54.2 -4.9,11.3 -29.5,12.4 -22.4,13.9 13.2,2.8 13.2,14.5 22.4,32.6 9.2,18.1 8.7,21.8 8.7,21.8 l 27.7,7.3 z"
   id="path62" />
	<path
   class="st20"
   d="M 255.9,282.8 225.2,281 198.4,276.8 V 269 l 26.9,5 39.4,1.5 c 0,0 -4.8,2.3 -6.9,4.1 -2,1.7 -1.9,3.2 -1.9,3.2 z"
   id="path63" />
	<path
   class="st19"
   d="m 254.9,293.8 c 0,0.8 -0.5,1.5 -1.2,1.5 -6.7,-0.3 -38.6,-1.6 -28.4,-0.3 10.7,1.3 -21,-5.1 -24.7,-5.8 -0.2,0 -0.4,-0.2 -0.6,-0.4 -0.8,-0.9 -3.2,-3.9 -3.9,-6.7 -1.2,-5 1.6,-5.6 2.3,-5.7 0.1,0 0.2,0 0.3,0 l 26.1,4.4 c 0.2,0 0.3,0.2 0.5,0.2 11.4,1.1 7.5,3.3 14.2,4.4 6.4,1.1 11.2,1.5 14.4,1.4 0.7,0 1.2,0.7 1.2,1.5 v 5.5 z"
   id="path64" />
	<path
   class="st19"
   d="m 316.1,177.1 c -0.1,-0.6 0.6,-1.1 1.1,-0.7 3.2,2.6 11.4,8 23.2,8.9 27.4,2.1 65.9,-11.6 65.9,-11.6 l 5.6,-1.2 c 0.3,-0.1 0.7,0.1 0.8,0.5 0.7,2.3 3.3,10.5 8.2,10.5 6.6,0 7.5,-8.5 7.6,-10.7 0,-0.3 1.1,-3.4 1.4,-3.5 1.7,-0.5 6.6,-1.1 11.6,-1.8 5.1,-0.7 11.9,-3.9 14.8,-5.7 0.4,-0.2 4.4,-0.9 4.5,-0.4 0.3,1.8 2.7,1.1 -2.7,4.4 -5.1,3.1 -13.1,5.4 -20.1,6.5 -0.6,0.1 0.4,4.1 1,4.3 5.1,1.6 14.2,4.8 11.9,6.2 -2.9,1.7 -2.3,1.2 -9.3,2.9 -10,2.3 -32.1,-1.3 -34.7,-1.5 0,0 -2.9,0.6 -3,0.7 -2.5,1.3 -29.9,14.1 -48.8,17 -12.1,1.9 -33.7,-1.3 -37.4,-2 -0.3,-0.1 -0.6,-0.4 -0.6,-0.7 0.2,-2.1 0.7,-4.9 0.9,-8.9 0.2,-3.4 -1.2,-9.9 -1.9,-13.2 z"
   id="path65" />
	<path
   class="st19"
   d="m 261.3,142 c -7.3,-3.8 -4.3,-18.4 -4.3,-18.4 0,0 41.5,-5 50.6,-5 9.1,0.1 32.8,1.2 32.8,1.2 0,0 -23,3.9 -27.6,5.3 -4.6,1.4 -14,15.4 -17,16.1 -3.1,0.6 -34.5,0.8 -34.5,0.8 z"
   id="path66" />
	<path
   class="st19"
   d="m 284.5,234.8 c -3,0 -19.8,2.1 -22.2,0 -1.4,-1.2 -2.1,-7 -2.4,-11.8 15.4,6 32.4,-6.4 32.4,-6.4 0,0 -18.8,13.4 -34.7,-4.6 -20.9,-23.6 5.2,-42.4 5.2,-42.4 0,0 -23.8,8.4 -21.1,28.4 -5,-1.1 -10.6,-3.2 -12.2,-6 -1.3,-4.6 1.8,-22.9 3.5,-24 1.7,-1.1 -3,-2.2 -6.2,1.6 -3.2,3.8 -4.9,23.6 -3.2,25.7 1.2,1.5 12.9,7.1 20.3,10.5 0.6,1.3 1.3,2.7 2.1,4.1 2.7,4.7 5.7,8 8.9,10.3 l 1.6,15.5 c 0,0 -0.4,4.2 3.1,4.8 3.5,0.6 23.8,1 26.5,-1 2.7,-2 3,-7.2 3,-7.2 0,0 -1.7,2.5 -4.6,2.5 z"
   id="path67" />
	<polygon
   class="st19"
   points="235.8,295.7 235.8,303.8 217.7,302.3 217.3,293.7 "
   id="polygon67" />
	<polygon
   class="st19"
   points="283,304.7 283,294.6 269.2,294.8 270.7,304 "
   id="polygon68" />
	<path
   class="st19"
   d="m 221.1,302.3 c 0,0 -0.1,0 -0.1,0 -0.9,-0.2 -14.1,-4.6 -5.6,22.1 2.8,8.9 14.8,40.2 16.3,43.9 0.1,0.2 0.3,0.4 0.5,0.4 l 10.3,0.5 c 0.5,0 -0.2,-0.5 -0.5,-0.9 -1.8,-2.9 -5.8,-12.3 -8.2,-30.8 -1.7,-13.1 -0.6,-20.7 0.7,-24.7 0.8,-2.4 -0.4,-5 -2.8,-6 z"
   id="path68" />
	<path
   class="st19"
   d="m 221.5,371.8 c 0,0 6.7,1.2 12.3,1.9 5.6,0.7 9.2,-0.3 9.2,-0.3 v 4.9 l -6.4,1.5 z"
   id="path69" />
	<path
   class="st19"
   d="m 244.6,375.8 c 0,0 -0.6,0.7 0.9,4.7 1.5,4 6.4,2.9 6.4,2.9 l -9.6,1.8 -7.1,-1.6 -1.4,-3.8 z"
   id="path70" />
	<path
   class="st19"
   d="m 246.6,430.8 c -20.1,-4 -37.4,-23.8 -39.1,-48 -1.2,-17.1 2.3,-32.6 4.3,-39.4 l 8.6,20 c -1.2,5.6 -1.7,14.5 2.4,26.4 8.3,23.6 30.2,16 30.2,16 0,0 -6.3,-2 -10,-8.5 -1.6,-2.7 -2.4,-5.4 -2.9,-7.6 1,0.4 2.2,0.6 3.6,0.6 9.3,0 11.2,-10.6 11.2,-10.6 0,0 -3.1,3.6 -7.7,5.3 -4.6,1.7 -13.4,-5.3 -13.4,-5.3 l -12.3,-7.9 7.2,-3.6 -3.6,-8.5 -12.6,-33.1 -5,6.8 c -5,6.8 -9.3,37.6 -3.5,62.1 5.8,24.5 30,39.3 47.3,40.8 17.3,1.5 38.3,-7.8 38.3,-7.8 0,0 -17.5,7.3 -43,2.3 z"
   id="path71" />
	<path
   class="st19"
   d="m 260.9,307.7 1.1,-3.9 7.3,-2.8 1.4,3.1 12.3,0.7 -2.8,6.9 c 0,0 -2.6,-2.5 -10.9,-3.3 z"
   id="path72" />
</g>
<g
   id="Layer_6"
   transform="translate(-16.6,-27.619517)">
	<path
   class="st21"
   d="m 310.2,155.9 2,7.4 c 0,0 7.1,4.9 28,11.1 28.8,8.4 66.1,-4.1 66.1,-4.1 l -2.1,-5.6 c 0,0 -33.7,7.5 -50.5,4.5 -16.8,-3 -43.5,-13.3 -43.5,-13.3 z"
   id="path73" />
	<path
   class="st21"
   d="m 358,91.9 c 0,0 -25.7,-11.7 -46.2,-18.5 -32.4,-10.7 -53,-3.6 -50.6,-7.5 4,-6.4 41,-2.7 78.5,16.7 17.7,9.1 18.3,9.3 18.3,9.3 z"
   id="path74" />
	<path
   class="st21"
   d="m 86.7,158.8 v 6.5 c 0,0 23.6,2.1 39.6,1.4 16,-0.7 24.9,-4 24.9,-4 0,0 0,-2.8 -2.4,-7.3 -1.4,-2.5 -4.9,-4.3 -4.9,-4.3 0,0 -7.9,4 -24.5,6 -21.5,2.7 -32.7,1.7 -32.7,1.7 z"
   id="path75" />
	<path
   class="st21"
   d="m 297.1,171.4 7.3,-2.1 c 1.2,-0.3 2.3,0.5 2.6,1.7 l 1.3,13 -2.8,-12.1 c -0.2,-0.4 -0.6,-0.7 -1,-0.9 z"
   id="path76" />
	<path
   class="st21"
   d="m 251.8,338.3 c -1.8,-1.7 7,2.6 11.2,14 6.1,16.3 0.8,37.8 0.8,37.8 0,0 2.9,-15.6 -2.3,-34.5 -2.6,-9.8 -9.7,-17.3 -9.7,-17.3 z"
   id="path77" />
	<ellipse
   transform="matrix(0.5699,-0.8217,0.8217,0.5699,50.9694,190.0369)"
   class="st22"
   cx="207"
   cy="46.299999"
   rx="2.9000001"
   ry="6"
   id="ellipse77" />
</g>
<g
   id="Layer_5"
   transform="translate(-16.6,-27.619517)">
	<path
   class="st23"
   d="m 277.2,175.1 c -8.3,0 -15.3,5.7 -17.3,13.5 3,-2.3 6.8,-3.7 10.9,-3.7 9.9,0 17.9,8 17.9,17.9 0,1.5 -0.2,3 -0.6,4.5 4.3,-3.3 7,-8.4 7,-14.2 0,-10 -8,-18 -17.9,-18 z m 9.7,6.9 c -0.8,1.2 -3.2,1 -5.3,-0.5 -2.2,-1.4 -3.3,-3.5 -2.6,-4.7 0.8,-1.2 3.2,-1 5.3,0.5 2.2,1.4 3.4,3.5 2.6,4.7 z"
   id="path78" />
</g>
</svg>
