<?xml version="1.0" encoding="UTF-8" standalone="no"?>
<!-- Generator: Adobe Illustrator 21.1.0, SVG Export Plug-In . SVG Version: 6.00 Build 0)  -->

<svg
   version="1.1"
   id="Layer_1"
   x="0px"
   y="0px"
   viewBox="0 0 401.1045 566.0047"
   xml:space="preserve"
   sodipodi:docname="dino.svg"
   width="401.10452"
   height="566.0047"
   inkscape:version="1.3.2 (091e20e, 2023-11-25)"
   xmlns:inkscape="http://www.inkscape.org/namespaces/inkscape"
   xmlns:sodipodi="http://sodipodi.sourceforge.net/DTD/sodipodi-0.dtd"
   xmlns="http://www.w3.org/2000/svg"
   xmlns:svg="http://www.w3.org/2000/svg"><defs
   id="defs57" /><sodipodi:namedview
   id="namedview57"
   pagecolor="#ffffff"
   bordercolor="#111111"
   borderopacity="1"
   inkscape:showpageshadow="0"
   inkscape:pageopacity="0"
   inkscape:pagecheckerboard="1"
   inkscape:deskcolor="#d1d1d1"
   inkscape:zoom="0.32395333"
   inkscape:cx="197.55932"
   inkscape:cy="265.47034"
   inkscape:window-width="1312"
   inkscape:window-height="449"
   inkscape:window-x="0"
   inkscape:window-y="25"
   inkscape:window-maximized="0"
   inkscape:current-layer="Layer_1" />
<style
   type="text/css"
   id="style1">
	.st0{fill:#E8E7CA;}
	.st1{fill:#433643;}
	.st2{fill:#82C457;}
	.st3{fill:#3770B7;}
	.st4{fill:#3EAB5F;}
	.st5{fill:#A7A9AC;}
	.st6{fill:#F58862;}
	.st7{fill:#EBF1F4;}
	.st8{opacity:0.3;fill:#FFFFFF;}
	.st9{fill:#E51E25;}
	.st10{fill:none;stroke:#FFFFFF;stroke-width:2;stroke-linecap:round;stroke-linejoin:round;stroke-miterlimit:10;}
	.st11{fill:#010101;}
	.st12{opacity:0.4;fill:#55285B;}
	.st13{opacity:0.31;fill:#3F5C7E;}
</style>
<path
   class="st0"
   d="m 49.100708,309.20472 c 0,0 -19.4,4.8 -20.7,8.7 -1.3,3.9 -4.7,69.5 -4.2,85.8 0.5,16.3 -3.1,53.5 2.3,58.3 5.4,4.7 34.5,22.7 34.5,22.7 0,0 -21.8,7.9 -23.9,18.7 -3.6,18.5 28.5,59 89.100002,59 68.3,0 102.3,-14.3 109.2,-26.5 6.9,-12.2 6.9,-12.2 6.9,-12.2 0,0 72.2,-14.5 77.7,-20.3 5.5,-5.9 -0.5,-37.9 -0.5,-37.9 l -11.8,-110.9 -214.400002,-52.8 z"
   id="path1" />
<path
   class="st0"
   d="m 170.50071,266.40472 142.4,-115.5 49.7,41.1 c 0,0 15,9.7 14.5,17.5 -0.6,7.8 -118.9,121 -128.8,118.9 -9.9,-2.1 -57,-43.3 -57,-43.3 z"
   id="path2" />
<path
   class="st1"
   d="m 148.10071,367.10472 c 13.2,-15.4 136.8,-23.9 136.8,-23.9 l 15.5,136.4 c -6.5,6.2 -139.6,32.3 -139.6,32.3 -8,-10 -12.7,-144.8 -12.7,-144.8 z"
   id="path3" />
<path
   class="st2"
   d="m 98.200708,82.204716 c 0,0 5.800002,-10.3 17.000002,-20.7 11.2,-10.4 32.5,-20 32.5,-20 0,0 28.8,-14.3 58.3,-14.6 47.8,-0.5 86.4,29.6 91.7,51.9 5.4,22.300004 3.9,19.5 3.9,19.5 l -18.7,-4.7 c 0,0 1.8,7.600004 -4.8,9.800004 -6.6,2.2 -39.8,9 -39.8,9 l -4.5,7.8 -1.8,10 c 0,0 -10.7,9.8 -25.7,10.4 -15.1,0.6 -27.6,-0.9 -27.6,-0.9 l -16,-21.9 -24.2,-9 -18.2,4.4 c 0,0 -8.6,-3.8 -16.6,-11.5 -8.000002,-7.700004 -5.500002,-19.500004 -5.500002,-19.500004 z"
   id="path4" />
<path
   class="st2"
   d="m 257.10071,178.30472 c 0,0 -0.2,-19.6 6.5,-29.7 6.7,-10.1 19.8,-18.4 19.8,-18.4 l 69.1,7.5 c 0,0 2.3,-2.2 5.1,4.8 2.8,7.1 -5.1,11.7 -5.1,11.7 0,0 12.2,-5.2 15.5,0 3.3,5.2 -8.1,17.7 -8.1,17.7 0,0 2.3,-3.5 3.8,4.8 1.5,8.3 -5.7,11.1 -5.7,11.1 l -42.8,-28.4 -4.5,2 -48,33 z"
   id="path5" />
<path
   class="st2"
   d="m 126.10071,233.90472 c 0,0 3.4,-9.2 25.6,-19.9 22.1,-10.7 40.8,-10.7 40.8,-10.7 0,0 26,21.6 25.3,36.1 -0.3,6.2 -7.8,2.3 -7.8,2.3 0,0 13.2,14.7 9.6,23.9 -3.6,9.2 -19.4,8.8 -19.4,8.8 0,0 -6.5,13.3 -19.9,10.2 -13.4,-3.1 -26,-5.3 -36.9,-19.5 -12.1,-15.5 -17.3,-31.2 -17.3,-31.2 z"
   id="path6" />
<path
   class="st2"
   d="m 64.000708,258.70472 c 0,0 18.8,7.1 36.700002,7.4 18,0.2 48.6,-1.4 48.6,-1.4 l 41.8,20.5 52,43.3 h 4.9 l 47.8,-37.3 39.6,-37 28.1,15.9 c 0,0 35.8,-2.8 35.8,10.7 0,9.3 -28.7,8.3 -28.7,8.3 0,0 3.4,4.8 -0.7,10.9 -4.1,6.1 -29.6,7.1 -29.6,7.1 0,0 33.8,42.3 38,75.1 4,30.8 -11.1,74.1 -50.8,71.6 -39.8,-2.5 -49.8,-10.5 -51.4,-14.5 -1.6,-4 62.5,1 62.7,-18 0.2,-19 -10,-40.4 -16.2,-47.5 -6.2,-7.1 -15.2,-19 -15.2,-19 l -7.3,-5.7 c 0,0 5.3,16.6 -3.7,21.8 -5.7,3.3 -17.1,-1.8 -17.1,-1.8 0,0 -5.2,10.5 -13.6,10.2 -8.5,-0.3 -22.8,-16.4 -22.8,-16.4 l -34,-17.3 c 0,0 -55.8,11.3 -96.3,-19.5 -40.500002,-30.8 -48.600002,-67.4 -48.600002,-67.4 z"
   id="path7" />
<path
   class="st3"
   d="m 178.80071,139.80472 c 0,0 15.8,3.3 27.6,0.9 11.8,-2.4 25.7,-10.4 25.7,-10.4 l 1.8,-10 2.5,-4.2 47.1,14.3 c 0,0 -17.7,10.5 -22.5,23.9 -4.6,13.1 -3.9,24.1 -3.9,24.1 l 5.6,16 -45.8,38.3 c 0,0 -1,-9.2 -5.8,-12.5 -4.8,-3.3 -7.2,-6.5 -12.9,-11.7 -5.7,-5.2 -9.6,-6.5 -9.6,-6.5 0,0 -24.3,4.9 -36.9,12 -12.6,7.1 -25.6,19.9 -25.6,19.9 l 14.1,31.2 c 0,0 -30.3,2.6 -47.400002,0.3 -17.1,-2.3 -28.7,-6.7 -28.7,-6.7 0,0 -12.8,-64 -2.7,-104.8 1.9,-7.5 4.6,-15.2 7.8,-22.7 10.6,-24.9 25.7,-47.200004 25.7,-47.200004 0,0 4.5,14.7 11.800002,19.700004 7.3,5 13.7,9.6 13.7,9.6 l -35.100002,17.1 -8.9,21.5 19.6,61.7 19.300002,4.6 c 0,0 27.8,-15.5 41.4,-19.3 13.6,-3.8 32.8,-8.6 32.8,-8.6 l 6.8,-0.4 4.5,-17.5 z"
   id="path8" />
<path
   class="st4"
   d="m 100.80071,72.904716 c 0,0 -6.600002,-8.9 -8.600002,-20.9 -1.7,-9.8 -1.5,-21.7 5.3,-26 2.900002,-1.8 17.400002,-0.6 25.800002,4.3 10.1,6 18.2,12.8 18.2,12.8 z"
   id="path9" />
<path
   class="st4"
   d="m 36.100708,84.404716 c 0,0 3.6,-5.3 23.9,-7.1 11.8,-1 33.4,8 33.4,8 0,0 -13.2,18.500004 -17.3,26.800004 -4.1,8.3 -9.8,19 -9.8,19 0,0 -16.9,-12.1 -21.5,-21.1 -8.2,-16.300004 -8.7,-25.600004 -8.7,-25.600004 z"
   id="path10" />
<path
   class="st5"
   d="m 85.300708,130.30472 25.200002,-11.6 28,-9.9 24.2,9 37.9,54.5 -4.5,17.5 c 0,0 -36.5,4.6 -45.4,9.4 -8.9,4.8 -35.5,18.7 -35.5,18.7 l -19.300002,-4.6 -19.6,-61.6 z"
   id="path11" />
<path
   class="st4"
   d="m 55.500708,203.20472 c 0.8,-0.3 -22,-1.7 -35,-16.7 -9.4,-10.9 -20.39999983,-22.4 -18.8999998,-27.8 2.2,-7.8 15.7999998,-11.5 28.7999998,-15.9 12.2,-4.1 33.6,-2 33.6,-2 0,0 -5.9,25.8 -7.4,34.3 -1.6,10.2 -1.1,28.1 -1.1,28.1 z"
   id="path12" />
<path
   class="st4"
   d="m 54.400708,210.50472 c 0,0 -11.6,-1.5 -26.6,6 -13.9,6.9 -26.1999998,17.4 -26.1999998,25.2 0,7.9 13.5999998,14.1 25.3999998,21.9 13,8.5 41.7,7.9 41.7,7.9 0,0 -4.7,-16 -7.1,-27.2 -2.4,-11.3 -7.2,-33.8 -7.2,-33.8 z"
   id="path13" />
<path
   class="st4"
   d="m 72.900708,279.80472 c 0,0 -3.9,-1.1 -12.6,5.3 -8.7,6.4 -13.8,20.6 -13.8,20.6 0,0 15.8,10.8 26.4,10.4 10.6,-0.4 23.3,-5.1 23.3,-5.1 0,0 -12.9,-13.8 -15.6,-18.8 -2.8,-5 -7.7,-12.4 -7.7,-12.4 z"
   id="path14" />
<path
   class="st4"
   d="m 356.90071,326.00472 10.3,17.2 c 0,0 2,0 0.9,-7.5 -0.7,-4.5 -0.7,-4.5 -0.7,-4.5 0,0 0.9,-3.7 -4.8,-3.7 -5.7,0 -5.7,-1.5 -5.7,-1.5 z"
   id="path15" />
<path
   class="st4"
   d="m 376.90071,367.40472 c 0,0 5.9,-1.7 10.3,3.6 4.4,5.4 9.2,11.7 9.2,11.7 0,0 0.2,11.9 -8.8,17.3 -9,5.5 -10.7,2.9 -10.7,2.9 l 1.7,-21 z"
   id="path16" />
<path
   class="st6"
   d="m 165.30071,97.004716 c -9.1,-3.9 -16.8,-35.4 -17.2,-44 -0.4,-8.6 35.2,-16.4 39.8,-12.8 4.6,3.6 23.3,41 18.4,47.8 -4.9,6.7 -31.5,13.000004 -41,9 z"
   id="path17" />
<path
   class="st6"
   d="m 154.10071,49.104716 c 0,0 -6.6,-7.1 -6,-19.2 0.6,-12.1 6,-21.5999997 23.7,-26.4999997 13.7,-3.80000001 22.6,2.8 28,8.8999997 5.4,6.1 6.2,14.6 6.2,14.6 h -19.9 c 0,0 -1.7,-1.7 -3.4,-5.6 -2.1,-5 -6.4,-3.8 -6.4,-3.8 l 4.3,21.4 z"
   id="path18" />
<path
   class="st6"
   d="m 186.50071,98.204716 c 0,0 2.8,4.500004 7.1,7.300004 4.3,2.8 9.6,1.8 9.6,1.8 l -2.5,7.1 c 0,0 -9.6,0.3 -14.3,-3.8 -4.8,-4.1 -7.8,-12.500004 -7.8,-12.500004 h 7.9 z"
   id="path19" />
<path
   class="st1"
   d="m 220.50071,120.70472 h -11.3 c -2.8,0 -5,-2.3 -5,-5 v -4.3 c 0,-2.8 2.3,-5 5,-5 h 11.3 c 2.8,0 5,2.3 5,5 v 4.3 c 0,2.7 -2.3,5 -5,5 z"
   id="path20" />
<ellipse
   class="st7"
   cx="132.00072"
   cy="159.90472"
   rx="29.4"
   ry="27.299999"
   id="ellipse20" />
<path
   class="st7"
   d="m 337.40071,406.20472 c 0,0 -13.6,-4.6 -17.1,-2.4 -3.5,2.2 0,5.3 0,5.3 0,0 4.6,-0.5 8.9,4.8 4.3,5.3 9.9,7.2 9.9,7.2 z"
   id="path21" />
<path
   class="st7"
   d="m 352.60071,448.00472 15.5,-11.7 c 0,0 4.4,25.2 0,30.5 -4.4,5.3 -29.1,18 -29.2,15.1 -0.1,-2.9 16.5,-12.4 18,-18.3 1.4,-5.9 -4.3,-15.6 -4.3,-15.6 z"
   id="path22" />
<path
   class="st7"
   d="m 326.70071,432.10472 c 0,0 -4.6,-10.2 -13.8,-13.5 -9.2,-3.3 -23.3,-8.3 -24.7,-4.7 -1.4,3.6 13.9,8.5 18.1,11.8 4.2,3.2 5.3,9.5 5.3,9.5 z"
   id="path23" />
<path
   class="st7"
   d="m 310.60071,451.90472 17.2,1.6 c 0,0 -8.9,14 -17.2,16.8 -8.3,2.8 -31.1,2.6 -30.4,-2.7 0.7,-5.2 16.3,-1.3 21.7,-5.7 5.3,-4.2 8.7,-10 8.7,-10 z"
   id="path24" />
<ellipse
   transform="rotate(-59.999272)"
   class="st8"
   cx="37.451374"
   cy="187.9371"
   rx="3.3999252"
   ry="6.5998545"
   id="ellipse24"
   style="stroke-width:0.999978" />
<polygon
   class="st8"
   points="256.4,270.5 255.7,284.8 259.7,270.2 223,216 197.9,208 220.5,219 "
   id="polygon24"
   transform="translate(-61.299292,-97.295284)" />
<path
   class="st9"
   d="m 304.20071,500.00472 -10.3,2.7 c -0.9,0.2 -1.8,-0.3 -2.1,-1.2 l -1,-3.6 c -0.2,-0.9 0.3,-1.8 1.2,-2.1 l 10.3,-2.7 c 0.9,-0.2 1.8,0.3 2.1,1.2 l 1,3.6 c 0.2,0.9 -0.3,1.9 -1.2,2.1 z"
   id="path25" />
<polyline
   class="st10"
   points="285.6,286.4 271,280.6 278.1,266.1 "
   id="polyline25"
   transform="translate(-61.299292,-97.295284)" />
<line
   class="st10"
   x1="226.90073"
   y1="162.20471"
   x2="231.20071"
   y2="191.30472"
   id="line25" />
<polyline
   class="st10"
   points="294.4,261.8 305.6,269.4 301.9,282 "
   id="polyline26"
   transform="translate(-61.299292,-97.295284)" />
<g
   id="g34"
   transform="translate(-61.299292,-97.295284)">
	<path
   class="st11"
   d="m 462.1,375.5 c -2.5,-9.9 -14.9,-10 -24.9,-10.1 -4.7,-0.1 -9.1,-0.1 -11.9,-1.1 -6.9,-2.4 -19.1,-9.9 -24.2,-13.2 19.4,-18.1 40.8,-39 41.5,-43.7 0.3,-2 -0.6,-5.3 -9.4,-13.5 -2.8,-2.5 -6.4,-5.6 -10.6,-8.9 3.3,-1.4 7,-4.1 7,-9.3 0,-3.4 -1.4,-5.4 -2.5,-6.4 -0.5,-0.4 -1,-0.8 -1.5,-1.1 3.8,-3.1 8.4,-8.3 6.8,-14.5 -0.7,-2.5 -2.1,-4.4 -4.2,-5.6 -2,-1.1 -4.3,-1.3 -6.4,-1.2 1.2,-2.3 2.2,-5.2 1.4,-8.2 -1.4,-5.3 -7.3,-5.9 -12.9,-6.4 -2,-0.2 -4.1,-0.4 -6.1,-0.8 -2.1,-0.4 -7.3,-0.9 -14.5,-1.6 -12.9,-1.3 -30.6,-3 -44.1,-5.6 -16.5,-3.1 -36.2,-9.7 -43.5,-12.3 l 1.1,-1.3 c 3.3,-0.7 18.1,-4 29.8,-6.5 10.3,-2.2 13.9,-7.7 15.1,-10.9 8.2,2.2 13.5,4.9 13.5,5 l 2.6,1.4 0.5,-2.9 c 0.2,-1.2 4.3,-29.2 -35.8,-57.2 -20.6,-14.4 -43.1,-18.1 -60.1,-18.3 -1.3,-3.8 -4.7,-12.5 -10,-17.2 -6.5,-5.8 -13.9,-8.9 -28.4,-5.2 -13.3,3.4 -20,10.6 -22.6,24.1 -0.9,4.9 -0.7,9.3 0.1,12.9 -1,0.6 -2.4,1.5 -4.1,2.5 -2.5,-2.2 -7.8,-6.6 -16.2,-11.5 -13.5,-7.9 -26.9,-6.6 -30.2,-4.7 -5.8,3.3 -7.7,17 -4.3,31.2 2.5,10.5 6.1,15.5 7.9,17.5 -2.6,2.9 -5.2,6.2 -7.9,9.7 -3.4,-1.5 -13.4,-5.5 -25.1,-7 -17.6,-2.2 -28.6,2.6 -30.6,6.6 -3.1,6.3 2.2,23.8 13.3,36 7.6,8.3 13,11.6 15.8,12.9 -0.9,2.4 -1.7,4.8 -2.5,7.3 -4.2,-0.3 -18.7,-1.2 -32.4,2.2 -14,3.5 -29.1,10.2 -30.1,15.3 -1.5,7.4 10.9,26 27.4,37.1 11.8,7.9 21.8,10.2 26.5,10.8 0,1 0.1,1.9 0.1,2.9 -5.9,1 -17.9,3.4 -28.6,8.7 -15.2,7.6 -25.7,21 -25.6,25.3 0.2,8.2 17.5,19.9 34.1,26.5 10.6,4.2 20.2,5 26.5,5 3.3,0 5.6,-0.2 6.7,-0.4 0.5,1.2 1.1,2.4 1.6,3.5 0.2,0.4 0.4,0.9 0.7,1.4 -1.7,0.8 -6.4,3.2 -12.5,8 -8.8,6.8 -11.4,16.1 -11,18.9 0.1,0.4 0.2,0.8 0.3,1.1 -4.7,2 -15.2,6.9 -18,12.3 -2.9,5.4 -5.3,32.7 -7.6,60.1 l -0.5,5.6 c -1.3,14.8 -0.1,69.8 6.1,78.4 2.8,3.9 17.4,13 31.6,21.3 -7.9,3.1 -23.3,11.1 -23.3,25.9 0,23.3 38.8,52.2 94.5,56.3 6.8,0.5 13.3,0.7 19.4,0.7 59.2,0 86,-21.6 90.2,-28.1 3.1,-4.8 4,-8.4 4.2,-10.5 25.2,-5.9 76.2,-18.1 79.6,-21.2 2.9,-2.7 0.9,-34.5 0.6,-44.4 2.8,-2.9 4,-5.4 4.5,-7.1 0.8,0 1.6,0.1 2.4,0.1 0.5,0 1,0 1.5,0 8.1,0 15.2,-1.6 21.5,-4.7 1.1,2.3 2.5,6.6 1.7,10.7 -0.6,2.9 -5.6,7.5 -9.6,11.2 -5,4.6 -8.1,7.4 -6.3,9.5 0.5,0.6 1.4,1 2.7,1 0.3,0 0.5,0 0.8,0 6.2,-0.6 20.6,-7.2 25.8,-16.2 5.4,-9.5 2.4,-28.2 1.7,-31.8 5.5,-8.8 8.5,-19.5 9.7,-30.3 1.4,-0.6 3.8,-1.6 6,-2.3 3.7,-1.2 13.5,-13.4 12.6,-18 -0.8,-3.8 -3.9,-7.7 -8.9,-13.6 -4,-4.7 -9.5,-4.9 -12,-4.8 -2,-8 -5,-15.4 -8.4,-22.2 1,-4.5 2.1,-12.7 -2,-15.5 -3,-2.1 -6.8,-2.8 -9.4,-3 -5,-7 -9.8,-12.4 -13,-15.8 11.9,0.5 17.1,-1.7 23.2,-4.9 5.2,-2.8 6,-8.4 5.5,-12.5 6.4,0.1 21,-0.5 26,-6.6 1.8,-1.7 2.3,-4.2 1.6,-6.8 z m -13.6,94.3 c 4.7,5.6 7.6,9.2 8.2,12.3 0.5,2.5 -7.7,13.8 -10.7,14.8 -1.6,0.5 -3.4,1.2 -4.8,1.8 0.8,-9.9 0.3,-19.6 -1,-27.8 -0.3,-1.6 -0.6,-3.2 -0.9,-4.8 2.2,-0.2 6.2,0.2 9.2,3.7 z m -10.1,-163 c -1,3.5 -22.7,25.8 -62.4,61.5 -37.6,33.9 -63.7,55.2 -67,56.1 v 0 c -4.6,0 -31.2,-21.6 -55.5,-43.4 5,-1.9 8.7,-4.4 10.1,-5.5 0.2,0 0.3,0 0.5,0 l 30.2,27.1 c 0.8,0.7 1.8,1.1 2.7,1.1 1,0 1.9,-0.3 2.7,-1 l 26.7,-23.5 c 0.9,-0.8 1.4,-1.9 1.4,-3.1 0,-1.2 -0.5,-2.3 -1.4,-3.1 l -4.7,-4.2 -0.5,-0.5 -0.1,0.1 -11.1,-9.8 -3.9,-4.3 -0.5,0.4 -12.9,-11.4 c -1.5,-1.3 -3.7,-1.4 -5.3,-0.1 l -7.3,5.8 c -1.4,-2.4 -3.1,-4.6 -4.6,-6.4 1.8,0 3.6,-0.3 4.8,-1.3 1,-0.8 2.1,-2.4 1.6,-5.2 -0.3,-1.8 -0.7,-3.6 -1.2,-5.2 4.5,-3.7 52.4,-43.2 58.8,-47.6 1.5,-1 3.8,-2.6 6.5,-4.6 8.4,-6 25.8,-18.2 29.7,-19.3 2.6,0.4 16.9,8.7 34,21.2 21.3,15.5 28.8,24.2 28.7,26.2 z m -178.7,-36.6 -4.1,14.6 c -5.3,0.2 -22.3,1.5 -45.7,11.2 -17.6,7.3 -33.2,15.4 -36.7,17.2 l -15.1,-3.4 -18.5,-58 7.5,-21 c 2.3,-1.6 11.9,-8.2 20.9,-12.2 9.4,-4.2 27.9,-9.4 31.6,-10.4 L 223,216 Z M 243.8,239 c 3.4,0.6 8.2,1.2 13.7,1.2 4.5,0 9.4,-0.4 14.3,-1.5 10.1,-2.3 16.1,-5.5 19.3,-7.6 0.1,2.3 0.4,4.7 1,6.8 2,7.4 2.1,12.9 2.1,13 v 1.3 l 1.2,0.6 c 0.1,0 9.9,5 18.3,21.8 5.4,10.8 7.3,15.4 8,17.3 -15.1,12.2 -36.3,29.6 -42.3,34.6 -2.7,-6.9 -7.2,-11.9 -13.9,-16.1 -6.6,-4.1 -10.8,-17.1 -12,-21.1 2.5,-0.2 3.9,-0.2 3.9,-0.2 h 1.7 l 5.5,-19.7 z m -32.1,60.9 c 16.2,-6.7 29.4,-9.3 37.3,-10.3 0.4,1.4 1.5,5.2 3.4,9.5 -5.6,0 -18.4,1.3 -39.4,10.7 -15.1,6.7 -22.3,14 -25.4,18.1 -2.7,-7 -4.7,-12.8 -5.3,-14.6 6.9,-3.3 17.7,-8.5 29.4,-13.4 z m 2.5,12.6 c 22.5,-10.1 35.4,-10.6 39.6,-10.4 2.3,4.7 5.4,9.4 9.3,11.8 8.5,5.3 12.7,11.9 14.6,22.8 0.1,0.5 0.1,1 -0.1,1.2 -0.9,0.8 -4.8,0.2 -7.7,-0.9 l -10.6,-4 8.4,7.6 c 4.4,4 14.9,15.8 10.3,22.4 -5.9,8.5 -14.8,8.3 -15.1,8.3 h -0.8 l -0.6,0.5 c -0.1,0.1 -13.7,10.9 -27.6,6.1 -18.2,-6.4 -30.1,-15.1 -36.2,-26.8 -3,-5.7 -6.1,-13.1 -8.8,-19.9 1.9,-3.1 8.5,-11.2 25.3,-18.7 z m 67.3,52.9 c 0.9,-1.3 1.4,-2.7 1.7,-4.1 l 14,-12.1 7.2,6.4 -30.6,26 -6.9,-6.2 0.3,-0.3 c 4.1,-1 9.9,-3.4 14.3,-9.7 z m -0.7,-15.2 7.5,-6 c 1,-0.8 2.5,-0.8 3.4,0.1 l 4.5,3.9 -12.8,11 c 0,-3 -1.1,-6.1 -2.6,-9 z m 9.3,46 -7.5,-6.9 31.7,-25.1 5.8,5.1 z m 31,-26 4.3,3.8 c 0.6,0.5 0.9,1.2 0.9,2 0,0.8 -0.3,1.5 -0.9,2 l -26.7,23.5 c -1,0.9 -2.6,0.9 -3.6,0 l -4.4,-4 z m -40.2,18.6 -6.5,-5.8 31.1,-26.5 3.4,3 3.7,4.1 z m 66.3,-159.7 c 9,1.6 19.3,2.8 28.9,3.8 8.1,3.1 19.8,9.3 20.8,13.4 -1,2 -13.1,2.8 -25.4,1.6 -1.2,-0.1 -2.2,0.7 -2.3,1.9 -0.1,1.2 0.7,2.2 1.9,2.3 2.4,0.2 7.1,0.6 12.2,0.6 6.9,0 14.3,-0.7 16.8,-3.6 1,-1.1 1.3,-2.5 1,-3.9 -1,-4.1 -6.4,-8 -11.9,-11.1 6.8,0.7 12.1,1.2 14.1,1.6 2.2,0.4 4.4,0.6 6.5,0.8 5.3,0.5 8.6,0.9 9.2,3.2 0.9,3.3 -2.4,7.3 -3.7,8.6 l -7.2,6.8 9.4,-3.2 c 1.5,-0.5 6,-1.5 8.7,-0.1 1.1,0.6 1.8,1.5 2.1,2.9 1.7,6.4 -8.9,12.5 -9,12.6 l -8.6,4.8 9.9,-0.9 c 0.6,0 2.5,0 3.7,1.1 0.8,0.7 1.1,1.7 1.1,3.2 0,3.9 -4.5,5.5 -6.8,6.1 -17,-13 -39.3,-27.7 -43.6,-26.8 -4,0.9 -17.2,10 -31.4,20 -2.7,1.9 -5,3.5 -6.5,4.5 -1.7,1.2 -6.2,4.7 -12,9.3 -0.9,-2.4 -2.6,-6.1 -5.5,-12.1 -0.6,-3.6 -1.4,-14.3 5.1,-28.4 6.1,-12.8 17.9,-17.6 22.5,-19 z m -5.5,-1 c -6,2.7 -14.6,8.2 -19.7,19.3 -4.4,9.6 -5.6,17.6 -5.8,23.2 -7.2,-13.4 -15,-19.2 -17.9,-21 -0.1,-2.2 -0.6,-6.9 -2.2,-12.8 -1.7,-6.3 -0.4,-15.4 -0.1,-17.7 l 2.9,-3.3 c 5.5,1.8 25.3,8.7 42.8,12.3 z M 250.6,103.7 c 1.9,1 3.6,2.2 5.3,3.7 4,3.6 6.9,10.2 8.3,14.1 -6.6,0.2 -12.2,0.8 -16.2,1.4 -0.5,-1.3 -1.5,-3.6 -3.2,-6.1 -1.6,-2.3 -4.1,-4 -5.2,-4.7 0.1,-0.6 0.1,-1.2 0.2,-1.8 1.3,-6.3 7.8,-6.7 10.8,-6.6 z m -23.4,90.9 c -5.3,-1.6 -17,-35 -15.1,-43.1 0.6,-2.7 3.6,-5.6 8.4,-8.1 6.5,-3.5 15.2,-5.5 21.8,-5.5 2.5,0 4.6,0.3 6.2,0.9 5.7,2.2 18.2,33.6 16.4,44.5 -0.3,1.8 -1.8,3.5 -4.4,5.2 -9.2,5.6 -28.2,7.6 -33.3,6.1 z m 27.7,9.7 c 3.7,1.7 6.7,2.5 8.6,2.8 -0.5,1.1 -0.8,2.2 -0.9,3.5 -2.7,-0.3 -7.3,-1.2 -11.3,-3.5 -4.8,-2.7 -6.8,-6.7 -7.6,-8.8 1.3,-0.2 2.6,-0.5 3.9,-0.7 0.9,1.9 2.9,4.6 7.3,6.7 z m -14.1,-79.9 c -0.5,-2.3 -0.9,-4.7 -1.1,-7 0.6,0.5 1.2,1.1 1.6,1.7 1.2,1.8 2,3.4 2.4,4.5 -1.5,0.3 -2.3,0.5 -2.4,0.5 -0.1,0.2 -0.3,0.2 -0.5,0.3 z m -28.9,-0.5 c 2.3,-12 7.7,-17.8 19.5,-20.8 5.1,-1.3 9.2,-1.7 12.5,-1.3 -3.2,1.2 -5.9,3.6 -6.8,8 -1.4,7.1 1.3,17.9 3.1,23.8 -6.9,0.3 -15.1,2.5 -21.7,6 -1.5,0.8 -2.8,1.6 -4,2.5 -1.8,-3.4 -4.2,-9.8 -2.6,-18.2 z m -56.1,28.9 c -3.4,-13.9 -1.2,-25.7 2.9,-28 2,-1.1 14.5,-2.9 27.4,4.7 7.4,4.4 12.4,8.4 15.1,10.6 -6.4,3.9 -15.2,9.4 -22.3,14.2 -4,2.7 -9.7,7.7 -16,14.6 -1.6,-1.9 -4.8,-6.5 -7.1,-16.1 z m 3.7,26.7 c 9.6,-11.9 18.1,-19.3 21.8,-21.8 9.6,-6.4 22.2,-14.1 27.7,-17.5 0.7,1.9 1.5,3.5 2.1,4.6 -1.7,1.8 -2.8,3.7 -3.2,5.6 -2,8.7 9.3,45.6 18.1,48.2 1.4,0.4 3.6,0.6 6.2,0.6 2.5,0 5.5,-0.2 8.6,-0.6 0.8,2.4 3,7.5 9.1,10.9 4.8,2.7 10.3,3.6 13.1,3.9 1.1,3.6 4.4,6.2 8.3,6.2 h 7.7 c 4.8,0 8.7,-3.9 8.7,-8.7 0,-4.8 -3.9,-8.7 -8.7,-8.7 h -7.7 c -2.2,0 -4.2,0.8 -5.7,2.2 -1.2,-0.1 -4.6,-0.5 -9.4,-2.7 -3.2,-1.5 -4.8,-3.4 -5.6,-4.8 4.6,-1.2 8.9,-2.8 12.3,-4.9 3.7,-2.3 5.8,-5 6.3,-8.1 1.9,-11.4 -10.3,-45.8 -19.1,-49.2 -1.9,-0.7 -4.2,-1.1 -6.8,-1.2 -0.4,-1.4 -0.9,-3.2 -1.5,-5.2 0.2,0 0.5,0 0.7,-0.1 0.5,-0.1 45.8,-11.8 84,14.9 30.3,21.2 33.9,42.4 34.1,50.1 -6.1,-2.7 -20.6,-7.9 -37.8,-6.4 -21.7,1.9 -33,3.8 -33.1,3.8 -1.2,0.2 -1.9,1.3 -1.7,2.5 0.2,1.2 1.3,2 2.5,1.7 0.1,0 11.2,-1.9 32.7,-3.8 7.6,-0.7 14.7,0.1 20.7,1.4 -1,2.3 -3.9,6 -11.8,7.7 -13.2,2.8 -30.3,6.6 -30.5,6.7 l -0.7,0.2 -8.6,10 -0.1,0.6 c -0.1,0.3 -0.9,4.7 -1,9.9 -2.1,1.7 -8,5.6 -19.9,8.4 -12.4,2.9 -25,0.8 -29.7,-0.2 l -15.7,-23.2 -25.9,-8.8 -0.6,0.2 c -0.6,0.2 -8.8,2.4 -17.6,5.2 -2.8,-1.6 -10.2,-6.1 -15.2,-11.5 -6.8,-7.1 -7.3,-15.3 -7.1,-18.1 z m 105.9,31.4 c 0,-3.2 2.6,-5.8 5.8,-5.8 h 7.7 c 3.2,0 5.8,2.6 5.8,5.8 0,3.2 -2.6,5.8 -5.8,5.8 h -7.7 c -3.2,0.1 -5.8,-2.5 -5.8,-5.8 z m -152.6,3.5 c -10.8,-11.8 -15.2,-28 -12.9,-32.8 0.9,-1.8 9.6,-7.3 27.7,-5 10.6,1.3 20,4.9 23.7,6.5 -8.6,11.7 -17.2,26.5 -23.8,43.5 -2.4,-1.3 -7.5,-4.4 -14.7,-12.2 z m 2.6,84.7 c -4.6,-0.7 -14,-3 -24.8,-10.3 C 74.5,278 63.3,260.4 64.4,254.6 c 0.4,-2.2 10.5,-8.7 28,-13.1 12.4,-3.1 26.1,-2.5 30.8,-2.2 -0.8,2.6 -1.5,5.3 -2.2,8 -4.3,16.9 -5.9,34.7 -5.6,51.8 z m -18.8,63.7 c -19.2,-7.6 -32.2,-18.4 -32.3,-23.9 -0.1,-2.7 9.3,-15.4 24,-22.7 10,-5 21.5,-7.4 27.4,-8.4 1,18.3 4.1,35.5 8.5,49.7 l -0.1,0.2 c 0,0 0.1,0 0.2,0.1 1.1,3.4 2.2,6.6 3.4,9.6 -4.1,0.3 -16.9,1 -31.1,-4.6 z m 31.6,-6.8 c -8.9,-28.7 -12.4,-70.3 -3.1,-107.7 6.9,-27.8 19.8,-49.8 31.6,-65.3 0.5,4.5 2.4,10.9 7.6,16.5 4.3,4.6 10.1,8.5 13.7,10.7 -4.3,1.4 -8.4,3 -11.6,4.4 -10.7,4.8 -21.7,12.7 -22.2,13.1 l -0.5,0.4 -8.4,23.6 19.7,61.7 19,4.2 0.7,-0.4 c 0,0 1.4,-0.8 3.8,-2 1.7,5 8.8,25 15.4,37.7 1.5,2.9 3.4,5.6 5.5,8.2 -6,0.5 -26.5,1.9 -42.7,0.3 -13.5,-1.2 -23.7,-3.9 -28.5,-5.4 z m 1,3.3 c 5.4,1.6 14.9,3.9 27.2,5.1 5.6,0.5 11.6,0.7 17.4,0.7 14.4,0 27.3,-1.2 27.5,-1.2 v -0.5 c 7.2,7.6 17.5,13.7 31.1,18.5 3.1,1.1 6.2,1.5 9.1,1.5 2.5,0 4.9,-0.3 7.2,-0.9 13.2,11.9 51.9,46.2 60.4,46.2 0.1,0 0.2,0 0.3,0 3.8,-0.3 24,-17.1 41.7,-32.5 2.4,2.1 12.4,11.1 19.7,16.7 7,5.4 8.3,26.2 3.6,34.3 -0.9,1.6 -2,2.4 -3.2,2.5 -2.6,0.3 -5.8,-2.5 -6.8,-3.6 l -5.4,-5.9 1.7,7.8 c 0,0.1 3,14.1 -4.6,17.6 -7.9,3.6 -15.3,-2.3 -15.6,-2.6 l -3.2,-2.7 -0.3,4.2 c 0,0.3 -0.7,8.3 -9.6,9.4 -7.7,1 -17.1,-10.3 -20,-14.8 l -0.4,-0.6 -0.7,-0.2 c -0.1,0 -10,-3.6 -25.4,-12.7 -8.6,-5 -12,-4.7 -18.7,-4.2 -6.6,0.5 -16.6,1.4 -39,-1.8 -56.2,-7.9 -82.3,-54 -88.9,-68 -1.9,-3.5 -3.5,-7.7 -5.1,-12.3 z m 240,161.3 c -3.5,-2.8 -8.3,-4.6 -12.1,-6.1 -2.6,-1 -5.7,-2.2 -6.5,-3.1 4.5,-0.3 25.3,1.8 32.5,10.5 1.8,2.2 3,4.3 3.7,5.7 -3.2,1.2 -6.9,2 -10.8,2.6 -0.5,-2.2 -2,-5.7 -6.8,-9.6 z m 4,10 c -5.1,0.6 -10.4,0.8 -15.3,0.9 l -1.4,-14.2 c 3.7,1.4 7.9,3 10.9,5.5 4,3.3 5.4,6.1 5.8,7.8 z m -35.1,10 c 3,3.6 9.2,6.4 18.4,8.3 l 1.3,11.2 c -4.5,1.2 -9.2,1.3 -12.6,1.3 -3.6,0 -5.4,0 -6.2,1.2 -0.4,0.5 -0.5,1.2 -0.2,1.8 0.7,2 2.5,3.8 5.4,5 2.6,1.1 6.3,2 10.7,2 1.4,0 3,-0.1 4.5,-0.3 l 0.2,5.5 c -9,3.5 -74.1,18.1 -136.9,31.4 -0.1,0 -0.2,0 -0.2,-0.1 -4.8,-18.5 -11.7,-136.8 -9.7,-144.5 3.2,-3.4 36.1,-9.5 66.6,-13.7 13.4,7.8 22.4,11.4 24.9,12.4 2.1,3 11.9,16.1 22.2,16.1 0.5,0 1,0 1.5,-0.1 7.5,-1 11.1,-5.9 12.5,-10 1.7,1 4,2 6.8,2.5 l 4.5,37.8 c -0.8,0 -1.5,0 -2,0.1 -0.5,0.1 -1.5,0.2 -1.9,1 -0.4,0.9 -0.5,1.8 -0.1,2.6 0.6,1.4 2.1,2.4 4.2,3.3 l 1.6,16 c -0.7,0 -1.3,0 -2,0 -10.8,0.1 -14.9,0.1 -15.3,3.3 -0.3,1.6 -0.1,3.6 1.8,5.9 z m 27.3,-88.1 c 0.3,0.2 0.5,0.3 0.8,0.4 l 2.9,3.1 5.8,57.3 -1.9,-0.8 c -5.8,-2.1 -12.2,-3.3 -17,-3.7 L 351.5,471 c 2,-0.1 4,-0.6 6.2,-1.5 7.1,-3.2 8,-11.5 7.7,-17 z m 19.8,67.6 c -1.5,-1.8 -3.6,-3.4 -5.9,-4.8 h 0.2 l -1.2,-11.6 c 1.3,1.8 4.1,3.3 7.1,4.8 1.7,0.9 3.5,1.7 5,2.7 2.4,1.5 4.9,6.3 6.3,9.2 -1.5,2.6 -4.1,4.7 -7.3,6.2 -0.8,-1.7 -2.1,-4 -4.2,-6.5 z m 6.8,-11.3 c -1.6,-1 -3.4,-1.9 -5.2,-2.8 -2.6,-1.3 -6.6,-3.3 -6.2,-4.4 0,0 0.2,-0.3 1,-0.5 3.3,-0.8 10.8,0.6 15.5,3.2 0.9,3.8 1.4,7.5 1.2,10.9 0,0.5 -0.1,1 -0.2,1.5 -1.5,-2.9 -3.7,-6.4 -6.1,-7.9 z m -11.5,-10.4 c -1.5,0.5 -2.1,1.2 -2.5,1.9 l -3.9,-38.5 c 7.1,9.4 17.5,24.6 22,38.8 -5.2,-2.2 -12,-3.3 -15.6,-2.2 z M 120.2,385.2 c 6,-4.7 10.7,-7 12.1,-7.7 4,7.5 11.2,19.4 22.4,31.1 -4.9,0.7 -19.4,2.7 -27.2,1.6 -9.6,-1.4 -16.7,-5.7 -17.1,-8.8 -0.3,-1.5 1.7,-9.8 9.8,-16.2 z M 91.3,556.8 C 86.5,550.1 84.5,498.4 86,481.2 l 0.5,-5.6 c 1.4,-17.3 4.4,-53.4 7.1,-58.5 1.9,-3.7 11,-8.3 16.9,-10.7 3.5,3 9.6,5.5 16.6,6.5 1.8,0.3 4,0.4 6.2,0.4 10.1,0 22.9,-2.1 23.5,-2.2 l -0.1,-0.5 c 3.1,3.1 6.6,6.2 10.3,9.2 -5.7,2.3 -16.3,7.2 -20.8,13.6 -4.1,5.9 -2.3,74.8 -1.6,95.8 0.2,5.5 1.2,36.8 3,62.2 -21.9,-11.8 -52.8,-29.6 -56.3,-34.6 z m 56.7,39.8 c 1,13.3 2.2,24.3 3.6,27.6 C 141.3,620 128,612.7 127.3,603 c -0.5,-6.4 6.4,-10.9 9.5,-12.6 5.1,2.9 9.2,5.1 11.2,6.2 z m 148.6,36.6 c -4.1,6.3 -35.7,30.6 -105.7,25.4 -58.3,-4.3 -90.6,-33.5 -90.6,-52.1 0,-14.6 19.6,-21.7 23.9,-23.1 3.3,1.9 6.5,3.7 9.5,5.4 -3.9,2.4 -9.9,7.3 -9.4,14.4 1,14.4 24.2,23.4 33.9,26.6 14.9,8 48,15.2 48.4,15.3 0.2,0 0.5,0.1 0.8,0.1 9.9,0 80.5,-16.2 88.7,-18.1 1.1,-0.2 2.3,-0.5 3.6,-0.8 -0.2,1.4 -1.1,3.8 -3.1,6.9 z m 84.6,-32.6 c -7.2,4.8 -164.6,41.3 -173.6,40.2 -11.7,-2.2 -47.8,-12 -52.1,-18.3 -5.2,-9 -10.3,-178.1 -5.7,-186.5 4.5,-6.4 17.4,-11.6 21.3,-13 13.4,9.9 30.4,18 51.6,21 22.8,3.2 33.1,2.4 39.9,1.8 4.4,-0.4 6.8,-0.5 10.1,0.6 -6.4,0.9 -16.6,2.5 -26.8,4.3 -35,6.2 -36.4,9.3 -37.1,11.1 -2.8,6.8 5.2,130.7 9.5,147.3 0.5,2 2.3,3.4 4.3,3.4 0.3,0 0.6,0 0.9,-0.1 136.8,-29 139.2,-32.1 139.9,-33.1 l 0.5,-0.6 -0.3,-8.2 c 2.6,-0.6 5.3,-1.5 8.1,-2.7 3.7,-1.6 6.6,-3.3 8.9,-5 1.6,16.8 1.3,36.3 0.6,37.8 z m -10.6,-35.5 c -10.1,4.5 -20.1,4.1 -25.4,1.8 -1.6,-0.7 -2.8,-1.6 -3.4,-2.5 0.9,-0.1 2.2,-0.1 3.4,-0.1 5.2,0 13.8,-0.1 20.7,-4.6 4.9,-3.2 7.3,-6.3 8.4,-8.2 3.7,0.3 7.7,0.6 11.9,0.7 -1.1,2.7 -4.5,8 -15.6,12.9 z m -9.7,-15.3 c 3.1,0.5 6.5,1 10.1,1.4 -1.2,1.6 -3.2,3.8 -6.8,6.1 -0.8,0.5 -1.5,0.9 -2.3,1.3 z m 66.2,12.6 c -5.2,9.1 -20.4,15 -24.2,14.9 0.9,-1.3 3.5,-3.7 5.6,-5.6 4.5,-4.2 9.7,-8.9 10.4,-12.7 1,-5.1 -0.8,-10 -2,-12.7 3.7,-2.2 7.1,-5 10.1,-8.4 0.7,-0.8 1.3,-1.6 1.9,-2.5 0.9,6.4 2.2,19.9 -1.8,27 z m -0.4,-134.7 c 1.8,1.2 1.9,5.2 1.4,9.1 -2.2,-4 -4.6,-7.8 -6.9,-11.2 1.8,0.3 3.8,1 5.5,2.1 z m 9.3,43.7 c 3.1,19.2 1.8,47.5 -12.3,63.7 -7.8,8.9 -18.6,13.3 -32.2,13 -38.3,-0.9 -47.8,-7.5 -50.2,-10.2 -0.4,-0.5 -0.7,-1 -0.9,-1.5 1.9,-0.4 6.8,-0.4 11.1,-0.5 18.5,-0.2 49.6,-0.5 50.9,-20.5 1.5,-21.7 -20.8,-51.2 -29.4,-61.8 1.5,-0.5 3.3,-1.7 4.8,-4.3 4.9,-8.4 4.9,-29.7 -3.1,-38.3 3.2,-1.6 12.8,-5.7 24.6,-4.9 4.3,4.1 31.2,31.4 36.7,65.3 z m 21.3,-91.5 c -3.5,4.3 -17.3,5.3 -25.2,4.9 l -3.1,-0.1 0.9,2.9 c 0,0.1 2.4,7.6 -2.8,10.3 -6.5,3.4 -11.5,5.4 -26.6,4 -16.1,-1.5 -28.5,5.7 -29,6 l 0.3,0.5 c -6.7,-5.3 -15,-12.7 -17.7,-15.1 11.8,-10.3 22,-19.4 24.5,-21.7 5,-4.5 11.9,-10.7 19.2,-17.5 4.6,2.9 18.1,11.5 26,14.2 3.4,1.2 8.2,1.2 13.3,1.3 11.2,0.1 19.2,0.7 20.8,6.9 0.4,1.4 0.2,2.5 -0.6,3.4 z"
   id="path26" />
	<ellipse
   class="st11"
   cx="281.20001"
   cy="153.10001"
   rx="3"
   ry="5.6999998"
   id="ellipse26" />
	<path
   class="st11"
   d="m 186.8,221.2 c -21.2,4.1 -35.4,23.4 -31.5,43.1 1.8,9.5 7.6,17.7 16.2,23.1 6.3,3.9 13.6,5.9 21,5.9 2.7,0 5.4,-0.3 8.1,-0.8 10.2,-2 19.2,-7.5 25.1,-15.6 6,-8.1 8.3,-17.9 6.4,-27.4 -3.8,-19.8 -24.1,-32.4 -45.3,-28.3 z m 35.5,53.1 c -5.3,7.2 -13.3,12.2 -22.5,14 -9.2,1.8 -18.4,0.2 -26.1,-4.6 -7.6,-4.7 -12.6,-11.9 -14.3,-20.2 -3.4,-17.3 9.3,-34.4 28.2,-38.1 2.4,-0.5 4.8,-0.7 7.2,-0.7 16.1,0 30.2,10.4 33.1,25.5 1.6,8.4 -0.4,16.9 -5.6,24.1 z"
   id="path27" />
	<path
   class="st11"
   d="m 198.6,623 c -0.9,-3.9 -1.5,-7.9 -2,-11.9 -1.1,-8 -1.9,-16 -2.5,-24.1 -1.3,-16.1 -2.1,-32.3 -2.8,-48.4 l -1,-24.3 c -0.4,-8.1 -0.8,-16.2 -1.3,-24.3 -0.5,-8.1 -1.1,-16.2 -1.5,-24.2 -0.2,-4 -0.3,-8.1 0,-12.1 0.3,-4 1.4,-8 3.9,-11.2 -1.3,1.5 -2.4,3.3 -3.2,5.2 -0.8,1.9 -1.2,3.9 -1.5,5.9 -0.6,4.1 -0.6,8.1 -0.6,12.2 0,8.1 0.3,16.2 0.6,24.3 l 1.7,48.5 c 0.7,16.2 1.7,32.4 3.4,48.5 0.9,8.1 1.9,16.1 3.4,24.1 0.8,4 1.6,8 2.7,11.9 0.5,2 1.1,3.9 1.9,5.8 0.8,1.9 1.6,3.8 2.9,5.3 -1.2,-1.7 -1.9,-3.6 -2.5,-5.5 -0.6,-1.7 -1.1,-3.7 -1.6,-5.7 z"
   id="path28" />
	<path
   class="st11"
   d="m 187.6,228.2 c -16.8,3.3 -28,18.6 -25,34.1 1.5,7.6 6,14 12.8,18.2 5,3.1 10.7,4.7 16.7,4.7 2.1,0 4.3,-0.2 6.4,-0.6 16.8,-3.3 28,-18.6 25,-34.1 -3,-15.6 -19.1,-25.6 -35.9,-22.3 z m 10.4,53.6 c -7.4,1.4 -14.9,0.1 -21.1,-3.7 -6.1,-3.8 -10.2,-9.6 -11.5,-16.4 -2.7,-14 7.5,-27.8 22.7,-30.8 2,-0.4 3.9,-0.6 5.8,-0.6 13,0 24.4,8.4 26.8,20.6 2.7,14.1 -7.5,27.9 -22.7,30.9 z"
   id="path29" />
	<path
   class="st11"
   d="m 361.5,590.1 -6.2,1.6 c -1.2,0.3 -2.3,1.1 -2.9,2.2 -0.6,1.1 -0.8,2.4 -0.5,3.6 0.6,2.4 2.9,3.8 5.3,3.5 0.2,0 0.4,-0.1 0.6,-0.1 l 6.2,-1.6 v 0 c 2.6,-0.7 4.1,-3.3 3.4,-5.9 -0.7,-2.5 -3.3,-4 -5.9,-3.3 z m 1.7,6.5 -6.2,1.6 c -1,0.3 -2.1,-0.3 -2.4,-1.4 -0.1,-0.5 -0.1,-1 0.2,-1.5 0.3,-0.5 0.7,-0.8 1.2,-0.9 l 6.2,-1.6 c 0.1,0 0.2,0 0.2,0 0.4,-0.1 0.9,0 1.2,0.2 0.5,0.3 0.8,0.7 0.9,1.2 0.4,1.1 -0.2,2.1 -1.3,2.4 z"
   id="path30" />
	<path
   class="st11"
   d="m 365.2,284.3 c 0,-0.5 -0.1,-1.1 -0.5,-1.5 l -3.6,-4 c -0.7,-0.8 -1.8,-0.9 -2.7,-0.3 L 296,325.2 c -0.5,0.4 -0.8,0.9 -0.8,1.5 0,0.6 0.2,1.2 0.7,1.6 l 5.4,4.6 c 0.4,0.3 0.8,0.5 1.3,0.5 0.4,0 0.9,-0.1 1.2,-0.4 l 60.6,-47.3 c 0.4,-0.4 0.7,-0.9 0.8,-1.4 z m -1.7,0.2 -60.6,47.3 c -0.2,0.2 -0.5,0.2 -0.7,0 l -5.4,-4.6 c -0.2,-0.2 -0.2,-0.3 -0.2,-0.4 0,-0.1 0,-0.3 0.2,-0.4 l 62.4,-46.6 c 0.2,-0.2 0.6,-0.1 0.8,0.1 l 3.6,4 c 0.1,0.1 0.2,0.3 0.1,0.4 0,0 0,0.1 -0.2,0.2 z"
   id="path31" />
	<path
   class="st11"
   d="m 304.6,407.2 7.6,9.3 117.2,-105.2 -9.4,-8 -114.9,103.4 z m 115.4,-102 7.2,6.1 -114.9,103.2 -5.8,-7.1 z"
   id="path32" />
	<polygon
   class="st11"
   points="126,468.3 120.6,471.4 120.6,533.9 125.9,539 126.9,538 122,533.3 122,472.2 126.7,469.6 "
   id="polygon32" />
	<polygon
   class="st11"
   points="110,465.5 104.5,468.5 104.5,531.1 109.8,536.1 110.8,535.1 105.9,530.5 105.9,469.4 110.7,466.7 "
   id="polygon33" />
	<path
   class="st11"
   d="m 406.6,292.7 v 0 l -18.8,-16.3 c -1.2,-1.1 -3,-1.1 -4.3,-0.1 l -72.8,60.1 c -0.7,0.6 -1.2,1.5 -1.2,2.4 0,0.9 0.3,1.8 1,2.5 l 17,16.5 2.6,3.1 0.3,-0.2 7.3,7.1 c 0.6,0.6 1.5,1 2.3,1 0.8,0 1.6,-0.3 2.2,-0.9 l 70.6,-64.8 c 0.7,-0.6 1.1,-1.5 1.1,-2.5 0,-0.9 -0.4,-1.8 -1.1,-2.4 l -5.7,-4.9 z m -95.1,47.6 c -0.4,-0.4 -0.6,-0.9 -0.6,-1.4 0,-0.5 0.3,-1 0.7,-1.4 l 72.8,-60.1 c 0.3,-0.3 0.8,-0.4 1.2,-0.4 0.4,0 0.9,0.2 1.2,0.5 l 4.5,4 -76.3,62.2 z m 4.5,4.4 76.2,-62.1 5.2,5.2 -75.1,63 z m 12.5,12.2 -4.7,-5.4 75.3,-63.2 6.3,5.5 -75,65 z m 84,-56.2 c 0,0.5 -0.2,1 -0.6,1.4 l -70.6,64.8 c -0.7,0.7 -1.9,0.7 -2.6,-0.1 l -7.2,-7 75.1,-65.1 5.3,4.6 c 0.3,0.3 0.6,0.8 0.6,1.4 z"
   id="path33" />
	<path
   class="st11"
   d="m 238.3,184.7 c -10.1,0 -18.3,-8.2 -18.3,-18.3 0,-10.1 8.2,-18.3 18.3,-18.3 10.1,0 18.3,8.2 18.3,18.3 0,10.1 -8.1,18.3 -18.3,18.3 z m 0,-33.9 c -8.5,0 -15.5,7 -15.5,15.5 0,8.5 7,15.5 15.5,15.5 8.5,0 15.5,-7 15.5,-15.5 0,-8.5 -6.9,-15.5 -15.5,-15.5 z"
   id="path34" />
</g>
<path
   class="st12"
   d="m 310.60071,311.10472 c 0,0 11.2,-4.8 18.3,-4.6 7.1,0.2 13.1,2.3 13.1,2.3 l 10.6,14.9 c 0,0 -13.7,-2.5 -21,2.3 -7.3,4.8 34.1,62.1 28.6,88.1 -12,56.9 -83.4,29.2 -83.4,29.2 l 0.5,-8.1 c 0,0 51.4,3.5 57.6,-11.2 6.1,-14.7 -1.7,-31.6 -8.1,-44.9 -18.3,-17.7 -17.7,-22.7 -17.7,-22.7 0,0 8.9,-1.8 8.6,-7.9 -0.3,-6.3 -7.1,-37.4 -7.1,-37.4 z"
   id="path35" />
<path
   class="st12"
   d="m 317.00071,406.40472 c 2.1,-5.3 11.8,-4 15.3,-1.7 3.5,2.3 6.7,1.7 6.7,1.7 l -0.1,14.7 c 0,0 -7,-8.5 -10.9,-9.2 -3.8,-0.7 -11,-5.5 -11,-5.5 z"
   id="path36" />
<path
   class="st12"
   d="m 200.70071,279.80472 28.6,26.8 c 10,1.9 20.5,-11.2 20.5,-11.2 0,0 -9.7,4.8 -16.9,2.6 -7.1,-2.1 -25.7,-22.6 -25.7,-22.6 z"
   id="path37" />
<path
   class="st12"
   d="m 253.40071,235.80472 c 0,0 -7.7,1.9 -7.4,4.9 0.3,3 25.1,29.2 30.5,29.8 5.4,0.5 9.4,-6 9.4,-6 0,0 -1.6,2.5 -9,-0.1 -7.4,-2.6 -23.5,-18.4 -23.5,-23.5 z"
   id="path38" />
<path
   class="st12"
   d="m 238.70071,224.90472 c 0,1.8 3.6,7.3 6.1,7.2 2.5,-0.1 -2.1,7.8 -4.8,6.1 -2.7,-1.7 -6.8,-3.6 -8.2,-7.3 -1.5,-3.6 6.9,-6 6.9,-6 z"
   id="path39" />
<path
   class="st12"
   d="m 295.60071,144.90472 c 0,0 7.7,2.3 15,2.3 6.5,0 26.7,1.9 26.7,-0.7 0,-2.6 6.8,3.7 -4.1,8 -29.3,11.8 -37.6,-9.6 -37.6,-9.6 z"
   id="path40" />
<path
   class="st12"
   d="m 262.70071,194.40472 41.2,-28.1 c 0,0 -22.1,0.1 -40.9,-4 -18.8,-4 -29.1,-17.4 -29.1,-17.4 l -1,9.9 c 0,0 4.5,2.8 10.4,7.5 5.9,4.7 19.4,32.1 19.4,32.1 z"
   id="path41" />
<path
   class="st12"
   d="m 102.00071,189.90472 c 28.1,22.1 55.9,-3.9 55.9,-3.9 0,0 -31.7,15.6 -48.5,2 -26.000002,-21.1 -5.4,-53.1 -5.4,-53.1 0,0 -27.700002,34.8 -2,55 z"
   id="path42" />
<path
   class="st12"
   d="m 371.90071,199.60472 2.8,3.1 c -0.4,-2.9 -2.8,-3.1 -2.8,-3.1 z"
   id="path43" />
<path
   class="st12"
   d="m 181.50071,21.604716 c 2.5,1.2 3.4,5.4 3.6,7 l -6.5,0.6 2,8.1 c 0,0 0,-2.9 6.2,-6.2 2.4,-1.3 4.3,-2.1 5.7,-2.6 l 13.4,-1.5 c 0,0 -0.8,-3.9 -1.9,-7.4 -1.2,-3.5 -11.6,-13.4999997 -11.6,-13.4999997 0,0 -6.2,-2.8 -11.2,2.4 -5,5.1999997 -5,9.0999997 -5,9.0999997 0,0 2.2,2.6 5.3,4 z"
   id="path44" />
<path
   class="st12"
   d="m 163.00071,83.904716 c 13.2,13.2 28.2,-5.1 28.2,-5.1 0,0 -10.5,10.4 -23.3,-0.1 -10.1,-8.3 -0.4,-22.8 -0.4,-22.8 0,0 -16.2,16.3 -4.5,28 z"
   id="path45" />
<path
   class="st12"
   d="m 336.60071,253.20472 c 0,0 -12.1,16.3 -17.8,30 -5.7,13.7 -4.8,18 0,18.6 4.8,0.6 37.6,3.9 42,-1.8 4.4,-5.7 5.1,-16.1 5.1,-16.1 0,0 13.1,2.1 20.8,0 7.7,-2.1 11.8,-7 11.8,-7 0,0 2.3,10.3 -11.8,11.2 -14,0.9 -15.8,0.9 -15.8,0.9 0,0 3.7,8 -0.7,10.9 -4.4,2.9 -20.5,9.7 -28.1,8.9 -7.6,-0.8 -31.4,2.3 -31.4,2.3 l -20.4,-15 49.1,-42.9 z"
   id="path46" />
<path
   class="st8"
   d="m 157.10071,391.60472 c 0,0 4.4,94.5 6.2,101 2,7.2 10.1,9.2 18.2,9.2 15.2,0 78.7,-15.9 78.7,-15.9 0,0 -67.7,14.8 -84,0.1 -11.4,-10.4 -19.1,-94.4 -19.1,-94.4 z"
   id="path47" />
<path
   class="st12"
   d="m 381.30071,210.10472 -6.6,-7.4 c 0.2,1.6 -0.2,4 -1.9,7.6 -4.9,10.3 -100.1,91.2 -110.3,100.7 -14.3,13.4 -18.3,9.5 -18.3,9.5 l -50.8,-39 c -2,2.3 -5.9,4.7 -13.1,3.6 -12.4,-1.9 -31.6,-11.6 -38.9,-17.7 -7.4,-6.1 -25.1,-50 -25.1,-50 l 6.7,-4.2 c 0,0 12.9,40.6 26.4,51.5 25.3,20.4 46,13.6 46,13.6 3.9,-1 6.5,-1.7 11.8,-3 7.6,-1.9 12.8,-16.1 12.8,-16.1 0,0 -3.1,4.3 -6.7,6.9 -4.6,3.3 -16.3,0.7 -16.3,0.7 0,0 -31.1,-20.9 -39.7,-35.2 -6,-10 -9.1,-16 -9.2,-21.3 0,0 7.7,-4.3 7.7,-4.4 6.5,-3.3 35,-11.6 35,-11.6 l -2.9,-4.2 -35.8,11.3 c 14.6,-6.6 42.2,-14 42.2,-14 0,0 -26.4,2.1 -46.3,9.9 -19.9,7.7 -35.7,15.7 -35.7,15.7 l -14.600002,-2.7 -16.8,-55.9 5.8,-24.2 -10.4,21.2 8.9,-21.5 28.400002,-13.6 30,-8.5 9.3,-11.300004 c 0,0 0,0 8.5,7.400004 8.5,7.4 15.6,2.2 15.6,2.2 0,0 5.6,5 7.9,7.2 2.3,2.1 12.3,5.4 12.3,5.4 0,0 0.1,3.3 6.9,4.7 7.3,1.6 11.6,-1.3 11.6,-1.3 0,0 -14,-5.9 -25.6,-13 -10.8,-6.6 2.7,-11.600004 -9.5,-9.400004 -2.9,0.500004 -5.5,0.600004 -7.9,0.2 11.3,-1.2 28,-6.3 28,-6.3 0,0 7.8,-11.4 3.4,-6.2 -4.4,5.2 -29.2,11.5 -36.1,7.1 -6.1,-3.8 -15.6,-30.3 -15.9,-36.5 -0.3,-6.2 5.8,-13.2 5.8,-13.2 0,0 -6.5,-10.1 -3.8,-23 1.6,-7.7 11.3,-16.5999997 11.3,-16.5999997 0,0 -13,6.1999997 -16.8,20.3999997 -2.6,9.5 0,16.2 1.9,19.5 l -2.8,-3.9 c 0,0 -36.5,9.4 -70.600002,81.600004 -28.6,60.5 -12.4,122.5 -5.5,142.6 5.5,16.2 10.7,30.9 23.4,42.7 l 2.7,4 -32,3.6 c 0,0 -8.9,-4 -11.5,-5.5 -2.6,-1.5 -4.7,-2.7 -4.7,-2.7 l -16.8,8.5 -4.8,5.1 c 0,0 -7.9,52.6 -7.9,69 -0.1,16.4 4.7,68 4.7,68 l 6,7.1 33.3,19.5 c 0,0 -25.6,6.7 -27,18.7 -1.4,12 12.5,38.4 39.3,48.3 26.800002,9.9 32.900002,10.4 36.000002,10.7 20.8,2.3 114.1,-32 114.1,-32 0,0 -70.3,15.3 -75.3,13.2 -5,-2.1 -6.8,-4.3 -12.7,-11.9 -5.9,-7.5 -11.6,-120.7 -12.4,-134.9 -1.2,-21.4 -1.5,-40.6 7,-42.9 5.9,-1.6 20.4,-2 26.5,-1.2 l 46.7,14.5 c 0,0 45.5,21.7 54.4,24.5 8.9,2.9 8.2,-6.3 8.2,-6.3 0,0 5.3,0.9 14.6,0 9.3,-0.9 16.9,-18.9 16.9,-18.9 6.9,-6.5 -2.8,-23.7 -2.8,-23.7 0,0 1.7,7.8 -7.3,16.6 -9,8.8 -21.5,-9.6 -28.8,-16.3 -7.3,-6.7 -7.6,-17.2 -7.6,-17.2 l 66.1,-57.2 z"
   id="path48" />
<path
   class="st12"
   d="m 140.20071,39.304716 c 0,0 -18.1,2.8 -27.3,7.3 -9.3,4.5 -19.400002,11 -19.400002,11 0,0 -0.9,5.4 2.7,10.8 3.6,5.3 3.6,5.3 3.6,5.3 0,0 10.900002,-9.9 17.600002,-14 6.7,-4.1 22.9,-15.6 22.9,-15.6 v -4.8 z"
   id="path49" />
<path
   class="st12"
   d="m 93.500708,85.304716 c 0,0 -5.7,-6.2 -12.8,-5.8 -7.1,0.4 -24.3,9.2 -30.1,18.8 -2,3.400004 -3.9,7.500004 -4.9,9.900004 -0.5,1.2 -0.4,2.5 0.3,3.5 2.3,3.5 7.8,11.5 10.8,12.9 3.9,1.9 9.6,6.5 9.6,6.5 0,0 11.1,-18.8 14.1,-26.6 3.1,-7.800004 13,-19.200004 13,-19.200004 z"
   id="path50" />
<path
   class="st12"
   d="m 64.000708,140.80472 c 0,0 -6.4,24.4 -7.4,34.3 -1,9.9 -1.2,29.5 -1.2,29.5 0,0 -20.4,-5.5 -31.4,-14.8 -9.1,-7.6 -14.4999998,-17.4 -14.4999998,-17.4 0,0 1.2999998,-10.1 8.2999998,-17.9 5.1,-5.7 17.7,-12.4 17.7,-12.4 0,0 13.3,-2.4 17.2,-1.8 4,0.5 11.3,0.5 11.3,0.5 z"
   id="path51" />
<path
   class="st12"
   d="m 24.700708,220.10472 c 0,0 -9.7,9.2 -12.2,15.7 -2.5,6.6 0,20.1 0,20.1 0,0 24.7,13.7 38.9,14.6 14.1,0.9 17.3,0.9 17.3,0.9 0,0 -10.2,-28 -9.8,-33 0.4,-5 -2.6,-30 -2.6,-30 0,0 -18.3,3.8 -21.2,4.9 -2.8,1.1 -10.4,6.8 -10.4,6.8 z"
   id="path52" />
<path
   class="st12"
   d="m 46.200708,304.50472 c 0,0 4,-12.1 10.1,-15.7 6.1,-3.6 15,-12 15,-12 l 26.2,35.2 c 0,0 -12.3,1.1 -19,2.1 -21,3.6 -32.3,-9.6 -32.3,-9.6 z"
   id="path53" />
<path
   class="st13"
   d="m 156.40071,153.30472 c -3.1,-12.3 -16.4,-19.6 -29.7,-16.3 -10.9,2.8 -18.4,11.8 -19,21.8 2.8,-3 6.5,-5.3 10.9,-6.4 12.1,-3.1 24.4,4.3 27.4,16.4 0.8,3.1 0.9,6.2 0.4,9.1 8.1,-5.5 12.4,-15.2 10,-24.6 z m -7,-2.2 c -1.4,1.4 -5.1,-0.1 -8.2,-3.2 -3.2,-3.2 -4.6,-6.9 -3.2,-8.2 1.4,-1.4 5.1,0.1 8.2,3.2 3.2,3.1 4.6,6.8 3.2,8.2 z"
   id="path54" />
<path
   class="st12"
   d="m 321.70071,424.60472 c 0,0 0.9,2.6 -4.3,2.9 -5.2,0.3 -10,-1.5 -10,-1.5 l 5.5,8.1 14.8,-2.3 z"
   id="path55" />
<path
   class="st12"
   d="m 323.60071,459.30472 c 0,0 -5.9,-0.3 -10.7,0 -4.7,0.3 -8.4,3.1 -8.4,3.1 l 8.4,-8.2 14.8,-0.6 z"
   id="path56" />
<path
   class="st12"
   d="m 368.40071,441.70472 c 0,0 -1.8,6.4 -4.6,8.4 -2.9,1.9 -6.5,3.6 -6.5,3.6 l -4.7,-5.6 15.5,-11.7 z"
   id="path57" />
</svg>
