<?xml version="1.0" encoding="UTF-8" standalone="no"?>
<!-- Generator: Adobe Illustrator 21.1.0, SVG Export Plug-In . SVG Version: 6.00 Build 0)  -->

<svg
   version="1.1"
   id="Layer_1"
   x="0px"
   y="0px"
   viewBox="0 0 489.00977 437.34381"
   xml:space="preserve"
   sodipodi:docname="moth.svg"
   width="489.0098"
   height="437.34381"
   inkscape:version="1.3.2 (091e20e, 2023-11-25)"
   xmlns:inkscape="http://www.inkscape.org/namespaces/inkscape"
   xmlns:sodipodi="http://sodipodi.sourceforge.net/DTD/sodipodi-0.dtd"
   xmlns="http://www.w3.org/2000/svg"
   xmlns:svg="http://www.w3.org/2000/svg"><defs
   id="defs141" /><sodipodi:namedview
   id="namedview141"
   pagecolor="#ffffff"
   bordercolor="#111111"
   borderopacity="1"
   inkscape:showpageshadow="0"
   inkscape:pageopacity="0"
   inkscape:pagecheckerboard="1"
   inkscape:deskcolor="#d1d1d1"
   inkscape:zoom="0.32395333"
   inkscape:cx="243.86229"
   inkscape:cy="219.16737"
   inkscape:window-width="1312"
   inkscape:window-height="449"
   inkscape:window-x="0"
   inkscape:window-y="25"
   inkscape:window-maximized="0"
   inkscape:current-layer="Layer_1" />
<style
   type="text/css"
   id="style1">
	.st0{fill:#2C5A91;}
	.st1{fill:#BAE1EF;}
	.st2{fill:#FDF057;}
	.st3{fill:#A7A9AC;}
	.st4{fill:#FEBC11;}
	.st5{fill:#EBF1F4;}
	.st6{fill:#FEE44C;}
	.st7{fill:#FBAE61;}
	.st8{fill:#AF6F29;}
	.st9{fill:#8BA3B4;}
	.st10{fill:#5C97D1;}
	.st11{opacity:0.4;fill:#55285B;}
	.st12{opacity:0.4;}
	.st13{fill:#55285B;}
	.st14{opacity:0.3;fill:#FFFFFF;}
	.st15{fill:none;}
	.st16{fill:#010101;}
</style>
<path
   class="st0"
   d="m 220.71443,222.44381 c 0,0 -103.9,-18.6 -147.199998,-47.4 -75.8999998,-50.5 -87.1,-94.999996 -50.2,-131.099996 18,-17.6 57.5,-11.8 80.299998,-3.2 43,16.3 102.2,75.999996 102.2,75.999996 0,0 -19.8,16.9 -18,33.1 4.1,37 31.3,39.3 31.2,38.6 l -2.6,8.4 12.2,4.3 c 0,0 -7.9,11.5 -5.8,13.9 2,2.4 7.7,-2.2 7.7,-2.2 l -9.8,9.6"
   id="path1" />
<path
   class="st0"
   d="m 283.31443,114.74381 c 0,0 80.8,-83.899996 105.6,-91.699996 24.8,-7.7 33.3,-13.3999998 64.9,-3.4 43.6,13.8 36,49.4 30.7,63.2 -5.4,13.8 -19.9,47.099996 -68.1,74.599996 -48.2,27.5 -70.2,37 -70.2,37 0,0 32.4,-7.3 58.8,-3.2 26.4,4.1 33.9,23.7 35.8,34.9 3.2,18.7 -6.1,45 -40.8,55.5 -32.1,9.7 -88,9.5 -113.6,3.9 -25.6,-5.6 -15.2,-11.9 -15.2,-11.9 l 4.9,-7 -7.2,-11.7 5.2,-2.4 -6.7,-18 10,1.5 -8,-16.8 6.2,-4.3 -10.2,-11 c 0,0 9,-7.8 7.1,-7 -2,0.7 -1.3,-5.6 -1.3,-5.6 0,0 20,-7.8 25.1,-17.4 5.1,-9.6 12.9,-22.6 6.1,-37.8 -6.7,-15.4 -19.1,-21.4 -19.1,-21.4 z"
   id="path2" />
<path
   class="st0"
   d="m 220.21443,223.44381 c 0,0 -10.4,-1.1 -24.4,-4.2 -14,-3.1 -31.5,-4.4 -31.5,-4.4 0,0 -63.9,-6.1 -82.099998,5.6 -18.2,11.7 -30.1,29.2 -28.8,44.5 1.8,19.7 5.6,37.4 34,46.7 28.399998,9.3 68.399998,3.8 79.399998,0.6 25.1,-7.5 53.4,-25.1 53.4,-25.1 l 8.2,-10.7 c 0,0 -8,2.5 -10,-0.3 -2,-2.8 8.9,-16.6 8.9,-16.6 0,0 -11.1,2.6 -12.9,0 -1.9,-2.6 11.4,-16.6 11.4,-16.6 0,0 -11.6,2.9 -12.9,0 -1.3,-2.9 11.5,-11 11.5,-11 0,0 -5.2,0.3 -7.5,-1.5 -2.4,-1.8 3.3,-7 3.3,-7 z"
   id="path3" />
<path
   class="st1"
   d="m 304.01443,151.04381 c 0,24.2 -25.2,43.9 -57.8,43.9 -32.6,0 -59.2,-19.7 -59.2,-43.9 0,-24.2 21.1,-44.6 59.2,-45.2 32.7,-0.6 57.8,20.9 57.8,45.2 z"
   id="path4" />
<path
   class="st2"
   d="m 311.21443,158.74381 c -0.7,-7 14.7,-18.6 15,-20.4 1.6,-10.8 -15.7,-26.5 -13.4,-29.5 2.3,-3 5.1,-9.999996 9.8,-8.1 4.7,1.9 13.9,17.1 17.1,17.5 3.2,0.4 23,-14.6 30.3,-10.6 7.3,4 15.4,13.9 17.2,24.4 1.8,10.5 -2.2,20.8 -7.1,26 -4.9,5.2 -35,31.8 -40.9,31.9 -5.9,0.1 -20.7,-10.5 -23.4,-14.9 -2.7,-4.4 -4.6,-16.3 -4.6,-16.3 z"
   id="path5" />
<path
   class="st2"
   d="m 185.91443,166.34381 c 0.7,-7 -14.7,-18.6 -15,-20.4 -1.6,-10.8 15.7,-26.5 13.4,-29.5 -2.3,-3 -5.1,-10 -9.8,-8.1 -4.7,1.9 -13.9,17.1 -17.1,17.5 -3.2,0.4 -23,-14.6 -30.3,-10.6 -7.3,4 -15.4,13.9 -17.2,24.4 -1.8,10.5 2.2,20.8 7.1,26 4.9,5.2 35,31.8 40.9,31.9 5.9,0.1 20.7,-10.5 23.4,-14.9 2.7,-4.5 4.6,-16.3 4.6,-16.3 z"
   id="path6" />
<path
   class="st2"
   d="m 312.71443,230.44381 c 7.6,-1.8 17.8,-0.5 22.3,-1.3 4.4,-0.8 5.6,-26.3 11.6,-26.3 6,0 5.6,0.6 8.3,1.1 2.7,0.5 -2.3,18.4 1.3,22.2 3.6,3.8 21.7,5.6 24.2,15.6 3,11.8 -7.9,30.5 -17,32.8 -5.8,1.5 -49.5,-3.1 -53.4,-3.4 -4,-0.3 -8.8,-17.8 -6.1,-24.4 2.9,-6.6 8.8,-16.3 8.8,-16.3 z"
   id="path7" />
<path
   class="st3"
   d="m 219.11443,188.34381 c 0,0 17.4,7.2 27.1,6.6 9.7,-0.6 25.1,-3.8 25.1,-3.8 0,0 4.4,-0.1 1.3,5.6 -3.1,5.7 -19.8,7.1 -26.3,7 -6.4,0 -28.3,-3.5 -30,-7.1 -1.5,-3.5 2.8,-8.3 2.8,-8.3 z"
   id="path8" />
<polygon
   class="st3"
   points="248.3,242.8 237.5,246.7 241.3,270.1 253,265.6 "
   id="polygon8"
   transform="translate(-15.285568,-146.05619)" />
<polygon
   class="st3"
   points="286.6,245.8 282.6,272 271.8,265.6 276.2,242.8 "
   id="polygon9"
   transform="translate(-15.285568,-146.05619)" />
<path
   class="st2"
   d="m 177.71443,242.84381 c 0,0 12.6,7.6 14.2,13.7 1.6,6.2 -2.8,24.7 -2.8,24.7 0,0 -44.2,19 -49.2,16.8 -5,-2.3 -20.7,-11.5 -20.7,-16.8 0,-5.2 -2.5,-15.2 0.2,-19.4 2.7,-4.2 15,-11.7 15,-11.7 0,0 -4.5,-20.5 -3.1,-22.2 1.4,-1.8 6.8,-4.6 10.3,-1.9 3.6,2.6 8.4,19.9 16.5,20.6 8.1,0.7 19.6,-3.8 19.6,-3.8 z"
   id="path9" />
<path
   class="st2"
   d="m 213.11443,376.04381 c 0,0 -1,10.4 0,13.6 1,3.2 2,13.1 2,13.1 0,0 -11.9,9.8 -12.6,11.9 -0.7,2.1 -1.5,16.4 1.7,18.5 3.2,2.1 30.9,3.3 38.2,-3.4 7.4,-6.7 6.3,-11.3 7,-14.8 0.7,-3.5 -2.1,-11.2 -2.1,-11.2 0,0 5.8,-20.4 3.5,-23.8 -2.3,-3.4 -16.5,-7.7 -20.4,-7.7 -3.8,0 -17.3,3.8 -17.3,3.8 z"
   id="path10" />
<path
   class="st2"
   d="m 240.91443,357.04381 c 0,0 3.3,-5.7 1.6,-7.7 -1.7,-2 -1.4,-5 -1.4,-5 0,0 31.7,-15.8 31.6,-13.9 -0.2,1.9 7.2,7.1 11.4,13.2 4.1,6.1 6,16.8 4.2,19.1 -1.8,2.3 -17.6,4.9 -17.6,4.9 0,0 1.8,16.2 -5.1,20.1 -6.9,4 -14.2,4.9 -14.2,4.9 l -1.9,-4.9 -2.1,-9.2 -3.4,-2.9 z"
   id="path11" />
<path
   class="st4"
   d="m 139.21443,183.64381 c 0,0 13.2,-1.6 22.9,-9.8 9.7,-8.3 11.6,-23 11.6,-23 l 5.7,5.4 c 0,0 -0.3,10.6 -11.7,21.7 -9.1,9 -22.3,12.2 -22.3,12.2 z"
   id="path12" />
<path
   class="st4"
   d="m 163.41443,246.54381 6.2,-1.4 c 0,0 9.5,7.5 11.6,14.3 3.3,10.6 -0.8,26 -0.8,26 l -6.7,3.3 c 0,0 3.6,-10.8 1.6,-21.8 -2.9,-15.5 -11.9,-20.4 -11.9,-20.4 z"
   id="path13" />
<path
   class="st4"
   d="m 322.51443,229.34381 5.7,1 c 0,0 -8.2,8 -7,20.6 1.2,12.6 7,22.4 7,22.4 l -8.6,-1.4 c 0,0 -5.1,-10.4 -5.2,-20.5 -0.1,-10.1 8.1,-22.1 8.1,-22.1 z"
   id="path14" />
<path
   class="st4"
   d="m 317.81443,147.14381 4.8,-4.9 c 0,0 2.3,14.6 9.8,22 8.2,8.1 25.2,10.7 25.2,10.7 l -5.4,6.1 c 0,0 -10.8,-0.9 -21.7,-10 -10.9,-9.1 -12.7,-23.9 -12.7,-23.9 z"
   id="path15" />
<path
   class="st4"
   d="m 213.11443,389.64381 c 0,0 8,-2.5 11.2,-2.6 3.2,-0.1 14.2,1.3 14.2,1.3 v -5.7 c 0,0 -10.9,-2.2 -15.5,-1.1 -4.6,1.1 -9.9,2.2 -9.9,2.2 z"
   id="path16" />
<path
   class="st4"
   d="m 260.01443,335.24381 c 0,0 8.3,6 10.7,11.7 2.5,5.8 7.5,18.4 7.5,18.4 l 5.7,-2.3 c 0,0 -4.1,-12.2 -7.9,-18.5 -3.8,-6.3 -9.7,-12.1 -9.7,-12.1 z"
   id="path17" />
<ellipse
   class="st5"
   cx="246.81444"
   cy="154.14383"
   rx="35.5"
   ry="33.900002"
   id="ellipse17" />
<circle
   class="st6"
   cx="219.01443"
   cy="159.2438"
   r="15.7"
   id="circle17" />
<circle
   class="st6"
   cx="276.81445"
   cy="158.34381"
   r="15.9"
   id="circle18" />
<path
   class="st7"
   d="m 228.61443,201.04381 c 0,0 9.1,3.3 17.8,2.8 8.6,-0.5 19.2,-2.6 19.2,-2.6 l 10.2,13.6 -6.2,4.3 6.2,10.2 -1.5,8.7 -5.1,0.7 5.1,13.7 -5.2,2.4 7.2,11.7 -4.9,7 2,11.9 -1.4,3.9 -4.6,2.9 c 0,0 2.3,7.4 1.9,10.9 -0.4,3.5 -1.5,7.6 -3.7,6.5 -2.2,-1.2 -2.2,-1.2 -2.2,-1.2 0,0 -3.7,13.1 -6.9,17.1 -3.2,4 -9.4,-5.8 -9.4,-5.8 0,0 -5,6 -6.1,4.9 -1.1,-1.1 -3.3,-14.9 -3.3,-14.9 0,0 -8.6,-0.2 -8.6,-2.8 0,-2.6 2.1,-10.5 2.1,-10.5 0,0 -11.8,1.4 -11.5,-2.4 0.3,-3.8 8.6,-17.5 8.6,-17.5 0,0 -9.4,5.1 -10,-0.3 -0.6,-5.4 8.9,-16.6 8.9,-16.6 0,0 -13.8,3.5 -12.9,0 0.9,-3.5 11.4,-16.6 11.4,-16.6 0,0 -13.4,6.1 -12.9,0 0.5,-6.1 11.5,-11 11.5,-11 0,0 -9.9,1.2 -6.5,-5.8 3.5,-7 9.4,-12 9.4,-12 0,0 -2.7,5.1 -4.9,-0.8 -2.2,-5.9 3.8,-10.8 3.8,-10.8 z"
   id="path18" />
<path
   class="st8"
   d="m 228.41443,191.14381 2.2,-5.8 c 0,0 6.8,2.6 13.4,2.5 6.6,-0.1 18,-3.1 18,-3.1 l 1.5,6.4 c 0,0 -8.7,2.3 -17.2,2.5 -8.6,0.1 -17.9,-2.5 -17.9,-2.5 z"
   id="path19" />
<polygon
   class="st5"
   points="237.5,359.3 236,368.5 193,334.1 197.8,324.1 "
   id="polygon19"
   transform="translate(-15.285568,-146.05619)" />
<polygon
   class="st5"
   points="331,321 337.8,327.6 291.1,360.9 286.6,353.9 "
   id="polygon20"
   transform="translate(-15.285568,-146.05619)" />
<polygon
   class="st5"
   points="318.6,398.5 289.5,397.2 285.7,386.1 319.3,388.8 "
   id="polygon21"
   transform="translate(-15.285568,-146.05619)" />
<polygon
   class="st5"
   points="209,408.4 207.2,400 238.3,388.4 230.3,399.2 "
   id="polygon22"
   transform="translate(-15.285568,-146.05619)" />
<path
   class="st7"
   d="m 263.01443,97.043814 c -0.2,0.4 -10.9,-35.7 -9.9,-42.4 0.4,-2.7 5.3,5.6 5.3,5.6 0,0 -2.8,-16.3 1,-24.6 3.8,-8.3 6.4,-19.9 9.3,-18.2 1.5,0.9 2.4,11.2 1.9,11.9 0,0 11,-15.3 15.9,-17.2 4.9,-1.9 40.2,-8.7999998 40.2,-8.7999998 l -7.2,8.6999998 c 0,0 16.9,5.9 13.6,9 -3.3,3.1 -32.3,8.6 -32.3,8.6 0,0 9.3,3.1 9.6,5.9 0.3,2.8 -26.6,10.6 -26.6,10.6 12.6,1.7 -9.6,20.8 -9.6,20.8 0,0 2.8,4.7 1.5,6.9 -1.3,2.2 -6.5,7.3 -6.5,7.3 v 16.8 z"
   id="path22" />
<path
   class="st7"
   d="m 224.91443,98.743814 4.9,-0.8 c 0,0 2.3,-8.6 0.5,-11.8 -1.8,-3.2 -5.3,-5.4 -5,-8 0.3,-2.6 1.1,-13.1 0,-15.7 -1.1,-2.6 -8.7,1.4 -8.7,1.4 0,0 1.8,-22.6 -3.9,-34 -5.7,-11.4 -8.9,-16.6 -9.4,-15.6 -0.5,1 -4.6,13.9 -4.6,13.9 0,0 -16.2,-23.4999998 -26.1,-25.5999998 -9.9,-2.09999998 -13.1,0.6 -13.1,0.6 0,0 -18.7,-2.59999998 -18.7,-0.6 0,5.2 22.4,15.3999998 22.4,15.3999998 0,0 -15.4,1.1 -15.4,3.6 0,2.5 27.5,11.9 27.5,11.9 0,0 -10.6,1.1 -10,4.5 0.6,3.4 14.3,4 16.2,5.7 1.9,1.7 14.1,8.9 14.1,8.9 0,0 -6.6,-0.6 -7.4,2.3 -0.8,2.9 18.1,15.1 18.1,15.1 0,0 -2.3,5.4 -1.6,6.4 0.7,1 8,3.6 11.3,7.3 3.3,3.7 8.9,15.1 8.9,15.1 z"
   id="path23" />
<polygon
   class="st9"
   points="253,265.6 241.3,270.1 239.8,254.9 250.5,253.2 "
   id="polygon23"
   transform="translate(-15.285568,-146.05619)" />
<polygon
   class="st9"
   points="285.1,255.7 282.6,272 271.8,265.6 274.2,253.6 "
   id="polygon24"
   transform="translate(-15.285568,-146.05619)" />
<polygon
   class="st5"
   points="311.5,468.4 305.4,473.5 284.9,453.7 284.5,440.3 "
   id="polygon25"
   transform="translate(-15.285568,-146.05619)" />
<polygon
   class="st5"
   points="253.8,466.7 256.4,470.6 253.8,487.3 245.8,485.1 248.1,456.9 253,455.6 "
   id="polygon26"
   transform="translate(-15.285568,-146.05619)" />
<polygon
   class="st5"
   points="309.2,486.5 299.3,489.8 296.1,483 305.2,479.6 "
   id="polygon27"
   transform="translate(-15.285568,-146.05619)" />
<polygon
   class="st5"
   points="250,518.3 242,517 244.8,505.6 252.6,505.6 "
   id="polygon28"
   transform="translate(-15.285568,-146.05619)" />
<circle
   class="st7"
   cx="233.81444"
   cy="349.44382"
   r="9.3000002"
   id="circle28" />
<circle
   class="st7"
   cx="300.01443"
   cy="331.44382"
   r="8.6999998"
   id="circle29" />
<path
   class="st3"
   d="m 204.31443,425.04381 c 0,0 -3.7,3 1,6.3 7.4,5.2 29.3,3.7 37.2,-1.6 7.9,-5.3 4.2,-9.5 4.2,-9.5 0,0 -3.1,7.7 -21.4,7.3 -21,-0.5 -21,-2.5 -21,-2.5 z"
   id="path29" />
<path
   class="st3"
   d="m 240.91443,357.04381 3.1,-4.1 c 0,0 5.1,19.1 7.5,24.6 2.4,5.5 7.5,13.3 7.5,13.3 h -6.6 l -2.7,-3 -2.1,-9.2 -3.4,-2.9 z"
   id="path30" />
<rect
   x="5.7426181"
   y="69.39418"
   transform="rotate(-57.077496)"
   class="st10"
   width="1.2999899"
   height="162.89874"
   id="rect30"
   style="stroke-width:0.999992" />
<rect
   x="-29.984375"
   y="217.87294"
   transform="rotate(-59.32414)"
   class="st10"
   width="1.3000494"
   height="17.200655"
   id="rect31"
   style="stroke-width:1.00004" />
<rect
   x="-29.971216"
   y="42.369144"
   transform="rotate(-59.329068)"
   class="st10"
   width="1.299983"
   height="136.79823"
   id="rect32"
   style="stroke-width:0.999987" />
<rect
   x="-67.29306"
   y="40.789455"
   transform="rotate(-59.948119)"
   class="st10"
   width="1.3000416"
   height="125.50401"
   id="rect33"
   style="stroke-width:1.00003" />
<rect
   x="-112.94133"
   y="83.423515"
   transform="rotate(-64.677807)"
   class="st10"
   width="1.2999756"
   height="196.39632"
   id="rect34"
   style="stroke-width:0.999981" />
<rect
   x="157.67822"
   y="274.95224"
   transform="rotate(-37.462386)"
   class="st10"
   width="175.48833"
   height="1.2999134"
   id="rect35"
   style="stroke-width:0.999933" />
<rect
   x="223.29909"
   y="283.62067"
   transform="rotate(-33.03852)"
   class="st10"
   width="154.09923"
   height="1.2999934"
   id="rect36"
   style="stroke-width:0.999995" />
<rect
   x="264.64075"
   y="306.6875"
   transform="rotate(-31.022711)"
   class="st10"
   width="118.40511"
   height="1.300056"
   id="rect37"
   style="stroke-width:1.00004" />
<rect
   x="228.37759"
   y="328.12555"
   transform="rotate(-29.366805)"
   class="st10"
   width="122.40027"
   height="1.3000028"
   id="rect38"
   style="stroke-width:1" />
<rect
   x="-60.953667"
   y="250.58241"
   transform="rotate(-59.036243)"
   class="st10"
   width="1.3000107"
   height="49.500408"
   id="rect39"
   style="stroke-width:1.00001" />
<rect
   x="164.54874"
   y="292.14798"
   transform="rotate(-35.258617)"
   class="st10"
   width="25.701426"
   height="1.300072"
   id="rect40"
   style="stroke-width:1.00006" />
<path
   class="st10"
   d="m 271.71443,195.24381 -0.7,-1.1 c 6.7,-4.1 40.3,-24.5 41.3,-24.8 l 0.4,1.3 -0.2,-0.6 0.2,0.6 c -1.2,0.5 -30,17.9 -41,24.6 z"
   id="path40" />
<rect
   x="173.87816"
   y="308.00613"
   transform="rotate(-25.063278)"
   class="st10"
   width="45.997944"
   height="1.2999419"
   id="rect41"
   style="stroke-width:0.999955" />
<rect
   x="-235.36388"
   y="147.73949"
   transform="rotate(-89.803789)"
   class="st10"
   width="1.3000076"
   height="75.300446"
   id="rect42"
   style="stroke-width:1.00001" />
<rect
   x="-235.33778"
   y="62.607719"
   transform="rotate(-89.8045)"
   class="st10"
   width="1.3000075"
   height="70.60041"
   id="rect43"
   style="stroke-width:1.00001" />
<rect
   x="25.506029"
   y="269.93784"
   transform="rotate(-5.4881315)"
   class="st10"
   width="69.398888"
   height="1.299979"
   id="rect44"
   style="stroke-width:0.999984" />
<polygon
   class="st10"
   points="238.9,410.4 236.9,412.2 207.5,418.6 207.3,417.3 "
   id="polygon44"
   transform="translate(-15.285568,-146.05619)" />
<rect
   x="1.1822164"
   y="305.5144"
   transform="rotate(-12.16399)"
   class="st10"
   width="60.397003"
   height="1.2999355"
   id="rect45"
   style="stroke-width:0.99995" />
<rect
   x="19.174368"
   y="335.46045"
   transform="rotate(-15.747073)"
   class="st10"
   width="114.80369"
   height="1.3000417"
   id="rect46"
   style="stroke-width:1.00003" />
<rect
   x="292.51352"
   y="293.29373"
   transform="rotate(-14.200227)"
   class="st10"
   width="64.697037"
   height="1.2999405"
   id="rect47"
   style="stroke-width:0.999954" />
<rect
   x="208.44"
   y="293.26697"
   transform="rotate(-14.200227)"
   class="st10"
   width="70.296783"
   height="1.2999405"
   id="rect48"
   style="stroke-width:0.999954" />
<rect
   x="327.82303"
   y="292.89337"
   transform="rotate(-9.7759821)"
   class="st10"
   width="66.201393"
   height="1.3000275"
   id="rect49"
   style="stroke-width:1.00002" />
<rect
   x="347.66479"
   y="293.48376"
   transform="rotate(-5.8314605)"
   class="st10"
   width="62.698421"
   height="1.2999672"
   id="rect50"
   style="stroke-width:0.999975" />
<rect
   x="243.65298"
   y="293.58014"
   transform="rotate(-5.8314605)"
   class="st10"
   width="34.599125"
   height="1.2999672"
   id="rect51"
   style="stroke-width:0.999975" />
<polygon
   class="st10"
   points="418.6,426.7 418.6,428 293.2,432.2 293.2,430.9 "
   id="polygon51"
   transform="translate(-15.285568,-146.05619)" />
<path
   class="st11"
   d="m 108.91443,157.34381 c 0,0 0.3,9.9 2.7,14.9 2.4,5 39.4,31.3 43.6,33 4.2,1.7 16.8,-0.8 20.1,-2.9 3.3,-2.1 8.2,-4.8 8.2,-4.8 l 34.3,28.5 4.5,-7.3 -40.7,-34 -10.9,7.2 -11.9,6.2 -8.6,-4.6 z"
   id="path51" />
<path
   class="st11"
   d="m 187.81443,149.64381 c 0,0 -2.9,16.2 0,27.4 2.4,9.3 4.1,12.1 4.1,12.1 l 28.4,24 6.2,-7.7 -9.4,-8 3,-6.4 c 0,0 -18,-10.3 -21.7,-14 -8.4,-8.4 -10.6,-27.4 -10.6,-27.4 z"
   id="path52" />
<path
   class="st11"
   d="m 265.61443,202.64381 c 0,0 -4.1,3.8 -14.7,7.3 -14.8,4.9 -14.8,4.9 -14.8,4.9 0,0 -10.5,4.4 -7.7,8.8 2.8,4.5 9,0.4 9,0.4 0,0 -9,8.4 -7.9,11.7 1.1,3.4 6.2,4.2 6.2,4.2 0,0 -12.8,9.2 -9,10.9 3.8,1.7 8.1,2.5 8.1,2.5 0,0 -12,10.4 -6.4,12.6 5.6,2.2 8,2.2 8,2.2 0,0 -12.6,16.2 -8,17.9 4.5,1.7 14,-0.4 14,-0.4 0,0 -10.9,12.3 -6.7,14 4.3,1.7 10.2,-3.5 10.2,-3.5 0,0 -6.6,10.9 -1.5,13.2 5.1,2.4 7,-4.7 7,-4.7 0,0 -3.5,12.1 1.6,12 5.1,-0.1 6.9,-5.2 6.9,-5.2 0,0 -0.1,16.2 -3.4,15.8 -7.9,-1 -9.4,-7.8 -9.4,-7.8 0,0 -3.5,8.8 -6.1,4.9 -2.6,-3.9 -3.3,-14.9 -3.3,-14.9 0,0 -9,0.2 -8.6,-2.8 0.4,-3 3,-10.5 3,-10.5 0,0 -11.1,0.4 -11.7,-1 -0.6,-1.4 8.7,-20.6 8.7,-20.6 0,0 -13.2,3.8 -13.1,0 0.2,-3.6 10.7,-16.6 10.7,-16.6 0,0 -11.6,2.2 -10.4,-0.2 1.2,-2.4 9.5,-14.9 9.5,-14.9 0,0 -13.1,4.9 -12.9,0 0.2,-4.9 12.2,-13.6 12.2,-13.6 0,0 -9.2,5.5 -8.2,1.2 1,-4.3 10.4,-16.3 10.4,-16.3 0,0 -7,3.4 -6.8,-0.8 0.2,-4.2 8.3,-10.9 8.3,-10.9 l 17.8,1.5 z"
   id="path53" />
<path
   class="st11"
   d="m 271.31443,191.14381 c 0,0 -9.8,5.8 -23.8,5.8 -5,0 -14.2,-0.2 -14.2,-0.2 l -2.6,6 -13.5,-5.2 3,-6.4 c 0,0 16.9,1.9 22,2.2 5.1,0.2 29.1,-2.2 29.1,-2.2 z"
   id="path54" />
<polygon
   class="st11"
   points="246.4,264 253,265.6 241.3,270.1 237.5,246.7 241.6,246.4 "
   id="polygon54"
   transform="translate(-15.285568,-146.05619)" />
<polygon
   class="st11"
   points="277.2,264.3 282.6,272 271.8,265.6 276.2,242.8 280.4,245.5 "
   id="polygon55"
   transform="translate(-15.285568,-146.05619)" />
<path
   class="st11"
   d="m 116.11443,266.94381 c 0,0 4.2,5.9 8.7,5.6 0,0 -2.1,5.1 1.8,8.8 3.7,3.5 10.6,2.1 10.6,2.1 0,0 1.8,2.9 7,3.1 17.6,0.6 47.8,-15.3 47.8,-15.3 l -2.8,10.1 c 0,0 -39.8,16.5 -46.8,17 -7,0.4 -16.7,-8.6 -19.9,-12.8 -3.3,-4.3 -6.4,-18.6 -6.4,-18.6 z"
   id="path55" />
<path
   class="st11"
   d="m 116.11443,266.94381 c 0,0 -11.4,13.9 0.6,29.3 10.6,13.7 23.4,11.7 30.2,10.9 6.8,-0.9 42.2,-12.9 46.5,-15.8 4.3,-2.9 6.1,-13.5 6.5,-18.9 0.4,-5.3 0,-8.9 0,-8.9 l 16.3,-5.8 4.1,-10.6 -27.5,10.8 c 0,0 0.7,-1.6 0.6,8.1 -0.1,9.7 -4.3,15.2 -4.3,15.2 0,0 -41.5,17 -46.8,17 -5.3,-0.1 -16,-6.6 -19.9,-12.8 -3.9,-6.2 -6.3,-18.5 -6.3,-18.5 z"
   id="path56" />
<path
   class="st11"
   d="m 225.61443,172.34381 c 0,0 4.1,6 8.6,8.5 9.7,5.3 27.8,4 27.8,4 0,0 -11.6,5.1 -27.7,1.7 -5.8,-1.2 -15.8,-8.6 -15.8,-8.6 z"
   id="path57" />
<path
   class="st11"
   d="m 211.31443,143.54381 8.5,-1.3 c 0,0 -0.1,-4.4 1.8,-8.4 1.8,-3.7 6.9,-9.8 6.9,-9.8 0,0 -13.5,7.3 -14.9,9.7 -1.4,2.4 -2.3,9.8 -2.3,9.8 z"
   id="path58" />
<path
   class="st11"
   d="m 159.41443,3.2438142 c 0,0 -8,-1.8 -10.3,1.4 -1.4,1.9 7.6,6.8999998 15.1,10.6999998 5.1,2.6 9.6,4.6 9.6,4.6 0,0 -11.1,-0.1 -11.7,3 -0.6,3.1 22.1,10.7 22.1,10.7 0,0 -6.6,0.3 -4.6,5.2 0.4,0.9 1.3,2.1 3,2.9 6.7,3.3 22.4,13.1 22.4,13.1 0,0 -11.8,-0.1 -8.7,1.9 3.1,2 15.2,12.6 15.2,12.6 0,0 4.2,7.7 9,12.2 4.8,4.5 6,18.699996 6,18.699996 0,0 -7.5,-15.499996 -11.4,-17.599996 -3.9,-2.1 -10.3,-6.3 -10.3,-6.3 l 1.9,-6.4 c 0,0 -19.5,-12.8 -18.3,-15.1 1.5,-2.9 7.4,-2.3 7.4,-2.3 0,0 -6.9,-5.2 -14.1,-8.3 -7.9,-3.3 -16.1,-4.6 -16.2,-6.3 -0.3,-2.8 10,-4.5 10,-4.5 l -27.1,-10.9 3.2,-3 10.1,-2 c 0,0 -22.1,-11.0999998 -20.8,-15.0999998 0.6,-2.49999998 18.5,0.8 18.5,0.8 z"
   id="path59" />
<path
   class="st11"
   d="m 241.11443,324.54381 c 0,0 -0.6,1.6 -4,2.9 -2.1,0.8 -2.4,2.9 -2.4,2.9 l -1,8.3 -3.3,0.4 2.4,-28.3 4.9,-1.3 1.4,12.1 z"
   id="path60" />
<path
   class="st11"
   d="m 270.41443,296.94381 c 0,0 0.9,6.3 2.2,9.2 1.3,2.9 19.6,19.5 19.6,19.5 l -0.9,3.3 v 0 l -22.1,-20.2 z"
   id="path61" />
<path
   class="st11"
   d="m 305.41443,242.34381 c 0,0 -1.7,20.5 12.4,22.3 9.4,1.2 39.3,4.3 44.6,3 5.4,-1.4 16.1,-12.6 16.1,-12.6 0,0 -7.9,17.6 -12.5,18.6 -4.6,1 -53.1,-1 -55.9,-2.5 -2.8,-1.5 -7.9,-12 -7.9,-12 z"
   id="path62" />
<polygon
   class="st11"
   points="317.5,398.4 289.5,397.2 289.1,393.3 319,395.3 "
   id="polygon62"
   transform="translate(-15.285568,-146.05619)" />
<path
   class="st11"
   d="m 274.21443,251.14381 -4.4,5 27.1,1.9 c 0,0 -1.6,12.3 3.1,16.7 4.7,4.4 55.1,7.2 62.4,4.6 7.3,-2.6 10.1,-11.7 10.1,-11.7 0,0 -8.4,6.1 -11.2,7.1 -2.8,1 -47,0.4 -51.3,-3.6 -4.3,-4.1 -7.9,-18.7 -7.9,-18.7 z"
   id="path63" />
<path
   class="st11"
   d="m 227.01443,370.84381 c 0,0 -4.5,1.6 -5.2,5.9 -0.3,1.9 -0.7,21.3 -0.7,21.3 0,0 1.7,-0.6 8.3,0.7 4.3,0.9 6.7,6.3 6.7,6.3 0,0 -8.3,-2.4 -12.2,-1.9 -3.9,0.5 -8.2,8.8 -8.9,13.6 -0.6,4.8 6.6,18 6.6,18 0,0 -13.2,0.3 -16.4,-3.4 -3.1,-3.7 -5.3,-11.4 -3.4,-14.9 1.9,-3.5 14.1,-13 14.1,-13 l -2.5,-27.6 z"
   id="path64" />
<path
   class="st11"
   d="m 280.81443,339.04381 c 0,0 0.9,-0.7 -4.6,-0.7 -4.5,0 -15.2,11.9 -20.9,23.2 -4.1,8.1 -2.4,31 -2.4,31 l -8.3,-18 -3.5,-16.3 2,-8.8 -1.3,-5.8 28.9,-12.2 5.3,1 z"
   id="path65" />
<path
   class="st11"
   d="m 228.61443,341.74381 c 0,0 -2.5,7 0.9,10.2 5.3,5 11.6,1 11.6,1 0,0 -4.3,7.4 -8.2,6.6 -3.9,-0.8 -9.9,-5.9 -9.9,-5.9 z"
   id="path66" />
<g
   class="st12"
   id="g66"
   transform="translate(-15.285568,-146.05619)">
	<polygon
   class="st13"
   points="244.8,505.6 251.4,506.3 242.3,516.9 "
   id="polygon66" />
</g>
<path
   class="st11"
   d="m 292.31443,325.64381 c 0,0 -0.2,4 3,6.8 3.1,2.8 12,3.9 12,3.9 l -7.2,5.4 -10.5,-5.6 z"
   id="path67" />
<polygon
   class="st11"
   points="303.9,480.1 309.1,487.3 296.1,483 "
   id="polygon67"
   transform="translate(-15.285568,-146.05619)" />
<polygon
   class="st11"
   points="331,323.2 337.8,327.6 288.7,364.5 288.7,357.1 328,329.6 "
   id="polygon68"
   transform="translate(-15.285568,-146.05619)" />
<path
   class="st11"
   d="m 308.81443,157.54381 c 0,0 -2.6,10.1 -2,15 0.5,4.9 2.3,8.5 2.3,8.5 l 6.6,-3.9 z"
   id="path68" />
<path
   class="st11"
   d="m 273.41443,218.44381 49.1,-37 7.1,4.3 12.1,2.5 36.7,-30 c 0,0 -29.1,31.6 -33.1,33.4 -4,1.7 -10,4.7 -15.2,2.7 -5.1,-2 -11.1,-2.2 -11.1,-2.2 z"
   id="path69" />
<path
   class="st11"
   d="m 376.91443,157.04381 1.6,-1.4 -2.8,0.3 c -1.7,-1.5 -3.9,-3.8 -5.8,-6.4 -3.6,-5.1 -1.6,-10 -1.6,-10 0,0 -7.6,-0.2 -8.9,-2.6 -1.3,-2.4 -1.8,-9.7 -1.8,-9.7 0,0 -6,-0.4 -9.4,-3.3 -3.4,-2.9 -2.4,-8.6 -2.4,-8.6 0,0 -6.7,10 -4,13.8 4.9,7 10.7,4.5 10.7,4.5 0,0 -1.6,4.4 1.3,7.3 2.9,3 8.7,4.5 8.7,4.5 0,0 -2.7,4.6 1.3,9.4 1.3,1.6 2.7,2.6 4.1,3.2 -5,5.2 -24.9,23.1 -28.1,23.3 -3.7,0.3 -13.4,-2 -18.5,-7.8 -6.6,-7.5 -9.4,-18.8 -9.4,-18.8 0,0 -5.2,7.5 7.7,23 9.1,11 22.2,11.6 22.2,11.6 l 32.6,-27.7 c 2.4,-0.2 4.1,-3.6 4.1,-3.6 0,0 -0.6,-0.2 -1.6,-1 z"
   id="path70" />
<path
   class="st11"
   d="m 134.41443,162.54381 1.4,-5.2 c 0,0 3,-2.1 6,-4.6 3.9,-3.3 3.9,-11.1 3.9,-11.1 0,0 3.5,0.8 7.6,-1.8 6.2,-4.1 1.4,-12.7 1.4,-12.7 0,0 -1.4,9.6 -3.1,11.2 -1.7,1.6 -10.6,-0.5 -10.6,-0.5 0,0 2.2,8.8 -0.9,11.9 -3,3 -9.9,2.1 -9.9,2.1 0,0 1.5,2.9 1.1,6.1 -0.1,0.7 -1.8,1.3 -3.1,-0.6 -3.4,-5.4 -0.9,-6.1 -0.8,-7.7 0.1,-0.9 -1.2,-1.9 -1.6,-2.9 -0.9,-2.9 -4.5,-6.6 -3.7,-10.3 1.3,-5.7 4.6,-6.2 5.2,-9.1 1,-4.5 1.7,-6.2 4.9,-10.2 0,0 -11.1,0.6 -18,11.7 -3.9,6.2 -5.8,24.9 -2.8,28.6 3,3.6 43.2,39.7 47.2,40.8 4,1.1 11.9,-6.2 11.9,-6.2 0,0 -22.9,-15.3 -36.1,-29.5 z"
   id="path71" />
<path
   class="st11"
   d="m 144.01443,257.14381 c 0,0 0.2,0.2 0.1,4.9 0,2.3 -1.9,6.6 -1.9,6.6 l -3.2,-1 z"
   id="path72" />
<polygon
   class="st11"
   points="159.5,426.7 163.1,422.1 163.1,426.4 "
   id="polygon72"
   transform="translate(-15.285568,-146.05619)" />
<path
   class="st11"
   d="m 349.81443,235.34381 c 0,0 -0.2,3.9 0,5.7 0.3,2.8 5.1,4.2 5.1,4.2 l 2.7,-1.1 z"
   id="path73" />
<path
   class="st11"
   d="m 349.81443,250.54381 c 0,0 -1.6,2.8 -0.4,5.2 1.2,2.3 3.3,3.7 3.3,3.7 l 0.9,-1.5 z"
   id="path74" />
<ellipse
   transform="rotate(-59.999272)"
   class="st14"
   cx="29.822069"
   cy="302.21072"
   rx="7.2998395"
   ry="14.799675"
   id="ellipse74"
   style="stroke-width:0.999978" />
<path
   class="st14"
   d="m 396.91443,19.443814 -12,155.299996 23.5,-13.8 34.7,-144.299996 c 0,0 -18.3,-4.1 -29.5,-1 -5.3,1.4 -16.7,3.8 -16.7,3.8 z"
   id="path75" />
<path
   class="st14"
   d="m 418.41443,155.74381 39.4,-136.099996 c 0,0 10.2,4.5 19.8,14.2 0.9,0.9 6.9,15.5 7.3,12.5 0.4,-3 -53.2,99.399996 -53.2,99.399996 z"
   id="path76" />
<path
   class="st14"
   d="m 385.61443,189.94381 -8.5,42.6 3.9,13 c 0.3,5.4 -3.8,12 -6.3,16.8 l -5.7,11 -3.1,15.4 h 10.9 l 33.9,-97 z"
   id="path77" />
<polygon
   class="st14"
   points="407.8,431.3 453.8,360.2 443.7,348.8 435.6,342.1 399.7,431.9 "
   id="polygon77"
   transform="translate(-15.285568,-146.05619)" />
<g
   id="ink_1_"
   transform="translate(-15.285568,-146.05619)">
	<path
   class="st15"
   d="m 243.5,243.5 c 0.5,-3.7 1.1,-9.4 0.8,-10.9 -0.2,-1.1 -2.8,-3.9 -5,-5.8 l -0.5,-0.5 0.1,-0.7 c 0.6,-5 1.1,-13.7 0.1,-16.2 -0.1,-0.3 -0.3,-0.4 -0.4,-0.4 -1.3,-0.3 -4.3,1.4 -6,2.6 l -2.3,1.7 0.2,-2.9 c 0,-0.2 1.1,-21.6 -2,-29.5 -3.6,-9.2 -8.1,-17.3 -9.9,-18.8 -0.9,1.6 -2.1,7.8 -2.7,13.2 l -0.4,3.8 -2,-3.3 c -0.1,-0.2 -13.3,-21.3 -23.1,-25.5 -9.5,-4 -14.3,-0.3 -14.5,-0.2 l -0.5,0.4 -0.6,-0.1 c -7.4,-1.6 -16.3,-2.3 -17.6,-0.7 0.7,2.2 12.4,8.5 23.1,13 l 5.4,2.3 -5.8,0.2 c -7,0.3 -13.8,1.5 -15.1,2.6 2.1,2 16.2,6.7 28.6,10 l 6.2,1.7 -6.4,0.9 c -5.4,0.8 -10.7,2.5 -11.1,3.6 0.5,1.1 6.6,2.5 9.5,3.1 3,0.7 5.6,1.3 7,2.1 3.3,1.8 14.3,8.2 14.4,8.3 l 4,2.3 -4.6,0.2 c -3,0.1 -6,0.5 -7.3,0.9 2.2,2.3 10.2,8.6 17.7,14.2 l 1.1,0.8 -0.8,1.1 c -1.4,2 -2.3,4.4 -1.8,4.9 0.7,0.7 2.7,1.8 4.5,2.9 2.7,1.5 5.5,3.1 7,4.7 4,4.1 8.6,14.1 8.8,14.6 z"
   id="path78" />
	<path
   class="st15"
   d="m 204.4,296 c 0,22.2 16.4,35 36.7,40 l 2.6,-4.6 c -4.6,-2.3 -8.7,-5.4 -11.9,-9.2 -8.8,-1.2 -15.5,-8.8 -15.5,-17.9 0,-6.4 3.4,-12.1 8.4,-15.3 2.6,-8.4 8.2,-15.6 15.8,-20.2 l -3,-12 c -20.7,5.9 -33.1,20 -33.1,39.2 z"
   id="path79" />
	<path
   class="st15"
   d="m 193.3,335.7 c -5.4,5.9 -13.8,9.3 -19.9,9.3 -0.8,0 -1.5,-0.1 -2.1,-0.2 -6.7,-1 -42.2,-32.8 -46.4,-39.3 -4.8,-7.6 -0.7,-31.6 11.9,-41.7 10.3,-8.4 24.9,0.1 31.9,4.2 0.8,0.5 1.8,1 2.3,1.3 1.4,-1 4.8,-4.5 7.1,-6.9 5.8,-6.1 8.3,-8.6 10.2,-8.9 3.4,-0.6 6.6,0.4 9,2.8 2.5,2.5 3.8,6.1 3.4,9.3 -0.2,1.6 -2.3,4.8 -6.4,10.7 -0.8,1.1 -1.4,2.1 -1.8,2.6 -2.5,3.9 -5.1,11.4 -4.5,13 1.1,1.4 3.1,3.5 5.2,5.6 6.4,6.5 10.5,11.1 10.6,14.6 0,4.3 -1.3,9 -4,14.1 l 0.5,-0.6 35.7,29.5 c 0.9,-2.2 2.5,-4.6 3.9,-6.4 -5.3,-2 -9.2,-4.5 -9.4,-7.1 -0.1,-2.1 0.6,-4.2 1.3,-5.7 -18.6,-7.1 -29.9,-21.5 -29.9,-40 0,-13.9 6,-25.2 16.7,-33.1 -6.6,-6.9 -69.3,-71.1 -122.9,-81.4 -36.2,-7 -55.4,7.7 -63.6,17.1 -11.5,13.1 -15.7,31.2 -10.7,46.3 10.9,32.9 45,64.9 93.3,87.7 33.6,15.9 105,32.1 117.1,34.8 z"
   id="path80" />
	<path
   class="st15"
   d="M 235.5,359.9 198.1,329 c -0.7,1.2 -1.5,2.4 -2.4,3.6 l 39.7,32.6 c 0.7,-1 1.4,-2 2.1,-3 -0.8,-0.4 -1.6,-1.2 -2,-2.3 z"
   id="path81" />
	<path
   class="st15"
   d="m 244,266.8 c 2.4,-1.2 5,-2.1 7.7,-2.8 l -2.6,-9.7 c -2.7,0.3 -5.3,0.8 -7.8,1.4 z"
   id="path82" />
	<path
   class="st15"
   d="m 260.9,262.9 c 3.1,0 6.2,0.4 9.1,1.1 0,0 0,-0.1 0,-0.1 l 1.8,-9.6 c -3.4,-0.4 -6.9,-0.6 -10.5,-0.6 -2.8,0 -5.6,0.1 -8.2,0.3 l 2.5,9.4 c 1.7,-0.3 3.5,-0.5 5.3,-0.5 z"
   id="path83" />
	<path
   class="st15"
   d="m 133.4,418.1 c 0.1,0.5 0.2,1.1 0.3,1.6 2.6,-0.9 16.3,-6.5 20.6,-9.7 1.5,-1.2 2.5,-3.1 2.5,-5 0,-1.6 -0.6,-3.1 -1.9,-4 -2.4,-1.9 -6.5,-1 -9.8,0.4 -5.6,3.5 -12.9,9.3 -11.7,16.7 z"
   id="path84" />
	<path
   class="st15"
   d="m 139.2,266.9 c -0.5,0.4 -1,0.9 -1.5,1.4 1.6,1.4 15.5,12.5 21.3,15 2,0.9 4.5,0.8 6.5,-0.3 1.7,-0.9 2.7,-2.4 3,-4.2 0.6,-3.7 -3,-7.4 -6.3,-9.9 -4.4,-2.3 -9.9,-4.7 -15,-4.7 -2.9,0.1 -5.6,0.8 -8,2.7 z"
   id="path85" />
	<path
   class="st15"
   d="m 232.9,391.7 v 0 l -25.2,9.5 c 0.5,1 1,2 1.5,3.1 0.2,0.4 0.3,0.8 0.5,1.2 l 20.6,-7.8 0.1,0.1 c 1.1,-1.7 2.6,-3.8 4.7,-6.3 -0.8,0.2 -1.5,0.2 -2.2,0.2 z"
   id="path86" />
	<path
   class="st15"
   d="m 238.3,425.1 c -2.8,0.4 -6,0.2 -7.5,-2 -1.6,-2.3 0.7,-7.5 6.9,-15.4 -4.1,0.5 -8.3,0.4 -9.7,-1.9 -0.2,-0.4 -0.7,-1.2 -0.2,-3 l -17.1,6.4 c 1.3,7 -0.3,14.5 -3.4,18.3 -3.7,4.7 -43.8,18.3 -50.7,18.7 -0.1,0 -0.2,0 -0.3,0 -8.2,0 -24.5,-13.6 -26.9,-27.5 -2,-11.7 11.5,-19.6 17.3,-23 0.7,-0.4 1.4,-0.8 1.9,-1.1 -0.2,-1.6 -1.4,-5.6 -2.2,-8.3 -2.2,-7.2 -3,-10.2 -2.4,-11.9 1.1,-2.9 3.3,-5 6.3,-5.9 3.1,-0.9 6.5,-0.3 8.8,1.5 1.2,0.9 2.7,3.8 5.5,9.8 0.5,1.1 0.9,2 1.2,2.5 1.9,3.5 6.4,8.6 7.9,9 1.5,-0.2 4,-0.9 6.5,-1.5 7.9,-2.1 13.2,-3.3 16,-1.8 3.5,1.9 6.6,5.2 9.4,9.8 l 20.8,-7.8 c -0.1,-0.2 -0.3,-0.4 -0.4,-0.6 -0.4,-1 -1.4,-3.5 8.5,-10.7 -1.9,-0.4 -3.4,-1 -4.2,-1.9 -0.5,-0.6 -0.7,-1.3 -0.6,-2.1 0.1,-0.7 0.7,-1.9 1.6,-3.4 -3.9,-0.9 -16.1,-3.6 -31.7,-7.5 v 0 c -0.7,-0.1 -69.4,-8 -97.2,2.9 -21.7,8.5 -34.6,29.6 -31.5,51.3 2.7,18.4 18.3,39.3 54.4,42.5 64.1,5.7 106.4,-27.8 110.7,-31.3 0.8,-1.5 1.5,-2.8 2.3,-4.1 z"
   id="path87" />
	<path
   class="st15"
   d="m 282.8,256.5 c -2.3,-0.6 -4.6,-1.2 -7.1,-1.6 l -1.9,9.8 c 0,0.2 -0.1,0.3 -0.2,0.5 2.4,0.8 4.7,1.9 6.8,3.2 z"
   id="path88" />
	<path
   class="st15"
   d="m 144.2,294.2 c 0.2,0 0.4,0.1 0.6,0.3 0.1,0.1 0.2,0.1 0.3,0.2 0.9,0.5 1.7,0.9 2.1,1 2.9,0.8 6,0.9 8.8,-4.3 1.7,-3.1 -4.6,-8.7 -7.3,-11 -0.9,-0.7 -1.5,-1.3 -1.8,-1.7 0,0 0,-0.1 -0.1,-0.1 -4.6,-3.2 -9.2,-6.7 -10.8,-8.5 0,0 0,0 0,0 -3.2,3.8 -5.5,8.7 -7,13.7 4.6,3.4 11.2,8 15.2,10.4 z"
   id="path89" />
	<path
   class="st15"
   d="m 191.7,331.4 c 5.3,-7.2 8.1,-13.8 8.1,-19.3 0,-1.3 -2.2,-4 -4.6,-6.7 -0.8,3.9 -3.2,12.5 -10.3,19.3 -7.9,7.5 -15.6,10.4 -20.5,11.5 3.6,2.7 6.4,4.5 7.5,4.7 4.7,0.7 14.6,-2.5 19.8,-9.5 z"
   id="path90" />
	<path
   class="st15"
   d="m 140.6,309.6 c 1.1,-0.1 2.9,-1.4 4.4,-3.4 0.8,-1.1 2,-3.4 1.4,-5.7 -0.2,-0.9 -1.8,-2.5 -2.9,-3.6 -4.5,-2.6 -12,-8 -15.2,-10.3 -1.8,7.3 -1.8,14.1 0,16.9 0.3,0.5 0.8,1.1 1.4,1.9 2.6,1.8 7.1,4.6 10.9,4.2 z"
   id="path91" />
	<path
   class="st15"
   d="m 183.1,322.8 c 8.6,-8.2 9.8,-19.6 9.8,-19.8 h 0.1 c -0.9,-1 -1.8,-1.9 -2.6,-2.7 0,0 -0.1,-0.1 -0.1,-0.1 -0.4,4.1 -2.4,11.6 -10.6,19.8 -8.4,8.4 -17.2,10.4 -22,10.9 1.4,1.1 2.7,2.2 4,3.2 3.9,-0.7 12.6,-3 21.4,-11.3 z"
   id="path92" />
	<path
   class="st15"
   d="m 177.8,318.2 c 10.3,-10.3 10,-19.5 9.9,-20.7 -1.1,-1.2 -2.1,-2.3 -2.8,-3.2 v 0 c -3,-3.9 3.3,-15.8 4.3,-17.4 0.3,-0.5 1,-1.5 1.9,-2.7 1.6,-2.3 5.5,-7.8 5.8,-9.1 0.3,-1.9 -0.6,-4.3 -2.2,-5.9 -1.1,-1 -2.9,-2.2 -5.6,-1.8 -1.1,0.4 -5.2,4.8 -8,7.7 -6.4,6.7 -8.2,8.5 -10.1,8.3 -0.3,0 -0.7,-0.1 -1.1,-0.3 1.1,1.8 1.7,3.9 1.3,6.1 -0.4,2.6 -2,4.8 -4.3,6.1 -1.5,0.8 -3.2,1.2 -4.9,1.2 -1.4,0 -2.7,-0.3 -4,-0.8 -0.2,-0.1 -0.6,-0.3 -1,-0.5 1.7,2.5 2.6,5.1 1.3,7.5 -2.6,4.8 -5.8,6.1 -8.5,6.1 -0.4,0 -0.8,0 -1.2,-0.1 0.2,0.4 0.4,0.7 0.4,1.1 0.6,2.5 0,5.2 -1.8,7.8 -1.7,2.5 -4.2,4.3 -6.2,4.6 -0.4,0.1 -0.8,0.1 -1.2,0.1 -1.4,0 -2.8,-0.3 -4.1,-0.7 5.2,5.1 12.3,11.4 18.9,16.8 2.1,0 13,-0.1 23.2,-10.2 z"
   id="path93" />
	<path
   class="st15"
   d="m 240.6,253.2 c 2.5,-0.6 5,-1 7.7,-1.4 l -1.4,-5.1 -7.4,2 z"
   id="path94" />
	<path
   class="st15"
   d="m 365.7,260.4 c -3.4,2.5 -6.9,6.2 -6.4,9.9 0.3,1.8 1.4,3.3 3,4.2 2,1.1 4.4,1.2 6.5,0.3 5.7,-2.5 19.6,-13.6 21.3,-15 -0.5,-0.5 -1,-1 -1.5,-1.4 -6.5,-5.3 -16.1,-1.6 -22.9,2 z"
   id="path95" />
	<path
   class="st15"
   d="m 357,264.9 c -1.8,0.1 -3.7,-1.6 -10.1,-8.3 -2.8,-2.9 -6.9,-7.3 -8.1,-7.7 -0.4,-0.1 -0.7,-0.1 -1.1,-0.1 -2,0 -3.5,1 -4.4,1.9 -1.6,1.6 -2.5,4 -2.2,5.9 0.3,1.2 4.1,6.7 5.8,9.1 0.8,1.2 1.5,2.2 1.8,2.7 1,1.7 7.3,13.5 4.3,17.4 -0.7,0.9 -1.7,2 -2.8,3.2 -0.1,1.2 -0.5,10.4 9.9,20.7 10.2,10.2 21.1,10.3 23.3,10.2 6.6,-5.5 13.6,-11.8 18.9,-16.8 -1.3,0.4 -2.7,0.7 -4.1,0.7 -0.4,0 -0.8,0 -1.2,-0.1 -2,-0.3 -4.5,-2.1 -6.2,-4.6 -1.8,-2.6 -2.4,-5.3 -1.8,-7.8 0.1,-0.3 0.3,-0.7 0.4,-1.1 -0.4,0.1 -0.8,0.1 -1.2,0.1 -2.8,0 -5.9,-1.3 -8.5,-6.1 -1.3,-2.4 -0.4,-5 1.3,-7.5 -0.4,0.2 -0.7,0.4 -1,0.5 -1.2,0.5 -2.6,0.8 -4,0.8 -1.7,0 -3.4,-0.4 -4.9,-1.2 -2.4,-1.3 -3.9,-3.5 -4.3,-6.1 -0.3,-2.2 0.2,-4.2 1.3,-6.1 -0.4,0.2 -0.8,0.3 -1.1,0.3 z"
   id="path96" />
	<path
   class="st15"
   d="m 391.8,261.7 v 0 0 c -1.7,1.8 -6.2,5.3 -10.8,8.5 0,0 0,0.1 0,0.1 -0.3,0.4 -0.9,0.9 -1.8,1.7 -2.7,2.4 -9,7.9 -7.3,11 2.8,5.2 5.9,5.1 8.8,4.3 0.4,-0.1 1.2,-0.5 2.1,-1 0.1,-0.1 0.2,-0.2 0.3,-0.2 0.2,-0.1 0.4,-0.2 0.6,-0.3 4,-2.4 10.6,-7.1 15.2,-10.4 -1.6,-5 -3.9,-9.9 -7.1,-13.7 0,-0.1 0,-0.1 0,0 z"
   id="path97" />
	<path
   class="st15"
   d="m 387.2,301 c 3.8,0.5 8.3,-2.3 11,-4.3 0.6,-0.7 1.1,-1.4 1.4,-1.9 1.7,-2.8 1.8,-9.6 0,-16.9 -3.2,2.3 -10.6,7.6 -15.2,10.3 -1.2,1 -2.7,2.7 -3,3.6 -0.6,2.3 0.6,4.6 1.4,5.7 1.5,2.2 3.3,3.4 4.4,3.5 z"
   id="path98" />
	<path
   class="st15"
   d="m 284,270.5 c 5,3.7 9.1,8.7 11.6,14.4 8.8,1.6 15.4,9.3 15.4,18.6 0,10.4 -8.5,18.9 -18.9,18.9 -0.7,0 -1.4,-0.1 -2.1,-0.1 -3,3.5 -6.7,6.5 -10.9,8.7 h 0.1 l 1.5,5.3 c 20.7,-4.8 37.5,-17.7 37.5,-40.2 0,-17.6 -12.3,-31.8 -31.5,-38.3 l -2.3,12.1 c -0.1,0.1 -0.3,0.4 -0.4,0.6 z"
   id="path99" />
	<path
   class="st15"
   d="m 336.1,322.9 c 5.2,7 15.1,10.2 19.9,9.5 1.1,-0.2 3.8,-2 7.5,-4.7 -4.9,-1.1 -12.6,-4 -20.5,-11.5 -7.2,-6.8 -9.5,-15.4 -10.3,-19.3 -2.5,2.7 -4.6,5.4 -4.6,6.7 -0.1,5.4 2.7,12.1 8,19.3 z"
   id="path100" />
	<path
   class="st15"
   d="m 228,316.9 c 1.7,0.9 3.7,1.4 5.8,1.5 0.2,0 0.3,0 0.5,0 7.8,0 14.1,-6.3 14.1,-14.1 0,-7.8 -6.3,-14.1 -14.1,-14.1 -2.2,0 -4.4,0.5 -6.2,1.5 -1.8,0.9 -3.4,2.2 -4.7,3.7 -2,2.4 -3.2,5.5 -3.2,8.9 0,5.5 3.2,10.3 7.8,12.6 z m -3.7,-14.5 c 0.7,-0.2 1.4,0.1 1.7,0.8 0.1,0.2 1.9,5.1 7.1,5.1 0,0 0,0 0,0 7.1,0 8.2,-4.1 8.2,-4.3 0.2,-0.7 0.9,-1.2 1.6,-1 0.7,0.2 1.2,0.8 1,1.5 -0.1,0.3 -1.4,6.4 -10.8,6.4 0,0 0,0 0,0 -5.7,0 -8.7,-4.5 -9.6,-6.9 -0.2,-0.7 0.1,-1.4 0.8,-1.6 z"
   id="path101" />
	<path
   class="st15"
   d="m 276.7,336.9 -1.2,-4.4 c -4.5,1.8 -9.4,2.8 -14.6,2.8 -4.8,0 -9.4,-0.9 -13.6,-2.4 l -2.2,3.9 c 5.3,1 10.7,1.5 16.2,1.5 5.2,0 10.4,-0.5 15.4,-1.4 z"
   id="path102" />
	<path
   class="st15"
   d="m 307.1,303.4 c 0,-6.4 -4.1,-11.9 -9.8,-14 -1.4,-0.5 -2.9,-0.8 -4.5,-0.9 -0.2,0 -0.4,0 -0.7,0 -8.2,0 -14.9,6.7 -14.9,14.9 0,6.9 4.8,12.8 11.2,14.4 1.2,0.3 2.5,0.5 3.8,0.5 0.3,0 0.5,0 0.8,0 7.8,-0.4 14.1,-6.9 14.1,-14.9 z m -14.8,7.8 c 0,0 0,0 0,0 -5.7,0 -8.8,-4.5 -9.6,-6.9 -0.2,-0.7 0.1,-1.4 0.8,-1.7 0.7,-0.2 1.4,0.1 1.7,0.8 0.1,0.2 1.9,5.1 7.1,5.1 0,0 0,0 0,0 7.1,0 8.2,-4.1 8.2,-4.3 0.2,-0.7 0.9,-1.2 1.6,-1 0.7,0.2 1.2,0.8 1,1.5 -0.1,0.4 -1.4,6.5 -10.8,6.5 z"
   id="path103" />
	<path
   class="st15"
   d="m 283.1,242.8 v -16.3 l 0.4,-0.4 c 2.8,-2.6 6,-6 6.3,-7.2 0.3,-1.6 -0.6,-4.6 -1,-5.5 l -0.3,-0.8 0.5,-0.6 c 6,-6.7 12.4,-14.4 13.5,-16.3 -0.4,-0.5 -1.8,-1.7 -3.2,-2.5 l -2.5,-1.5 2.8,-0.9 c 10.7,-3.4 22.3,-7.6 24.9,-9.4 -1.1,-1 -4.7,-2.9 -8.4,-4.3 l -4.2,-1.6 4.4,-0.9 c 13.8,-2.9 28.9,-6.9 31.5,-8.7 -1.2,-1.5 -7.5,-4.8 -14.5,-7.5 l -2.5,-1 2.3,-1.4 c 2.9,-1.7 6.2,-3.9 7.7,-5.4 -3,0.3 -11.1,1.9 -33.3,8.1 -11.3,3.1 -20.3,16.2 -20.4,16.3 l -2.3,3.3 -0.1,-4 c -0.1,-3.3 -0.5,-7.1 -1,-8.9 -1.1,1.8 -2.8,5.9 -4,8.8 -1.3,3.2 -2.7,6.5 -3.9,8.6 -2.3,4.2 -1.6,16.8 -1.2,21.3 l 0.6,6.5 -3.1,-5.7 c -1.2,-2.1 -2.8,-4 -3.7,-4.3 -0.1,2 2.1,8.8 3.5,13 1.1,3.4 2.2,6.6 2.7,8.9 1.3,5.8 4.5,17.2 5.1,19.6 z"
   id="path104" />
	<path
   class="st15"
   d="m 290.9,358.6 43.9,-31.2 c -0.7,-0.7 -1.3,-1.4 -1.9,-2.2 -0.3,-0.4 -0.6,-0.8 -0.9,-1.3 L 288.6,354 c 1,1.6 1.8,3.2 2.3,4.6 z"
   id="path105" />
	<path
   class="st15"
   d="m 285.6,321.1 c -7.2,-2.7 -12.3,-9.6 -12.3,-17.7 0,-10 7.9,-18.3 17.8,-18.8 -5.6,-10.5 -17,-17.7 -30.2,-17.7 -2.1,0 -4.2,0.2 -6.2,0.6 0,0 -0.1,0 -0.1,0 -0.1,0 -0.3,0.1 -0.4,0.1 -11.1,2.1 -20.3,9.5 -24.6,19.3 1.5,-0.4 3,-0.6 4.6,-0.6 10,0 18.1,8.1 18.1,18.1 0,9 -6.6,16.4 -15.2,17.8 6.1,5.8 14.5,9.3 23.8,9.3 9.7,-0.1 18.5,-4.1 24.7,-10.4 z m -34.4,0.6 c 0.3,-0.6 1.1,-0.9 1.8,-0.6 0.1,0 6.4,3.3 12.1,3.3 0,0 0,0 0,0 8.9,0 13,-3.1 13,-3.2 0.6,-0.4 1.4,-0.4 1.9,0.2 0.5,0.6 0.4,1.4 -0.2,1.8 -0.2,0.2 -4.8,3.8 -14.7,3.8 0,0 0,0 0,0 -6.4,0 -13,-3.5 -13.3,-3.6 -0.7,-0.2 -1,-1 -0.6,-1.7 z"
   id="path106" />
	<path
   class="st15"
   d="m 284.8,337.9 c -7,2 -14.9,3 -23.5,3 -9.5,0 -18.2,-1.3 -25.8,-3.7 -0.6,1.2 -1.2,2.7 -1.2,4 1.2,2.1 13,7.1 25.3,7.2 13.7,0.1 24.4,-3.1 26.4,-4.9 0.6,-0.5 0,-3.1 -1.2,-5.6 z"
   id="path107" />
	<path
   class="st15"
   d="m 284.6,247.2 -7.1,-1.4 -1.2,6.5 c 2.4,0.4 4.8,1 7.1,1.6 z"
   id="path108" />
	<path
   class="st15"
   d="m 334.8,294.5 h 0.1 c 0,0.1 1.2,11.5 9.8,19.8 8.8,8.3 17.5,10.6 21.5,11.3 1.3,-1 2.6,-2 4,-3.2 -4.8,-0.4 -13.6,-2.5 -22,-10.9 -8.2,-8.2 -10.2,-15.7 -10.6,-19.8 0,0 -0.1,0.1 -0.1,0.1 -0.8,0.8 -1.7,1.7 -2.7,2.7 z"
   id="path109" />
	<path
   class="st15"
   d="m 317,395.2 c 0.2,-1.4 0.5,-2.6 0.8,-3.9 l -28.6,-2.4 c 0.8,1.9 1.6,3.9 1.9,5.7 l 25.7,1.6 c 0.1,-0.3 0.2,-0.6 0.2,-1 z"
   id="path110" />
	<path
   class="st15"
   d="m 290.2,368.6 c -0.5,0.2 -0.9,0.3 -1.3,0.4 3.3,5.1 5.9,10.7 3.7,13.3 -1.2,1.4 -2.7,2.1 -4.2,2.5 l 30.5,2.6 c 1.6,-4.8 3.8,-8.6 6.6,-11.3 2.3,-2.2 7.8,-2.3 16,-2.2 2.7,0 5.2,0.1 6.7,-0.1 1.4,-0.7 4.5,-6.8 5.4,-10.6 0.1,-0.5 0.3,-1.5 0.6,-2.7 1.3,-6.5 2.1,-9.6 3,-10.8 1.8,-2.3 5,-3.7 8.2,-3.6 3.1,0.1 5.7,1.6 7.5,4.2 1,1.5 0.9,4.7 0.6,12.1 -0.1,2.9 -0.3,7 -0.2,8.6 0.5,0.2 1.4,0.4 2.1,0.6 6.4,1.9 21.4,6.2 22.3,18.1 1.1,14.3 -11.8,31.7 -19.7,33.3 -1,0.2 -2.8,0.3 -5.2,0.3 -13.4,0 -44.4,-3 -48.5,-6.1 -4,-3.1 -7.5,-10.4 -7.7,-17.7 v 0.6 L 291,398.5 c -0.8,2 -2.3,2.9 -3.9,3.3 3.1,5.3 6.2,12.2 3.2,15 -1.4,1.4 -2.7,2.2 -3.7,2.7 1.1,2.3 2.2,5.1 3.1,7.7 v -0.1 c 0.2,0 15.5,4.4 41.8,6.8 26.7,2.4 88.6,0.3 109.7,-22 11.3,-11.9 16,-28.6 12.3,-43.5 -3.3,-13.4 -13,-23.4 -27.3,-28.3 -18.7,-6.4 -66.6,3.8 -73.2,5.2 -23.6,9.9 -45.8,17.8 -62.8,23.3 z"
   id="path111" />
	<path
   class="st15"
   d="m 280.9,416.8 2.8,-0.3 v 0 c 0,0 1.6,-0.3 3.9,-2.5 0.6,-1.3 -2.1,-7.7 -5.9,-13.3 l -3.4,-5.2 5.8,2.3 c 0.3,0.1 2.7,1 3.3,-0.6 0.5,-1.4 -1.9,-7.6 -5.2,-13.2 l -2.5,-4.3 4.8,1.4 c 0,0 3.2,0.9 5,-1.1 0.4,-1.7 -3.3,-8.3 -8,-14.4 l -3.6,-4.6 5.6,1.5 c 0,0 3.1,0.7 3.9,-1 0.3,-1.3 -2.8,-6.6 -6.6,-11.4 -5.4,1.5 -12.8,2.5 -20.6,2.5 -0.2,0 -0.4,0 -0.6,0 -5,0 -10.7,-1 -15.8,-2.4 -2.7,3.4 -4.9,7.1 -4.7,8.2 0.2,0.9 1.1,0.7 1.5,0.7 l 5.2,-1.2 -3.2,4.3 c -3.4,4.6 -7.3,10.2 -8.5,12.5 1.3,0.4 3.8,0.7 6.2,0.8 l 6.2,0.2 -5.2,3.4 c -5,3.3 -9.6,7 -11,8.8 1.7,0.2 5.8,-0.2 9.4,-1.1 l 6.1,-1.5 -4.2,4.7 c -4.6,5.1 -9.5,11.7 -10.1,14 1.5,0.5 6.2,0.1 10.6,-0.9 l 5.9,-1.4 -3.9,4.6 c -5.4,6.3 -9.8,12.9 -10,14.9 0.9,0.6 4.4,0.3 7.8,-0.9 l 5.6,-1.9 -3.3,4.9 c -5,7.4 -8.6,15.6 -7.4,17 1.5,1.9 7.3,0.7 10.8,-0.6 l 5.6,-2.2 -3.1,5.1 c -2.5,4 -4.4,9.4 -3,10.7 2.2,2.2 6,-0.2 6.1,-0.2 l 3.6,-2.3 -0.6,4.3 c -0.9,6.2 -0.5,12.7 0.8,13.4 0.1,0.1 0.2,0.1 0.5,0 1.5,-0.5 3.5,-3.5 4.4,-5.4 l 3.8,-7.8 v 8.7 c 0,1.9 0.7,7.5 3.5,7.8 1.8,-0.3 5.2,-9.8 7,-19.5 l 1.4,-7.8 2.4,7.5 c 0,0.1 0.2,0.5 0.6,0.6 0.3,0.1 0.9,0 1.6,-0.4 1.1,-1.2 -0.2,-9.3 -2.8,-17 l -3,-9 6.4,7.1 c 0,0 2.7,2.9 4.3,1.6 0.7,-1.3 -1.5,-8.6 -4.8,-15.2 z"
   id="path112" />
	<path
   class="st15"
   d="m 298,483.6 c 0.8,1.2 1.5,2.5 2.2,3.8 l 6.4,-1.9 c -1,-1.1 -1.8,-2.4 -2.4,-3.8 z"
   id="path113" />
	<path
   class="st15"
   d="m 369.6,352.5 c -1.3,-1.9 -3.1,-2.3 -4.3,-2.3 -1.9,-0.1 -4,0.8 -5,2.1 -0.6,1 -1.7,6.7 -2.2,9.1 -0.3,1.3 -0.5,2.3 -0.6,2.9 0,0.1 -3.8,13 -8.7,13.6 -1,0.1 -2.4,0.1 -3.9,0.2 -1.1,1 -6.8,6.4 -7,18.7 -0.3,12.2 5.8,19.2 7.5,20.9 7.2,0.8 15.3,1.5 21.6,1.8 -1.2,-0.7 -2.2,-1.6 -3,-2.7 -1.1,-1.5 -1.4,-4.2 -0.9,-6.9 0.6,-2.7 2,-4.9 4,-6 0.2,-0.1 0.5,-0.2 0.8,-0.3 -2.7,-2.4 -3.4,-5.6 -2,-9.9 0.7,-2.2 2.7,-3.3 5.1,-3.7 -0.1,0 -0.2,-0.1 -0.3,-0.1 -2.5,-1.1 -4.5,-3.4 -5.2,-6 -0.6,-2.4 -0.2,-4.7 1.3,-6.6 1.1,-1.4 2.6,-2.3 4.3,-2.8 -0.2,-0.1 -0.3,-0.2 -0.5,-0.3 -1.3,-1.2 -1.3,-3.4 -0.9,-11.7 0.1,-3.7 0.3,-8.8 -0.1,-10 z"
   id="path114" />
	<path
   class="st15"
   d="m 286,452.5 19.6,19 c 0.9,-1.3 2.1,-2.4 3.5,-3.3 l -23.2,-23 c 0.5,2.7 0.6,5.3 0.1,7.3 z"
   id="path115" />
	<circle
   class="st15"
   cx="314.89999"
   cy="477.89999"
   r="7.3000002"
   id="circle115" />
	<path
   class="st15"
   d="m 387.9,409.2 c -3.6,-0.7 -11.2,-2.1 -15.6,-3.4 -1.5,-0.1 -3.4,-0.1 -4,0.3 -1.8,1 -2.5,3.1 -2.7,4.3 -0.5,2.1 -0.1,4 0.4,4.8 1.9,2.6 6.1,3.8 9,4.3 1,0 1.8,-0.1 2.4,-0.2 2.8,-0.6 7,-4.6 10.5,-10.1 z"
   id="path116" />
	<path
   class="st15"
   d="m 320.9,395.9 c -1.3,7.5 2.6,15.7 6,18.3 0.8,0.6 3.4,1.2 7.1,1.8 -2.2,-3.9 -4.9,-10.5 -4.9,-19.9 0,-8.5 3.8,-15.1 5.9,-18.2 -3.1,0.1 -5.9,0.4 -6.6,1.1 -3.6,3.3 -6.1,9.1 -7.5,16.9 z"
   id="path117" />
	<path
   class="st15"
   d="m 413.3,168 c -40.3,12 -106,86.1 -112.5,93.5 12.5,8.1 20,20.2 20,34.5 0,19.2 -12.2,33.9 -32.1,40.8 1.3,2.8 2.7,7.3 0.1,9.8 -0.8,0.7 -2.1,1.4 -3.8,2.1 0.5,0.7 1.1,1.4 1.6,2.2 l 43.3,-30.1 c -3.9,-6.2 -5.8,-12 -5.8,-17.1 0,-3.5 4.2,-8 10.6,-14.6 2.1,-2.2 4.1,-4.2 5.2,-5.6 0.6,-1.6 -2,-9 -4.5,-13 -0.3,-0.5 -1,-1.4 -1.7,-2.5 -4.2,-6 -6.2,-9.1 -6.5,-10.8 -0.5,-3.2 0.9,-6.8 3.4,-9.3 2.4,-2.4 5.6,-3.4 9,-2.8 1.9,0.3 4.4,2.8 10.2,8.9 2.3,2.4 5.7,6 7.1,6.9 0.6,-0.3 1.5,-0.8 2.3,-1.3 7,-4.1 21.6,-12.6 31.9,-4.2 12.5,10.2 16.7,34.1 11.9,41.7 -4.1,6.5 -39.7,38.3 -46.4,39.3 -0.7,0.1 -1.4,0.2 -2.1,0.2 -5,0 -11.5,-2.3 -16.7,-6.3 l -47,33.4 c -0.2,0.4 -0.5,0.7 -0.7,0.9 16.8,-5.5 38.3,-13.1 61.3,-22.7 v -0.1 c 0.1,0 0.3,-0.1 0.5,-0.1 41.7,-17.6 88.1,-41.5 119.1,-70.7 28.5,-26.8 38,-68.2 20.3,-88.5 -17.1,-19.6 -44,-24.6 -78,-14.5 z"
   id="path118" />
	<path
   class="st15"
   d="m 156.3,426.1 c 0.1,-0.1 0.3,-0.3 0.5,-0.3 0.1,0 0.2,-0.1 0.3,-0.1 0.8,-0.5 1.4,-0.9 1.7,-1.1 1.9,-1.9 3.2,-4.2 0.5,-8.5 -1.6,-2.6 -8.5,-0.2 -11.5,0.9 -1,0.3 -1.6,0.6 -2.1,0.7 0,0 -0.1,0 -0.1,0 -4.3,2 -8.8,4 -11,4.6 1.5,4 4.2,7.8 7.3,11.1 4.5,-2.3 10.9,-5.3 14.4,-7.3 z"
   id="path119" />
	<path
   class="st15"
   d="m 287.8,478.5 c -0.5,0.1 -1.7,0.4 -3.3,1 2.3,2.3 5.6,6.2 8.3,11.6 3.2,6.5 6,14 7,16.6 0.9,-0.2 1.5,-0.4 1.8,-0.6 1.2,-0.8 -1.6,-9.2 -2.9,-13.1 -3.1,-9.2 -9.2,-15 -10.9,-15.5 z"
   id="path120" />
	<path
   class="st15"
   d="m 382,392.6 c 0,0 -0.1,0 -0.1,0 -0.5,0 -1.2,0 -2.2,-0.1 -3.1,-0.3 -10.4,-0.9 -11.4,2 -1.6,4.9 0.3,6.8 2.6,8.1 0.3,0.2 1,0.4 1.9,0.7 0.1,0 0.2,0 0.3,0 0.2,0 0.4,0.1 0.6,0.2 3.9,1.1 10.8,2.5 15.7,3.4 2.2,-3.9 3.9,-8.3 4.4,-12.5 -2.3,-0.1 -7.1,-0.9 -11.8,-1.8 z"
   id="path121" />
	<path
   class="st15"
   d="m 378.4,376.7 c -3.5,-0.5 -7.7,-0.5 -9.6,2 -0.9,1.2 -1.2,2.8 -0.8,4.4 0.5,1.9 1.9,3.5 3.7,4.3 5,2.1 19.6,4.1 22.3,4.4 0,-0.5 0,-1.1 0,-1.6 -0.7,-7.5 -9.2,-11.3 -15.6,-13.5 z"
   id="path122" />
	<path
   class="st15"
   d="m 338.2,377.9 c -0.5,0.6 -6.6,8.1 -6.6,18.2 0,10.5 3.7,17.4 5.8,20.4 1.3,0.2 2.6,0.4 4,0.5 -2.7,-3.5 -6.5,-10.3 -6.2,-20.5 0.2,-10 3.6,-15.8 6,-18.7 -0.8,0 -1.8,0 -2.8,0 0,0.1 -0.1,0.1 -0.2,0.1 z"
   id="path123" />
	<path
   class="st15"
   d="m 279.3,456.2 c -1.8,8.5 -5.1,19.3 -10.2,19.3 -0.2,0 -0.3,0 -0.5,0 -3.4,-0.4 -5.3,-3.2 -6.2,-6.3 -1.1,1.2 -2.4,2.4 -3.8,2.8 -0.3,0.1 -0.7,0.2 -1,0.2 l -1.4,14.3 c 0.3,0.2 0.5,0.5 0.8,0.7 13,-6.1 28.6,-13.2 31.4,-12.7 1.9,0.3 4.6,2.4 7.2,5.6 l 8.1,-2.5 c 0,-0.8 0.1,-1.7 0.3,-2.5 l -20.3,-19.6 c -2,1.1 -3.4,1 -4.4,0.7 z"
   id="path124" />
	<path
   class="st15"
   d="m 254.4,505.6 c -0.1,0 -0.1,0.1 -0.2,0.1 l -1.7,11 c 1.9,0.4 3.5,0.9 5,1.6 z"
   id="path125" />
	<path
   class="st15"
   d="m 252.4,484.4 1.4,-13.7 c -2.3,-2.7 -2.3,-8.6 -2,-13 -0.5,0.1 -1,0.2 -1.5,0.3 l -2.1,25.9 c 0.2,0 0.4,0 0.6,0 1.2,-0.1 2.4,0.1 3.6,0.5 z"
   id="path126" />
	<circle
   class="st15"
   cx="248.7"
   cy="495.5"
   r="7.6999998"
   id="circle126" />
	<path
   class="st15"
   d="m 248.7,516.1 1.4,-9.1 c -0.4,0.1 -0.9,0.1 -1.3,0.1 -0.9,0 -1.8,-0.1 -2.7,-0.3 l -1.3,9.1 c 0.4,0 0.8,0 1.2,0 0.9,0.1 1.8,0.2 2.7,0.2 z"
   id="path127" />
	<path
   class="st15"
   d="m 189.4,410.8 c -3.3,-12 -10,-15.8 -11.4,-16.5 -1.5,0.4 -2.8,0.6 -3.8,0.8 -4.9,0.7 -11.7,-10.9 -11.8,-11 -0.3,-0.5 -0.7,-1.4 -1.3,-2.6 -1.1,-2.3 -3.6,-7.5 -4.4,-8.4 -1.3,-1 -3.4,-1.3 -5.3,-0.8 -1.2,0.3 -2.8,1.2 -3.6,3.3 -0.1,1.3 1.4,6.2 2.4,9.5 2.4,8 2.9,10.1 2,11.6 -0.1,0.2 -0.2,0.3 -0.4,0.4 1.7,0.1 3.4,0.5 4.8,1.6 1.9,1.5 2.9,3.7 2.8,6.1 0,2.7 -1.4,5.4 -3.6,7.1 -0.1,0.1 -0.2,0.1 -0.3,0.2 2.5,-0.1 4.7,0.4 5.9,2.4 2.4,3.8 2.5,7.1 0.5,10.1 0.3,0 0.6,0.1 0.8,0.1 2.2,0.6 4.1,2.4 5.3,4.9 1.2,2.5 1.5,5.2 0.8,6.9 -0.5,1.2 -1.3,2.3 -2.3,3.3 6.1,-1.8 13.7,-4.4 20.5,-7 1.4,-1.9 5.6,-10.2 2.4,-22 z"
   id="path128" />
	<path
   class="st15"
   d="m 158.9,442 c 2.6,-1.2 6.4,-3.4 7.7,-6.4 0.3,-0.8 0.2,-2.8 -0.8,-4.7 -0.5,-1.1 -1.7,-2.9 -3.7,-3.5 -0.7,-0.2 -2.5,0.2 -4,0.7 -3.9,2.3 -11,5.6 -14.3,7.1 4.7,4.4 9.8,7.3 12.7,7.1 0.6,0 1.4,-0.1 2.4,-0.3 z"
   id="path129" />
	<path
   class="st15"
   d="m 194.6,430 c 1.3,-3.4 3.2,-11 0.6,-21.2 -2.5,-9.9 -10.2,-15.6 -10.8,-16.1 -1.1,0.3 -2.1,0.5 -2.9,0.7 3,2.2 7.8,7 10.4,16.7 2.7,9.8 0.7,17.3 -1.1,21.4 1.4,-0.5 2.6,-1 3.8,-1.5 z"
   id="path130" />
	<path
   class="st15"
   d="m 204.3,425.2 c 2.6,-3.3 4.4,-12.3 1.3,-19.2 -3.2,-7.2 -7.1,-12.2 -11.2,-14.5 -0.9,-0.5 -3.7,-0.1 -6.7,0.6 2.8,2.5 8.1,8 10.1,16.2 2.3,9.1 1.3,16.2 0,20.5 3.5,-1.7 5.9,-2.9 6.5,-3.6 z"
   id="path131" />
	<path
   class="st15"
   d="m 252.5,533 0.3,-3.2 c -2.4,-0.4 -7.9,-1.1 -11.1,-1.1 -4.9,0 -9.5,1.5 -11.2,2.2 0.1,1 0.2,2 0.4,3.1 2.2,-0.9 5.7,-2 10.9,-2 4.6,0 8.6,0.6 10.7,1 z"
   id="path132" />
	<path
   class="st15"
   d="m 238.5,575.5 c -9.1,0 -14.6,-1.6 -17.8,-3.1 0.2,1.6 0.6,2.9 1.6,3.9 2.6,2.5 8.8,3.3 19,2.5 14.3,-1.1 18.4,-6.2 19.8,-9.8 -4,2.8 -11.5,6.5 -22.6,6.5 z"
   id="path133" />
	<path
   class="st15"
   d="m 238.5,572.9 c 13.5,0 21.4,-6 23.5,-7.8 0,-1.5 -0.2,-4.8 -0.4,-7.4 -0.2,-3 -0.4,-6.1 -0.4,-8.1 0,-1.3 0.2,-3.3 0.6,-5.8 0.6,-5.2 2,-16 -0.5,-18.2 -0.7,-0.7 -1.5,-1.3 -2.3,-1.9 v 0 0 c -3,-2.1 -6.6,-3.4 -13.2,-3.7 -8.3,-0.4 -15.4,2 -15.8,3.4 -0.1,1.2 0,2.9 0.2,4.9 2.3,-0.8 6.6,-2.1 11.5,-2.1 4.3,0 12.4,1.3 12.7,1.3 l 1.2,0.2 -0.7,8.7 -1.5,-0.4 c -0.1,0 -5.2,-1.3 -11.7,-1.3 -5.4,0 -8.8,1.3 -10.5,2.1 0.7,5.1 1.5,9.7 1.7,10.9 2,-0.5 4.1,-0.8 6.2,-1 0.6,0 1,-0.1 1.7,-0.1 0.6,0 1.2,0.1 1.8,0.2 1.1,0.2 2.2,0.5 3.3,0.8 1.1,0.3 2.1,0.7 3.1,1.1 0.9,0.7 1.7,1.6 2.4,2.5 -1.2,0.1 -2.4,0.1 -3.4,0 -0.9,-0.4 -1.9,-0.8 -2.9,-1.1 -1,-0.3 -2,-0.6 -2.9,-0.7 -0.5,-0.1 -1,-0.1 -1.4,-0.1 -0.4,0 -1,0.1 -1.5,0.1 -2.1,0.2 -4.1,0.5 -6.1,1 -0.9,0.2 -1.7,0.5 -2.5,0.8 -3.7,3.1 -10,9.4 -10,14.8 0,0.8 0,1.6 -0.1,2.4 0,0.4 0,0.8 0,1.2 2.4,1.2 7.8,3.3 17.9,3.3 z"
   id="path134" />
	<path
   class="st15"
   d="m 260.2,507.5 c -0.7,-2.4 -1.2,-4.3 -1.7,-5.8 -0.2,0.4 -0.5,0.7 -0.7,1 l 4.6,18.7 c 0.5,0.4 1,0.8 1.5,1.3 2.3,2.1 2.8,6 2.7,11.1 0.8,0.8 2.1,2 3.1,2 0.6,0 1.3,0 2.1,0 -1.7,-1.8 -3.6,-4.6 -5.4,-9.1 -2.1,-5.3 -4.5,-13.4 -6.2,-19.2 z"
   id="path135" />
	<path
   class="st15"
   d="m 276.1,483 c -5,2.2 -11,4.9 -16.8,7.6 0.7,1.5 1.1,3.1 1.1,4.9 0,0.7 -0.1,1.3 -0.2,1.9 1.5,5.6 5.6,20.4 8.7,28.3 2.3,5.7 4.9,8.5 6.4,9.6 2.1,-0.4 4.5,-1.3 6.5,-3 2.7,-2.3 2.7,-12.9 1.8,-19.8 l -0.2,-1.9 1.9,-0.3 c 2,-0.3 4,-0.6 6,-0.9 -0.6,-2 -2.5,-7.5 -5.6,-13.7 -3.3,-6.8 -8,-11.3 -9.6,-12.7 z"
   id="path136" />
	<path
   class="st15"
   d="m 281.8,480.6 c -1,0.4 -2,0.8 -3.1,1.3 2.2,2.1 6.3,6.4 9.3,12.6 3.4,6.9 5.3,12.8 5.9,14.4 1.2,-0.2 2.3,-0.4 3.3,-0.6 -1,-2.8 -3.7,-9.8 -6.7,-16 -2.9,-5.7 -6.6,-9.7 -8.7,-11.7 z"
   id="path137" />
	<path
   class="st16"
   d="m 233,310.9 c 0.1,0 0.1,0 0,0 9.4,0 10.8,-6.2 10.8,-6.4 0.1,-0.7 -0.3,-1.4 -1,-1.5 -0.7,-0.2 -1.4,0.3 -1.6,1 0,0.2 -1.1,4.3 -8.2,4.3 0,0 0,0 0,0 -5.2,0 -7,-4.9 -7.1,-5.1 -0.2,-0.7 -1,-1.1 -1.7,-0.8 -0.7,0.2 -1.1,1 -0.8,1.7 0.9,2.3 4,6.8 9.6,6.8 z"
   id="path138" />
	<path
   class="st16"
   d="m 302.1,303.3 c -0.7,-0.2 -1.4,0.3 -1.6,1 0,0.2 -1.1,4.3 -8.2,4.3 0,0 0,0 0,0 -5.2,0 -7,-4.9 -7.1,-5.1 -0.2,-0.7 -1,-1.1 -1.7,-0.8 -0.7,0.2 -1.1,1 -0.8,1.7 0.8,2.4 3.9,6.9 9.6,6.9 0,0 0,0 0,0 9.4,0 10.7,-6.2 10.8,-6.4 0.1,-0.8 -0.3,-1.5 -1,-1.6 z"
   id="path139" />
	<path
   class="st16"
   d="m 265,327.1 c 9.9,0 14.5,-3.6 14.7,-3.8 0.6,-0.5 0.7,-1.3 0.2,-1.8 -0.5,-0.6 -1.3,-0.7 -1.9,-0.2 0,0 -4.1,3.2 -13,3.2 0,0 0,0 0,0 -5.7,0 -12,-3.3 -12.1,-3.3 -0.6,-0.3 -1.4,-0.1 -1.8,0.6 -0.3,0.6 -0.1,1.4 0.6,1.8 0.3,0 7,3.5 13.3,3.5 z"
   id="path140" />
	<path
   class="st16"
   d="M 494.3,179.9 C 481.6,165.4 457.1,150.8 412.2,164.2 369.1,177 301,255.3 297.4,259.5 c -3.1,-1.7 -6.6,-3.2 -10.2,-4.4 l 2.1,-10.9 -3.5,-0.7 v -15.6 c 1.9,-1.7 6.2,-5.9 6.7,-8.2 0.4,-2 -0.4,-4.9 -0.8,-6.2 14,-15.7 13.8,-17 13.7,-17.6 -0.1,-1 -1.2,-2.1 -2.3,-3 25.1,-8.1 24.7,-10.1 24.4,-11.3 -0.4,-1.7 -3.4,-3.5 -6.5,-4.9 30,-6.5 29.7,-9.3 29.6,-10.5 -0.3,-2.9 -8,-6.6 -13.9,-9 8.7,-5.5 7.9,-7.2 7.5,-7.9 -0.7,-1.4 -1.4,-2.8 -37.3,7.2 -8.8,2.5 -16.1,10.2 -19.6,14.4 -0.6,-8.3 -2.3,-8.5 -3.1,-8.5 -1.8,-0.2 -3,2.1 -6.8,11.1 -1.3,3.1 -2.7,6.3 -3.8,8.3 -2.1,3.9 -2.1,12.7 -1.8,18.2 -1.3,-1.3 -2.8,-2.2 -4.4,-1.7 -2.6,0.9 -1.5,5.2 2.1,16.3 1.1,3.4 2.1,6.5 2.6,8.6 1.2,5.1 3.7,14.5 4.8,18.4 l -2.5,-0.5 -2,10.6 c -3.6,-0.4 -7.2,-0.7 -11,-0.7 -3.1,0 -6.1,0.1 -9,0.4 l -2.6,-9.5 -3.5,0.9 c 0.4,-2.9 1,-8.7 0.7,-10.6 -0.4,-2.3 -3.9,-5.6 -5.4,-6.9 0.3,-3 1.3,-13.3 -0.2,-16.8 -0.4,-1 -1.2,-1.7 -2.2,-1.9 -1.9,-0.5 -4.3,0.6 -6,1.6 0.2,-6.1 0.4,-21.2 -2.3,-28 -1.5,-3.7 -8.9,-22.1 -13.2,-20.5 -1.7,0.6 -3,4.6 -4,11.9 -4.2,-6.2 -14,-20 -22.4,-23.5 -9.2,-3.9 -14.9,-1.2 -16.6,-0.2 -4.8,-1 -17.7,-3.3 -20,0.8 -0.2,0.4 -0.5,1.1 -0.2,2 1.2,3.6 12.6,9.3 19.6,12.5 -6.5,0.6 -12.4,2 -12.4,4.9 0,1.2 0,3 15.8,8.1 3.4,1.1 6.8,2.1 9.5,2.9 -4.1,1 -8,2.7 -7.8,5.3 0.3,2.7 4.5,3.9 11.5,5.5 2.6,0.6 5.3,1.2 6.3,1.8 2,1.1 7.1,4 10.7,6.1 -5.8,0.7 -5.9,2.2 -6,2.9 -0.1,0.8 -0.2,2.3 18.2,15.9 -1.1,1.8 -2.7,5.3 -0.8,7.2 0.9,0.9 2.9,2 5.1,3.3 2.4,1.4 5.2,3 6.5,4.3 3.3,3.3 7.2,11.5 8.1,13.4 l -4.1,1.1 2,8.3 c -5.6,1.6 -10.6,3.8 -15,6.5 -4.1,-4.4 -68.5,-72.1 -125.4,-83 C 58.1,170.3 37.7,186 29,196 c -12.4,14.1 -16.9,33.8 -11.4,50.1 11.3,33.9 46,66.7 95.4,90.1 16.3,7.7 41.2,15.4 64.1,21.7 -23,-1.5 -57.6,-2.1 -76,5.2 -23.4,9.2 -37.4,32.1 -34,55.6 2.9,19.9 19.6,42.4 58,45.8 5.1,0.5 10.1,0.7 14.9,0.7 46.8,0 80.4,-19.8 93.3,-28.9 -0.7,2.6 -0.7,4.9 0.5,6.4 2.3,3 7.1,2.8 10.8,2 -1.6,3.7 -3,8.7 -0.2,11.4 0.6,0.6 1.3,1.1 2.1,1.4 l -2.2,27.4 c -4.1,1.8 -7,5.9 -7,10.7 0,4 2.1,7.6 5.2,9.7 l -1.5,10.9 c -7,0.5 -14.4,2.7 -14.7,7.1 -0.3,5.8 2,20.1 2.8,24.4 -3.1,2.5 -12.1,10.4 -12.1,18.4 0,0.8 0,1.5 -0.1,2.3 -0.1,4 -0.3,8.1 2.9,11.1 2.7,2.6 7.5,3.9 15,3.9 2.1,0 4.5,-0.1 7.1,-0.3 14.3,-1.1 22.3,-6.3 24,-15.5 0,-0.2 0.1,-0.3 0.1,-0.4 0.3,-1.1 0.2,-3.6 -0.2,-9.4 -0.2,-2.9 -0.4,-6 -0.4,-7.9 0,-1.1 0.2,-3 0.5,-5.3 0.2,-2 0.5,-3.9 0.6,-5.7 1,0.6 2.2,1.1 3.5,1.1 2.8,0 9.3,0 14.6,-4.4 4.6,-3.8 3.9,-16.1 3.4,-21.4 5.2,-0.7 14.1,-2.2 16.1,-3.6 3.4,-2.4 1.9,-7.7 -1.5,-17.6 -0.2,-0.5 -0.4,-1 -0.6,-1.6 l 9.1,-2.7 c 1.2,0.5 2.5,0.7 3.9,0.7 6.2,0 11.2,-5 11.2,-11.2 0,-6.2 -5,-11.2 -11.2,-11.2 -0.5,0 -1,0 -1.5,0.1 l -28.1,-27.9 c 1.4,0.2 2.9,-0.1 4.2,-1.3 1.4,-1.2 1.6,-3.4 1.2,-6.1 5,1.3 19,4.4 40.4,6.4 5.3,0.5 11.9,0.8 19.4,0.8 31,0 75.8,-5.2 93.5,-24 12.2,-12.9 17.3,-30.9 13.2,-47.1 -3.6,-14.7 -14.3,-25.8 -29.9,-31.1 -13.4,-4.6 -39.6,-1.4 -57.5,1.7 37.4,-16.8 76.5,-38.4 103.8,-64.2 13.9,-13.1 24.3,-30.6 28.5,-48.1 4.5,-18.9 1.7,-35.2 -7.9,-46.3 z m -207.7,77.7 c 19.2,6.6 31.5,20.7 31.5,38.3 0,22.5 -16.9,35.4 -37.5,40.2 l -1.5,-5.3 H 279 c 4.2,-2.2 7.9,-5.2 10.9,-8.7 0.7,0.1 1.4,0.1 2.1,0.1 10.4,0 18.9,-8.5 18.9,-18.9 0,-9.2 -6.7,-16.9 -15.4,-18.6 -2.6,-5.7 -6.6,-10.6 -11.6,-14.4 0.2,-0.2 0.3,-0.5 0.3,-0.8 z m 94.8,34.3 c 0.2,-0.9 1.8,-2.5 3,-3.6 4.5,-2.6 12,-8 15.2,-10.3 1.8,7.3 1.8,14.1 0,16.9 -0.3,0.5 -0.8,1.2 -1.4,1.9 -2.6,2 -7.1,4.7 -11,4.3 -1.1,-0.1 -2.9,-1.4 -4.4,-3.4 -0.7,-1.2 -1.9,-3.5 -1.4,-5.8 z m 2.2,-6.2 c -0.2,0 -0.4,0.1 -0.6,0.3 -0.1,0.1 -0.2,0.1 -0.3,0.2 -0.9,0.5 -1.7,0.9 -2.1,1 -2.9,0.8 -6,0.9 -8.8,-4.3 -1.7,-3.1 4.6,-8.7 7.3,-11 0.9,-0.7 1.5,-1.3 1.8,-1.7 0,0 0,-0.1 0,-0.1 4.6,-3.2 9.2,-6.7 10.8,-8.5 v 0 0 c 0,0 0,0 0,0 3.2,3.8 5.5,8.7 7,13.7 -4.4,3.4 -11.1,8 -15.1,10.4 z m -14.7,-10.9 c -2,0.9 -4.5,0.8 -6.5,-0.3 -1.7,-0.9 -2.7,-2.4 -3,-4.2 -0.6,-3.7 3,-7.4 6.4,-9.9 6.8,-3.6 16.4,-7.3 22.9,-2 0.5,0.4 1,0.9 1.5,1.4 -1.7,1.4 -15.6,12.5 -21.3,15 z m -12.1,-4.1 c 0.4,2.6 2,4.8 4.3,6.1 1.5,0.8 3.2,1.2 4.9,1.2 1.4,0 2.7,-0.3 4,-0.8 0.2,-0.1 0.6,-0.3 1,-0.5 -1.7,2.5 -2.6,5.1 -1.3,7.5 2.6,4.8 5.8,6.1 8.5,6.1 0.4,0 0.8,0 1.2,-0.1 -0.2,0.4 -0.4,0.7 -0.4,1.1 -0.6,2.5 0,5.2 1.8,7.8 1.7,2.5 4.2,4.3 6.2,4.6 0.4,0.1 0.8,0.1 1.2,0.1 1.4,0 2.8,-0.3 4.1,-0.7 -5.2,5.1 -12.3,11.4 -18.9,16.8 -2.2,0.1 -13.1,0 -23.3,-10.2 -10.3,-10.3 -10,-19.5 -9.9,-20.7 1.1,-1.2 2.1,-2.3 2.8,-3.2 3,-3.9 -3.3,-15.8 -4.3,-17.4 -0.3,-0.5 -1,-1.5 -1.8,-2.7 -1.6,-2.3 -5.5,-7.8 -5.8,-9.1 -0.3,-1.9 0.6,-4.3 2.2,-5.9 0.9,-0.9 2.4,-1.9 4.4,-1.9 0.3,0 0.7,0 1.1,0.1 1.2,0.5 5.4,4.8 8.1,7.7 6.4,6.7 8.3,8.4 10.1,8.3 0.3,0 0.7,-0.1 1.1,-0.3 -1.1,1.9 -1.7,3.9 -1.3,6.1 z m -19.2,21 c 0.4,4.1 2.4,11.6 10.6,19.8 8.4,8.4 17.2,10.4 22,10.9 -1.4,1.1 -2.7,2.2 -4,3.2 -4,-0.6 -12.7,-2.9 -21.5,-11.3 -8.6,-8.2 -9.8,-19.6 -9.8,-19.8 h -0.1 c 0.9,-1 1.8,-1.9 2.6,-2.7 0.1,0 0.2,-0.1 0.2,-0.1 z m -4.9,5.2 c 0.8,3.9 3.2,12.5 10.3,19.3 7.9,7.5 15.6,10.4 20.5,11.5 -3.6,2.7 -6.4,4.5 -7.5,4.7 -4.8,0.7 -14.7,-2.5 -19.9,-9.5 -5.3,-7.2 -8.1,-13.8 -8.1,-19.3 0,-1.3 2.2,-4 4.7,-6.7 z m 0.2,28.3 c 0.6,0.8 1.2,1.5 1.9,2.2 l -43.9,31.2 c -0.5,-1.4 -1.3,-3 -2.2,-4.5 L 332.1,324 c 0.3,0.4 0.5,0.8 0.8,1.2 z m -73.2,23.3 c -12.3,-0.1 -24.1,-5.1 -25.3,-7.2 0,-1.3 0.6,-2.9 1.2,-4 7.6,2.4 16.3,3.7 25.8,3.7 8.6,0 16.5,-1.1 23.5,-3 1.2,2.5 1.8,5.1 1.2,5.7 -2,1.6 -12.8,4.8 -26.4,4.8 z M 228,291.6 c 1.9,-0.9 4,-1.5 6.2,-1.5 7.8,0 14.1,6.3 14.1,14.1 0,7.8 -6.3,14.1 -14.1,14.1 -0.2,0 -0.3,0 -0.5,0 -2.1,-0.1 -4,-0.6 -5.8,-1.5 -4.6,-2.3 -7.8,-7.1 -7.8,-12.6 0,-3.4 1.2,-6.5 3.2,-8.9 1.3,-1.5 2.9,-2.8 4.7,-3.7 z m 24.3,12.7 c 0,-10 -8.1,-18.1 -18.1,-18.1 -1.6,0 -3.1,0.2 -4.6,0.6 4.3,-9.8 13.4,-17.1 24.6,-19.3 0.1,0 0.3,0 0.4,-0.1 0,0 0.1,0 0.1,0 2,-0.4 4.1,-0.6 6.2,-0.6 13.2,0 24.6,7.2 30.2,17.7 -9.9,0.6 -17.8,8.8 -17.8,18.8 0,8.1 5.1,15 12.3,17.7 -6.2,6.3 -15,10.3 -24.7,10.3 -9.3,0 -17.6,-3.6 -23.8,-9.3 8.6,-1.3 15.2,-8.8 15.2,-17.7 z m 39.9,14.1 c -1.3,0 -2.5,-0.2 -3.8,-0.5 -6.4,-1.7 -11.2,-7.5 -11.2,-14.4 0,-8.2 6.7,-14.9 14.9,-14.9 0.2,0 0.4,0 0.7,0 1.6,0.1 3.1,0.4 4.5,0.9 5.7,2.1 9.8,7.6 9.8,14 0,8 -6.3,14.5 -14.2,14.9 -0.2,-0.1 -0.5,0 -0.7,0 z m -44.9,14.5 c 4.2,1.6 8.8,2.4 13.6,2.4 5.2,0 10.1,-1 14.6,-2.8 l 1.2,4.4 c -5,0.9 -10.2,1.3 -15.4,1.3 -5.4,0 -10.9,-0.5 -16.2,-1.5 z m 27.3,-110.3 c -0.5,-2.2 -1.6,-5.5 -2.7,-8.9 -1.4,-4.2 -3.6,-11 -3.5,-13 0.9,0.3 2.5,2.2 3.7,4.3 l 3.1,5.7 -0.6,-6.5 c -0.4,-4.5 -1.1,-17.2 1.2,-21.3 1.2,-2.1 2.5,-5.4 3.9,-8.6 1.2,-2.9 3,-7 4,-8.8 0.5,1.8 0.9,5.6 1,8.9 l 0.1,4 2.3,-3.3 c 0.1,-0.1 9.1,-13.2 20.4,-16.3 22.2,-6.2 30.3,-7.8 33.3,-8.1 -1.6,1.4 -4.8,3.6 -7.7,5.4 l -2.3,1.4 2.5,1 c 7,2.7 13.3,6.1 14.5,7.5 -2.6,1.9 -17.6,5.8 -31.5,8.7 l -4.4,0.9 4.2,1.6 c 3.7,1.4 7.3,3.3 8.4,4.3 -2.6,1.8 -14.2,6 -24.9,9.4 l -2.8,0.9 2.5,1.5 c 1.4,0.9 2.8,2 3.2,2.5 -1.1,1.9 -7.5,9.5 -13.5,16.3 l -0.5,0.6 0.3,0.8 c 0.4,0.9 1.3,4 1,5.5 -0.2,1.2 -3.5,4.6 -6.3,7.2 l -0.4,0.4 v 16.3 l -3.4,-0.7 c -0.7,-2.5 -3.8,-13.8 -5.1,-19.6 z m 2.9,23.2 7.1,1.4 -1.3,6.7 c -2.3,-0.6 -4.6,-1.2 -7.1,-1.6 z m -3.6,18.8 1.9,-9.8 c 2.4,0.4 4.8,1 7.1,1.6 l -2.3,11.8 c -2.1,-1.3 -4.4,-2.3 -6.8,-3.2 0,0 0.1,-0.2 0.1,-0.4 z m -12.6,-11 c 3.6,0 7.2,0.2 10.5,0.6 l -1.8,9.6 c 0,0 0,0.1 0,0.1 -2.9,-0.7 -6,-1.1 -9.1,-1.1 -1.8,0 -3.6,0.1 -5.3,0.4 L 253,254 c 2.7,-0.2 5.5,-0.4 8.3,-0.4 z m -9.6,10.4 c -2.7,0.6 -5.2,1.6 -7.7,2.8 l -2.7,-11 c 2.5,-0.6 5.1,-1 7.8,-1.4 z m -4.7,-17.3 1.4,5.1 c -2.7,0.3 -5.2,0.8 -7.7,1.4 l -1.1,-4.5 z m -14.3,-17.2 c -1.6,-1.6 -4.3,-3.2 -7,-4.7 -1.9,-1.1 -3.8,-2.2 -4.5,-2.9 -0.5,-0.5 0.4,-2.9 1.8,-4.9 l 0.8,-1.1 -1.1,-0.8 c -7.5,-5.5 -15.6,-11.9 -17.7,-14.2 1.3,-0.4 4.4,-0.8 7.3,-0.9 l 4.6,-0.2 -4,-2.3 c -0.1,-0.1 -11.2,-6.5 -14.4,-8.3 -1.4,-0.8 -4,-1.4 -7,-2.1 -2.9,-0.7 -9,-2.1 -9.5,-3.1 0.4,-1.1 5.6,-2.8 11.1,-3.6 l 6.4,-0.9 -6.2,-1.7 c -12.4,-3.3 -26.5,-8 -28.6,-10 1.3,-1.1 8.1,-2.3 15.1,-2.6 l 5.8,-0.2 -5.4,-2.3 c -10.7,-4.6 -22.4,-10.8 -23.1,-13 1.3,-1.6 10.2,-0.9 17.6,0.7 l 0.6,0.1 0.5,-0.4 c 0.2,-0.2 5.1,-3.8 14.5,0.2 9.9,4.1 23,25.3 23.1,25.5 l 2,3.3 0.4,-3.8 c 0.6,-5.3 1.8,-11.5 2.7,-13.2 1.8,1.5 6.3,9.6 9.9,18.8 3.1,7.9 2,29.3 2,29.5 l -0.2,2.9 2.3,-1.7 c 1.6,-1.3 4.7,-2.9 6,-2.6 0.2,0 0.3,0.1 0.4,0.4 1,2.4 0.5,11.2 -0.1,16.2 l -0.1,0.7 0.5,0.5 c 2.3,1.9 4.8,4.7 5,5.8 0.3,1.5 -0.3,7.2 -0.8,10.9 l -2,0.5 c -0.1,-0.4 -4.7,-10.4 -8.7,-14.5 z m 4.7,27.2 3,12 c -7.5,4.7 -13.2,11.8 -15.8,20.2 -5.1,3.2 -8.4,8.8 -8.4,15.3 0,9.1 6.8,16.6 15.5,17.9 3.3,3.8 7.3,6.9 11.9,9.2 l -2.6,4.6 c -20.3,-4.9 -36.7,-17.8 -36.7,-40 0.1,-19.1 12.5,-33.2 33.1,-39.2 z M 114.7,332.5 C 66.3,309.7 32.3,277.7 21.4,244.8 c -5,-15 -0.8,-33.2 10.7,-46.3 8.2,-9.4 27.4,-24 63.6,-17.1 53.6,10.3 116.3,74.5 122.9,81.4 -10.7,7.8 -16.7,19.2 -16.7,33.1 0,18.5 11.3,32.8 29.9,40 -0.7,1.6 -1.5,3.7 -1.3,5.7 0.2,2.5 4.1,5.1 9.4,7.1 -1.4,1.8 -3,4.2 -3.9,6.4 l -35.7,-29.5 -0.5,0.6 c 2.7,-5.1 4.1,-9.8 4,-14.1 0,-3.5 -4.2,-8 -10.6,-14.6 -2.1,-2.2 -4.1,-4.2 -5.2,-5.6 -0.6,-1.6 2,-9 4.5,-13 0.3,-0.5 1,-1.4 1.8,-2.6 4.2,-6 6.2,-9.1 6.4,-10.7 0.5,-3.2 -0.9,-6.8 -3.4,-9.3 -2.4,-2.4 -5.6,-3.4 -9,-2.8 -1.9,0.3 -4.4,2.8 -10.2,8.9 -2.3,2.4 -5.7,6 -7.1,6.9 -0.6,-0.3 -1.5,-0.8 -2.3,-1.3 -7,-4.1 -21.6,-12.6 -31.9,-4.2 -12.5,10.2 -16.7,34.1 -11.9,41.7 4.1,6.5 39.7,38.3 46.4,39.3 0.7,0.1 1.4,0.2 2.1,0.2 6.1,0 14.5,-3.4 19.9,-9.3 l 38.5,31.7 c -12.1,-2.7 -83.5,-19 -117.1,-34.9 z m 120.7,32.7 -39.7,-32.6 c 0.9,-1.2 1.7,-2.4 2.4,-3.6 l 37.4,30.9 c 0.5,1.1 1.2,1.9 2,2.4 -0.7,0.9 -1.4,1.9 -2.1,2.9 z m -73.3,-96.3 c 3.4,2.5 6.9,6.2 6.3,9.9 -0.3,1.8 -1.4,3.3 -3,4.2 -2,1.1 -4.4,1.2 -6.5,0.3 -5.8,-2.5 -19.6,-13.6 -21.3,-15 0.5,-0.5 1,-1 1.5,-1.4 2.3,-1.9 5.1,-2.6 7.9,-2.6 5.3,0 10.8,2.3 15.1,4.6 z m -26.1,1.2 c 0,0.1 0,0.1 0,0 1.7,1.8 6.3,5.3 10.8,8.5 0,0 0,0.1 0.1,0.1 0.3,0.4 0.9,0.9 1.8,1.7 2.7,2.4 9,7.9 7.3,11 -2.8,5.2 -5.9,5.1 -8.8,4.3 -0.4,-0.1 -1.2,-0.5 -2.1,-1 -0.1,-0.1 -0.2,-0.2 -0.3,-0.2 -0.2,-0.1 -0.4,-0.2 -0.6,-0.3 -4,-2.4 -10.6,-7.1 -15.2,-10.4 1.5,-4.9 3.8,-9.8 7,-13.7 z m -7.8,33.3 c -1.7,-2.8 -1.8,-9.6 0,-16.9 3.2,2.3 10.6,7.6 15.2,10.3 1.2,1 2.7,2.7 2.9,3.6 0.6,2.3 -0.6,4.6 -1.4,5.7 -1.4,2.1 -3.3,3.3 -4.4,3.4 -3.8,0.5 -8.3,-2.3 -11,-4.3 -0.5,-0.6 -0.9,-1.3 -1.3,-1.8 z m 11.5,8.8 c 0.4,0 0.8,0 1.2,-0.1 2,-0.3 4.5,-2.1 6.2,-4.6 1.8,-2.6 2.4,-5.3 1.8,-7.8 -0.1,-0.3 -0.3,-0.7 -0.4,-1.1 0.4,0.1 0.8,0.1 1.2,0.1 2.8,0 5.9,-1.3 8.5,-6.1 1.3,-2.4 0.4,-5 -1.3,-7.5 0.4,0.2 0.7,0.4 1,0.5 1.2,0.5 2.6,0.8 4,0.8 1.7,0 3.4,-0.4 4.9,-1.2 2.4,-1.3 3.9,-3.5 4.3,-6.1 0.3,-2.2 -0.2,-4.2 -1.3,-6.1 0.4,0.2 0.7,0.3 1.1,0.3 1.8,0.2 3.7,-1.6 10.1,-8.3 2.8,-2.9 6.9,-7.3 8,-7.7 2.7,-0.4 4.5,0.7 5.6,1.8 1.6,1.6 2.5,4 2.2,5.9 -0.3,1.3 -4.1,6.8 -5.8,9.1 -0.8,1.2 -1.5,2.2 -1.9,2.7 -1,1.7 -7.3,13.5 -4.3,17.4 v 0 c 0.7,0.9 1.7,2 2.8,3.2 0.1,1.2 0.5,10.4 -9.9,20.7 -10.2,10.1 -21.1,10.3 -23.3,10.2 -6.6,-5.5 -13.6,-11.8 -18.9,-16.8 1.5,0.5 2.9,0.7 4.2,0.7 z m 39.9,7.8 c 8.2,-8.2 10.2,-15.7 10.6,-19.8 0,0 0.1,0.1 0.1,0.1 0.8,0.8 1.7,1.7 2.6,2.7 h -0.1 c 0,0.1 -1.2,11.5 -9.8,19.8 -8.8,8.3 -17.5,10.6 -21.5,11.3 -1.3,-1 -2.6,-2 -4,-3.2 4.9,-0.5 13.7,-2.5 22.1,-10.9 z m 5.3,4.7 c 7.2,-6.8 9.5,-15.4 10.3,-19.3 2.5,2.7 4.6,5.4 4.6,6.7 0,5.4 -2.8,12.1 -8.1,19.3 -5.2,7 -15.1,10.3 -19.9,9.5 -1.1,-0.2 -3.8,-2 -7.5,-4.7 5,-1.1 12.7,-4 20.6,-11.5 z M 125.4,460.5 C 89.3,457.3 73.6,436.5 71,418 c -3.1,-21.7 9.8,-42.8 31.5,-51.3 27.8,-10.9 96.5,-3 97.2,-2.9 v 0 c 15.6,3.9 27.8,6.7 31.7,7.5 -0.9,1.5 -1.5,2.7 -1.6,3.4 -0.1,0.7 0.1,1.5 0.6,2.1 0.8,0.9 2.4,1.5 4.2,1.9 -9.9,7.2 -8.9,9.7 -8.5,10.7 0.1,0.2 0.2,0.4 0.4,0.6 l -20.8,7.8 c -2.8,-4.5 -6,-7.8 -9.4,-9.8 -2.8,-1.5 -8.1,-0.3 -16,1.8 -2.6,0.7 -5,1.3 -6.5,1.5 -1.5,-0.3 -6,-5.5 -7.9,-9 -0.2,-0.5 -0.7,-1.4 -1.2,-2.5 -2.9,-6 -4.3,-8.8 -5.5,-9.8 -2.3,-1.8 -5.8,-2.4 -8.8,-1.5 -3,0.8 -5.2,2.9 -6.3,5.9 -0.6,1.7 0.2,4.7 2.4,11.9 0.8,2.7 2.1,6.7 2.2,8.3 -0.5,0.3 -1.2,0.7 -1.9,1.1 -5.8,3.4 -19.3,11.2 -17.3,23 2.3,14 18.7,27.5 26.9,27.5 0.1,0 0.2,0 0.3,0 6.8,-0.3 47,-13.9 50.7,-18.7 3,-3.8 4.7,-11.3 3.4,-18.3 l 17.1,-6.4 c -0.5,1.8 -0.1,2.6 0.2,3 1.4,2.3 5.6,2.4 9.7,1.9 -6.2,7.9 -8.5,13 -6.9,15.4 1.5,2.2 4.7,2.4 7.5,2 -0.8,1.3 -1.5,2.6 -2.2,4 -4.4,3.6 -46.8,37.1 -110.8,31.4 z m 104.9,-62.6 -0.1,-0.1 -20.6,7.8 c -0.1,-0.4 -0.3,-0.8 -0.5,-1.2 -0.5,-1.1 -1,-2.1 -1.5,-3.1 l 25.2,-9.4 v 0 c 0.7,0 1.3,-0.1 2.1,-0.2 -2,2.4 -3.5,4.5 -4.6,6.2 z m -85.1,3.4 c 3.3,-1.4 7.4,-2.4 9.8,-0.4 1.2,1 1.9,2.4 1.9,4 0,1.9 -1,3.9 -2.5,5 -4.3,3.3 -18,8.8 -20.6,9.7 -0.1,-0.5 -0.3,-1.1 -0.3,-1.6 -1.3,-7.3 6,-13.1 11.7,-16.7 z m 0.4,16.2 c 0,0 0.1,0 0.1,0 0.5,-0.1 1.1,-0.3 2.1,-0.7 3,-1 9.9,-3.4 11.5,-0.9 2.7,4.3 1.4,6.6 -0.5,8.5 -0.3,0.3 -0.9,0.7 -1.7,1.1 -0.1,0 -0.2,0.1 -0.3,0.1 -0.2,0.1 -0.4,0.2 -0.5,0.3 -3.5,2 -9.9,5 -14.5,7.1 -3.1,-3.2 -5.8,-7.1 -7.3,-11.1 2.3,-0.4 6.7,-2.3 11.1,-4.4 z m 12.5,10.6 c 1.5,-0.5 3.3,-0.9 4,-0.7 2,0.6 3.2,2.4 3.7,3.5 0.9,1.9 1.1,3.9 0.8,4.7 -1.2,3 -5,5.2 -7.7,6.4 -1,0.2 -1.8,0.3 -2.4,0.3 -2.8,0.1 -8,-2.7 -12.7,-7.1 3.3,-1.5 10.4,-4.8 14.3,-7.1 z m 10.9,8.5 c 0.7,-1.7 0.4,-4.4 -0.8,-6.9 -1.2,-2.5 -3.1,-4.3 -5.3,-4.9 -0.2,-0.1 -0.5,-0.1 -0.8,-0.1 2,-3 1.9,-6.3 -0.5,-10.1 -1.2,-2 -3.4,-2.5 -5.9,-2.4 0.1,-0.1 0.2,-0.1 0.3,-0.2 2.2,-1.6 3.5,-4.4 3.6,-7.1 0,-2.5 -1,-4.6 -2.8,-6.1 -1.4,-1.1 -3.1,-1.6 -4.8,-1.6 0.1,-0.1 0.3,-0.3 0.4,-0.4 1,-1.4 0.4,-3.6 -2,-11.6 -1,-3.3 -2.5,-8.2 -2.4,-9.5 0.8,-2.1 2.4,-3 3.6,-3.3 1.8,-0.5 4,-0.2 5.3,0.8 0.8,0.8 3.4,6.1 4.4,8.4 0.6,1.2 1,2.1 1.3,2.6 0.1,0.1 6.9,11.7 11.8,11 1,-0.1 2.3,-0.4 3.8,-0.8 1.3,0.6 8.1,4.4 11.4,16.5 3.2,11.8 -1,20.1 -2.2,22.1 -6.8,2.6 -14.4,5.2 -20.5,7 0.8,-1.1 1.6,-2.2 2.1,-3.4 z m 22.9,-26.5 c -2.6,-9.6 -7.4,-14.4 -10.4,-16.7 0.9,-0.2 1.9,-0.5 2.9,-0.7 0.6,0.5 8.3,6.2 10.8,16.1 2.6,10.2 0.6,17.8 -0.6,21.2 -1.2,0.5 -2.4,1 -3.7,1.5 1.7,-4 3.7,-11.5 1,-21.4 z m 5.9,-1.9 c -2.1,-8.2 -7.3,-13.7 -10.1,-16.2 3,-0.6 5.8,-1.1 6.7,-0.6 4.1,2.3 8,7.3 11.2,14.5 3.1,7 1.3,15.9 -1.3,19.2 -0.6,0.7 -3,2 -6.4,3.5 1.2,-4.3 2.2,-11.4 -0.1,-20.4 z m 52.5,49.8 c 0.5,-0.1 1,-0.1 1.5,-0.3 -0.4,4.4 -0.3,10.3 2,13 l -1.4,13.7 c -1.2,-0.4 -2.4,-0.6 -3.7,-0.6 -0.2,0 -0.4,0 -0.6,0 z m 33.3,-2.4 20.3,19.6 c -0.2,0.8 -0.3,1.6 -0.3,2.5 l -8.1,2.5 c -2.6,-3.2 -5.3,-5.3 -7.2,-5.6 -2.8,-0.5 -18.4,6.6 -31.4,12.7 -0.3,-0.3 -0.5,-0.5 -0.8,-0.7 l 1.4,-14.3 c 0.3,0 0.7,-0.1 1,-0.2 1.4,-0.5 2.7,-1.6 3.8,-2.8 0.9,3 2.8,5.9 6.2,6.3 0.2,0 0.3,0 0.5,0 5.2,0 8.5,-10.8 10.2,-19.3 1.1,0.2 2.5,0.3 4.4,-0.7 z m -29.4,50.1 c 0.1,0 0.1,-0.1 0.2,-0.1 l 3.2,12.8 c -1.5,-0.7 -3.2,-1.2 -5,-1.6 z M 241,495.5 c 0,-4.2 3.4,-7.7 7.7,-7.7 4.2,0 7.7,3.4 7.7,7.7 0,4.2 -3.4,7.7 -7.7,7.7 -4.2,-0.1 -7.7,-3.5 -7.7,-7.7 z m 5,11.3 c 0.9,0.2 1.8,0.3 2.7,0.3 0.5,0 0.9,0 1.3,-0.1 l -1.4,9.1 c -0.8,-0.1 -1.7,-0.2 -2.7,-0.2 -0.4,0 -0.8,0 -1.2,0 z m -15.6,24.1 c 1.8,-0.7 6.3,-2.2 11.2,-2.2 3.1,0 8.7,0.8 11.1,1.1 l -0.3,3.2 c -2.1,-0.4 -6.1,-1 -10.8,-1 -5.1,0 -8.7,1.1 -10.9,2 -0.1,-1.1 -0.2,-2.1 -0.3,-3.1 z m -9.7,35 c 0,-5.4 6.3,-11.7 10,-14.8 0.8,-0.3 1.7,-0.6 2.5,-0.8 2,-0.5 4,-0.8 6.1,-1 0.5,0 1.1,-0.1 1.5,-0.1 0.4,0 0.9,0.1 1.4,0.1 1,0.2 1.9,0.4 2.9,0.7 1,0.3 2,0.6 2.9,1.1 1.1,0.1 2.2,0.1 3.4,0 -0.7,-1 -1.5,-1.8 -2.4,-2.5 -1,-0.3 -2.1,-0.8 -3.1,-1.1 -1.1,-0.3 -2.1,-0.6 -3.3,-0.8 -0.6,-0.1 -1.2,-0.2 -1.8,-0.2 -0.7,0 -1.1,0.1 -1.7,0.1 -2.1,0.2 -4.1,0.5 -6.2,1 -0.2,-1.2 -1,-5.8 -1.7,-10.9 1.7,-0.8 5.1,-2.1 10.5,-2.1 6.5,0 11.6,1.3 11.7,1.3 l 1.5,0.4 0.7,-8.7 -1.2,-0.2 c -0.3,-0.1 -8.4,-1.3 -12.7,-1.3 -4.8,0 -9.2,1.3 -11.5,2.1 -0.2,-1.9 -0.2,-3.6 -0.2,-4.9 0.4,-1.4 7.5,-3.9 15.8,-3.4 6.6,0.4 10.2,1.6 13.2,3.7 v 0 0 c 0.8,0.6 1.5,1.2 2.3,1.9 2.5,2.3 1.1,13.1 0.5,18.2 -0.3,2.5 -0.6,4.5 -0.6,5.8 0,2 0.2,5.1 0.4,8.1 0.2,2.5 0.4,5.9 0.4,7.4 -2.1,1.8 -10.1,7.8 -23.5,7.8 -10.1,0 -15.4,-2.1 -17.9,-3.4 0,-0.4 0,-0.8 0,-1.2 0.1,-0.7 0.1,-1.5 0.1,-2.3 z m 20.6,12.9 c -10.2,0.8 -16.5,0 -19,-2.5 -1,-1 -1.5,-2.3 -1.6,-3.9 3.2,1.5 8.7,3.1 17.8,3.1 11.1,0 18.6,-3.8 22.6,-6.5 -1.4,3.6 -5.5,8.7 -19.8,9.8 z m 28.5,-43.1 c -1,0 -2.4,-1.2 -3.1,-2 0.2,-5.1 -0.4,-9 -2.7,-11.1 -0.5,-0.5 -1,-0.9 -1.5,-1.3 l -4.6,-18.7 c 0.3,-0.3 0.5,-0.7 0.7,-1 0.4,1.6 1,3.5 1.7,5.8 1.7,5.9 4.1,13.9 6.2,19.1 1.8,4.4 3.8,7.3 5.4,9.1 -0.8,0.1 -1.6,0.1 -2.1,0.1 z m 15.5,-25.5 -1.9,0.3 0.2,1.9 c 0.9,6.9 0.8,17.5 -1.8,19.8 -2.1,1.7 -4.4,2.6 -6.5,3 -1.5,-1.2 -4.1,-3.9 -6.4,-9.6 -3.2,-7.8 -7.3,-22.6 -8.7,-28.3 0.1,-0.6 0.2,-1.3 0.2,-1.9 0,-1.7 -0.4,-3.4 -1.1,-4.9 5.8,-2.7 11.8,-5.4 16.8,-7.6 1.7,1.5 6.3,5.9 9.7,12.7 3.1,6.3 5,11.8 5.6,13.7 -2.1,0.4 -4.1,0.7 -6.1,0.9 z m 8.6,-1.3 c -0.5,-1.7 -2.4,-7.5 -5.9,-14.4 -3.1,-6.2 -7.1,-10.5 -9.3,-12.6 1.1,-0.5 2.1,-0.9 3.1,-1.3 2.1,2 5.8,6 8.6,11.7 3.1,6.2 5.7,13.2 6.7,16 -0.9,0.2 -2,0.4 -3.2,0.6 z m 7.7,-1.8 c -0.3,0.2 -0.9,0.4 -1.8,0.6 -0.9,-2.6 -3.7,-10 -7,-16.6 -2.7,-5.3 -6,-9.3 -8.3,-11.6 1.6,-0.6 2.7,-0.9 3.3,-1 1.7,0.4 7.8,6.3 10.8,15.4 1.4,4 4.2,12.3 3,13.2 z m -1.4,-19.7 c -0.7,-1.3 -1.4,-2.6 -2.2,-3.8 l 6.3,-1.9 c 0.5,1.4 1.3,2.7 2.4,3.8 z m 14.7,-16.8 c 4,0 7.3,3.3 7.3,7.3 0,4 -3.3,7.3 -7.3,7.3 -4,0 -7.3,-3.3 -7.3,-7.3 0,-4.1 3.3,-7.3 7.3,-7.3 z m -5.7,-2.4 c -1.4,0.8 -2.6,1.9 -3.5,3.3 l -19.6,-19 c 0.5,-2 0.4,-4.5 0,-7.3 z m -22.3,-33.6 c -1.6,1.3 -4.2,-1.6 -4.3,-1.6 l -6.4,-7.1 3,9 c 2.6,7.7 3.9,15.8 2.8,17 -0.7,0.4 -1.3,0.5 -1.6,0.4 -0.3,-0.1 -0.5,-0.6 -0.6,-0.6 l -2.4,-7.5 -1.4,7.8 c -1.7,9.7 -5.2,19.2 -7,19.5 -2.9,-0.4 -3.5,-5.9 -3.5,-7.8 V 455 l -3.8,7.8 c -0.9,1.9 -3,4.9 -4.4,5.4 -0.3,0.1 -0.4,0 -0.5,0 -1.3,-0.7 -1.6,-7.2 -0.8,-13.4 l 0.6,-4.3 -3.6,2.3 c 0,0 -3.8,2.4 -6.1,0.2 -1.3,-1.3 0.5,-6.7 3,-10.7 l 3.1,-5.1 -5.6,2.2 c -3.5,1.4 -9.4,2.5 -10.8,0.6 -1.1,-1.5 2.4,-9.6 7.4,-17 l 3.3,-4.9 -5.6,1.9 c -3.4,1.2 -7,1.4 -7.8,0.9 0.2,-2 4.6,-8.6 10,-14.9 l 3.9,-4.6 -5.9,1.4 c -4.4,1 -9.1,1.4 -10.6,0.9 0.6,-2.3 5.5,-8.8 10.1,-14 l 4.2,-4.7 -6.1,1.5 c -3.7,0.9 -7.7,1.3 -9.4,1.1 1.4,-1.8 6,-5.5 11,-8.8 l 5.2,-3.4 -6.2,-0.2 c -2.3,-0.1 -4.9,-0.4 -6.2,-0.8 1.3,-2.3 5.1,-7.8 8.5,-12.5 l 3.2,-4.3 -5.2,1.2 c -0.4,0.1 -1.3,0.2 -1.5,-0.7 -0.1,-1.1 2.1,-4.8 4.7,-8.2 5.1,1.4 10.8,2.4 15.8,2.4 0.2,0 0.4,0 0.6,0 7.8,0 15.2,-1.1 20.6,-2.5 3.8,4.8 6.9,10.2 6.6,11.4 -0.9,1.8 -3.9,1 -3.9,1 l -5.6,-1.5 3.6,4.6 c 4.7,6.1 8.4,12.7 8,14.4 -1.8,2 -5,1.1 -5,1.1 l -4.8,-1.4 2.5,4.3 c 3.3,5.7 5.7,11.8 5.2,13.2 -0.6,1.6 -3.1,0.7 -3.3,0.6 l -5.8,-2.3 3.4,5.2 c 3.7,5.7 6.5,12 5.9,13.3 -2.3,2.2 -3.9,2.5 -3.9,2.5 v 0 l -2.8,0.3 1.3,2.5 c 3.4,7 5.7,14.3 4.9,15.6 z m 2.4,-45.7 28.6,2.4 c -0.3,1.2 -0.6,2.5 -0.8,3.9 -0.1,0.4 -0.1,0.7 -0.1,1.1 l -25.7,-1.6 c -0.5,-1.9 -1.2,-3.9 -2,-5.8 z m 136.9,-48.8 c 14.3,4.9 24,14.9 27.3,28.3 3.7,14.9 -1,31.6 -12.3,43.5 -21,22.3 -83,24.4 -109.7,22 -26.3,-2.4 -41.6,-6.7 -41.8,-6.8 v 0.1 c -0.8,-2.6 -2,-5.4 -3.1,-7.7 1,-0.5 2.3,-1.4 3.7,-2.7 3,-2.8 -0.1,-9.7 -3.2,-15 1.6,-0.3 3.1,-1.3 3.9,-3.3 l 25.6,1.6 v -0.6 c 0.2,7.3 3.7,14.6 7.7,17.7 4,3.1 35,6.1 48.5,6.1 2.4,0 4.2,-0.1 5.2,-0.3 7.9,-1.6 20.8,-19 19.7,-33.3 -0.9,-11.9 -15.9,-16.2 -22.3,-18.1 -0.8,-0.2 -1.6,-0.5 -2.1,-0.6 -0.2,-1.6 0,-5.7 0.2,-8.6 0.4,-7.5 0.4,-10.7 -0.6,-12.1 -1.8,-2.6 -4.4,-4 -7.5,-4.2 -3.2,-0.1 -6.4,1.3 -8.2,3.6 -0.9,1.2 -1.7,4.3 -3,10.8 -0.2,1.2 -0.4,2.2 -0.6,2.7 -1,3.8 -4.1,9.9 -5.4,10.6 -1.6,0.2 -4.1,0.1 -6.7,0.1 -8.1,-0.1 -13.7,0 -16,2.2 -2.8,2.6 -5,6.4 -6.6,11.3 l -30.5,-2.6 c 1.4,-0.3 2.9,-1 4.2,-2.5 2.3,-2.6 -0.4,-8.3 -3.7,-13.3 0.4,-0.1 0.8,-0.3 1.3,-0.4 17,-5.6 39.1,-13.4 62.7,-23.2 6.6,-1.5 54.5,-11.6 73.3,-5.3 z M 370.5,374 c 0.1,0.1 0.3,0.2 0.5,0.3 -1.7,0.5 -3.2,1.3 -4.3,2.8 -1.4,1.9 -1.9,4.3 -1.3,6.6 0.7,2.6 2.7,4.9 5.2,6 0.1,0 0.2,0.1 0.3,0.1 -2.4,0.5 -4.4,1.5 -5.1,3.7 -1.4,4.3 -0.7,7.5 2,9.9 -0.3,0.1 -0.5,0.2 -0.8,0.3 -2,1.1 -3.4,3.3 -4,6 -0.6,2.7 -0.2,5.4 0.9,6.9 0.8,1.1 1.8,1.9 3,2.7 -6.3,-0.3 -14.4,-1 -21.6,-1.8 -1.6,-1.7 -7.8,-8.7 -7.5,-20.9 0.3,-12.4 5.9,-17.8 7,-18.7 1.5,0 2.8,0 3.9,-0.2 4.9,-0.5 8.7,-13.4 8.7,-13.6 0.1,-0.5 0.3,-1.6 0.6,-2.9 0.5,-2.4 1.7,-8.2 2.2,-9.1 1,-1.3 3.1,-2.2 5,-2.1 1.2,0 3,0.5 4.3,2.3 0.4,1.2 0.1,6.4 0,9.8 -0.3,8.5 -0.3,10.7 1,11.9 z m 6.9,45.2 c -0.6,0.1 -1.4,0.2 -2.4,0.2 -2.8,-0.5 -7.1,-1.7 -9,-4.3 -0.5,-0.7 -0.9,-2.7 -0.4,-4.8 0.2,-1.2 0.9,-3.3 2.7,-4.3 0.6,-0.3 2.5,-0.4 4,-0.3 4.4,1.3 12,2.7 15.6,3.4 -3.5,5.6 -7.7,9.6 -10.5,10.1 z m 12,-12.4 c -4.9,-0.9 -11.8,-2.3 -15.7,-3.4 -0.2,-0.1 -0.4,-0.2 -0.6,-0.2 -0.1,0 -0.2,0 -0.3,0 -0.9,-0.3 -1.6,-0.5 -1.9,-0.7 -2.3,-1.3 -4.1,-3.3 -2.6,-8.1 0.9,-2.9 8.2,-2.2 11.4,-2 1,0.1 1.7,0.2 2.2,0.1 0,0 0.1,0 0.1,0 4.7,0.9 9.5,1.7 11.8,1.7 -0.6,4.3 -2.2,8.7 -4.4,12.6 z m -17.8,-19.5 c -1.8,-0.8 -3.2,-2.4 -3.7,-4.3 -0.4,-1.6 -0.1,-3.1 0.8,-4.4 1.9,-2.5 6.1,-2.5 9.6,-2 6.4,2.1 14.9,5.9 15.5,13.4 0,0.5 0.1,1.1 0,1.6 -2.6,-0.1 -17.2,-2.2 -22.2,-4.3 z m -36.4,9.3 c -0.2,10.2 3.5,17 6.2,20.5 -1.4,-0.2 -2.7,-0.4 -4,-0.5 -2.1,-3 -5.8,-9.9 -5.8,-20.4 0,-10.1 6.1,-17.6 6.6,-18.2 0.1,0 0.1,0 0.2,0 1,0 2,0 2.8,0 -2.3,2.8 -5.8,8.7 -6,18.6 z m -6.2,-0.5 c 0,9.4 2.7,16 4.9,19.9 -3.7,-0.6 -6.3,-1.3 -7.1,-1.8 -3.4,-2.6 -7.3,-10.8 -6,-18.3 1.3,-7.8 3.9,-13.6 7.4,-16.8 0.7,-0.7 3.6,-1 6.6,-1.1 -2,3 -5.8,9.7 -5.8,18.1 z M 471,271 c -31,29.2 -77.4,53.1 -119.2,70.6 -0.2,0 -0.4,0.1 -0.5,0.1 v 0.1 c -23,9.6 -44.5,17.2 -61.3,22.7 0.3,-0.3 0.5,-0.6 0.7,-0.9 l 47,-33.4 c 5.2,4.1 11.7,6.3 16.7,6.3 0.7,0 1.5,-0.1 2.1,-0.2 6.7,-1 42.2,-32.8 46.4,-39.3 4.8,-7.6 0.7,-31.6 -11.9,-41.7 -10.3,-8.4 -24.9,0.1 -31.9,4.2 -0.8,0.5 -1.8,1 -2.3,1.3 -1.4,-1 -4.8,-4.5 -7.1,-6.9 -5.8,-6.1 -8.3,-8.6 -10.2,-8.9 -3.4,-0.6 -6.6,0.5 -9,2.8 -2.5,2.5 -3.8,6.1 -3.4,9.3 0.2,1.6 2.3,4.8 6.5,10.8 0.8,1.1 1.4,2 1.7,2.5 2.5,3.9 5.1,11.4 4.5,13 -1.1,1.4 -3.1,3.5 -5.2,5.6 -6.4,6.5 -10.5,11.1 -10.6,14.6 0,5.1 1.9,10.9 5.8,17.1 l -43.3,30.1 c -0.5,-0.8 -1.1,-1.5 -1.6,-2.2 1.7,-0.7 3,-1.4 3.8,-2.1 2.7,-2.4 1.2,-7 -0.1,-9.8 19.9,-6.8 32.1,-21.5 32.1,-40.8 0,-14.3 -7.5,-26.4 -20,-34.5 6.5,-7.4 72.2,-81.6 112.5,-93.5 34,-10.1 61,-5.1 78,14.5 17.8,20.4 8.3,61.8 -20.2,88.6 z"
   id="path141" />
</g>
</svg>
