<?xml version="1.0" encoding="UTF-8" standalone="no"?>
<!-- Generator: Adobe Illustrator 21.1.0, SVG Export Plug-In . SVG Version: 6.00 Build 0)  -->

<svg
   version="1.1"
   id="Layer_1"
   x="0px"
   y="0px"
   viewBox="0 0 490.1417 452.5"
   xml:space="preserve"
   sodipodi:docname="octo.svg"
   width="490.14172"
   height="452.5"
   inkscape:version="1.3.2 (091e20e, 2023-11-25)"
   xmlns:inkscape="http://www.inkscape.org/namespaces/inkscape"
   xmlns:sodipodi="http://sodipodi.sourceforge.net/DTD/sodipodi-0.dtd"
   xmlns="http://www.w3.org/2000/svg"
   xmlns:svg="http://www.w3.org/2000/svg"><defs
   id="defs64" /><sodipodi:namedview
   id="namedview64"
   pagecolor="#ffffff"
   bordercolor="#111111"
   borderopacity="1"
   inkscape:showpageshadow="0"
   inkscape:pageopacity="0"
   inkscape:pagecheckerboard="1"
   inkscape:deskcolor="#d1d1d1"
   inkscape:zoom="0.32395333"
   inkscape:cx="250.03602"
   inkscape:cy="228.42797"
   inkscape:window-width="1312"
   inkscape:window-height="449"
   inkscape:window-x="0"
   inkscape:window-y="25"
   inkscape:window-maximized="0"
   inkscape:current-layer="Layer_1" />
<style
   type="text/css"
   id="style1">
	.st0{fill:#A7A9AC;}
	.st1{fill:#8564AB;}
	.st2{fill:#F1BF66;}
	.st3{fill:#BAE1EF;}
	.st4{fill:#F15834;}
	.st5{fill:#C3A3CD;}
	.st6{fill:#EBF1F4;}
	.st7{fill:#3AC6F4;}
	.st8{fill:#433643;}
	.st9{fill:#2DB9EC;}
	.st10{opacity:0.4;fill:#55285B;}
	.st11{opacity:0.3;fill:#FFFFFF;}
	.st12{opacity:0.5;fill:#FFFFFF;}
	.st13{fill:#010101;}
</style>
<path
   class="st0"
   d="m 63.020265,415 c -5.2,3.3 -3.1,-8.7 -7.1,-21.5 -6.7,-21.4 -44,-20.1 -51,-36.6 -6.2,-14.7 -1.5,-28.2 5.4,-38.1 5.1,-7.4 22.5,-13.8 22.5,-13.8 0,0 -10.9,-40.2 3.4,-59.5 14.3,-19.3 34.8,-30.7 49,-34 25.099995,-5.9 70.799995,4.7 81.699995,20.2 19.3,27.5 8.6,56.9 16.9,63.2 8.3,6.3 18.3,11.1 16.4,15.6 -1.9,4.5 -12.5,2.6 -23.2,-2.7 -14.7,-7.3 -9.5,-30.7 -20,-38.3 -12.5,-9.1 -35.3,-18 -51.9,-18.7 -5.799995,-0.2 -10.799995,0.5 -14.299995,2.6 -12.9,7.5 -7.3,20.5 -7.3,20.5 0,0 11.6,-11.8 13,-12.6 1.4,-0.8 11.199995,-2.8 11.199995,-2.8 0,0 8.4,3.2 10.4,9.6 1.9,6.5 10.6,8.5 10.6,8.5 12,-2.2 9.1,0.2 14.8,9.8 3.2,5.4 4.7,17 4.7,17 -4.8,-2.9 -1.7,3.8 -1.7,3.8 3.8,2.5 13.7,4.5 20.4,9.4 10.8,7.9 15.6,17.4 15.6,17.4 0,0 -21,4.1 -18.8,8.6 2.2,4.5 5.6,20.6 5.6,20.6 0,0 -20,1.8 -18.9,14.4 1.2,12.6 24.4,20.2 45.2,16.7 20.8,-3.5 32.7,-18 32.7,-18 l -5.2,-20.4 c 0,0 13.8,4.3 17.5,10.8 3.7,6.5 18.5,33.8 -1.5,51.8 -20.1,18 -65.5,28 -91.4,23.4 -28,-4.9 -44.9,-24.6 -50.799995,-45.9 -8,-28.7 9.399995,-54.9 9.399995,-54.9 0,0 -21.799995,0.4 -28.599995,-1.5 -6.8,-1.9 -17,-6.1 -17,-6.1 0,0 -14.5,8.8 -15,17.3 -0.3,5.6 24.1,16 24.4,29.4 -0.1,13.4 3.5,28.1 -7.1,34.8 z"
   id="path1" />
<path
   class="st0"
   d="m 299.02026,352.4 c 0,0 0.8,-25.9 7.5,-42.7 4.7,-12 16.4,-21 16.4,-21 l -22,-13.1 22,-60.4 c 0,0 8.2,-5.4 18.6,-5.4 21.5,0 35.5,28.3 35.5,28.3 0,0 14,3.1 20.8,6.2 6.8,3.1 16,8.8 16,8.8 0,0 -6.4,-25.1 -15.4,-35 -9,-9.9 -20.3,-19.1 -22.9,-26.7 -2.6,-7.6 -4,-13.8 -4,-13.8 0,0 17.2,-6.7 18.5,-9.8 1.3,-3.1 -17.4,-38.5 -17.4,-38.5 0,0 8.7,-23.4 20.1,-26.3 16.8,-4.3 38.5,8.8 37.8,17 -1.4,17 -16.4,17.5 -18.7,14.5 -2.3,-3 9.8,-5.8 6.1,-9.8 -3.7,-4 -13.3,-8.4 -16.8,-3.3 -7.5,10.8 -5.2,41.3 -1.4,47.8 3.8,6.5 33,29.1 48.4,53.4 20.6,32.5 10.9,77.7 10.9,77.7 0,0 5.9,5.7 8.6,17.2 4.8,21.2 -13.9,37.1 -5,46.7 0,0 4.5,9.6 13.6,14.9 3.3,1.9 16.1,10 13.6,12 -2.5,2.1 -23.8,0.7 -28.7,-4.2 -4.9,-4.9 -18.3,-8.7 -22.5,-25.7 -2.2,-9.1 8,-25.7 5.1,-27.7 -2.9,-2.1 -3.3,-5 -3.3,-5 l -16.9,16.2 c 0,0 0.4,18.6 -5.4,35.4 -5.2,15.1 -34,53.5 -56.6,56.5 -33.2,4.4 -41.3,-9 -48.4,-11.6 -7.1,-2.7 -40.9,-7.7 -48.7,-14.7 -7.8,-7 -6.5,-17.4 -2.7,-21.3 3.8,-3.9 6.4,6.3 13.7,7 7.2,0.7 34.8,0.2 43,2.3 8.2,2.1 14.4,7.6 24.3,7.9 10.5,0.4 27.1,-9.1 31.8,-25.2 4.7,-16.1 4.2,-27.1 4.2,-27.1 0,0 -5.2,0.9 -11,2.5 -5.8,1.5 -9.2,0 -9.2,0 l -9.2,-13 -17.7,8.3 0.9,9.1 z"
   id="path2" />
<path
   class="st1"
   d="m 219.72026,346.8 c 0,0 12.5,-5.6 29.4,-6.1 16.9,-0.4 49.9,11.6 49.9,11.6 0,0 -0.2,-36 8.1,-47.3 8.3,-11.3 15.7,-16.3 15.7,-16.3 l -22,-13.1 c 0,0 25.6,-66.7 26.9,-71.9 1.4,-5.2 0,-14.5 0,-14.5 0,0 -10.1,-12.5 -27.9,-15 -17.8,-2.5 -78.1,-2.3 -78.1,-2.3 l -47.4,25.8 -7.5,34 c 0,0 8.8,10.6 11.4,18.3 2.6,7.7 1.9,42.3 5.5,44.9 3.6,2.6 18.5,9.5 16.4,15.6 -2.1,6.1 -22.9,-1.7 -29.2,-7.8 -6.3,-6.1 -7.3,-29.8 -14,-33.3 -6.7,-3.5 -7.3,-5.9 -7.3,-5.9 l -13.1,12.5 7.9,12.2 3.6,15.1 -4.5,5.2 c 0,0 13.7,-0.3 23.2,8 9.4,8.3 15.6,17.4 15.6,17.4 0,0 27.5,-11.4 29.6,-7.5 2.2,3.9 7.8,20.4 7.8,20.4 z"
   id="path3" />
<path
   class="st2"
   d="m 173.12026,197.3 48.6,-25.4 h 9.3 l 0.5,-22.4 h -13.1 l -49.9,-10.4 c 0,0 4.4,19.7 4.7,27.2 0.3,7.5 -0.1,31 -0.1,31 z"
   id="path4" />
<path
   class="st3"
   d="m 125.52026,102.2 c 0,0 11,-49.3 93.9,-49.3 75.9,0 93.1,48.2 97.8,58.8 8.7,19.9 12.5,49.4 12.5,49.4 0,0 -16.6,-8 -32.7,-11 -15.5,-3 -78.5,-2 -78.5,-2 l -51.3,-7.6 c 0,0 -4.2,-15.8 -14.2,-27.5 -14.3,-16.6 -27.5,-10.8 -27.5,-10.8 z"
   id="path5" />
<path
   class="st4"
   d="m 231.02026,171.9 0.5,-22.4 c 0,0 55.6,-2.4 65.5,0.7 9.8,3.1 32.7,11 32.7,11 0,0 1.6,14 0,16.4 -1.6,2.5 -2,11.6 -2,11.6 0,0 -17.4,-14.1 -32.6,-15.9 -15.2,-1.8 -64.1,-1.4 -64.1,-1.4 z"
   id="path6" />
<path
   class="st5"
   d="m 146.82026,107 c 0,0 -1,-7.8 4.8,-9.5 5.8,-1.6 14.2,-3.7 14.2,-3.7 0,0 1.7,-9.1 7.8,-13.6 10.3,-7.5 25.2,-2.8 25.2,-2.8 0,0 0.9,-5.5 7.5,-5.1 11.3,0.6 18.2,10.8 18.2,10.8 l 4.7,-0.5 c 0,0 -3.2,-3.7 3.2,-8.9 8,-6.5 16.7,4.3 16.7,4.3 0,0 6,-4.1 13.2,-2.9 7.1,1.2 12.3,13 12.3,13 0,0 6.6,0.4 12.2,3.4 10.3,5.6 8.4,21.5 8.4,21.5 0,0 8.7,-2.4 13.1,4.2 4.7,7 4.7,25.7 4.7,25.7 0,0 1.6,-2.4 4.7,1.4 3.1,3.8 0,11.8 0,11.8 0,0 -30.2,-11 -58.1,-8.2 -7.6,0.7 -41,0.2 -41,0.2 l -51.3,-7.6 c 0,0 -8.6,-19.1 -11.4,-23.3 -2.9,-4.2 -9.1,-10.2 -9.1,-10.2 z"
   id="path7" />
<ellipse
   class="st2"
   cx="217.92026"
   cy="238.79999"
   rx="22.5"
   ry="26.700001"
   id="ellipse7" />
<ellipse
   class="st2"
   cx="281.82025"
   cy="237.39999"
   rx="21.299999"
   ry="26.700001"
   id="ellipse8" />
<path
   class="st6"
   d="m 235.52026,240.2 c -1.1,13.2 -7.8,19.5 -17.5,19.5 -9.7,0 -18,-8.8 -17.7,-23 0.2,-11.3 7.8,-20.4 17.5,-20.4 9.7,0 18.6,12.7 17.7,23.9 z"
   id="path8" />
<path
   class="st6"
   d="m 298.42026,236.6 c 0,11.2 -6.1,21.1 -16.4,21.7 -8.3,0.4 -15,-10.5 -15,-21.7 0,-11.2 6.7,-20.3 15,-20.3 8.3,0.1 16.4,9.1 16.4,20.3 z"
   id="path9" />
<path
   class="st2"
   d="m 109.32026,117.8 c 0,0 10.7,-13.9 16.2,-15.6 18.1,-5.5 37.1,20.2 43.6,47.8 7.9,33.4 -2.3,81.7 -2.3,81.7 0,0 -13,-10.4 -20.2,-13.9 -5.4,-2.6 -37.7,-11.8 -50.899995,-9.2 -13.2,2.6 -10.5,2.9 -10.5,2.9 0,0 -7.3,-26.7 -7.4,-41.2 0,-8.9 7.8,-25.5 7.8,-25.5 l -21.1,-87 c 0,0 8.4,-6.2 13.8,-7.9 5.3,-1.6 30.999995,67.9 30.999995,67.9 z"
   id="path10" />
<path
   class="st2"
   d="m 105.02026,250.8 c 0,0 21.4,1.1 27,3.1 5.6,1.9 17.7,9.7 17.7,9.7 0,0 -5.2,11.9 -13.2,12.4 -8,0.5 -19.3,-5.4 -22.4,-10.6 -3.1,-5.2 -9.1,-14.6 -9.1,-14.6 z"
   id="path11" />
<circle
   class="st7"
   cx="214.32027"
   cy="245.60001"
   r="10.7"
   id="circle11" />
<circle
   class="st7"
   cx="278.22028"
   cy="243.79999"
   r="10.1"
   id="circle12" />
<path
   class="st8"
   d="m 177.02026,393.5 -13.6,-50.9 6.8,-4.7 38.2,-12.8 5.9,2.3 16,49.6 c 0,0 -6.3,8.4 -21,13.7 -13.2,4.8 -32.3,2.8 -32.3,2.8 z"
   id="path12" />
<polygon
   class="st0"
   points="77.3,158.3 87.9,185.2 80.2,189.4 73,160.4 "
   id="polygon12"
   transform="translate(-10.479735,-135.5)" />
<circle
   class="st4"
   cx="62.220261"
   cy="12.100006"
   r="10.7"
   id="circle13" />
<path
   class="st8"
   d="m 330.42026,166.3 c 2.1,-0.2 8.7,24.2 12.7,25.1 4,0.9 46.7,-23.6 46.7,-23.6 0,0 2.6,-5 0,-6.6 -2.6,-1.7 -40.5,-81.4 -40.5,-81.4 l -8.5,-4.2 -32.6,18.5 c 0,0 8.7,16.9 12.6,23.6 6.6,11.2 9.6,48.6 9.6,48.6 z"
   id="path13" />
<path
   class="st9"
   d="m 330.62026,148.8 7.8,13.8 c 0.9,1.5 2.8,2.1 4.4,1.2 l 28,-14.2 c 1.5,-0.9 2,-2.7 1.2,-4.2 l -28.1,-55.2 c -0.8,-1.6 -4.2,-2.2 -5.8,-1.3 l -22.2,11.8 c -1.4,0.8 -0.6,2.6 0.1,4.1 2.2,4.6 6.5,14.2 7.2,19.4 0.9,6.5 6.4,22 7.2,24.1 0,0.2 0.1,0.4 0.2,0.5 z"
   id="path14" />
<path
   class="st0"
   d="m 192.92026,358.2 -8.9,2.6 c -1.6,0.5 -3.4,-0.5 -3.8,-2.1 l -2.6,-8.9 c -0.5,-1.6 0.5,-3.4 2.1,-3.8 l 8.9,-2.6 c 1.6,-0.5 3.4,0.5 3.8,2.1 l 2.6,8.9 c 0.5,1.6 -0.5,3.4 -2.1,3.8 z"
   id="path15" />
<path
   class="st4"
   d="m 270.72026,393.9 c 0,0 -7,-17.7 -4.6,-19.2 2.3,-1.5 22.9,-10.5 22.2,-8.3 -0.7,2.2 8.2,10.4 10.3,10.3 2.1,-0.1 26.7,-7.7 30.9,-13 4.2,-5.4 -3.6,-9.5 2.1,-12.2 5.7,-2.7 17.8,-8.1 21.5,-3 5.5,7.7 19.2,36.7 19.2,36.7 0,0 -8.9,19.1 -25.7,20.5 -10.4,0.9 -18.2,-4.7 -28.1,-7.5 -9.8,-2.8 -22.7,-1.9 -30.2,-1.9 -7.4,0.1 -17.6,-2.4 -17.6,-2.4 z"
   id="path16" />
<path
   class="st4"
   d="m 278.22026,416.3 34.9,8.6 5.8,3.5 c 0,0 -6.2,18.3 -15.9,21.5 -9.7,3.2 -11,-4 -14.8,-6.8 -3.6,-2.8 -10,-26.8 -10,-26.8 z"
   id="path17" />
<path
   class="st8"
   d="m 266.12026,374.7 c 0,0 1.9,6.9 5.6,6.2 3.7,-0.7 15.4,-4.4 16.8,-7 1.4,-2.6 -0.3,-7.5 -0.3,-7.5 z"
   id="path18" />
<path
   class="st8"
   d="m 330.22026,351.5 19.1,-8.3 c 0,0 6.3,1.5 3.7,5.3 -2.6,3.8 -14.8,10.2 -18.4,9.5 -3.7,-0.6 -4.4,-6.5 -4.4,-6.5 z"
   id="path19" />
<path
   class="st2"
   d="m 169.92026,236.6 25.4,-7.6 c 0,0 -1.4,2.7 -1.4,9.8 0,6.8 0.4,8.2 0.4,8.2 l -19.4,0.5 z"
   id="path20" />
<path
   class="st2"
   d="m 240.42026,231.7 c 0,0 6.9,-3.6 10.8,-2.7 3.9,0.8 11.2,1.3 11.2,1.3 l -1.9,7.1 c 0,0 -7.2,-0.7 -9.1,-0.2 -1.9,0.5 -11,1.6 -11,1.6 z"
   id="path21" />
<polygon
   class="st2"
   points="322,379.3 313.6,381.1 313.6,364.5 325.7,367.7 "
   id="polygon21"
   transform="translate(-10.479735,-135.5)" />
<path
   class="st2"
   d="m 136.52026,276 5,-1.9 c 0,0 5.9,9.1 6.7,11.4 0.8,2.3 3.5,14.7 3.5,14.7 l -3.8,3 c 0,0 -0.8,-10 -3.6,-15.1 -2.8,-5.1 -7.8,-12.1 -7.8,-12.1 z"
   id="path22" />
<path
   class="st2"
   d="m 143.52026,308.5 4.5,-5.2 c 0,0 15.4,2.5 21.9,8.5 6.1,5.7 16.3,20.6 16.3,20.6 l -3.9,1.6 c 0,0 -11.6,-16.1 -18.8,-19.9 -7.3,-3.8 -20,-5.6 -20,-5.6 z"
   id="path23" />
<path
   class="st2"
   d="m 294.62026,352.1 4.3,0.2 c 0,0 0.7,-25.5 6.1,-38.9 5.4,-13.3 17.7,-24.8 17.7,-24.8 l -6.3,-3.7 c 0,0 -13.7,17.5 -16.7,24.2 -8.3,18.8 -5.1,43 -5.1,43 z"
   id="path24" />
<path
   class="st10"
   d="m 111.32026,250.8 c 0,0 10,20.2 19.4,20.4 8.9,0.1 14.9,-10.1 14.9,-10.1 0,0 -11.4,-7.5 -18.3,-7.2 -6.8,0.3 -16,-3.1 -16,-3.1 z"
   id="path25" />
<g
   id="g27"
   transform="translate(-10.479735,-135.5)">
	<path
   class="st10"
   d="m 150.1,274.6 c 3.7,-8.2 5.7,-18.5 6.6,-23.5 -6.8,-6.1 -14.3,-7.2 -20.7,-4.9 -8.5,3.2 -12.8,13.2 -12.8,13.2 v 9.6 c 0,0 11.3,5.3 18.8,18.2 2.3,-2.4 5.3,-6.4 8.1,-12.6 z"
   id="path26" />
	<path
   class="st10"
   d="m 160.2,307.4 c -5.8,0.6 -9.5,2 -11.4,2.9 0.1,1.7 0.1,3.5 0,5.3 -0.6,15.2 -1.8,32.3 -1.8,32.3 0,0 3,3.4 10.1,5.4 7.1,1.9 13.5,8.6 13.5,8.6 1.3,3.8 9.1,-11.7 6.3,-48.8 -2.4,-3 -10.5,-6.4 -16.7,-5.7 z"
   id="path27" />
</g>
<path
   class="st10"
   d="m 131.72026,185.9 c -0.1,-6.4 -0.8,-15.1 -2.8,-23.3 -0.4,1.5 -1.1,2.8 -2.2,3.9 -4.7,4.7 -14.1,2.8 -21,-4.2 -6.999995,-7 -8.499995,-15.7 -5.1,-19.5 3.3,-3.7 10.9,-3.7 16.2,-1.7 -6.4,-8.6 -25.999995,-1.9 -25.999995,-1.9 l 14.299995,-5.6 c 0,0 -22.599995,-75.3 -29.499995,-77.7 -5.1,-1.8 -6.2,0.2 -6.2,0.2 l 18.8,88.8 c 0,0 -6.3,16.4 -5.6,35.4 0.5,13.3 4.6,28.5 4.6,28.5 l 43.599995,1.1 c 0,-0.1 1,-9.5 0.9,-24 z m -24,-6.7 4.3,-1.1 1.8,2.1 1.2,7.3 c 0,0 -1.6,-2.2 -4.7,-5.6 -1.7,-2 -2.3,-2.6 -2.6,-2.7 h -0.1 c 0,0 -0.1,-0.2 0.1,0 z m -16.199995,3.1 -0.8,0.3 c 0,0 0.3,-0.3 0.8,-0.3 l 3.8,-1.4 h 2.5 l 2,8.4 c 0,0 -2.9,-3.8 -5.4,-5.8 -1.4,-1.2 -2.3,-1.3 -2.9,-1.2 z m 27.199995,18.7 -0.1,-1.1 c -0.3,-1.1 -1.4,-2.8 -4.8,-3.6 -5.4,-1.4 -21.599995,-0.4 -21.599995,-0.4 l 24.799995,-3.3 c 0.3,-0.1 0.7,0.2 0.7,0.5 l 0.8,6.8 c 0.3,0.6 0.2,1.1 0.2,1.1 z"
   id="path28" />
<path
   class="st10"
   d="m 294.02026,171.8 c -25.9,-4.5 -75.2,-1.5 -75.2,-1.5 l -41.4,19.9 c 0,0 0.1,-1.3 0.2,-3.3 l 36.6,-18.7 -36,6.4 c 0.1,-2.8 0.1,-5.6 -0.1,-7.6 -0.9,-13.3 -9.6,-27.9 -9.6,-27.9 0,0 2.2,14.4 3.6,25.1 1.4,10.7 0,39.1 0,39.1 l 52.9,-25.6 c 0,0 49.6,-1.4 69,2.8 22.5,4.9 34.3,16.9 34.3,16.9 l 1.4,-11.4 c -0.2,-0.2 -10.1,-9.8 -35.7,-14.2 z"
   id="path29" />
<path
   class="st10"
   d="m 206.82026,214.6 c 0,0 -14.6,12.4 -12.7,29.2 1.3,11.7 17.8,22.7 23.8,21.7 6.1,-1 17,-5 17.7,-9.1 0.7,-4.1 -7.3,13.1 -21.2,11.9 -13.9,-1.2 -23.1,-11.9 -25.2,-22.6 -1.9,-9.5 2.8,-21.8 9.7,-27.2 6.9,-5.5 7.9,-3.9 7.9,-3.9 z"
   id="path30" />
<path
   class="st10"
   d="m 35.820265,272.6 c 1.2,-18.8 13,-45.4 41.7,-50.2 27.099995,-4.5 68.799995,6.4 84.799995,28.4 12.6,17.4 12,42.5 16.1,46.7 5.3,5.4 12.9,7.5 16.9,10 1.4,0.9 0.7,1.7 -1,1.5 -5.9,-0.7 -19.8,-6.6 -22.1,-12.2 -5,-12.4 -7.3,-40.5 -35.6,-46 -29.3,-5.7 -52.099995,-5.2 -59.699995,13.2 -4.7,11.2 0.9,21.3 21.6,24.7 20.599995,3.4 38.199995,-12.7 38.199995,-12.7 l 9.1,17.3 2.5,10 -39.5,33.1 c 0,0 -31.599995,1.6 -44.199995,-6.2 -18.3,-11.4 -30.9,-25.2 -28.8,-57.6 z"
   id="path31" />
<path
   class="st10"
   d="m 84.820265,275.4 c 0,0 7.8,-8.5 14.3,-10.8 5.599995,-2 11.299995,-2.5 11.299995,-2.5 0,0 2.9,-0.5 6.2,6 3.3,6.5 7.5,6.7 7.5,6.7 0,0 -12.8,7.5 -19.5,7.4 -9.799995,-0.3 -19.799995,-6.8 -19.799995,-6.8 z"
   id="path32" />
<path
   class="st10"
   d="m 58.320265,378.4 c -4.8,-7.4 -30.3,-18.9 -31.3,-38.1 -0.4,-7.8 4.6,-12.1 9.7,-14.4 0.2,0.2 0.4,0.4 0.6,0.6 9,9.4 17.5,11.2 17.5,11.2 l 5.7,-4.1 c 0,0 -14.5,-10.7 -18.1,-14.9 -3.6,-4.2 -8.1,-15.3 -8.1,-15.3 l -16,8.7 c 0,0 1.4,0.2 4.3,1.9 -9.1,5.4 -20.1,20.4 -15.4,36.6 3.7,12.7 34.5,22.7 44,28.5 9.5,5.8 10,26.2 10.2,28 0.2,1.8 0.3,1.4 2.2,-1.6 1.8,-2.9 -0.5,-19.8 -5.3,-27.1 z"
   id="path33" />
<path
   class="st10"
   d="m 392.82026,402.9 c -1.6,-0.8 -3,-4.1 -3.7,-8 -0.6,-3.1 -0.4,-6.3 0.7,-9.3 5.1,-14.5 7.5,-29.4 5.6,-49.1 -2.8,-28.9 -17.5,-54.3 -45.8,-71 -21.2,-12.5 -41.2,-10.8 -41.2,-10.8 l -7.6,21 c 0,0 15.7,8 29.4,17.9 13.7,9.9 41.7,23.8 48.7,58.8 5,25.6 -18.1,48.4 -29.2,53.4 -11.1,5 -25.7,-5 -34.4,-8.3 -8.7,-3.3 -34.8,-1.6 -39.7,-1.6 -4.9,0 -8.5,-9.5 -10.5,-7.4 -2.1,2.1 -8.3,3.9 -8.5,11.1 -0.2,7.2 10.9,13.9 15,14.5 4.1,0.6 26.1,5.8 37.6,9.7 11.5,3.9 20.3,12.7 32.8,13.3 1.2,0.1 2.4,0 3.7,-0.2 l 0.9,2.7 c 0,0 21.4,-8 35.3,-13 14,-5 28.9,-32.6 28.9,-32.6 0,0 -12.3,11.8 -18,8.9 z"
   id="path34" />
<path
   class="st10"
   d="m 300.82026,275.6 c 0,0 -2,28.9 10.7,49.4 11.3,18.2 22.2,25 22.2,25 0,0 12.5,-5.7 16,-3.6 3.5,2.1 8.3,13 8.3,13 l 18.4,-2.1 c 0,0 2.3,-16.1 -2,-23.4 -4.3,-7.3 -20.6,-24.4 -32.3,-32.4 -11.9,-8 -41.3,-25.9 -41.3,-25.9 z"
   id="path35" />
<path
   class="st10"
   d="m 219.72026,339.2 c 0,0 22.6,-5.2 39.1,-3.3 11.7,1.4 46.4,15 56.5,16.5 10.1,1.5 14.5,0.7 14.5,0.7 l 0.7,9 c 0,0 -34.5,-10.7 -41.3,-11.4 -6.8,-0.7 -28.9,-11.3 -37.7,-10 -8.9,1.4 -31.7,6.1 -31.7,6.1 v -7.6 z"
   id="path36" />
<path
   class="st10"
   d="m 184.42026,333.1 c 0,0 -16.4,7.5 -15.8,11.9 0.6,4.4 12.9,48.7 12.9,48.7 l -5.5,-2.4 -12.5,-48.8 c 0,0 1.4,-2 4.5,-4 2,-1.2 16.4,-5.4 16.4,-5.4 z"
   id="path37" />
<path
   class="st10"
   d="m 146.72026,309.1 c 0,0 -42.3,31.2 -45.9,57.4 -3.499995,26.2 7.6,49.6 22.6,61.4 17.2,13.6 76.6,15.2 108.1,-9.5 13.6,-10.7 14.9,-25 11.3,-33 -3.7,-8 -7.1,-11 -15.2,-5.5 -1,0.7 -6.8,9.4 -21.4,17.4 -15.4,8.5 -65.9,24.8 -76.8,-3.5 -9.5,-24.7 36.4,-34.3 36.4,-34.3 l -2.4,-16.9 4.5,-4 13.5,-5.1 c 0,0 -7.9,-14.3 -13,-17.8 -5.1,-3.5 -21.7,-6.6 -21.7,-6.6 z"
   id="path38" />
<path
   class="st10"
   d="m 374.92026,176.2 c 0,0 2.3,11.1 4.9,15.3 5.1,7.9 27.4,28.4 33.3,39.4 9.9,18.2 4.9,41.6 -2.4,48.1 -4.6,4.1 -7.1,4.9 -7.1,4.9 0,0 10.1,14.4 11.5,25.2 1.4,10.8 8.9,30.4 8.9,30.4 0,0 27.7,-29.4 30.2,-47 3.8,-26.6 -8,-53.8 -22.5,-70.5 -9.5,-11 -29.9,-20.6 -39.7,-36.5 -4,-6.4 -6.6,-14.3 -6.6,-14.3 z"
   id="path39" />
<path
   class="st10"
   d="m 369.12026,251.1 c 0,0 6,-1.8 14.4,0 13,2.8 24.8,15.7 24.8,15.7 l -7.3,13.7 c 0,0 -15.8,-18.5 -20.7,-21.3 -4.9,-2.7 -11.2,-8.1 -11.2,-8.1 z"
   id="path40" />
<path
   class="st10"
   d="m 317.82026,229 c 0,0 7.2,-10.9 15.9,-10.9 16,0 29.9,22.9 29.9,22.9 l -5.3,4.7 c 0,0 -20,-0.2 -28.1,-1.9 -8,-1.6 -19.3,4.1 -19.3,4.1 z"
   id="path41" />
<path
   class="st10"
   d="m 150.52026,264.1 c 0,0 6.4,13.6 7.1,20.9 0.7,7.3 -0.7,14.7 5.8,20.8 6.5,6 23.9,8.6 29.1,8.5 5.2,-0.2 6.2,-2.1 6.2,-2.1 0,0 -21,-0.2 -26.6,-7.1 -5.6,-6.9 -6.9,-30.5 -13.3,-33.8 -6.3,-3.4 -8.3,-7.2 -8.3,-7.2 z"
   id="path42" />
<path
   class="st10"
   d="m 266.12026,219.4 c 0,0 -8.8,8.6 -7.4,22 1.1,10.8 5.4,19.3 11.5,22.1 10.5,4.9 16.1,0 16.1,0 0,0 -10.9,1.4 -15.2,-3.8 -4.3,-5.2 -12.5,-20.1 -10.6,-24.7 1.9,-4.7 5.6,-15.6 5.6,-15.6 z"
   id="path43" />
<polygon
   class="st10"
   points="353.3,299.3 385.4,311.7 360.1,324.8 351.5,324.8 340.9,301.8 340.8,283.8 349.5,301.4 "
   id="polygon43"
   transform="translate(-10.479735,-135.5)" />
<polygon
   class="st11"
   points="379.6,256.5 333.3,221.4 318.7,229.6 392.5,283.8 "
   id="polygon44"
   transform="translate(-10.479735,-135.5)" />
<polygon
   class="st11"
   points="399.6,299.7 331.1,250.9 328,243.6 397.1,293.6 "
   id="polygon45"
   transform="translate(-10.479735,-135.5)" />
<path
   class="st10"
   d="m 382.02026,148.3 c 0,0 -2.8,-24.3 16.5,-34.5 6.4,-3.3 15.9,-5.1 12.3,-6.8 -9.9,-4.8 -24.8,5.6 -28.8,11.5 -5.2,7.7 -5.5,17.6 -5.5,17.6 z"
   id="path45" />
<path
   class="st10"
   d="m 453.52026,313.9 c 0,0 3.7,5.2 4.3,11.8 0.6,6.6 -9.7,31.5 -7.3,38 2.5,6.5 16.7,16.3 18.6,20.3 1.9,4 -21.3,-9.3 -24.4,-16.9 -3,-7.5 0.5,-20.7 3,-27.6 2.1,-5.9 -1.9,-14.3 -1.9,-14.3 z"
   id="path46" />
<path
   class="st10"
   d="m 182.62026,78.4 c 0,0 -9.2,2.2 -8,10.1 1.2,7.9 12.4,26.9 17.1,25.4 4.8,-1.5 4.8,-1.5 4.8,-1.5 l -3.8,9.1 c 0,0 -3.2,7.3 2.6,12.1 5.8,4.8 13,-2.9 13,-2.9 0,0 3.1,4.8 9.5,1.8 6.4,-3 8,-7.8 8,-7.8 0,0 1,15.3 6.9,14.5 5.9,-0.8 -8.3,-56 -8.3,-56 l 6.5,-8.1 c 0,0 5,31.9 10.6,34.6 7.6,3.6 11.4,3.9 11.4,3.9 l -3.8,-0.3 c -2.2,4.2 -4.7,3.8 -4.8,8.5 -0.2,7.4 1.5,14.4 4.8,17.5 4.1,3.9 19.9,1.2 20.8,0 0,0 -1.3,3.6 2.6,5.7 3.9,2.1 10.7,3.5 10.7,3.5 0,0 -25.9,-0.7 -36.2,-0.3 -10.3,0.3 -28.5,0.1 -28.5,0.1 l -49.9,-9 -21.8,-32 c 0,0 0.9,-8 5.1,-10.5 7.6,-4.5 16.8,-1.3 16.8,-1.3 0,0 -3.3,-10.8 3.6,-13.8 4.4,-2.2 10.3,-3.3 10.3,-3.3 z"
   id="path47" />
<path
   class="st11"
   d="m 300.62026,152.3 c 0,0 8,4.4 10.3,6 2.2,1.6 0,13.5 0,13.5 l 11.9,5.8 c 0,0 2,-8.6 2.3,-12.6 0.2,-4 0,-7.3 0,-7.3 z"
   id="path48" />
<path
   class="st11"
   d="m 149.72026,121.4 c -4.4,0.1 4.8,12.9 8.9,21.5 4.2,8.8 4.2,24.1 6.1,24.8 1.9,0.7 0,-19.9 -3.3,-26.9 -3.3,-7 -7.1,-19.4 -11.7,-19.4 z"
   id="path49" />
<ellipse
   transform="rotate(-39.815108)"
   class="st11"
   cx="-6.5664253"
   cy="192.75993"
   rx="5.2998986"
   ry="10.199804"
   id="ellipse49"
   style="stroke-width:0.999981" />
<path
   class="st11"
   d="m 317.02026,250.3 c 0,0 42,0 68.6,34.7 26.9,35 17.8,87.1 22.7,96 4.9,8.9 15.9,-41.5 -3,-83.3 -22.3,-49 -73,-55.6 -88.3,-47.4 z"
   id="path50" />
<path
   class="st11"
   d="m 97.320265,214.4 c -6.6,5 15.399995,2 44.399995,14.5 23.1,10 24.2,31.9 32.2,31.9 3.6,0 -8.9,-29.6 -27.2,-38 -18.2,-8.3 -44.6,-12.1 -49.399995,-8.4 z"
   id="path51" />
<ellipse
   class="st12"
   cx="221.92026"
   cy="233.5"
   rx="9.6000004"
   ry="11.6"
   id="ellipse51" />
<ellipse
   class="st12"
   cx="285.32025"
   cy="232.79999"
   rx="8.6999998"
   ry="11"
   id="ellipse52" />
<path
   class="st10"
   d="m 280.72026,369.3 c 0,0 0.9,13.1 2.4,17.8 1.5,4.7 5.5,9.4 5.5,9.4 l 14.5,-1.9 c 0,0 -0.8,-7.8 0,-12.4 0.8,-4.6 28,-12.7 30.6,-12.8 2.6,0 24.4,31 24.4,31 0,0 -12.2,10.3 -17.9,7.9 -5.7,-2.4 -24.9,-9.4 -30.9,-11.5 -6,-2.1 -23.2,-0.2 -28.4,-0.4 -5.3,-0.3 -10,-5.9 -10,-5.9 l -4.7,-15.6 z"
   id="path52" />
<path
   class="st10"
   d="m 281.42026,418.3 27.7,5.4 7,5.4 c 0,0 -0.9,19.6 -14.5,20.8 -17.7,1.7 -20.2,-31.6 -20.2,-31.6 z"
   id="path53" />
<path
   class="st11"
   d="m 341.92026,348.8 c 0,0 10.5,12.6 16.1,24.9 5.6,12.4 8.6,20.2 8.6,20.2 l 5.6,-7.2 c 0,0 -3.7,-16.1 -8.7,-23.2 -5,-7.1 -14,-17 -14,-17 z"
   id="path54" />
<g
   id="g64"
   transform="translate(-10.479735,-135.5)">
	<path
   class="st13"
   d="m 498.5,521.8 c -1.3,-1.2 -3.2,-2.2 -5.7,-3.4 -6.3,-3.2 -15.7,-8.1 -19.5,-19.4 -2.5,-7.5 0,-13 2.8,-19.3 2.9,-6.5 6.3,-13.9 4.8,-24.8 -1.4,-10 -7.9,-17.7 -10.4,-20.4 1.4,-4.6 2.4,-9.3 2.7,-14.3 3,-58.1 -27.7,-84.7 -46.1,-100.6 -5.8,-5 -10.9,-9.4 -13.1,-13.2 -8.5,-14.6 -8.9,-42.2 -0.7,-47.7 5.3,-3.5 10.4,-1.3 12.3,1.3 0.3,0.4 0.9,1.4 0.3,1.8 -1.1,0.8 -2.2,1.5 -3.1,2 -2.5,1.6 -5.3,3.3 -3.7,7 0.8,1.8 3,3 6.1,3.2 4.4,0.4 11,-1.4 14.8,-7.6 3.3,-5.4 3.3,-12.2 -0.1,-18.3 -4.5,-8.1 -14,-13 -25.4,-13 0,0 0,0 0,0 -20.8,0 -28.4,16.3 -31.1,25.4 l -22,-44.5 c -2.1,-4.3 -7.2,-6.2 -11.6,-4.5 l -30.4,15.6 c -5.6,-7.7 -12.3,-14.6 -20.2,-20.1 -28.9,-20.3 -65.2,-26.4 -102,-17.4 -28.1,6.9 -60.1,24.9 -64.4,48.3 -5.9,3.3 -10.3,8.7 -12.9,12.6 -8.8,-23.1 -23.1,-60.1 -25.7,-63.9 -1.2,-1.8 -3,-2.7 -5.3,-2.5 l -9.3,-25.6 c 3.4,-2.2 5.7,-6.1 5.7,-10.5 0,-6.9 -5.6,-12.5 -12.5,-12.5 -6.9,0 -12.5,5.6 -12.5,12.5 0,6.5 5,11.9 11.4,12.5 l 7.2,28.6 c -2.1,1.9 -3.8,4 -4.5,5.6 l -0.2,0.6 18.4,87.6 h 0.2 c -4.5,8.1 -6.4,19.1 -5.8,33 0.6,13 3.5,24.7 4.8,29.4 -7.2,2 -14.3,4.9 -20.9,9.1 -23.1,14.4 -30.3,34.6 -32.4,49 -1.7,11.8 -0.3,24 3.4,34.7 -9.1,3.7 -32.2,15.8 -31.4,43 0.5,17.8 14.6,23.6 28.2,29.2 6.6,2.7 13.5,5.6 18.4,9.7 10.4,8.9 10.4,14.2 10.4,19.3 0,1.9 0,3.9 0.6,5.9 0.8,2.9 2.1,6.3 4.8,6.9 0.2,0 0.5,0.1 0.7,0.1 2.2,0 3.9,-2.1 4.5,-2.9 2.6,-3.3 9.3,-31.1 0,-43.4 -4,-5.3 -8.4,-8.2 -12,-10.6 -4.4,-2.9 -7.3,-4.8 -7.9,-9.3 -0.9,-6.3 9.3,-12 14.3,-14.1 12.9,6 26.4,7.2 35.4,7.2 2.5,0 4.7,-0.1 6.4,-0.2 -7.5,11.2 -12.4,23.4 -11.3,35.8 2.4,25.5 10.3,43.2 24.1,53.9 10.7,8.3 24.8,12.5 42.6,12.5 7.2,0 14.9,-0.7 23.4,-2 57.1,-9 69.1,-31.7 69.1,-49 0,-34.9 -27.2,-40.2 -27.4,-40.3 v 0 l -2,-6.7 c 6.1,-1.7 24.3,-6.1 37.6,-4 9.5,1.5 15.6,3.9 22.6,6.6 5.2,2 11.1,4.3 19.3,6.6 15.4,4.3 23.4,5.7 26,6.2 -2,0.8 -5.3,2.2 -11.4,4.9 -6,2.6 -14.8,6.5 -17.3,7.2 -1.2,-1 -4.1,-4.3 -5.7,-6.2 -2.6,-3 -3.2,-3.7 -3.8,-4 -2.6,-1.4 -20.1,6.1 -23.3,8.7 -1.6,1.3 -2.1,2.6 -1.8,3.9 0.4,1.4 1.6,5.3 2.7,9.2 -1.1,-0.8 -2.6,-1.1 -4.9,-0.2 -2.6,1 -4.6,3.2 -5.4,6.1 -1.5,5.1 0.3,12.1 4.5,17.7 2.6,3.5 8.3,6.2 15.6,8.4 1.5,6.1 8.6,31.6 19,33.5 0.9,0.2 1.9,0.3 2.8,0.3 10.2,0 18.3,-10.7 20.3,-16.7 0.4,-1.3 0.7,-2.5 0.9,-3.5 5.4,3.8 12.1,7.6 26.8,7.6 1.7,0 3.6,-0.1 5.5,-0.2 31.1,-1.7 68.5,-35.6 72.1,-78.5 0.4,-5 0.5,-9.8 0.4,-14.6 2.5,-1.9 8.9,-7.1 15.9,-14.8 l 0.8,1.6 c 0.7,1.5 0.1,3.6 -1.2,7.2 -1.9,5.5 -4.5,12.9 -2.5,24.2 3.4,19.5 34.1,28.8 39.6,29.7 0.6,0.1 1.8,0.2 3.3,0.2 3.3,0 7.8,-0.6 9.1,-3.3 0.1,-1.2 0.5,-3 -1.8,-5.1 z m -44.6,-65.1 c -0.7,-6 -3.5,-19.7 -15,-30.1 -8.3,-7.5 -19.5,-11.2 -23.3,-12.3 3.4,-3.6 9.8,-11.7 10.1,-22.2 2.2,-0.7 11.6,-3.4 20.6,-2 11.9,1.8 19.7,8.8 22.6,11.9 0.4,5.6 0.5,11.6 0.2,18 -0.8,13.9 -7.6,26.7 -15.2,36.7 z m -23.1,32.6 c -2.8,-2.4 -7.8,-5.6 -15.2,-6.7 -13,-1.9 -22.1,3.6 -24.8,5.5 -0.4,-5 -1.3,-9.8 -2.9,-14.2 -1.6,-4.6 -4.3,-9.2 -7.5,-13.7 1.5,-3.3 7,-12.5 22.5,-15.6 10.9,-2.2 18.9,0.8 21.9,2.2 4.2,12.9 6.5,27.2 6,42.5 z m -47.6,25.9 c -1.3,-3.3 -3.1,-7.8 -4.9,-11.3 -1,-2.1 -2.8,-5.3 -4.8,-8.6 1.1,0 2.4,-0.1 3.9,-0.3 3.5,-0.4 7,-1.4 9.4,-2.1 0.1,7.5 -1.2,15.3 -3.6,22.3 z M 342.6,489 c 2.5,-2 14.8,-6.8 17.4,-5.9 0.4,0.5 1,1.1 1.6,1.8 -0.2,0.7 -0.6,1.3 -1.4,1.8 -3.6,2.6 -12.3,6 -15.1,5.6 l -2.5,-3.1 c 0,-0.1 0,-0.2 0,-0.2 z m 20.3,-9 c -1.1,-1.1 -3,-1.4 -5.8,-1 -3.5,0.6 -9.7,2.7 -13.9,4.9 -0.3,-3.4 -1.1,-13.9 1.5,-22.6 3.3,-11.1 7.5,-17.6 9.9,-20.7 7.7,6.1 15.4,13.2 21.3,20.7 -0.5,2.9 -0.9,7.8 -0.8,14.6 0.1,5.7 0.8,11.9 1.2,15 -2.4,0.3 -4.2,0.2 -5.3,0.2 -3.1,-4.8 -6.2,-9.3 -8.1,-11.1 z m 21,-4.7 c 1.4,4 2.3,8.5 2.7,13.2 -1.9,0.6 -5.5,1.6 -9,2.1 -0.4,-3.1 -1,-9.2 -1.1,-14.9 -0.1,-5.6 0.2,-10 0.6,-12.9 2.9,4.1 5.3,8.3 6.8,12.5 z m 18.7,-32 c -15.3,3.1 -21.2,11.6 -23.2,15.6 -7.1,-9.3 -16.9,-17.8 -26.1,-24.8 1.3,-4.7 6.4,-17.6 22.7,-24.5 15.4,-6.5 25,-1.7 28.7,1 8,9.6 14.7,21.2 19.4,34.4 -3.8,-1.5 -11.4,-3.7 -21.5,-1.7 z m -92.6,6.8 c 6.5,-17.2 15.7,-25.3 18.4,-27.4 0.7,0.4 1.5,0.9 2.4,1.4 -3.7,3.1 -12.2,11.5 -18.5,28 -4.4,11.6 -4.4,27.4 -4.2,34.4 -0.7,-0.2 -1.4,-0.4 -2.1,-0.7 -0.2,-4.7 -0.8,-23.1 4,-35.7 z m -56.7,-77.7 c -0.1,-1.7 -0.3,-3.4 -0.7,-5 0.9,-0.3 4.8,-1.5 9.2,-1.5 4.1,0 7.2,0.6 9,1 -0.3,1.7 -0.5,3.4 -0.6,5.1 -1.7,-0.5 -4.4,-0.8 -8.8,-0.7 -2.8,0.1 -6.2,0.7 -8.1,1.1 z m -25,-26.9 c -10.7,0 -19.8,7.6 -23.4,18.4 l -24.2,5.9 c -0.6,-0.9 -1.2,-1.7 -1.9,-2.6 0.8,-3.1 4.4,-16.6 6.1,-34 12.6,-6.6 42.7,-22 46.3,-22.8 4.4,-1 39.3,-2.3 65.5,0 24.2,2.1 37,12 40.6,15.2 -2.4,12 -7.1,26.5 -11.9,40.2 l -11,-2.6 c -3.3,-10.3 -11.6,-17.7 -21.3,-17.7 -10,0 -18.5,7.8 -21.6,18.6 -1.9,-0.5 -5.2,-1.1 -9.4,-1.1 -0.1,0 -0.2,0 -0.3,0 -4.6,0 -8.6,1.2 -9.9,1.6 -3.4,-11.1 -12.7,-19.1 -23.6,-19.1 z m 22.3,28.6 c 0,14.2 -10,25.8 -22.3,25.8 -12.3,0 -22.3,-11.6 -22.3,-25.8 0,-14.2 10,-25.8 22.3,-25.8 12.3,0 22.3,11.6 22.3,25.8 z m -46.7,6.7 H 193.7 L 192.3,369.9 204,367 c -0.5,2.3 -0.8,4.7 -0.8,7.1 0,2.3 0.3,4.6 0.7,6.7 z M 189.3,442 c -0.1,-1.9 0,-4.6 1.4,-6.5 1.2,-1.6 3.1,-2.2 4.7,-2.4 2.2,2.2 4.8,3.7 7.1,5.1 3.2,1.9 5.9,3.5 6.6,6 0.4,1.3 0.2,1.8 0.1,1.9 -0.3,0.3 -1.9,0.6 -5,-0.3 -0.5,-0.1 -1.3,-0.3 -2.5,-0.5 -2.6,-0.6 -7.8,-1.6 -12.4,-3.3 z m 0.3,-7.3 c -1.4,2 -1.7,4.7 -1.7,6.7 -2.9,-1.3 -5.5,-2.9 -6.7,-5 -1.4,-2.4 -2.1,-5.8 -2.9,-9.8 -0.1,-0.7 -0.3,-1.4 -0.4,-2.1 1.1,-1.5 3.4,-4.5 6,-5.2 3.3,-0.9 5.7,-0.1 6.8,0.4 0.2,4.2 0.6,7.3 1.8,9.6 0.5,0.9 1.1,1.8 1.8,2.5 -1.7,0.4 -3.5,1.2 -4.7,2.9 z M 183.5,418 c -2.5,0.7 -4.7,3 -6,4.7 -1.2,-5.5 -3.1,-11.6 -7.2,-17.3 1.2,-2.1 3.5,-5.4 7.1,-7.3 3.7,-1.9 8.2,-1.9 10.7,-1.8 1.8,7.8 2.2,14.8 2.4,20.4 0,0.5 0,1 0.1,1.5 -1.5,-0.6 -4,-1.1 -7.1,-0.2 z m -6.8,-21.2 c -3.7,1.9 -6.1,5.1 -7.4,7.3 -1,-1.3 -2.2,-2.6 -3.5,-3.8 -3.5,-3.3 -8.3,-6.3 -13.9,-8.8 -0.1,-2.5 -0.1,-11.8 6.2,-19.3 4.4,-5.2 10.6,-6.1 14,-6.2 1.2,1.2 2.3,2.4 3.2,3.6 6.7,8.7 10.3,17.3 12.3,25.2 -2.6,-0.1 -7.1,0.1 -10.9,2 z m 6.8,54.8 c 7.4,7 10.2,12.9 11.2,15.8 l -2,0.6 c -1.1,-2.8 -4.4,-9.4 -13.8,-16.8 -9.3,-7.3 -16.9,-8.8 -22.1,-8.6 0.7,-0.5 1.4,-1 2,-1.5 3,-0.5 12.5,-1.1 24.7,10.5 z m 64.4,101.1 c -6.6,6.5 -16.6,11.9 -29.6,16 -1.8,-3.7 -5.7,-12.6 -6.9,-19 -1.2,-6.3 -0.1,-14.9 0.5,-18.7 0,0 0,0 0,0 9.4,-1.8 16.2,-5.1 21,-8.3 1.2,0.4 8.3,3.4 11.3,10.5 3.6,8.5 3.7,17.2 3.7,19.5 z m -36.8,-25.8 c -7.8,1.5 -15.8,1.5 -23,0.5 L 178,488.6 c -0.1,-1 -0.4,-2.3 -1,-3.9 l -0.9,-3.5 c -0.6,-2.5 0.8,-5 3.2,-5.8 l 39.2,-12.7 c 1.2,-0.4 2.6,-0.3 3.7,0.3 1.2,0.6 2,1.6 2.4,2.8 l 14,46 c -1.5,2.1 -9.1,11.6 -27.5,15.1 z m -47.5,-12 c -0.7,-2.1 -0.5,-4.1 0.5,-5.9 3.2,-5.9 13.6,-8.7 13.7,-8.7 0.1,0 0.2,-0.1 0.3,-0.1 L 185,527 c -11.1,-2.3 -19.7,-7 -21.4,-12.1 z m -31,-73.1 c -1.8,-13 -6.5,-22 -7.6,-24 1.1,-0.3 2,-0.6 2.7,-0.9 3.8,-1.5 6.4,-3.2 8,-4.6 2.2,1 4.6,1.6 6.9,1.6 1.1,0 2.3,-0.1 3.5,-0.4 0.2,-0.1 0.4,-0.1 0.7,-0.2 1.4,2.1 4.4,6.6 5.8,9.7 2.3,5.1 3.5,11.7 3.9,14.5 -6.7,4.8 -15.6,11.7 -24.3,20.1 0.7,-4.2 1.2,-10.2 0.4,-15.8 z m -76.5,12.9 c -5.3,-5.9 -9.3,-13.7 -11.7,-22.3 6.5,-0.8 22.3,-3 30.5,-6.7 7.6,-3.4 13.7,-10.9 16.6,-14.8 0.3,0.8 0.7,1.5 1.2,2 3,3.4 7,5.3 11.2,6.2 -0.5,5.1 -2,19.5 -6.1,28.3 -4.6,10.1 -14,20.1 -16.9,23.1 -8.7,-2.9 -17.6,-7.8 -24.8,-15.8 z m 75.5,-107 c -2.3,2.5 -6.9,8.4 -8.1,16.2 -1.4,9 0.7,17.1 2,20.9 -7.1,-0.6 -14,0 -19.8,2.1 -1,0.4 -1.9,0.8 -2.8,1.2 -2.5,-2.1 -9,-8.3 -12.4,-19.7 -2.8,-9.6 0.7,-16.6 2.2,-18.9 12.9,-3.7 26.4,-3.9 38.9,-1.8 z m 39.1,17 c -3.7,0.3 -9.4,1.7 -13.6,6.7 -6.2,7.3 -6.7,16.1 -6.6,19.5 -7.2,-3 -15.4,-5.2 -23.5,-6.1 -1.2,-3.3 -3.6,-11.6 -2.2,-20.8 1.3,-8.1 6.6,-14.3 8.3,-16.1 15.5,2.9 29.1,9.2 37.6,16.8 z m -63.6,26.1 c 2.5,-0.9 5.3,-1.5 8.2,-1.8 0.4,1 1,2.2 1.6,3.4 -2.8,0 -6.7,0.7 -11,2.9 -5.5,2.9 -8.9,6.6 -10.9,9.7 0.1,-0.8 0.2,-1.6 0.4,-2.4 0.8,-3.1 3.4,-8.8 11.7,-11.8 z m -10.4,20.1 c 0.9,-2.2 3.5,-7.4 10.3,-11.3 1.8,1.1 5.7,3.9 8,8.7 0.9,1.8 2,5.3 2.5,7 -7.2,1 -15.7,0.5 -20.8,-4.4 z m 22.1,4.1 c -0.5,-1.6 -1.6,-5.4 -2.6,-7.3 -2.2,-4.6 -5.7,-7.4 -7.8,-8.8 5.4,-2.7 9.6,-2.3 11.2,-2.1 3.1,4.8 7.4,9.9 12.3,13.3 -1.4,0.9 -3.2,2 -5.6,2.9 -1.9,0.8 -4.6,1.5 -7.5,2 z m 54.6,63.4 c -2.4,-3.1 -5.9,-6.7 -11.1,-10.5 -11.1,-8.2 -20.5,-9 -25.4,-8.6 5.1,-4.8 10.3,-9.2 15,-12.8 2.9,-1.1 12.3,-3.4 25.4,7 8.8,6.9 11.9,13 12.9,15.5 l -11.6,3.8 c -2.8,0.8 -4.7,3 -5.2,5.6 z m -38.3,-17.5 c 3.8,-0.6 14,-1 26.3,8.1 5.9,4.4 9.6,8.3 11.8,11.6 0,0.4 0.1,0.9 0.2,1.3 l 3.7,14.2 c -0.1,0 -0.2,0 -0.4,0.1 -0.4,0.1 -7.4,2 -12.5,6.2 -2.5,-4.6 -9.3,-13.7 -24.3,-18.8 -9.4,-3.2 -18.2,-1.8 -23.7,-0.2 5.2,-8.1 11.9,-15.8 18.9,-22.5 z m 24,-25.2 c -0.6,-3.4 -1.8,-9.1 -3.9,-13.9 -1.4,-3.1 -4.1,-7.3 -5.7,-9.6 0.5,-0.3 1.1,-0.6 1.6,-0.9 1.6,2.3 3.9,5.6 5,8.1 2.7,5.7 4.1,13.2 4.5,15.3 -0.5,0.3 -1,0.7 -1.5,1 z m -13.9,-26.3 c -10.3,2.5 -21.5,-12.5 -25.4,-20.7 12.9,-0.1 27.8,4.3 37.5,10.4 -2.4,3.5 -7.3,9.2 -12.1,10.3 z m 37.2,-37.1 5.8,-1.4 1.3,9.9 h -2.4 c -1.3,-2.8 -2.9,-5.6 -4.7,-8.5 z m -0.2,-101.1 c 0.1,0.3 0.4,0.4 0.7,0.4 0.1,0 0.2,0 0.3,0 0.3,-0.1 6.4,-2.5 7.7,-6 0.6,-1.6 -0.8,-4.2 -2.1,-6 -2.7,-3.8 -8.1,-8.9 -11.3,-8.9 0,0 0,0 0,0 -3.5,0 -7.2,2.2 -8.5,3.1 -2.9,-4.5 -6.1,-8.5 -9.6,-11.6 l 0.7,-0.1 c -0.1,-0.6 -0.9,-5.5 4.4,-8 6.3,-2.9 12.5,-1.7 12.6,-1.7 l 2.4,0.5 c 3,3.6 16.9,20.1 22.2,20.4 0,0 0.1,0 0.1,0 2.3,0 6.3,-3.7 6.8,-4.9 0.5,-1.3 -4.3,-11.4 -7.2,-15.5 -1.5,-2.2 -2.7,-3.2 -3.7,-3.2 -1.7,0 -3.4,1 -4.5,2.7 -1.2,2 -1.3,4.6 0,7.1 2.5,5 5.4,6.2 5.5,6.2 0.4,0.1 0.8,0 0.9,-0.4 0.1,-0.4 0,-0.8 -0.4,-0.9 0,0 -2.5,-1.1 -4.8,-5.6 -1,-2 -1,-4.1 0,-5.7 0.8,-1.2 2,-2.1 3.3,-2.1 2.1,0 9.2,14.4 9.5,16.9 -0.5,0.9 -3.9,4 -5.4,4 0,0 0,0 -0.1,0 -4,-0.2 -15.9,-13.5 -20.9,-19.6 l -1.5,-2.9 c -0.1,-0.2 -2.4,-4.9 4.6,-11 9.6,-8.4 23.2,-3.4 23.3,-3.3 l 0.9,0.3 c -1,4.9 -2.4,15.7 2.2,19.5 3.6,3 8.5,4.9 12.7,4.9 2.3,0 4.4,-0.6 5.9,-2 4,-3.7 0.5,-11.7 0.4,-12 l -0.2,-0.3 -10.9,-1.9 c -0.4,-0.1 -0.7,0.2 -0.8,0.6 -0.1,0.4 0.2,0.7 0.6,0.8 l 10.2,1.8 c 0.6,1.5 2.7,7.4 -0.2,10.1 -3.3,3.1 -11.1,1.7 -16.7,-3 -4.6,-3.8 -2,-16.7 -1.3,-19.8 0.3,-0.6 2.7,-4.3 9.2,-4 8.5,0.5 13.5,8.3 13.5,8.3 l 0.7,1.1 h 0.2 c 1.9,3.5 5.9,11.3 8,19.8 0.5,2 1,4.7 1.6,7.7 -1.3,-1.4 -3.3,-2.8 -6.5,-3.3 -6.6,-1 -11,-0.6 -13.4,1.3 -1.3,1.1 -2,2.5 -2.1,4.4 -0.1,0.9 -0.4,2.5 -0.9,4.2 -1.5,5.9 -3.7,14.7 2.8,16.5 2.1,0.6 4.1,0.8 5.9,0.8 2.5,0 4.5,-0.6 5.8,-1.7 1.3,-1.1 1.8,-2.6 1.6,-4.4 -0.1,-1.3 0,-3 0.2,-4.7 0.3,-3.1 0.6,-6 -0.8,-7.5 -0.6,-0.7 -1.6,-1 -2.7,-0.9 -5.2,0.3 -5.8,1.8 -5.8,2.4 0,0.4 0.3,0.8 0.7,0.8 0.4,0 0.7,-0.2 0.7,-0.6 0,0 0.5,-0.9 4.5,-1.1 0.7,0 1.3,0.1 1.6,0.5 1,1 0.7,3.7 0.4,6.4 -0.2,1.7 -0.4,3.5 -0.2,5 0.1,1.4 -0.3,2.4 -1.2,3.2 -1.9,1.6 -5.7,1.8 -10.4,0.5 -4.8,-1.3 -3.6,-7.7 -1.8,-14.8 0.5,-1.8 0.9,-3.4 0.9,-4.5 0.1,-1.5 0.6,-2.6 1.6,-3.4 2.1,-1.7 6.2,-2 12.3,-1.1 5,0.8 6.8,4 7.4,5.6 2.2,12 4.7,27.2 5.4,31.5 -9.9,0.1 -17.3,0.3 -18.7,0.4 -1.9,-0.3 -22.2,-4 -27.4,-5 -7.5,-1.5 -17.1,-2.6 -23.9,-2.8 -2.5,-6.8 -5.7,-13.6 -9.5,-19.6 1.2,-0.8 4.6,-2.9 7.8,-2.9 0,0 0,0 0,0 2.2,0 7,4 10.1,8.4 1.8,2.5 2.2,4.1 2,4.7 -0.9,2.4 -5.2,4.6 -6.8,5.2 -0.5,0 -0.7,0.4 -0.6,0.7 z m 74.9,-57.2 1,2.1 c 1,2.6 2.3,7 2.3,11.9 0,3.5 -2.4,5.9 -4.6,6.6 -1.5,0.5 -2.7,0.2 -3.4,-0.7 -0.4,-0.5 -0.9,-1.2 -1.4,-1.8 -1.6,-1.9 -3.7,-4.4 -3.3,-6.2 0.1,-0.8 0.7,-1.4 1.7,-2 2.8,-1.5 3.9,-1.9 4.3,-2 0.1,0 0.1,0.1 0.2,0.1 0.4,0.1 0.8,-0.1 0.9,-0.5 l 0.1,-0.5 -0.4,-0.3 c -0.4,-0.3 -0.9,-0.7 -5.7,2 -1.4,0.8 -2.2,1.7 -2.4,2.9 -0.5,2.5 1.8,5.2 3.6,7.3 0.5,0.6 1,1.2 1.4,1.7 0.7,1 1.8,1.5 3.1,1.5 0.6,0 1.2,-0.1 1.8,-0.3 2.7,-0.9 5.5,-3.7 5.5,-7.9 0,-5.2 -1.3,-9.7 -2.4,-12.4 l 1,-1 c 0.2,-0.2 4.1,-3.8 10.6,-2.3 10.6,2.5 12,11 12.1,11.3 l 0.2,1 c -4.4,1 -11.8,3.4 -12.4,8.4 -0.2,1.5 -0.4,2.7 -0.6,3.8 -0.7,3.7 -1.1,5.9 2.4,7.7 1.8,1 4.4,1.6 6.7,1.6 1.6,0 3,-0.3 3.9,-0.9 1,-0.7 1.4,-1.6 1.2,-2.8 -0.4,-3.7 -0.4,-8 -0.4,-8.1 0,-0.4 -0.3,-0.7 -0.7,-0.7 -0.4,0 -0.7,0.3 -0.7,0.7 0,0 0,4.5 0.5,8.2 0.1,0.6 -0.1,1.1 -0.6,1.4 -1.7,1.2 -6.3,0.8 -9.2,-0.7 -2.5,-1.4 -2.3,-2.6 -1.7,-6.2 0.2,-1.1 0.4,-2.4 0.6,-3.9 0.7,-5.9 14.3,-7.8 14.5,-7.8 0.1,0 0.2,-0.1 0.3,-0.2 1.8,0 5.5,0.6 10.6,4 8.7,5.9 5.9,19.2 5.9,19.3 l -0.4,1.9 c -2.7,2.9 -6.9,8.5 -4.9,13.3 0.9,2.2 1.5,4.4 2.1,6.4 0.9,3.3 1.6,5.7 2.9,6.4 0.2,0.1 0.5,0.2 0.8,0.2 0.2,0 0.5,-0.1 0.7,-0.1 0.8,-0.3 1.8,-0.6 2.9,-1 3.2,-1 5.4,-1.8 6.2,-2.8 1.1,-1.5 -2.2,-8.1 -5.1,-13.4 -0.2,-0.3 -0.6,-0.5 -1,-0.3 -0.3,0.2 -0.5,0.6 -0.3,1 2.8,5 5.5,10.9 5.2,11.9 -0.6,0.8 -3.4,1.7 -5.5,2.4 -1.1,0.4 -2.1,0.7 -3,1 -0.2,0.1 -0.3,0.1 -0.4,0 -0.8,-0.4 -1.5,-3 -2.2,-5.5 -0.6,-2 -1.2,-4.4 -2.1,-6.6 -1.4,-3.5 1.3,-7.8 3.6,-10.6 l 3.5,-1.8 c 0,0 5,-2.5 10.2,4.5 6.2,8.3 4,22.1 3.9,22.2 l -0.4,2.4 h 2.5 c 0,0 3.8,0.1 4.1,2.6 0.3,2.5 0.2,5.2 0.1,7 -4.9,-1.8 -10.9,-3.7 -17.9,-5.1 -11.6,-2.3 -35.9,-2.7 -54.5,-2.6 -0.5,-2.7 -1.9,-10.4 -3.6,-19 0.1,-0.1 0.2,-0.3 0.2,-0.5 0,-3.7 1,-13.3 5.8,-13.8 5.3,-0.6 13.6,1 16.7,3.9 0.9,0.8 1.3,1.7 1.3,2.6 0,1.1 0,2.4 0,3.8 0.1,4.7 0.3,12.5 -2.2,12.7 -2.8,0.2 -7.5,-1.1 -9.7,-3.2 -0.9,-0.8 -1.3,-1.7 -1.3,-2.6 0,-3.8 2,-8.4 2,-8.5 0.2,-0.4 0,-0.8 -0.4,-0.9 -0.4,-0.2 -0.8,0 -0.9,0.4 -0.1,0.2 -2.1,5 -2.1,9 0,1.3 0.6,2.6 1.8,3.7 2.6,2.4 7.4,3.6 10.2,3.6 0.2,0 0.4,0 0.5,0 3.8,-0.2 3.6,-7.6 3.5,-14.1 0,-1.4 -0.1,-2.7 0,-3.7 0,-1.3 -0.6,-2.6 -1.8,-3.7 -3.8,-3.5 -13,-4.8 -17.8,-4.3 -4.6,0.5 -6.2,6.5 -6.8,10.8 -1.1,-5.5 -2.2,-11.1 -3.1,-15.9 -2.7,-13.6 -5.8,-23.1 -6.5,-25.3 l -0.2,-0.8 c 0,-0.2 -1.1,-4.5 4.3,-6.4 8.7,-2.7 12.3,3.7 12.6,4.5 z m 68.9,23.5 24.9,-12.6 c 0.4,-0.2 0.7,-0.2 1.1,-0.1 0.4,0.1 0.7,0.4 0.8,0.7 l 29.2,55.6 c 0.2,0.4 0.2,0.8 0.1,1.1 -0.1,0.4 -0.4,0.7 -0.8,0.8 l -29.8,15.6 c -0.4,0.2 -0.8,0.2 -1.1,0.1 -0.4,-0.1 -0.7,-0.4 -0.9,-0.8 l -8.3,-16.4 c -2.4,-15.7 -7.3,-30.1 -15.2,-44 z m 23.8,85.9 0.1,0.1 c 1.7,2.7 4.7,4.3 7.8,4.3 1.5,0 3,-0.4 4.3,-1.1 l 17.9,-9.7 c 0.5,4.1 2.3,12.3 9.2,20.3 1.8,2.1 4.1,4.3 6.4,6.7 9.2,9.2 21.5,21.5 25.1,40.5 -5,-3 -14.4,-7.8 -25.5,-10.2 -1.7,-0.4 -3.4,-0.6 -5,-0.7 -2.2,-4.7 -11.2,-21.8 -26.7,-28.8 -11.5,-5.2 -21.9,-0.6 -28,3.6 3.7,-12 6.6,-23.5 7.3,-32.5 0.1,-1.7 0.2,-3.5 0.3,-5.2 z m 118.9,76.4 c -3.7,-3.5 -11.2,-9.4 -22.2,-11.1 -8.9,-1.4 -17.9,1 -20.8,1.9 0,-0.7 -0.1,-1.4 -0.1,-2.1 -1.1,-9.9 -4.3,-18.2 -8.5,-25.2 2,-2.7 7.2,-8.6 16.4,-9.7 11.1,-1.2 20.8,3.6 22.4,4.5 6.3,11.1 11.1,24.6 12.8,41.7 z m -95,-18.3 c 3.6,-2.2 10.6,-5.2 20.6,-3 4.7,1 9.2,2.6 13.1,4.2 -1.8,1.2 -4.6,3.4 -6.6,6.5 -1.7,2.7 -2.3,6.1 -2.5,8.7 -7.8,-7.2 -16.1,-12.8 -24.6,-16.4 z m -28.3,-5 c 0.2,-3.4 1,-10.7 4.3,-16.1 4.7,-7.8 12.1,-9.7 15.4,-10.1 10.6,6.3 17.5,17.8 20.3,23.2 -8.7,0.5 -14.3,4.3 -16.5,6.1 -7.7,-2.6 -16,-3.3 -23.5,-3.1 z m -12.2,-20.9 c 2,-2 14.4,-13.4 28.6,-7 0.5,0.2 0.9,0.4 1.4,0.7 -4,0.9 -10.4,3.3 -14.7,10.4 -3.5,5.8 -4.3,13.3 -4.5,16.8 -8.1,0.3 -15.1,1.6 -18.9,2.5 2.6,-7.4 5.5,-15.4 8.1,-23.4 z m 5.4,-40 c -0.1,2.1 -0.4,4.4 -0.8,6.8 -5.1,-4.2 -18,-12.8 -40.9,-14.8 -17.8,-1.6 -39.6,-1.5 -53.4,-1 V 285 c 18.4,-0.3 51.4,-0.4 65.2,2.4 15.7,3.1 26.5,8.7 30.1,10.7 0.2,6 0.2,11.9 -0.2,17.5 z m -106.4,-8.2 -0.4,-22.2 c 1.7,0 4.8,-0.1 8.9,-0.2 v 21.7 c -3.8,0.2 -6.7,0.4 -8.5,0.7 z m 7.4,-88.7 c 1.1,3.5 3.7,12.1 6.1,23.9 2.7,13.5 6.6,34.2 7.6,39.4 -0.9,0 -1.9,0 -2.7,0 -0.6,-3.9 -3,-18.5 -5.2,-30.5 0,-0.1 0.1,-0.2 0,-0.3 0,0 -0.1,-0.4 -0.3,-1 -0.9,-4.5 -1.7,-8.6 -2.4,-11.4 -2,-8.3 -5.8,-15.9 -7.8,-19.6 z m -37.2,61.5 c 4.8,1 21.9,4.1 26.5,4.9 l 0.4,23 c -6.9,2.6 -34.9,17 -44.3,21.9 0.9,-11.2 1,-23.6 -0.9,-35.8 -0.8,-5.1 -2.2,-10.8 -4.2,-16.6 6.8,0.1 15.5,1.1 22.5,2.6 z m 67.8,94 c 0,0.2 0,0.4 0,0.6 0,-0.2 0,-0.4 0,-0.6 z m 2.8,0 c 0,-0.4 0,-0.7 0,-1.1 0,-13.6 9,-24.7 20,-24.7 11,0 20,11.1 20,24.7 0,13.6 -9,24.7 -20,24.7 -10.5,0 -19.2,-10.1 -19.9,-22.9 l 0.2,-0.2 z m 42.1,-7.9 9.3,2.2 c -1,2.9 -2.1,5.8 -3.1,8.6 l -5.9,1.1 c 0.3,-1.7 0.4,-3.4 0.4,-5.2 0,-2.2 -0.3,-4.5 -0.7,-6.7 z m 8.3,17.5 c 2.3,-0.6 16.1,-4 30.7,-2.8 -4.9,1.2 -10.8,3.3 -15.3,7.3 -11.8,10.7 -13.7,22.4 -14,27.6 -4.2,-2.1 -8.5,-4.7 -9.5,-5.8 -0.2,-3 3.8,-14.5 8.1,-26.3 z m 3.1,32.9 c -0.1,0 -0.2,-0.1 -0.3,-0.1 0.1,-4.6 1.5,-16.4 13.5,-27.3 5.6,-5 13.8,-7 19.1,-7.8 3.4,0.5 6.7,1.3 9.9,2.5 11.6,4.3 23.2,12.4 33.2,23.4 -5.2,-2.4 -14.1,-4.3 -26.5,0.9 -16.2,6.9 -21.7,19.6 -23.3,24.9 -13,-9.5 -24.5,-15.9 -25.6,-16.5 z m 84.9,-4.2 c -3.7,-4.9 -7.7,-9.4 -11.9,-13.4 0.1,-2.5 0.6,-6.4 2.3,-9.2 2.1,-3.3 5.4,-5.6 7,-6.6 6.2,2.7 10.7,5.5 12.5,6.7 0.8,11.2 -7.6,20.3 -9.9,22.5 z M 454.6,356 c -3.8,-1.7 -11.9,-4.7 -21.3,-3.7 -9.3,1 -14.7,6.7 -17,9.8 -5.2,-8.3 -11.5,-14.8 -17,-20.3 0.8,-3.6 3.3,-11.5 10.5,-15.5 6.3,-3.5 14,-1.7 18.7,0 8.5,7.5 18.2,16.8 26.1,29.7 z m -44.2,-47.5 c 2.6,4.4 7.6,8.8 14,14.3 0.4,0.4 0.9,0.8 1.3,1.2 -4.8,-1.3 -11.1,-1.9 -16.6,1.2 -7.2,4 -9.9,11.4 -11,15.5 -2.2,-2.2 -4.2,-4.2 -5.8,-6.1 -7.5,-8.6 -8.3,-17.7 -8.3,-19.7 l 12.9,-7 c 4.4,-2.4 6.1,-7.7 3.9,-12.2 l -6.6,-13.2 c 3.7,0.2 7.4,2.2 9.5,3.6 0.9,8.3 3.2,16.5 6.7,22.4 z m 25.9,-58.3 c 2.6,4.7 2.7,10 0.2,14.1 -2.9,4.7 -7.4,5.5 -9.2,5.6 -2.5,0.2 -4,-0.5 -4.1,-0.7 -0.1,-0.2 -0.1,-0.2 -0.1,-0.3 0.2,-0.3 1.3,-1 2.2,-1.6 0.9,-0.6 2.1,-1.3 3.3,-2.2 2.4,-1.7 2.6,-4.8 0.7,-7.7 -1.1,-1.6 -3,-3.1 -5.3,-4 0.8,-0.6 1.7,-1.8 2.7,-3.8 1.1,-2.4 0.5,-5.6 -0.3,-8.2 4.2,2 7.7,4.9 9.9,8.8 z m -21.8,-10.9 c 0,0 0,0 0,0 3.6,0 6.9,0.5 9.8,1.5 1,2.5 1.9,5.9 0.8,8.2 -1.8,3.7 -3.1,3.8 -3.1,3.8 v 0.1 c -3.2,-0.8 -7.1,-0.4 -11,2.2 -1.2,0.8 -2.2,1.9 -3.1,3.2 -1.2,-2.5 -3.3,-6.1 -6.5,-8.1 -2.5,-1.6 -5.1,-2 -7.1,-2 4.2,-4.9 10.6,-8.9 20.2,-8.9 z m -21.4,10.4 c 1.9,-0.2 4.8,0 7.6,1.7 3.3,2.1 5.4,6.2 6.4,8.4 -3.2,5.8 -4.3,15.1 -3.5,24.5 -2.4,-1.5 -6.1,-3.3 -9.9,-3.3 v 0.2 l -7.3,-14.8 c 0.2,-2.1 1.7,-10 6.7,-16.7 z m -41.7,-34.2 c 2.4,-0.9 5.1,0.2 6.2,2.5 l 39.4,79.6 c 1.2,2.4 0.3,5.3 -2.1,6.6 L 360,323 c -2.3,1.2 -5.1,0.5 -6.5,-1.7 L 343,301.7 c -0.1,-3.5 -0.3,-8.4 -0.7,-11.9 l 2.9,4.9 c 1.3,2.1 3.2,6.4 4.3,6.8 0.5,0.2 1,0.3 1.5,0.3 0.6,0 1.3,-0.1 1.8,-0.4 l 29.8,-15.6 c 1,-0.5 1.8,-1.4 2.2,-2.5 0.4,-1.1 0.3,-2.3 -0.2,-3.3 l -29.2,-55.6 c -0.5,-1 -1.4,-1.8 -2.5,-2.1 -1.1,-0.4 -2.2,-0.3 -3.3,0.2 l -25,12.5 c -0.9,-1.5 -1.8,-3 -2.8,-4.4 z M 198.1,193.7 c 35.6,-8.7 70.7,-2.8 98.6,16.8 26.4,18.5 39.3,52.7 41.8,84.2 -1.7,-0.9 -4.2,-2.1 -7.3,-3.5 0.1,-1.6 0.3,-5.5 -0.1,-9 -0.4,-3.7 -3.4,-5.4 -5.9,-6 0.4,-4.6 0.7,-15.6 -5,-23.3 -4.1,-5.5 -8.7,-6.8 -12,-6.6 0.4,-5.1 0.1,-15 -8.1,-20.5 -6.1,-4.1 -10.6,-4.8 -13.2,-4.8 -1.1,-3.5 -4.6,-10.5 -14.8,-12.9 -5.8,-1.4 -10.1,0.4 -12.5,1.9 -2.7,-3.4 -8.2,-7 -16.4,-4.2 -5.5,1.9 -7.1,6 -7.2,9 l -0.7,0.1 c -1.9,-2.6 -7.4,-8.8 -16.1,-9.2 -6.8,-0.4 -10.5,2.8 -12.2,4.8 -4.3,-1.2 -16.5,-3.7 -26,4.6 -5.8,5 -6.7,9.7 -6.5,12.8 -2.9,-0.1 -7.4,0.2 -12,2.4 -4.7,2.2 -6.4,6 -6.8,9.2 -3.1,-2.1 -6.3,-3.6 -9.6,-4.1 -3.1,-0.5 -5.9,-0.2 -8.6,0.6 5.9,-20.3 34.9,-36 60.6,-42.3 z m -52.6,45.8 c 16.6,2.5 31.3,33.9 34.6,55.2 4.3,28.4 -2.2,58.8 -4.7,68.7 -6.3,-6.4 -15.7,-12 -26.8,-15.8 1.8,-4.8 4.6,-17.2 0.5,-42.9 -2.7,-16.8 -9.8,-29.5 -19.5,-34.8 -1.1,-0.6 -2.1,-1.1 -3.2,-1.5 l 0.2,-0.1 c -0.7,-1.7 -2.5,-6.5 -4.9,-12.9 2.7,-4.6 11.6,-17.8 23.8,-15.9 z M 62.9,148 c 0,-5.4 4.4,-9.7 9.7,-9.7 5.4,0 9.7,4.4 9.7,9.7 0,5.4 -4.4,9.7 -9.7,9.7 -5.3,0 -9.7,-4.3 -9.7,-9.7 z m 11.5,12.4 c 0.9,-0.1 1.8,-0.3 2.6,-0.7 l 9,24.9 c -1.6,0.6 -3.3,1.5 -4.9,2.6 z m 4.1,35.4 c 1.5,-2.7 6.9,-7.2 10.4,-7.5 1.1,-0.1 1.6,0.3 1.8,0.7 2.1,3.1 15.4,37.3 26.4,66.2 0,0 0,0 0,0 v 0 c 1.6,4.2 3.2,8.3 4.6,12.2 -4.7,-0.6 -9.7,0.2 -15,2.5 -4.4,1.9 -8,4.7 -11,8.3 z M 91,315.6 c -1,-22.7 4.7,-36.4 17.4,-42 7.1,-3.1 13.6,-3.1 19.2,-0.1 8.6,4.7 14.9,16.3 17.4,31.8 4.1,25.6 1,37.2 -0.4,40.9 -14.8,-4.5 -32.2,-5.8 -48.9,-2.1 -1.2,-4.3 -4.2,-15.8 -4.7,-28.5 z m -18.1,42.3 c 5.6,-3.5 11.7,-6.1 17.8,-8 -1.7,3.3 -4.2,10 -1.6,18.8 3.3,11.3 9.4,17.5 12.4,20.1 -5.2,2.9 -7.9,6.9 -9.3,10.1 -4.6,0 -16.4,-0.7 -24.9,-6.1 -8.8,-5.5 -12.6,-13.3 -13.9,-16.9 4.7,-6.4 10.9,-12.7 19.5,-18 z m -30.4,46 c 1.1,-7.8 3.8,-17.3 10,-26.6 1.6,4 5.6,11.3 14.1,16.7 8.6,5.4 20,6.2 25.1,6.3 -0.2,0.5 -0.3,0.9 -0.4,1.3 -0.7,2.6 -0.8,5.3 -0.3,7.6 -2.4,3.4 -8.8,11.8 -16.7,15.3 -8,3.6 -24,5.9 -30.3,6.6 -2.2,-8.7 -2.8,-18.1 -1.5,-27.2 z m 32.1,142.6 c -0.5,0.7 -0.9,1 -1.1,1.2 -0.3,-0.4 -0.8,-1.3 -1.5,-3.7 -0.4,-1.5 -0.4,-3 -0.4,-4.8 0,-4.5 -0.1,-10 -6.9,-17.6 h 0.4 c 0,-0.2 0.1,-3.9 4.9,-6.8 2.4,-1.5 5.4,-1.5 7.2,-1.3 3.5,11.8 -0.8,30.6 -2.6,33 z m -11,-47.9 c 3.5,2.3 7.4,4.9 11,9.6 0.9,1.1 1.5,2.5 2.1,3.9 -2.1,-0.2 -5,0 -7.5,1.5 -4,2.4 -5.1,5.5 -5.4,7 -1.2,-1.2 -2.5,-2.5 -4.1,-3.9 -5.4,-4.6 -12.6,-7.6 -19.5,-10.4 -3.6,-1.5 -7.1,-3 -10.4,-4.6 1.4,-2.7 4.5,-7.6 10.2,-9.4 7.4,-2.4 12.8,-1.4 16,-0.3 1.8,2.8 4.7,4.7 7.6,6.6 z m -9.8,-12.2 c 0.2,1.4 0.6,2.7 1.1,3.8 -3.5,-1 -8.6,-1.4 -15.4,0.8 -6.2,2 -9.6,7.2 -11,10.1 -7.8,-4.2 -13.7,-9.8 -13.9,-20.2 -0.2,-5.7 0.8,-10.7 2.5,-15 l 0.1,0.1 c 0,-0.1 4.2,-5.6 15.7,-4.2 15.8,1.9 23.3,11.4 25.1,14.2 -2.8,2.8 -4.7,6.3 -4.2,10.4 z M 59.1,475 c -2.2,-3.3 -10,-12.7 -26,-14.6 -7.7,-0.9 -12.3,1 -14.8,2.7 6.3,-12.6 18.9,-18.9 24.9,-21.2 2.5,5.9 5.7,11.3 9.7,15.7 4.4,4.9 9.5,8.8 14.7,11.7 -2.5,1.3 -5.8,3.2 -8.5,5.7 z m 23.3,-4 c 3.4,-3.5 12.2,-13.2 16.7,-23 4.1,-9 5.7,-23.3 6.2,-28.6 6.6,1.1 13.6,0.1 18.3,-1.2 0.5,0.9 5.7,10 7.6,23.8 0.9,6.3 0.1,13.1 -0.6,17.3 -4.6,4.6 -9.2,9.6 -13.2,14.9 -2.5,0.3 -18.3,1.9 -35,-3.2 z m 32.7,14.2 c 5.1,-1.7 14.3,-3.7 24.4,-0.3 14.7,5 21.3,14.2 23.6,18.5 -1.1,1.1 -2.1,2.2 -2.8,3.6 -0.9,1.6 -1.3,3.3 -1.4,5.1 -3.9,-1.7 -14.2,-5.8 -22.5,-4.5 -16.5,2.7 -24.1,13.6 -27.3,20.6 -0.9,-4.4 -1.6,-9.1 -2.1,-14.1 -0.8,-9.8 2.6,-19.6 8.1,-28.9 z m -5.4,45.4 c 2.5,-6.5 9.5,-18.8 27,-21.6 8.4,-1.3 19.3,3.3 22.3,4.7 0.1,0.9 0.3,1.7 0.6,2.6 0.8,2.5 2.6,4.8 5.1,6.8 -4.9,1.1 -13.2,3.9 -21.1,11.5 -9,8.6 -11.1,27.7 -11.5,32.4 -0.8,-0.6 -1.7,-1.2 -2.5,-1.8 -9.7,-7.7 -16.3,-19.1 -19.9,-34.6 z m 23.7,37.1 c 0.2,-2.5 2,-23.5 11.1,-32.2 8.3,-7.9 17.2,-10.5 21.7,-11.3 3.2,2.2 7.3,4 11.9,5.4 -2.2,2.6 -7.8,10.6 -7.8,22.9 0,9.5 1.9,19.3 3.7,24 -16.7,0.6 -30.3,-2.4 -40.6,-8.8 z m 59,7 c -6,0.9 -11.6,1.5 -16.9,1.8 -1.4,-3.7 -3.8,-13 -3.8,-24 0,-12.6 6.4,-20.8 7.9,-22.5 5.7,1.5 12.1,2.4 18.7,2.4 4,0 8.1,-0.3 12.1,-1 -0.6,4.1 -1.6,12.4 -0.4,18.7 1.2,6.5 5.1,15.3 7,19.1 -7.3,2.2 -15.5,4 -24.6,5.5 z m 56.9,-23.4 c -0.1,-3.6 -0.6,-11 -3.8,-18.5 -2.9,-6.6 -8.8,-9.8 -11.2,-10.9 5.7,-4.1 8,-8 8.2,-8.3 0.6,-1 0.3,-2.3 -0.7,-2.9 -0.2,-0.1 -0.4,-0.2 -0.7,-0.2 l -1.3,-4.3 c 1.4,0 5.2,0.2 8.5,2 2.3,1.2 5.8,4.7 7.5,6.6 1.3,4.1 2.1,9.1 2.1,15 0,8.1 -2.9,15.3 -8.6,21.5 z m 5.2,-39.8 c -1.8,-1.8 -3.9,-3.7 -5.6,-4.6 -4.1,-2.2 -8.8,-2.2 -9.6,-2.2 l -3.2,-10.5 c 4.2,1.4 13.4,5.7 18.4,17.3 z m 16.4,-36.8 c -14.3,-2.3 -33.1,2.3 -39.5,4.1 L 227.2,465 c -0.6,-2 -2,-3.6 -3.8,-4.5 -1.8,-0.9 -3.9,-1.1 -5.9,-0.5 l -20.2,6.5 c -1.1,-3.3 -4.1,-9.6 -11.9,-17 -9.3,-8.8 -17.2,-11.1 -22.4,-11.4 3.7,-2.6 6,-4 6.2,-4.1 l -2.2,-3.6 c -0.4,0.2 -1.8,1.1 -3.9,2.5 -0.6,-3.1 -2,-9.6 -4.5,-14.8 -1.3,-2.7 -3.6,-6.2 -5.3,-8.6 3.3,-2.7 6,-6.1 7.4,-8.1 0.8,0.6 1.5,1.2 2.2,1.8 7.8,7.3 9.6,16.2 11.2,24 0.9,4.4 1.7,8.1 3.4,11.1 4.2,7.3 17.2,9.7 23.5,10.8 0.9,0.2 1.8,0.3 2.1,0.4 3,0.9 6.9,1.5 9.2,-0.7 1,-0.9 1.9,-2.8 1,-6 -1.2,-4 -4.9,-6.3 -8.5,-8.4 -3.3,-1.9 -6.7,-4 -8.5,-7.3 -1.1,-2 -1.2,-5.9 -1.5,-10.8 -0.4,-8.5 -0.9,-20.1 -6.4,-32.9 h 16.3 c 3.4,11.1 12.7,19.1 23.6,19.1 13.5,0 24.5,-12.2 25,-27.5 1.7,-0.4 5.3,-1.1 8.1,-1.1 6.3,-0.1 8.3,0.6 8.8,0.9 0.8,14.3 10.7,25.6 22.7,25.6 10.2,0 18.9,-8.2 21.8,-19.4 l 5.4,-1 c -6.3,17.7 -9.6,27.2 -8.9,30.9 0.2,0.9 0.6,3.2 13.3,9.4 0,0 0.5,0.3 1.1,0.6 -3.7,3.1 -12.2,11.5 -18.4,28 -4.7,12.4 -4.4,29.6 -4.2,35.8 -3.3,-1.1 -6.1,-2.3 -8.8,-3.3 -7.1,-2.7 -13.4,-5.1 -23.3,-6.7 z m 40,12.6 c -0.2,-6.3 -0.3,-22.7 4,-34.3 6.4,-17.1 15.6,-25.2 18.4,-27.4 5.4,3.4 12.7,8.2 20.2,14 -2.5,3.2 -6.8,9.8 -10.2,21.2 -2.9,9.6 -1.8,21 -1.5,23.7 -1.5,0.9 -2.6,1.7 -3,2.4 -0.6,1.2 -0.5,3.1 -0.2,7 -2.6,-0.4 -10.5,-1.9 -25.4,-6 -0.8,-0.1 -1.5,-0.3 -2.3,-0.6 z m -2.6,27.2 c 1.4,0.4 3.4,-0.2 20,-7.5 4.7,-2.1 10.5,-4.6 12.2,-5.2 l 0.6,0.2 0.9,-0.7 c 1.3,-1 1.2,-2.4 0.8,-6.9 -0.1,-0.8 -0.2,-1.9 -0.2,-3 l 1.6,2 0.2,0.1 c 0.3,0.1 0.7,0.1 1.1,0.1 4.1,0 12.4,-3.7 15.4,-5.9 0.7,-0.5 1.2,-1 1.5,-1.6 1.7,2.3 3.8,5.4 5.8,8.6 v 0.2 c 0,0 0.1,0 0.2,0 2.5,4 4.8,8.1 6.2,10.8 2.5,5.2 5.4,12.7 6.3,15.1 -0.1,0.1 -0.1,0.2 -0.2,0.4 -4.3,8.7 -10.6,14.5 -18.2,16.9 -10.7,3.4 -15.8,0.7 -22.3,-2.7 -3.6,-1.9 -7.7,-4 -13.1,-5.1 -4.1,-0.8 -9.1,-0.6 -14.8,-0.3 -6.4,0.3 -13.6,0.6 -21.8,-0.3 -3,-0.3 -5.1,-0.9 -6.7,-1.6 -0.7,-2.5 -2.3,-7.9 -3.6,-12 0.7,0.3 1.4,0.6 2.2,0.6 0.1,0 0.2,0 0.2,0 3.7,0 14.5,-5.3 16.3,-7 0.7,-0.7 1,-2.1 1,-3.4 0.2,0.2 0.4,0.4 0.6,0.6 4.6,5.3 6.3,7.1 7.8,7.6 z m -28,22.1 c 0.8,-2.1 2.4,-3.2 4,-3.8 1.6,0.5 3.4,0.9 5.7,1.1 3.4,0.4 6.6,0.5 9.6,0.6 -1.5,2.4 -3.6,6.3 -4,10.4 -0.3,3.1 0.1,5.4 0.6,7 -6.2,-1.4 -12.3,-3.2 -16.5,-5.4 -0.7,-2 -1.1,-5.5 0.6,-9.9 z m 17.6,15.7 c -0.6,-1.5 -1.3,-3.8 -0.9,-7.3 0.5,-4.3 2.8,-8.4 4.3,-10.6 4,0 7.7,-0.1 11.2,-0.3 4.6,-0.2 8.7,-0.4 12,0 -1.6,2.4 -3.7,6.5 -3.7,11.7 0,4.8 1.6,9.2 3.2,12.4 -1.9,-0.9 -4,-1.7 -6.6,-2.2 -1.4,-0.3 -3,-0.6 -4.8,-0.9 -4.2,-0.6 -9.4,-1.6 -14.7,-2.8 z m 0.2,-48.2 c 0.1,0.1 0.2,0.3 0.4,0.4 0.1,1.7 0,3.5 -0.6,4.1 -1.5,1.5 -12.4,6.8 -15.4,6.6 -1.1,-0.1 -2.1,-0.6 -2.9,-1.2 -0.2,-0.7 -0.4,-1.4 -0.5,-1.9 2.4,-2.3 15.4,-7.2 19,-8 z M 275,543 c -3.4,-4.6 -4.9,-10.2 -3.8,-14 0.5,-1.7 1.5,-2.8 2.9,-3.4 0.7,-0.3 1,-0.3 1,-0.3 0.2,0.1 0.5,0.6 0.7,1 1,1.7 2.5,4.1 6.6,5.8 -1.4,0.8 -2.7,2 -3.4,3.9 -1.5,3.9 -1.5,7.2 -1,9.5 -1.3,-0.7 -2.3,-1.6 -3,-2.5 z m 50.4,26.7 c -1.6,4.7 -9.1,15.4 -18.3,13.7 -5.8,-1.1 -12,-16.7 -15.1,-28.1 6.1,1.6 12.9,2.9 19.7,4.1 1.8,0.3 3.4,0.6 4.8,0.9 4.1,0.8 6.8,2.3 9.5,4.2 0.2,0.3 0.5,1.9 -0.6,5.2 z m 3.3,-8.5 c -0.1,0 -0.1,-0.1 0,0 v 0 c -0.9,-0.6 -1.7,-1.2 -2.6,-1.7 -1.7,-3.1 -4,-8.1 -4,-13.6 0,-5.2 2.4,-9.4 3.9,-11.5 0.1,0 0.2,0 0.3,0 4.8,0.9 8.5,2.8 12,4.7 3.5,1.8 6.8,3.5 10.9,4.3 -0.9,2.6 -2.2,7.5 -2.2,14.2 0,6.2 2.1,10.6 3.5,12.9 -10.4,-1 -15.1,-4.5 -19.7,-7.9 -0.8,-0.4 -1.4,-0.9 -2.1,-1.4 z m 33.6,9.5 c -3.9,0.2 -7.2,0.2 -10.1,0 -1.2,-1.7 -3.9,-6.4 -3.9,-13.1 0,-6.6 1.3,-11.5 2.2,-13.9 3.6,0.4 7.9,0.1 13.2,-1.6 4.1,-1.3 7.9,-3.5 11.2,-6.4 1.3,0.6 8.1,3.7 10.9,9.2 2.5,4.9 2.4,14 2.3,17.4 -8.5,4.9 -17.4,7.9 -25.8,8.4 z m 27.3,-9.3 c 0.1,-4.1 0,-12.4 -2.5,-17.2 -2.8,-5.3 -8.8,-8.5 -11,-9.6 3.2,-3.1 6,-7 8.3,-11.6 1.4,-2.8 2.5,-5.7 3.5,-8.9 2.6,-0.9 8.2,-2.1 14.5,0.6 12.2,5.1 15.8,14.5 16.4,16.6 -7.5,12.7 -17.9,23.1 -29.2,30.1 z m 30.2,-31.6 c -1.4,-3.5 -5.6,-11.6 -16.8,-16.3 -6.1,-2.6 -11.5,-1.8 -14.6,-0.9 2,-7.3 2.9,-15.2 2.5,-22.8 0.9,-0.7 10.5,-7.9 24.5,-5.8 7.9,1.2 12.9,4.9 15.4,7.2 -0.1,1.6 -0.2,3.3 -0.3,5 -1.1,12.1 -5,23.5 -10.7,33.6 z m 15,-53.2 c -1.6,-23.6 -9.6,-44.3 -20.9,-60.7 0.1,-0.1 0.3,-0.3 0.5,-0.5 2.6,0.7 14.8,4.3 23.5,12.2 12.3,11.2 14.3,26.2 14.7,30.7 -6.7,8.6 -13.8,15 -17.8,18.3 z M 469,439.1 c 2.6,3.2 6.8,9.1 7.8,16.4 0.6,4.6 0.3,8.5 -0.6,12 -1.5,-2.4 -4.5,-6 -10.1,-6.7 -5.5,-0.7 -9.3,2.2 -11.4,4.4 l -0.8,-1.6 c 5.7,-6.8 11.4,-15.2 15.1,-24.5 z m -14.5,38 c 1.3,-3.9 2.5,-7.3 1,-10.4 l -0.1,-0.2 c 1.7,-2 5.4,-5.1 10.5,-4.4 6.1,0.8 8.9,5.5 9.8,7.3 -0.9,3 -2.1,5.8 -3.4,8.5 -2.4,5.3 -4.6,10.4 -4.2,16.6 -1.9,-2 -4.7,-3.4 -9.8,-2.3 -2.9,0.6 -5.1,2.3 -6.6,4 -0.8,-8.6 1.3,-14.6 2.8,-19.1 z m -2.3,22.2 c -0.1,-0.4 -0.1,-0.8 -0.2,-1.2 1.3,-1.6 3.5,-3.8 6.7,-4.5 5.7,-1.2 7.9,0.9 9.8,3.5 0.2,1 0.5,2.1 0.9,3.2 1.1,3.3 2.5,6 4.2,8.4 -0.8,0 -1.6,0.2 -2.5,0.5 -3.4,1.3 -5,4.7 -5.7,6.7 -6.4,-4.2 -12,-9.7 -13.2,-16.6 z m 36.1,26.2 c -2.3,-0.4 -12.6,-3.3 -21.7,-8.9 0.5,-1.6 1.9,-5 4.9,-6.1 1.2,-0.4 2.2,-0.5 3.1,-0.4 4.9,6.2 11.4,9.5 16.2,12 2.1,1.1 3.9,2 4.8,2.8 0,0 0.1,0 0.1,0.1 -1.3,0.5 -4.6,1 -7.4,0.5 z"
   id="path55" />
	<path
   class="st13"
   d="m 272.5,457.5 c -2.8,3.6 -6,7.5 -7.2,8.7 -2.2,-1 -9.8,-6.3 -16,-10.5 -7.3,-5 -14.8,-10.2 -17.9,-11.7 l -1.2,2.5 c 2.9,1.4 10.4,6.6 17.6,11.5 13.8,9.5 16.5,11.2 17.8,11.2 0.1,0 0.3,0 0.4,0 1,-0.2 2.2,-1.5 8.8,-9.8 4.5,-5.7 12.1,-15.3 14,-15.9 l -0.5,-2.8 c -2.4,0.2 -6.6,5.2 -15.8,16.8 z"
   id="path56" />
	<path
   class="st13"
   d="m 228.5,350.7 c -10.6,0 -19.2,10.3 -19.2,22.9 0,12.6 8.6,22.9 19.2,22.9 10.6,0 19.2,-10.3 19.2,-22.9 0,-12.6 -8.6,-22.9 -19.2,-22.9 z m -13.4,30.4 c 0,-5.4 4,-9.8 8.9,-9.8 4.9,0 8.9,4.4 8.9,9.8 0,5.4 -4,9.8 -8.9,9.8 -4.9,0 -8.9,-4.4 -8.9,-9.8 z m 13.4,12.7 c -0.9,0 -1.7,-0.1 -2.5,-0.3 5.5,-1 9.7,-6.2 9.7,-12.4 0,-7 -5.2,-12.6 -11.7,-12.6 -5.6,0 -10.3,4.3 -11.4,10.1 -0.3,-1.6 -0.5,-3.2 -0.5,-4.9 0,-11.1 7.4,-20.1 16.4,-20.1 9,0 16.4,9 16.4,20.1 0,11 -7.3,20.1 -16.4,20.1 z"
   id="path57" />
	<path
   class="st13"
   d="m 292.9,394.8 c 9.6,0 17.4,-9.9 17.4,-22 0,-12.1 -7.8,-22 -17.4,-22 -9.6,0 -17.4,9.9 -17.4,22 0,12.1 7.8,22 17.4,22 z m -12.3,-15.3 c 0,-5.3 3.8,-9.6 8.4,-9.6 4.6,0 8.4,4.3 8.4,9.6 0,5.3 -3.8,9.6 -8.4,9.6 -4.6,0 -8.4,-4.3 -8.4,-9.6 z m 12.3,-26 c 8.1,0 14.6,8.6 14.6,19.2 0,10.6 -6.6,19.2 -14.6,19.2 -0.7,0 -1.5,-0.1 -2.2,-0.2 5.4,-0.9 9.6,-6 9.6,-12.3 0,-6.8 -5,-12.4 -11.2,-12.4 -4.9,0 -9.1,3.5 -10.6,8.4 -0.1,-0.9 -0.2,-1.8 -0.2,-2.7 -0.1,-10.6 6.5,-19.2 14.6,-19.2 z"
   id="path58" />
	<path
   class="st13"
   d="m 103.5,327.1 4.4,-0.7 c 1.8,-0.3 3,-1.9 2.7,-3.7 l -0.7,-4.4 c -0.3,-1.8 -1.9,-3 -3.7,-2.7 l -4.4,0.7 c -0.9,0.1 -1.6,0.6 -2.1,1.3 -0.5,0.7 -0.7,1.6 -0.6,2.4 l 0.7,4.4 c 0.2,1.6 1.6,2.8 3.2,2.8 0.2,0 0.3,0 0.5,-0.1 z m -2.3,-2.9 -0.7,-4.4 c -0.1,-0.5 0,-1 0.3,-1.4 0.3,-0.4 0.7,-0.7 1.2,-0.7 l 4.4,-0.7 c 0.1,0 0.2,0 0.3,0 0.9,0 1.7,0.7 1.8,1.6 l 0.7,4.4 c 0.2,1 -0.5,2 -1.5,2.1 l -4.4,0.7 c -0.5,0.1 -1,0 -1.4,-0.3 -0.4,-0.4 -0.7,-0.8 -0.7,-1.3 z"
   id="path59" />
	<path
   class="st13"
   d="m 115.8,321.9 c 0.2,1.6 1.6,2.8 3.2,2.8 0.2,0 0.3,0 0.5,0 l 4.4,-0.7 c 0.9,-0.1 1.6,-0.6 2.1,-1.3 0.5,-0.7 0.7,-1.6 0.6,-2.4 l -0.7,-4.4 c -0.3,-1.8 -1.9,-3 -3.7,-2.7 l -4.4,0.7 c -1.8,0.3 -3,1.9 -2.7,3.7 z m 1,-5.9 c 0.3,-0.4 0.7,-0.7 1.2,-0.7 l 4.4,-0.7 c 0.1,0 0.2,0 0.3,0 0.4,0 0.8,0.1 1.1,0.4 0.4,0.3 0.7,0.7 0.7,1.2 l 0.7,4.4 c 0.1,0.5 0,1 -0.3,1.4 -0.3,0.4 -0.7,0.7 -1.2,0.7 l -4.4,0.7 c -1,0.2 -2,-0.5 -2.1,-1.5 l -0.7,-4.4 c -0.1,-0.6 0,-1.1 0.3,-1.5 z"
   id="path60" />
	<path
   class="st13"
   d="m 129.2,336.5 c 0.5,-0.7 0.7,-1.6 0.6,-2.4 l -0.7,-4.4 c -0.3,-1.8 -1.9,-3 -3.7,-2.7 l -21.5,3.3 c -1.8,0.3 -3,1.9 -2.7,3.7 l 0.7,4.4 c 0.2,1.6 1.6,2.8 3.2,2.8 0.2,0 0.3,0 0.5,0 l 21.5,-3.3 c 0.9,-0.3 1.6,-0.7 2.1,-1.4 z m -23.8,3.2 c -1,0.2 -2,-0.5 -2.1,-1.5 l -0.7,-4.4 c -0.2,-1 0.5,-2 1.5,-2.1 l 21.5,-3.3 c 0.1,0 0.2,0 0.3,0 0.9,0 1.7,0.7 1.8,1.6 l 0.7,4.4 c 0.1,0.5 0,1 -0.3,1.4 -0.3,0.4 -0.7,0.7 -1.2,0.7 z"
   id="path61" />
	<path
   class="st13"
   d="m 379,296.4 c -1.3,-0.4 -2.6,-0.3 -3.7,0.3 l -8.5,4.4 c -1.2,0.6 -2,1.6 -2.4,2.9 -0.4,1.3 -0.3,2.6 0.3,3.7 0.6,1.1 1.6,2 2.9,2.4 0.6,0.2 1.1,0.3 1.7,0.2 0.7,0 1.4,-0.2 2,-0.5 l 8.5,-4.4 c 1.2,-0.6 2,-1.6 2.4,-2.9 0.4,-1.3 0.3,-2.6 -0.3,-3.7 -0.6,-1.2 -1.6,-2 -2.9,-2.4 z m 0.1,7.8 -8.5,4.4 c -0.8,0.4 -1.8,0.5 -2.7,0.2 -0.9,-0.3 -1.6,-0.9 -2.1,-1.7 -0.4,-0.8 -0.5,-1.8 -0.2,-2.7 0.3,-0.9 0.9,-1.6 1.7,-2.1 l 8.5,-4.4 c 0.5,-0.2 1,-0.4 1.5,-0.4 0.4,0 0.8,0 1.2,0.2 0.9,0.3 1.6,0.9 2.1,1.7 0.9,1.7 0.2,3.9 -1.5,4.8 z"
   id="path62" />
	<path
   class="st13"
   d="m 204.4,482.3 c -0.3,-1.5 -1.3,-2.7 -2.6,-3.6 -1.3,-0.8 -2.8,-1.1 -4.3,-0.7 l -5.5,1.3 c -3.1,0.7 -5,3.8 -4.3,6.9 l 1.3,5.5 c 0.3,1.5 1.3,2.7 2.6,3.6 0.9,0.6 2,0.9 3,0.9 0.4,0 0.9,-0.1 1.3,-0.2 l 5.5,-1.3 c 3.1,-0.7 5,-3.8 4.3,-6.9 z m -3.3,11.1 -5.5,1.3 c -1.1,0.3 -2.3,0.1 -3.3,-0.5 -1,-0.6 -1.7,-1.6 -1.9,-2.7 l -1.3,-5.5 c -0.5,-2.3 0.9,-4.7 3.2,-5.2 l 5.5,-1.3 c 0.3,-0.1 0.7,-0.1 1,-0.1 0.8,0 1.6,0.2 2.3,0.7 1,0.6 1.7,1.6 1.9,2.7 l 1.3,5.5 c 0.6,2.2 -0.9,4.5 -3.2,5.1 z"
   id="path63" />
	<path
   class="st13"
   d="m 196.7,482.3 c -2.6,0 -4.7,2.1 -4.7,4.7 0,2.6 2.1,4.7 4.7,4.7 2.6,0 4.7,-2.1 4.7,-4.7 0,-2.6 -2.1,-4.7 -4.7,-4.7 z m 0,8.1 c -1.8,0 -3.3,-1.5 -3.3,-3.3 0,-1.8 1.5,-3.3 3.3,-3.3 1.8,0 3.3,1.5 3.3,3.3 0,1.8 -1.5,3.3 -3.3,3.3 z"
   id="path64" />
</g>
<ellipse
   transform="rotate(-56.796219)"
   class="st11"
   cx="75.065506"
   cy="268.88602"
   rx="14.999495"
   ry="25.699135"
   id="ellipse64"
   style="stroke-width:0.999966" />
</svg>
