<?xml version="1.0" encoding="UTF-8" standalone="no"?>
<!-- Generator: Adobe Illustrator 21.1.0, SVG Export Plug-In . SVG Version: 6.00 Build 0)  -->

<svg
   version="1.1"
   id="Layer_1"
   x="0px"
   y="0px"
   viewBox="0 0 470.09998 400.32886"
   xml:space="preserve"
   sodipodi:docname="owl.svg"
   width="470.10001"
   height="400.32886"
   inkscape:version="1.3.2 (091e20e, 2023-11-25)"
   xmlns:inkscape="http://www.inkscape.org/namespaces/inkscape"
   xmlns:sodipodi="http://sodipodi.sourceforge.net/DTD/sodipodi-0.dtd"
   xmlns="http://www.w3.org/2000/svg"
   xmlns:svg="http://www.w3.org/2000/svg"><defs
   id="defs164" /><sodipodi:namedview
   id="namedview164"
   pagecolor="#ffffff"
   bordercolor="#111111"
   borderopacity="1"
   inkscape:showpageshadow="0"
   inkscape:pageopacity="0"
   inkscape:pagecheckerboard="1"
   inkscape:deskcolor="#d1d1d1"
   inkscape:zoom="0.32395333"
   inkscape:cx="237.68856"
   inkscape:cy="203.73305"
   inkscape:window-width="1312"
   inkscape:window-height="449"
   inkscape:window-x="136"
   inkscape:window-y="25"
   inkscape:window-maximized="0"
   inkscape:current-layer="Layer_1" />
<style
   type="text/css"
   id="style1">
	.st0{fill:#D42E2D;}
	.st1{fill:#A7A9AC;}
	.st2{fill:#FDEF3C;}
	.st3{fill:#FFC430;}
	.st4{fill:#F5822B;}
	.st5{fill:#EBF1F4;}
	.st6{fill:none;}
	.st7{fill:#F1BF66;}
	.st8{opacity:0.4;fill:#55285B;}
	.st9{opacity:0.4;}
	.st10{fill:#55285B;}
	.st11{opacity:0.31;fill:#3F5C7E;}
	.st12{opacity:0.3;fill:#FFFFFF;}
	.st13{fill:#010101;}
	.st14{fill:#41B9EA;}
	.st15{fill:#FFFFFF;}
</style>
<path
   class="st0"
   d="m 204,303.7 c -6.3,-9 -51.5,-191.2 -15.1,-222.9 36.4,-31.7 78.5,-26.1 97.3,-22.6 47.6,8.9 59.8,118.6 65.4,150.3 5.5,31.7 6.2,58.2 6.4,66.9 0,3.4 -23.6,63.4 -27.4,70.1 -3.8,6.7 -72.8,11.8 -78.5,9.1 -5.7,-2.7 -48.1,-50.9 -48.1,-50.9"
   id="path1" />
<path
   class="st0"
   d="m 339.4,149 c 0,0 14.7,-8 27.3,-22.4 C 379.3,112.2 401,90 401,90 c 0,0 15.2,50.1 -2.3,81.2 -23.9,42.6 -48.5,48.3 -48.5,48.3 z"
   id="path2" />
<path
   class="st0"
   d="m 87.7,204.5 c 0,0 29,-1.9 50.8,-10.3 21.8,-8.3 36.9,-15.7 36.9,-15.7 l 13.4,74.6 c 0,0 -43.1,-4.2 -58.7,-12.9 -34,-18.8 -42.4,-35.7 -42.4,-35.7 z"
   id="path3" />
<circle
   transform="rotate(-81.042565)"
   class="st1"
   cx="-90.46418"
   cy="235.9523"
   id="ellipse3"
   r="28.699877"
   style="stroke-width:0.999996" />
<path
   class="st1"
   d="m 316.7,119.4 c -0.6,15.9 -13,28.3 -27.7,27.8 -14.7,-0.6 -27.2,-13.9 -26.6,-29.8 0.6,-15.9 14,-28.3 28.7,-27.7 14.8,0.4 26.2,13.8 25.6,29.7 z"
   id="path4" />
<path
   class="st2"
   d="m 241.2,127.9 c -0.4,11.8 -11.4,21 -23.2,20.5 -11.8,-0.4 -21,-10.4 -20.6,-22.2 0.4,-11.8 10.4,-22.1 22.2,-21.6 11.8,0.5 22,11.5 21.6,23.3 z"
   id="path5" />
<ellipse
   transform="rotate(-87.835761)"
   class="st2"
   cx="-107.92588"
   cy="293.87827"
   rx="21.600288"
   ry="20.30027"
   id="ellipse5"
   style="stroke-width:1.00001" />
<circle
   transform="rotate(-87.835761)"
   class="st3"
   cx="-122.33181"
   cy="221.18376"
   id="ellipse6"
   r="16.700224"
   style="stroke-width:1.00001" />
<path
   class="st3"
   d="m 304.5,124.4 c -0.3,8.9 -7.9,15.9 -16.8,15.6 -8.9,-0.3 -17,-7.9 -16.6,-16.8 0.4,-8.9 8.9,-16.9 17.9,-16.6 9,0.3 15.8,8.8 15.5,17.8 z"
   id="path6" />
<path
   class="st4"
   d="m 175.8,165.9 c 0,0 32.2,7.7 43.4,8.6 11.2,0.9 42.1,-1.2 42.1,-1.2 0,0 2.4,4.3 4.8,5 2.4,0.7 4.1,-5.3 4.1,-5.3 0,0 29.5,-6.3 41.3,-11 13.3,-5.3 28,-16.2 28,-16.2 l 7.5,37.6 c 0,0 -15.3,17.6 -18.6,22.4 -3.3,4.9 -19.5,18.7 -19.5,18.7 l -69.4,5.5 c 0,0 -24.3,-7.5 -32,-11.2 -7.7,-3.7 -27.1,-12.3 -27.1,-12.3 z"
   id="path7" />
<path
   class="st1"
   d="m 309.2,220.2 c -0.7,19.7 -19.7,35 -38.4,34.3 -18.7,-0.7 -33.3,-17.3 -32.5,-37 0.7,-19.7 16.5,-35.1 35.2,-34.4 18.8,0.7 36.5,17.3 35.7,37.1 z"
   id="path8" />
<path
   class="st5"
   d="m 302.8,219.8 c -0.6,14.7 -14.1,26.2 -30.3,25.6 -16.2,-0.6 -28.8,-13.1 -28.3,-27.8 0.6,-14.7 14.2,-28.3 30.4,-27.7 16.2,0.6 28.8,15.2 28.2,29.9 z"
   id="path9" />
<path
   class="st1"
   d="m 180.4,206.5 c 0,0 12.8,6.9 27.1,12.3 14.2,5.4 32,11.2 32,11.2 0,0 10,23.7 31.4,24.4 21.4,0.7 35.7,-21.4 36.8,-25.7 1.2,-4.3 14.1,-14.6 20.7,-23 6.6,-8.3 18.6,-22.4 18.6,-22.4 l 6.5,40.2 c 0,0 -23.7,31.4 -31.9,36.9 -8.2,5.5 -31.3,25 -31.3,25 0,0 -42.8,-11 -56.6,-15.1 -22.6,-6.6 -46.2,-23.1 -46.2,-23.1 z"
   id="path10" />
<line
   class="st6"
   x1="175.40001"
   y1="162.60001"
   x2="176"
   y2="162.60001"
   id="line10" />
<path
   class="st1"
   d="m 176,160.9 c 0,0 26.6,7.1 41.7,7.7 15.1,0.6 41.4,0.1 41.4,0.1 l 2.3,4.5 c 0,0 -30,2.9 -45.5,0.8 -15.5,-2.1 -40,-8.2 -40,-8.2 z"
   id="path11" />
<path
   class="st1"
   d="m 270.2,173 1.5,-5.5 c 0,0 30.1,-6.3 35.2,-8.3 11.7,-4.5 30.7,-17.4 30.7,-17.4 l 1.9,4 c 0,0 -24.5,16.6 -32.8,18.8 -8.3,2.3 -36.5,8.4 -36.5,8.4 z"
   id="path12" />
<path
   class="st7"
   d="m 266.1,178.3 c 0,0 -4.8,-3.9 -8.1,-9.6 -3.3,-5.6 -4.3,-9.8 -4.3,-9.8 0,0 0.8,-7 1.7,-11.5 0.7,-3.6 3.2,-9.8 3.2,-9.8 0,0 6.8,7 8.6,10.6 1.8,3.6 4.6,10 4.6,10 0,0 0.4,3.5 -0.1,9.1 -0.7,8.3 -5.6,11 -5.6,11 z"
   id="path13" />
<path
   class="st4"
   d="m 189.9,250.2 c 0,0 29.5,16.2 43.7,20.1 14.3,4 56.6,15.1 56.6,15.1 0,0 31.1,-23.3 37.9,-31 6.8,-7.7 25.3,-30.9 25.3,-30.9 l 2.7,38.9 c 0,0 -20.3,25.4 -28,31.6 -7.7,6.2 -35.6,24.2 -35.6,24.2 0,0 -36.2,-7.3 -49.9,-11.7 -13.7,-4.4 -46.3,-21.2 -46.3,-21.2 z"
   id="path14" />
<path
   class="st1"
   d="m 251,354.6 -14.2,-16 c 0,0 26.2,5.9 50.1,1 23.9,-4.9 49.6,-10.5 49.6,-10.5 l -5,17.5 c 0,0 -24.1,5.5 -43.7,6.2 -19.5,0.7 -36.8,1.8 -36.8,1.8 z"
   id="path15" />
<path
   class="st1"
   d="m 87.7,204.5 c 0,0 -23.3,4.5 -44.2,4.7 -20.9,0.2 -40.4,-0.3 -40.4,-0.3 L 19.6,229 c 14.8,2.3 30.2,4.8 44.9,5.1 15.7,0.4 38.6,-1.8 38.6,-1.8 0,0 -13.4,11.1 -23.7,15.4 -10.3,4.4 -44.7,2.2 -44.7,2.2 l 32.9,19.7 c 0,0 26.2,-0.7 36.1,-8.1 9.9,-7.4 22.6,-15.1 22.6,-15.1 0,0 -1.2,11.7 -8.5,22.5 -6,8.8 -22.8,17.3 -22.8,17.3 l 28.4,5.5 c 0,0 13.2,-7.1 19.4,-18 6.3,-10.9 9.4,-16.6 9.4,-16.6 0,0 4,13.7 1.2,21.1 -2.8,7.4 -7.2,16 -7.2,16 l 15.9,-1 c 0,0 6.5,-3.1 10.5,-15.5 3.6,-11.2 4.2,-17 4.2,-17 0,0 7.1,4.2 7.6,10.8 0.5,6.6 -2.6,15.1 -2.6,15.1 l 7.8,-1.1 4.1,-5.8 -5.2,-26.5 c 0,0 -38.9,-1.7 -66.7,-18.4 C 94,217.9 87.7,204.5 87.7,204.5 Z"
   id="path16" />
<path
   class="st1"
   d="m 354,217.9 1.9,23 c 0,0 1.2,0.1 2.9,-3.3 1.7,-3.4 1.3,-5.9 1.3,-5.9 0,0 3.1,3.3 9.6,5.3 7.6,2.4 21.6,0.2 21.6,0.2 0,0 -8.9,-4.4 -12.8,-9.3 -4.5,-5.6 -2.9,-13.6 -2.9,-13.6 0,0 0.2,3 13.6,6.7 13.4,3.7 25,3.3 25,3.3 l 14.7,-14.5 c 0,0 -9.6,2.9 -18.1,0.4 -8.7,-2.6 -14.7,-12.5 -14.7,-12.5 0,0 9.3,3.5 17.9,3.6 9.8,0.1 26.3,-7.1 26.3,-7.1 l 11.8,-14.8 c 0,0 -16.3,-0.3 -27.9,-0.4 -11.6,-0.2 -18,-7.6 -18,-7.6 0,0 9.2,0.9 26.9,-2.9 17.5,-3.7 25.6,-12.8 25.6,-12.8 l 8.1,-29.8 c 0,0 -15.3,15.8 -28.7,17.7 -13.3,1.9 -19.9,0.2 -19.9,0.2 0,0 21.2,-19.2 29.9,-24.7 8.7,-5.5 10.9,-19.6 12.8,-23.3 1.8,-3.7 -2.6,-29.3 -2.6,-29.3 0,0 -11.3,18.6 -20.5,28.7 -9.2,10.1 -21.4,14.2 -21.4,14.2 0,0 21.3,-30.5 27.7,-46.2 6.4,-15.7 5.5,-27.2 5.5,-27.2 L 438.9,10 c 0,0 -4.4,18.8 -11.4,32.5 -7,13.7 -27.9,47.7 -27.9,47.7 0,0 7.3,13 7,43.2 -0.4,37.8 -21.8,59.2 -27.1,66.1 -4.8,6.6 -25.5,18.4 -25.5,18.4 z"
   id="path17" />
<polygon
   class="st1"
   points="221.1,230.6 209.5,240.4 187.4,201.3 192.7,197.9 "
   id="polygon17"
   transform="translate(-21.7,-159.6)" />
<polygon
   class="st1"
   points="329.8,183.8 321.7,224.4 309,217.9 324.2,181.2 "
   id="polygon18"
   transform="translate(-21.7,-159.6)" />
<circle
   transform="rotate(-87.835761)"
   class="st0"
   cx="-25.375021"
   cy="165.07715"
   id="ellipse18"
   r="9.0001202"
   style="stroke-width:1.00001" />
<circle
   transform="rotate(-87.835761)"
   class="st0"
   cx="-2.9870317"
   cy="307.61996"
   id="ellipse19"
   r="8.7001162"
   style="stroke-width:1.00001" />
<path
   class="st8"
   d="m 258.6,137.7 c 0,0 -0.3,8.3 1.9,19.8 2,10.5 6.6,21.9 6.6,21.9 0,0 -7.8,-2.2 -12.5,-6.5 -4.7,-4.3 -7,-7.6 -6.5,-10.5 1.7,-8.6 10.5,-24.7 10.5,-24.7 z"
   id="path19" />
<path
   class="st8"
   d="m 261.8,108.7 c 0,0 -2.1,11.8 -1.1,19.5 1,7.6 7.6,20.7 20.6,22.7 20,3.2 29.3,-10.9 29.3,-10.9 0,0 -17.6,11.4 -29.1,5.6 -11.5,-5.8 -20.6,-20.8 -20.5,-23.5 -0.1,-2.5 0.8,-13.4 0.8,-13.4 z"
   id="path20" />
<path
   class="st8"
   d="m 240.5,202 c 0,0 -4.6,20.8 -2.2,27.7 3,8.3 12,20 27.8,23.9 16,4 33.6,-9.5 33.6,-9.5 0,0 -25.3,33.3 -54.4,9.5 C 221,233.5 240.5,202 240.5,202 Z"
   id="path21" />
<path
   class="st8"
   d="m 171.4,37.8 c 0,0 1.8,2.5 0.2,4.6 -1.2,1.5 -1.4,1.7 -1.4,1.7 l 18.4,30.2 8.9,-3.4 -11,10.9 -20.8,-40.1 5.2,-3.4 z"
   id="path22" />
<path
   class="st8"
   d="m 175.4,178.6 c 0,0 -1,25.3 1,41.7 4,33.5 17.6,59.4 17.6,59.4 0,0 -9.1,-41.8 -9.9,-51.8 -0.8,-10 -8.7,-49.3 -8.7,-49.3 z"
   id="path23" />
<path
   class="st8"
   d="m 86,205.7 c 0,0 16.2,27 47.7,39.4 33.1,13 51.5,8.8 51.5,8.8 0,0 -35.1,-3.3 -54.3,-14.2 C 112,229 86,205.7 86,205.7 Z"
   id="path24" />
<path
   class="st8"
   d="m 10.1,209.1 c 0,0 5.3,12.6 12.5,15.9 21.3,9.5 80.3,5.8 80.3,5.8 L 71.3,235.4 20.6,230.1 3.1,208.9 Z"
   id="path25" />
<path
   class="st8"
   d="m 49.3,250.2 c 0,0 -6.5,1.2 -2.2,4 4.3,2.8 15.6,9.8 21.2,11.8 3.4,1.2 26.1,-3.7 34.7,-7.3 10.3,-4.3 26,-15.5 26,-15.5 l -23.2,18.6 c 0,0 -16.8,5.9 -24.1,6.7 -7.3,0.8 -12.1,2.8 -12.1,2.8 L 34.7,250 Z"
   id="path26" />
<path
   class="st8"
   d="m 97,285.3 c 0,0 1.4,1.5 10.7,3.3 9.3,1.8 15.8,3.1 15.8,3.1 0,0 18.9,-12.8 21.7,-17.5 2.8,-4.8 7.9,-21.5 7.9,-21.5 0,0 -9.7,18.1 -16.7,24.8 -7,6.7 -9.5,8.9 -14,10.2 C 117.9,289 97,285.3 97,285.3 Z"
   id="path27" />
<path
   class="st8"
   d="m 149.2,288.2 -3,6.6 18.5,-2.1 8.1,-17.6 c 0,0 -5.6,9 -9.5,14 -2.6,3.3 -10.5,2.6 -10.5,2.6 -2.4,-0.3 -3.6,-3.5 -3.6,-3.5 z"
   id="path28" />
<path
   class="st8"
   d="m 184.7,279.3 c 0,0 -0.1,4.1 2.4,4.1 2.6,0.1 6.7,-5 6.7,-5 0,0 0.6,3.4 -1,4.7 -1.6,1.3 -4.8,2.9 -4.8,2.9 l -6.1,1 z"
   id="path29" />
<path
   class="st8"
   d="m 303.2,21.6 5.6,2.7 c 0,0 -2.5,1.8 -4.9,1.5 l -14.1,31.7 c 0,0 3.1,2.3 5.8,4 2.3,1.5 5.1,3.4 5.1,3.4 l -14.3,-6.6 z"
   id="path30" />
<path
   class="st8"
   d="m 305.9,6.4 c 0,0 -6.7,2.6 -2.8,9.9 2.9,5.6 9.5,4.3 9.5,4.3 l -2.7,2.7 c 0,0 -5.8,1.3 -9,-2.4 -3.3,-3.8 -2.5,-9.2 -0.5,-11.1 2,-2 5.5,-3.4 5.5,-3.4 z"
   id="path31" />
<path
   class="st8"
   d="m 158.2,24.7 c 0,0 -3.8,5.5 2.9,9.8 6.7,4.3 11.9,-1.8 11.9,-1.8 l -2.1,5.6 -6.6,2.9 -7.3,-3.5 -2.7,-7.5 z"
   id="path32" />
<g
   class="st9"
   id="g35"
   transform="translate(-21.7,-159.6)">
	<path
   class="st10"
   d="m 264.4,220.3 c 0.1,0 0.1,0 0,0 0.1,0 0.1,0 0,0 z"
   id="path33" />
	<path
   class="st10"
   d="m 340.8,508.7 c 0.1,0 0.2,0 0.2,0 0,0 -0.1,-0.1 -0.2,0 z"
   id="path34" />
	<path
   class="st10"
   d="m 348.9,453.6 c -5.7,5.6 -34.2,25.8 -36.5,24.6 -2.3,-1.1 -35.2,-7.6 -47.3,-12.8 -3.8,-1.6 -9.4,-4 -15.4,-6.5 -9.1,-22.1 -17.9,-49.7 -23.5,-78.1 -4.9,-24.5 -6.9,-60.8 -6.9,-60.8 0,0 16.4,3.5 25.1,-0.4 9.1,-4.1 17.8,-12.9 17.8,-12.9 0,0 -25.4,20.1 -43.8,-3.2 -7.3,-9.3 -5.1,-26.4 -3.2,-30.3 1.9,-4 12.6,-12.4 12.6,-12.4 0,0 3.3,-12.7 12.4,-25.8 8.7,-12.7 23.2,-14.6 24.3,-14.8 -1.5,0.2 -31.3,3.9 -50,22.4 -19.1,19 -11.8,92.4 -9.1,119.1 2,19.9 12.7,61.7 20.6,87.4 -2.8,-1.1 -4.5,-1.8 -4.5,-1.8 0,0 1.8,1.1 4.7,2.7 1,3.2 1.9,6.2 2.8,8.8 1,3 2.4,5.9 4.5,8.4 l 39.8,43.2 3.6,3.9 c 0,0 18,-1.4 24.6,-1.6 6.2,-0.3 36.7,-3.7 39.3,-4 -3.5,0.4 -52.7,5.8 -63.7,-2.4 -6.7,-5.1 -16.3,-20.9 -25.6,-42.7 6.4,3.1 12.6,5.8 17.2,7.2 15.1,4.5 39.2,10.3 43.5,10.2 4.4,-0.1 21.1,-9.7 33.4,-20.4 12.3,-10.7 30.9,-37 30.9,-37 0,0 -21.9,24.4 -27.6,30 z"
   id="path35" />
</g>
<path
   class="st8"
   d="m 354,217.9 c 0,0 31.3,-14.3 45.7,-49.7 12.8,-31.6 3.9,-67.7 3.9,-67.7 0,0 11.5,41.4 -2.6,70.5 -19,39.5 -47,46.9 -47,46.9 z"
   id="path36" />
<path
   class="st8"
   d="m 355.7,216.7 c 0,0 1.4,5 7.2,10.3 5.8,5.3 11.1,8.2 14.4,8.2 3.2,0 7.9,-1.7 7.9,-1.7 l 6.3,3.7 c 0,0 -14.4,2 -17.8,2.1 -3.4,0.1 -13.9,-8.6 -13.9,-8.6 0,0 2.1,3.7 -0.8,7 -2.9,3.3 -2.9,3.3 -2.9,3.3 L 352,216.8 Z"
   id="path37" />
<path
   class="st8"
   d="m 373.9,211.7 c 0,0 11.2,5.8 20.3,7.7 9,1.9 14.8,1.2 18.3,1.6 3.6,0.3 11.1,-9.4 11.1,-9.4 L 427,209 c 0,0 -8.5,12.7 -11.3,14 -2.8,1.3 -19.9,0.2 -21.6,0 -9.5,-1.2 -20.2,-11.3 -20.2,-11.3 z"
   id="path38" />
<path
   class="st8"
   d="m 391.2,195.6 c 0,0 9.7,1.1 22.5,1.6 11,0.4 18.3,-2.3 22.4,-3.8 4.1,-1.6 14.2,-14.4 14.2,-14.4 l 3.2,-0.8 c 0,0 -10.9,16.7 -14.3,18.4 -3.4,1.7 -20.6,4.8 -24.9,4.6 -3.8,-0.1 -22.6,-5.4 -23.1,-5.6 z"
   id="path39" />
<path
   class="st8"
   d="m 401.1,171 c 0,0 39.1,-6 43.8,-9.3 4.7,-3.3 7,-3.9 9.4,-6.8 2.5,-2.9 10.1,-24.6 10.1,-24.6 l 2,-2.3 -7.5,27.6 -4.8,5.2 -18.2,7 z"
   id="path40" />
<path
   class="st8"
   d="m 417.2,143.7 c 0,0 25.7,-22.3 29.9,-28 4.1,-5.7 9.9,-15.8 10.5,-20.1 0.6,-4.3 -0.2,-24 -0.2,-24 l 4.1,16.6 -2.6,14.3 -6.9,13.4 z"
   id="path41" />
<path
   class="st11"
   d="m 274.6,194 c -11.4,-0.4 -21.3,7.1 -24.3,17.7 4.1,-2.7 9,-4.2 14.2,-4 13.3,0.5 23.8,11.7 23.3,25.1 -0.1,2.1 -0.4,4.2 -1,6.1 6.5,-4.1 11,-11.3 11.3,-19.6 0.4,-13.5 -10.1,-24.8 -23.5,-25.3 z m 11.4,9.1 c -0.7,1.7 -3.9,2 -7.1,0.7 -3.2,-1.4 -5.2,-3.9 -4.5,-5.6 0.7,-1.7 3.9,-2 7.1,-0.7 3.3,1.4 5.3,3.9 4.5,5.6 z"
   id="path42" />
<ellipse
   transform="rotate(-71.844081)"
   class="st12"
   cx="23.14773"
   cy="288.9574"
   rx="4.6999402"
   ry="13.999823"
   id="ellipse42"
   style="stroke-width:0.999987" />
<circle
   transform="rotate(-87.835761)"
   class="st12"
   cx="-21.085491"
   cy="166.974"
   id="ellipse43"
   r="2.3000307"
   style="stroke-width:1.00001" />
<circle
   transform="rotate(-87.835761)"
   class="st12"
   cx="1.1087797"
   cy="309.94537"
   id="ellipse44"
   r="2.2000294"
   style="stroke-width:1.00001" />
<ellipse
   transform="rotate(-7.7298131)"
   class="st12"
   cx="309.72702"
   cy="242.25372"
   rx="3.5999515"
   ry="66.199104"
   id="ellipse45"
   style="stroke-width:0.999987" />
<g
   id="inks"
   transform="translate(-21.7,-159.6)">
	<path
   class="st13"
   d="m 310.4,300.8 c -12,-0.5 -21.3,-10.9 -20.9,-23.4 0.5,-12.4 10.6,-22.2 22.6,-21.7 12,0.5 21.3,10.9 20.9,23.4 -0.4,12.5 -10.6,22.2 -22.6,21.7 z m 1.6,-42.9 c -10.8,-0.4 -20,8.4 -20.4,19.7 -0.4,11.3 8,20.8 18.9,21.2 10.8,0.4 20,-8.4 20.4,-19.7 0.4,-11.3 -8.1,-20.8 -18.9,-21.2 z"
   id="path45" />
	<path
   class="st13"
   d="m 281.7,515.7 c -4.3,-0.2 -7.7,-0.6 -9.5,-1.5 v 0 c -4.1,-2.2 -38.8,-39.3 -44.8,-46.6 -14.8,-17.9 -30.7,-115.5 -31.5,-140 0,-1.5 -0.1,-3.4 -0.2,-5.5 -1,-20.5 -3.4,-68.5 19,-88.2 21,-18.5 81.3,-28 105.8,-11.7 25.6,17.1 40.5,69.9 48.4,111.2 9,46.8 11.8,91.7 11.4,101.7 -0.5,11.8 -23.3,65.8 -27.4,71.2 -3.1,4 -32.6,7.2 -38.5,7.8 -4.5,0.4 -21.4,2 -32.7,1.6 z m -8,-4.3 c 3.4,1.8 19.8,1.6 39.8,-0.4 20.7,-2.1 35.2,-5.1 36.8,-6.7 3.9,-5.1 26.3,-58.3 26.8,-69.3 0.4,-9.9 -2.4,-54.4 -11.3,-100.9 -7.8,-40.7 -22.3,-92.7 -47,-109.2 -23.5,-15.7 -81.7,-6.4 -102,11.4 -21.2,18.7 -18.9,65.7 -17.9,85.7 0.1,2.2 0.2,4.1 0.3,5.6 0.9,27 17.3,121.8 30.8,138.1 7.1,8.6 40.4,44 43.7,45.7 z"
   id="path46" />
	<path
   class="st13"
   d="m 293.6,415.5 c -20.6,-0.8 -36.7,-18.2 -35.9,-38.7 0.8,-20.6 18.2,-36.7 38.7,-35.9 20.6,0.8 36.7,18.2 35.9,38.7 -0.8,20.5 -18.2,36.7 -38.7,35.9 z m 2.7,-71.5 c -18.9,-0.7 -34.8,14 -35.5,32.9 -0.7,18.9 14,34.8 32.9,35.5 18.9,0.7 34.8,-14 35.5,-32.9 0.7,-18.9 -14.1,-34.8 -32.9,-35.5 z"
   id="path47" />
	<path
   class="st13"
   d="m 294,407.3 c -16.2,-0.6 -28.8,-14.3 -28.2,-30.4 0.6,-16.2 14.3,-28.8 30.4,-28.2 16.2,0.6 28.8,14.3 28.2,30.4 -0.5,16.2 -14.2,28.9 -30.4,28.2 z m 2.2,-56.5 c -15,-0.6 -27.7,11.2 -28.2,26.2 -0.5,15 11.2,27.7 26.2,28.2 15,0.6 27.7,-11.2 28.2,-26.2 0.5,-14.9 -11.2,-27.6 -26.2,-28.2 z"
   id="path48" />
	<path
   class="st13"
   d="m 240,316.7 c -16.6,-0.6 -29.5,-14.6 -28.9,-31.2 0.6,-16.6 14.6,-29.5 31.2,-28.9 16.6,0.6 29.5,14.6 28.9,31.2 -0.7,16.6 -14.6,29.5 -31.2,28.9 z m 2.2,-56.9 c -14.8,-0.6 -27.3,11 -27.9,25.9 -0.6,14.8 11,27.3 25.9,27.9 14.8,0.6 27.3,-11 27.9,-25.9 0.5,-14.8 -11.1,-27.4 -25.9,-27.9 z"
   id="path49" />
	<path
   class="st13"
   d="m 310.2,308.2 c -16.4,-0.6 -29.2,-14.4 -28.5,-30.8 0.7,-16.4 14.4,-29.2 30.8,-28.5 16.4,0.6 29.2,14.4 28.5,30.8 -0.6,16.3 -14.5,29.1 -30.8,28.5 z m 2.1,-56.2 c -14.6,-0.6 -27,10.9 -27.5,25.5 -0.6,14.6 10.9,27 25.5,27.5 14.6,0.6 27,-10.9 27.5,-25.5 0.6,-14.6 -10.9,-26.9 -25.5,-27.5 z"
   id="path50" />
	<path
   class="st13"
   d="m 376.9,402.2 c -0.7,0 -1.1,-0.5 -1.3,-0.8 -0.8,-1.4 0.5,-2.3 2.4,-3.7 2.6,-1.9 2.3,-6.7 2.3,-6.7 l -0.3,-3.5 2.8,2.2 c 0,0 4.5,3.5 9.4,6 2.9,1.5 10.7,0.9 16,0.2 -3.2,-2.2 -7.6,-5.3 -9.2,-7.3 -2.6,-3.2 -3.3,-13.2 -3.3,-14.3 l -0.2,-3 2.6,1.5 c 0.1,0.1 12.8,7.7 18.6,8.4 l 1.6,0.2 c 5.8,0.7 14.7,1.8 17.9,0.5 2,-0.8 6.3,-5.5 9.8,-9.7 -3.2,0.3 -8,0.3 -13.3,-1.5 -9.6,-3.2 -17.4,-12.6 -17.7,-13 l -3,-3.7 4.6,1.1 c 7.5,1.9 18.9,4.3 20.9,3.9 0.5,-0.1 1.1,-0.2 2,-0.3 4.6,-0.7 15.5,-2.5 19.7,-5.2 5,-3.3 10.4,-10 13.3,-13.7 -6.6,0.5 -20.9,1.4 -28.4,0.6 -7.7,-0.8 -16.9,-8 -17.3,-8.3 l -3.1,-2.5 4,-0.3 c 0.2,0 23,-2 30.7,-3.9 12,-2.9 19.3,-8.3 21.2,-11.3 1.3,-2 4.5,-14.5 6.8,-24.4 -4,3.3 -10.6,8.4 -17.5,11.6 -10.9,5 -28.1,3.3 -28.9,3.3 l -4,-0.4 3.2,-2.4 c 8.8,-6.7 32.4,-25.1 35,-29.4 3.3,-5.4 6.3,-13.4 7.5,-18.2 0.7,-2.9 -0.8,-14.1 -2.3,-23.1 -3.2,5.8 -9.6,16.7 -17.4,24.8 -11.1,11.5 -23.2,14.2 -23.7,14.3 l -4.1,0.9 2.5,-3.3 c 0.2,-0.3 19.5,-26.3 26.5,-39.6 7.5,-14.1 7,-28.4 6.7,-32.4 -0.3,-3.7 -5.4,-15.8 -9,-23.8 -2.2,13.9 -12,51.7 -54.3,98.7 -17.3,19.1 -43.4,39.6 -43.6,39.8 l -1.9,-2.5 c 0.3,-0.2 26.2,-20.5 43.2,-39.5 51.9,-57.5 54.2,-102 54.2,-102.4 l 0.2,-6.5 2.7,5.9 c 0.5,1 11.1,23.8 11.6,30 0.3,4.3 0.8,19.3 -7,34.2 -5.5,10.5 -18.1,28.2 -23.9,36 4.3,-1.8 11.2,-5.3 17.6,-11.9 10.6,-11 18.9,-27.9 19,-28.1 l 2.1,-4.3 0.9,4.7 c 0.5,2.4 4.4,23.8 3.1,28.9 -1.2,5 -4.4,13.4 -7.9,19.1 -2.9,4.7 -23.8,21.1 -32.4,27.7 5.7,0.2 16,0 23.1,-3.2 10.3,-4.7 20.3,-14.2 20.4,-14.2 l 3.8,-3.6 -1.1,5.1 c -0.6,2.7 -6,26.7 -8.3,30.2 -2.7,4.2 -10.9,9.7 -23.1,12.6 -5.9,1.4 -19.8,2.9 -26.9,3.5 3.2,2.1 8.1,4.8 12.2,5.2 9.4,1 31,-0.9 31.2,-0.9 l 3.3,-0.3 -1.9,2.7 c -0.3,0.5 -8.4,12.3 -16.1,17.3 -4.7,3.1 -15.7,4.9 -20.9,5.7 -0.8,0.1 -1.5,0.2 -1.9,0.3 -2.4,0.4 -11.1,-1.4 -17,-2.7 3,2.9 7.6,6.6 12.7,8.3 8.7,2.9 15.7,0.7 15.7,0.6 l 4.9,-1.6 -3.1,4.1 c -1,1.3 -9.6,12.3 -13.7,14 -3.7,1.5 -11,0.8 -19.5,-0.3 l -1.6,-0.2 c -4.8,-0.6 -13,-4.9 -17.2,-7.3 0.4,3.7 1.2,8.1 2.4,9.5 1.8,2.2 9.2,7.1 11.9,8.9 l 3.4,2.2 -3.9,0.7 c -1.7,0.3 -16.5,2.9 -22,0.1 -3,-1.5 -5.7,-3.3 -7.5,-4.6 -0.3,2.1 -1.2,4.8 -3.5,6.4 -1.3,0.9 -1.6,1.2 -1.6,1.2 0.3,-0.3 -0.5,0.5 -0.9,-0.1 -0.3,-0.5 0,0 -0.4,0 l 1.4,0.5 c -1.1,0.3 -1.5,0.4 -1.9,0.3 z"
   id="path51" />
	<path
   class="st13"
   d="m 165.2,455.8 1.4,-2.3 c 0.1,-0.1 5.9,-9.8 7.4,-16.1 1,-3.8 0.1,-11 -0.7,-16 -1.6,3.7 -3.9,8.7 -6.5,12.4 -4.7,6.9 -13.6,15 -18.6,18 -5.3,3.1 -29.1,-3.4 -33.8,-4.7 l -6.1,-1.7 6.2,-1.3 c 0.1,0 13.7,-3 22.2,-13.8 3,-3.8 6.8,-14.2 8.9,-20.4 -4.3,3.4 -11.2,8.7 -15.4,11.8 -6,4.4 -31.1,9.9 -38.9,9.2 -7.5,-0.6 -34.2,-18.2 -37.2,-20.2 l -4.5,-3 5.4,0.1 c 16.5,0.4 42.4,0.3 46.2,-1.4 6.9,-3.1 14.5,-8.9 18.9,-12.5 -7.8,0.6 -23,1.8 -31,1.7 -10.2,-0.1 -40.1,-3.4 -46.8,-5.9 -6.4,-2.4 -17.6,-19 -18.8,-20.9 l -1.8,-2.6 3.2,0.2 c 0.7,0 70.7,4.4 124.6,-11.5 26.3,-7.7 47.7,-19.4 47.9,-19.5 l 0.4,3.8 c -0.2,0.1 -20.8,10.9 -47.4,18.7 -47.8,14.1 -108,12.4 -122.5,11.7 4.1,5.8 11.6,15.5 15.5,17 5.8,2.2 34.9,5.6 45.7,5.7 10.6,0.1 35.3,-2.1 35.6,-2.1 l 4.6,-0.4 -3.4,3.1 c -0.5,0.5 -12.4,11.3 -23.4,16.2 -4.7,2.1 -30.3,2 -42.1,1.8 9.8,6.3 26.4,16.3 31.2,16.7 7.1,0.6 31.5,-4.7 36.8,-8.6 6.5,-4.8 19.3,-14.9 19.4,-15 l 4,-3.1 -1.5,4.8 c -0.3,0.8 -6.3,20.3 -11,26.3 -5.8,7.4 -13.6,11.3 -18.7,13.2 10.6,2.7 23.5,5.2 26.1,3.6 4.7,-2.8 13.3,-10.7 17.6,-17 4.3,-6.2 8.1,-16.7 8.2,-16.8 l 1.9,-5.2 1.1,5.4 c 0.1,0.6 3.3,15.9 1.6,22.8 -1.2,4.8 -4.5,11.2 -6.4,14.6 4.8,0 10.9,-0.4 12.9,-1.6 3.4,-2.2 7.2,-8.1 9.2,-14.4 0.1,-0.5 0.4,-1 0.6,-1.7 1.1,-3 3,-8.1 3.1,-15.1 v -3.1 l 2.5,1.9 c 0.2,0.2 5.3,4 7.8,10.6 2,5.3 0,11.9 -1.3,15.3 1.5,-0.1 3.5,-0.3 5.1,-1 2.4,-1.1 4.5,-5 5.1,-6.5 l 2.9,1.2 c -0.3,0.6 -2.8,6.3 -6.7,8.1 -3.8,1.7 -8.7,1.3 -8.9,1.3 l -2.3,-0.2 1,-2.1 c 0,-0.1 4.4,-9 2.1,-15.1 -1.1,-3 -2.9,-5.4 -4.3,-7 -0.5,5.9 -2.2,10.2 -3.1,12.8 -0.2,0.6 -0.4,1.1 -0.5,1.5 -2.2,7 -6.5,13.4 -10.5,16.1 -3.9,2.5 -15.9,2.1 -17.3,2.1 z"
   id="path52" />
	<path
   class="st13"
   d="m 211.4,292.4 -6.3,-0.2 c -1.2,0 -2.1,-1 -2,-2.2 0,-1.2 1,-2.1 2.2,-2 l 6.3,0.2 c 1.2,0 2.1,1 2,2.2 -0.1,1.1 -1.1,2 -2.2,2 z"
   id="path53" />
	<path
   class="st13"
   d="m 208.3,304.9 c -0.8,0 -1.5,-0.5 -1.8,-1.3 -0.5,-1.1 0,-2.3 1.1,-2.8 l 6.6,-2.8 c 1.1,-0.5 2.3,0 2.8,1.1 0.5,1.1 0,2.3 -1.1,2.8 l -6.6,2.8 c -0.4,0.1 -0.7,0.2 -1,0.2 z"
   id="path54" />
	<path
   class="st13"
   d="m 215.4,316.3 c -0.5,0 -1,-0.2 -1.3,-0.6 -0.8,-0.8 -0.9,-2.1 -0.1,-3 l 5.3,-5.6 c 0.8,-0.8 2.1,-0.9 3,-0.1 0.8,0.8 0.9,2.1 0.1,3 l -5.3,5.6 c -0.6,0.5 -1.2,0.7 -1.7,0.7 z"
   id="path55" />
	<path
   class="st13"
   d="m 341.3,302.6 c -0.5,0 -1,-0.2 -1.4,-0.6 l -5.4,-5.4 c -0.8,-0.8 -0.8,-2.1 0,-3 0.8,-0.8 2.1,-0.8 3,0 l 5.4,5.4 c 0.8,0.8 0.8,2.1 0,3 -0.4,0.4 -1,0.6 -1.6,0.6 z"
   id="path56" />
	<path
   class="st13"
   d="m 346.7,289.5 c -0.1,0 -0.1,0 -0.2,0 l -6.6,-0.9 c -1.1,-0.2 -1.9,-1.2 -1.8,-2.4 0.1,-1.2 1.2,-1.9 2.4,-1.8 l 6.6,0.9 c 1.1,0.2 1.9,1.2 1.8,2.4 -0.2,1.1 -1.1,1.8 -2.2,1.8 z"
   id="path57" />
	<path
   class="st13"
   d="m 340.5,277.9 c -1,0 -1.8,-0.8 -2,-1.8 -0.2,-1.1 0.6,-2.2 1.7,-2.4 l 5.3,-0.8 c 1.1,-0.2 2.2,0.6 2.4,1.7 0.2,1.1 -0.6,2.2 -1.7,2.4 l -5.3,0.8 c -0.1,0.1 -0.2,0.1 -0.4,0.1 z"
   id="path58" />
	<path
   class="st13"
   d="m 206.9,413.5 c -8.5,-0.3 -32.5,-2.1 -51.2,-11.5 -34.6,-17.5 -47.5,-36 -48,-36.7 l 1.7,-1.2 c 0.1,0.2 13.2,18.8 47.2,36.1 22.5,11.4 53,11.4 53.3,11.4 v 2.1 c 0,-0.1 -1.1,-0.1 -3,-0.2 z"
   id="path59" />
	<path
   class="st13"
   d="m 374.1,378.3 -0.6,-2 c 0.3,-0.1 29.5,-9 46,-47.6 16.6,-38.7 2.3,-78.7 2.2,-79.1 l 2,-0.7 c 0.1,0.4 14.7,41.2 -2.2,80.7 -17,39.5 -47.1,48.7 -47.4,48.7 z"
   id="path60" />
	<g
   id="g75">
		<path
   class="st6"
   d="m 286.7,329 c -1.7,0.2 -3.5,0.4 -5.2,0.6 0.5,0.8 1.1,1.6 1.6,2.3 1.4,-0.1 2.8,-0.3 4.2,-0.5 1.3,-0.2 2.5,-0.3 3.8,-0.5 0.2,-0.8 0.3,-1.7 0.5,-2.5 -1.6,0.2 -3.3,0.4 -4.9,0.6 z"
   id="path61" />
		<path
   class="st6"
   d="m 291.9,326.2 c 0.5,-3.9 0.6,-7.5 0.4,-8.8 -0.6,-3.3 -9.7,-17.5 -12,-18.9 -1.6,1.9 -3.5,15.1 -3.7,20.3 -0.1,1.7 1.6,5.3 3.7,8.8 2,-0.2 4.1,-0.4 6.2,-0.7 1.8,-0.2 3.6,-0.5 5.4,-0.7 z"
   id="path62" />
		<path
   class="st6"
   d="m 284.6,333.8 c 1.5,1.8 2.9,3.1 3.9,3.4 0,0 0.1,0 0.3,-0.1 0.7,-0.6 1.3,-2.1 1.8,-4 -1,0.1 -2,0.3 -3,0.4 -1,0.1 -2,0.2 -3,0.3 z"
   id="path63" />
		<path
   class="st13"
   d="m 359.6,302 c 0.4,-0.4 0.3,-1.1 -0.1,-1.5 -0.4,-0.4 -1.1,-0.3 -1.5,0.1 -0.2,0.2 -17,18 -64,25.2 -0.1,0.7 -0.2,1.4 -0.3,2.2 48.3,-7.2 65.3,-25.2 65.9,-26 z"
   id="path64" />
		<path
   class="st13"
   d="m 198.1,319.4 c -0.5,-0.2 -1.1,0.1 -1.4,0.6 -0.2,0.5 0.1,1.1 0.6,1.4 0.3,0.1 21.1,7.9 53.9,9.2 8.8,0.3 17.5,0.1 27.9,-0.8 -0.4,-0.7 -0.8,-1.3 -1.2,-2 -47.8,3.9 -79.4,-8.3 -79.8,-8.4 z"
   id="path65" />
		<path
   class="st13"
   d="m 360.4,305 c -0.4,-0.4 -1.1,-0.3 -1.5,0.1 -0.2,0.2 -17.4,18.4 -65.6,25.5 -0.1,0.8 -0.3,1.5 -0.5,2.2 49.7,-7.1 67,-25.5 67.7,-26.3 0.4,-0.5 0.4,-1.2 -0.1,-1.5 z"
   id="path66" />
		<path
   class="st13"
   d="m 199,323.9 c -0.5,-0.2 -1.1,0.1 -1.4,0.6 -0.2,0.5 0.1,1.1 0.6,1.4 0.3,0.1 21.1,7.9 53.9,9.2 9.4,0.4 18.8,0.1 30,-1 -0.5,-0.6 -1,-1.3 -1.5,-2 -48.8,4.4 -81.3,-8.1 -81.6,-8.2 z"
   id="path67" />
		<path
   class="st13"
   d="m 276.5,318.7 c 0.2,-5.2 2.1,-18.4 3.7,-20.3 2.3,1.4 11.4,15.6 12,18.9 0.3,1.3 0.1,5 -0.4,8.8 0.7,-0.1 1.5,-0.2 2.2,-0.3 0.4,-3.9 0.5,-7.5 0.3,-8.9 -0.6,-3.3 -9.8,-18.5 -13.2,-20.4 -0.7,-0.4 -1.2,-0.3 -1.5,-0.2 v 0 c -3.2,1.3 -5,18.9 -5.1,22.3 -0.1,1.9 1.4,5.4 3.5,9.1 0.8,-0.1 1.5,-0.1 2.3,-0.2 -2.2,-3.5 -3.9,-7 -3.8,-8.8 z"
   id="path68" />
		<path
   class="st13"
   d="m 281.5,329.5 c -0.8,0.1 -1.6,0.1 -2.4,0.2 0.5,0.8 1,1.6 1.5,2.3 0.8,-0.1 1.6,-0.1 2.5,-0.2 -0.5,-0.7 -1.1,-1.5 -1.6,-2.3 z"
   id="path69" />
		<path
   class="st13"
   d="m 291.1,330.9 c 0.7,-0.1 1.5,-0.2 2.2,-0.3 0.2,-0.8 0.3,-1.7 0.4,-2.5 -0.7,0.1 -1.5,0.2 -2.2,0.3 -0.1,0.8 -0.2,1.6 -0.4,2.5 z"
   id="path70" />
		<path
   class="st13"
   d="m 288.8,337 c -0.2,0.2 -0.3,0.2 -0.3,0.1 -1,-0.3 -2.4,-1.6 -3.9,-3.4 -0.8,0.1 -1.7,0.2 -2.5,0.3 2.1,2.6 4.2,4.6 5.8,5.1 0.2,0.1 0.4,0.1 0.6,0.1 0.6,0 1.2,-0.2 1.8,-0.7 1.1,-1 2,-3.2 2.6,-5.8 -0.7,0.1 -1.5,0.2 -2.2,0.3 -0.6,1.9 -1.2,3.4 -1.9,4 z"
   id="path71" />
		<path
   class="st13"
   d="m 280.2,327.5 c -0.8,0.1 -1.6,0.1 -2.3,0.2 0.4,0.7 0.8,1.3 1.2,2 0.8,-0.1 1.6,-0.1 2.4,-0.2 -0.4,-0.6 -0.9,-1.3 -1.3,-2 z"
   id="path72" />
		<path
   class="st13"
   d="m 291.6,328.3 c 0.8,-0.1 1.5,-0.2 2.2,-0.3 0.1,-0.7 0.2,-1.4 0.3,-2.2 -0.7,0.1 -1.4,0.2 -2.2,0.3 -0.1,0.8 -0.2,1.5 -0.3,2.2 z"
   id="path73" />
		<path
   class="st13"
   d="m 291.1,330.9 c -0.2,0.8 -0.3,1.5 -0.5,2.2 0.7,-0.1 1.5,-0.2 2.2,-0.3 0.2,-0.7 0.3,-1.4 0.5,-2.2 -0.7,0.1 -1.5,0.2 -2.2,0.3 z"
   id="path74" />
		<path
   class="st13"
   d="m 283.1,331.8 c -0.8,0.1 -1.6,0.2 -2.5,0.2 0.5,0.7 1,1.3 1.5,2 0.8,-0.1 1.7,-0.2 2.5,-0.3 -0.5,-0.5 -1,-1.2 -1.5,-1.9 z"
   id="path75" />
	</g>
	<path
   class="st13"
   d="m 261.2,391.7 c -0.1,0 -14.3,-4.4 -27.4,-9.2 -14.9,-5.4 -32.9,-15.4 -33.1,-15.5 l 1,-1.8 c 0.2,0.1 18.1,10 32.8,15.3 13,4.7 27.1,9.1 27.3,9.1 z"
   id="path76" />
	<path
   class="st13"
   d="m 331.2,384.9 -1.4,-1.6 c 0.1,-0.1 14.8,-12.5 23.3,-22.1 7.5,-8.5 14.7,-18.6 14.8,-18.7 l 1.7,1.2 c -0.1,0.1 -7.3,10.4 -14.9,18.9 -8.6,9.7 -23.3,22.2 -23.5,22.3 z"
   id="path77" />
	<path
   class="st13"
   d="m 310.8,445.4 c -3,-0.1 -36.7,-7.4 -60.9,-16.3 -24,-8.9 -41.6,-20.8 -41.7,-20.9 l 1.2,-1.7 c 0.2,0.1 17.6,11.9 41.3,20.7 23.4,8.7 57.4,16.1 60.2,16.2 2.8,-0.4 26.7,-19.1 37,-29 9.6,-9.2 25.7,-31 25.9,-31.2 l 1.7,1.2 c -0.2,0.2 -16.4,22.1 -26.1,31.5 -8.1,7.5 -34.9,29.6 -38.6,29.5 z"
   id="path78" />
	<path
   class="st13"
   d="m 240.2,309.2 c -12.5,-0.5 -22.2,-11 -21.8,-23.5 0.5,-12.5 11,-22.2 23.5,-21.8 12.5,0.5 22.2,11 21.8,23.5 -0.4,12.5 -11.1,22.2 -23.5,21.8 z m 1.6,-43.2 c -11.3,-0.4 -20.9,8.4 -21.3,19.7 -0.4,11.3 8.4,20.9 19.7,21.3 11.3,0.4 20.9,-8.4 21.3,-19.7 C 262,276 253.1,266.5 241.8,266 Z"
   id="path79" />
	
		<rect
   x="197.3"
   y="198.10001"
   transform="matrix(0.8812,-0.4728,0.4728,0.8812,-80.8399,120.0206)"
   class="st13"
   width="2.0999999"
   height="45.599998"
   id="rect79" />
	<polygon
   class="st13"
   points="193.8,196.9 221.8,230.2 219.2,230.5 192.1,198.2 "
   id="polygon79" />
	
		<rect
   x="296.20001"
   y="198.8"
   transform="matrix(0.3934,-0.9194,0.9194,0.3934,8.0505,411.9655)"
   class="st13"
   width="39.900002"
   height="2.0999999"
   id="rect80" />
	<polygon
   class="st13"
   points="328.7,183.8 330.8,183.2 322.5,225.6 320.5,225.1 "
   id="polygon80" />
	<path
   class="st13"
   d="m 185.5,201.6 c -5.8,-0.2 -10.3,-5.1 -10.1,-10.9 0.2,-5.8 5.1,-10.3 10.9,-10.1 5.8,0.2 10.3,5.1 10.1,10.9 -0.3,5.8 -5.2,10.3 -10.9,10.1 z m 0.7,-18.8 c -4.6,-0.2 -8.5,3.4 -8.7,8.1 -0.2,4.6 3.4,8.5 8.1,8.7 4.6,0.2 8.5,-3.4 8.7,-8.1 0.1,-4.7 -3.5,-8.6 -8.1,-8.7 z"
   id="path80" />
	<path
   class="st13"
   d="m 328.6,184.1 c -5.4,-0.2 -9.7,-4.8 -9.5,-10.2 0.2,-5.4 4.8,-9.7 10.2,-9.5 5.4,0.2 9.7,4.8 9.5,10.2 -0.2,5.5 -4.8,9.7 -10.2,9.5 z m 0.6,-17.5 c -4.3,-0.2 -7.9,3.2 -8,7.4 -0.2,4.3 3.2,7.9 7.4,8 4.3,0.2 7.9,-3.2 8,-7.4 0.2,-4.3 -3.1,-7.9 -7.4,-8 z"
   id="path81" />
	<path
   class="st13"
   d="m 237.3,308 c -9.7,-0.4 -17.2,-8.5 -16.9,-18.2 0.4,-9.7 8.5,-17.2 18.2,-16.9 9.7,0.4 17.2,8.5 16.9,18.2 -0.4,9.7 -8.6,17.3 -18.2,16.9 z m 1.2,-33 c -8.5,-0.3 -15.7,6.3 -16,14.9 -0.3,8.6 6.3,15.7 14.9,16 8.5,0.3 15.7,-6.3 16,-14.9 0.3,-8.5 -6.4,-15.7 -14.9,-16 z"
   id="path82" />
	<path
   class="st13"
   d="m 308.6,300.4 c -9.7,-0.4 -17.2,-8.5 -16.9,-18.2 0.4,-9.7 8.5,-17.2 18.2,-16.9 9.7,0.4 17.2,8.5 16.9,18.2 -0.4,9.7 -8.6,17.3 -18.2,16.9 z m 1.2,-33 c -8.5,-0.3 -15.7,6.3 -16,14.9 -0.3,8.5 6.3,15.7 14.9,16 8.5,0.3 15.7,-6.3 16,-14.9 0.3,-8.5 -6.4,-15.7 -14.9,-16 z"
   id="path83" />
	<path
   class="st13"
   d="m 312.5,478.8 c -6,-0.2 -31,-6.5 -45,-10.7 -15.1,-4.5 -48.3,-21.7 -49.7,-22.4 l 1,-1.9 c 0.3,0.2 34.4,17.8 49.4,22.2 15.8,4.7 40.4,10.6 44.8,10.6 4.1,-0.1 22.8,-11.9 34.2,-22.5 10.7,-9.9 29.8,-32.6 30,-32.8 l 1.6,1.3 c -0.2,0.2 -19.4,23 -30.2,33 -10.3,9.6 -30.2,23 -35.6,23.1 -0.2,0.1 -0.4,0.1 -0.5,0.1 z"
   id="path84" />
	<path
   class="st13"
   d="m 273.3,500.9 c -9.2,-0.3 -14.9,-1.1 -15,-1.1 l 0.3,-2.1 c 0.2,0 23.8,3.2 54.4,-0.6 27.2,-3.3 46.1,-10.2 46.3,-10.3 l 0.7,2 c -0.2,0.1 -19.4,7.1 -46.8,10.4 -15.9,2 -30,2.1 -39.9,1.7 z"
   id="path85" />
	<path
   class="st13"
   d="m 211.7,364.9 c -1.6,-0.1 -2.8,-1.4 -2.8,-3 0.1,-1.6 1.4,-2.8 3,-2.8 1.6,0.1 2.8,1.4 2.8,3 -0.1,1.7 -1.4,2.9 -3,2.8 z m 0.2,-4.7 c -1,0 -1.9,0.8 -1.9,1.8 0,1 0.8,1.9 1.8,1.9 1,0 1.9,-0.8 1.9,-1.8 0,-1 -0.8,-1.8 -1.8,-1.9 z"
   id="path86" />
	<path
   class="st13"
   d="m 230.3,373 c -1.6,-0.1 -2.8,-1.4 -2.8,-3 0.1,-1.6 1.4,-2.8 3,-2.8 1.6,0.1 2.8,1.4 2.8,3 -0.1,1.6 -1.4,2.8 -3,2.8 z m 0.1,-4.7 c -1,0 -1.9,0.8 -1.9,1.8 0,1 0.8,1.9 1.8,1.9 1,0 1.9,-0.8 1.9,-1.8 0.1,-1.1 -0.7,-1.9 -1.8,-1.9 z"
   id="path87" />
	<path
   class="st13"
   d="m 250,379 c -1.6,-0.1 -2.8,-1.4 -2.8,-3 0.1,-1.6 1.4,-2.8 3,-2.8 1.6,0.1 2.8,1.4 2.8,3 -0.1,1.6 -1.4,2.8 -3,2.8 z m 0.1,-4.8 c -1,0 -1.9,0.8 -1.9,1.8 0,1 0.8,1.9 1.8,1.9 1,0 1.9,-0.8 1.9,-1.8 0,-1 -0.7,-1.8 -1.8,-1.9 z"
   id="path88" />
	<path
   class="st13"
   d="m 337.3,370.7 c -1.6,-0.1 -2.8,-1.4 -2.8,-3 0.1,-1.6 1.4,-2.8 3,-2.8 1.6,0 2.8,1.4 2.8,3 -0.1,1.7 -1.4,2.9 -3,2.8 z m 0.2,-4.7 c -1,0 -1.9,0.8 -1.9,1.8 0,1 0.8,1.9 1.8,1.9 1,0 1.9,-0.8 1.9,-1.8 0,-1 -0.8,-1.9 -1.8,-1.9 z"
   id="path89" />
	<path
   class="st13"
   d="m 349.3,358.6 c -1.6,-0.1 -2.8,-1.4 -2.8,-3 0.1,-1.6 1.4,-2.8 3,-2.8 1.6,0.1 2.8,1.4 2.8,3 -0.1,1.6 -1.4,2.9 -3,2.8 z m 0.1,-4.7 c -1,0 -1.9,0.8 -1.9,1.8 0,1 0.8,1.9 1.8,1.9 1,0 1.9,-0.8 1.9,-1.8 0.1,-1 -0.7,-1.9 -1.8,-1.9 z"
   id="path90" />
	<path
   class="st13"
   d="m 360.2,346.4 c -1.6,-0.1 -2.8,-1.4 -2.8,-3 0.1,-1.6 1.4,-2.8 3,-2.8 1.6,0.1 2.8,1.4 2.8,3 -0.1,1.7 -1.4,2.9 -3,2.8 z m 0.2,-4.7 c -1,0 -1.9,0.8 -1.9,1.8 0,1 0.8,1.9 1.8,1.9 1,0 1.9,-0.8 1.9,-1.8 0,-1 -0.8,-1.8 -1.8,-1.9 z"
   id="path91" />
	<polygon
   class="st14"
   points="215.4,182.7 225.7,172.4 225.9,172.2 226.1,172.4 235.2,186.5 234.7,186.5 239.6,180.4 240,179.9 240.2,180.5 245.4,192.1 244.6,192.3 245.7,162.4 245.7,160.1 246.6,162.2 252.9,177.4 252.1,177.2 257.4,173.9 257.8,173.6 258.1,174 266.8,184.4 266,184.5 273.5,172 274,171.3 274.4,172 283.6,188.3 282.7,188.4 284.4,180 284.5,179.2 285.1,179.8 290.5,185.4 289.8,185.6 292.5,164.1 292.6,163.2 293,164 299.5,177.2 299.3,177.1 315.1,176.5 299.4,177.4 299.3,177.4 299.2,177.3 292.5,164.3 293,164.2 290.6,185.7 290.5,186.5 289.9,185.9 284.5,180.3 285.2,180.1 283.6,188.6 283.4,189.8 282.8,188.7 273.5,172.5 274.4,172.5 266.9,185 266.5,185.6 266.1,185.1 257.3,174.6 258,174.7 252.7,178 252.2,178.3 251.9,177.8 245.7,162.6 246.6,162.4 245.5,192.3 245.4,194.2 244.6,192.5 239.6,180.8 240.2,180.8 235.2,186.9 234.9,187.3 234.7,186.9 225.7,172.7 226,172.7 215.6,182.9 215.6,182.9 215.5,182.9 203,182.4 215.5,182.7 "
   id="polygon91" />
	<path
   class="st14"
   d="m 298.3,540.9 c -3.1,-0.1 -6,-0.3 -8.6,-0.6 -10.5,-1.2 -11.8,-3.2 -11.9,-4.7 -0.1,-1.5 1,-3.6 11.3,-5.9 6.9,-1.5 16.1,-2.6 26,-3.1 13,-0.7 37.7,-0.5 38,5.1 v 0 c 0.3,5.6 -24.3,8.3 -37.3,9 -6.2,0.4 -12.2,0.4 -17.5,0.2 z m 34.2,-12.4 c -4.9,-0.2 -10.6,-0.2 -17.3,0.2 -22.8,1.2 -35.1,5 -35.3,6.8 0.4,1.7 13,4.3 35.8,3.1 22.8,-1.2 35.1,-5 35.3,-6.8 -0.2,-1.2 -6.7,-2.8 -18.5,-3.3 z"
   id="path92" />
	<path
   class="st14"
   d="m 311.9,559.9 c -5.6,-0.2 -11.9,-1 -12.1,-3.7 -0.1,-1.6 1.9,-2.9 6.3,-3.9 3.7,-0.9 8.6,-1.5 13.8,-1.8 2.1,-0.1 20.3,-0.9 20.6,3.7 v 0 c 0.1,1.6 -1.9,2.9 -6.3,3.9 -3.7,0.9 -8.6,1.5 -13.8,1.8 -0.9,-0.1 -4.5,0.1 -8.5,0 z M 302,556 c 1,0.9 7.6,2.2 18.3,1.7 10.7,-0.5 17.1,-2.5 18,-3.5 -1,-0.9 -7.6,-2.2 -18.3,-1.7 -10.6,0.5 -17,2.5 -18,3.5 z"
   id="path93" />
	<path
   class="st13"
   d="m 218.2,408.7 c -1.6,-0.1 -2.8,-1.4 -2.8,-3 0.1,-1.6 1.4,-2.8 3,-2.8 1.6,0.1 2.8,1.4 2.8,3 -0.1,1.6 -1.4,2.8 -3,2.8 z m 0.2,-4.8 c -1,0 -1.9,0.8 -1.9,1.8 0,1 0.8,1.9 1.8,1.9 1,0 1.9,-0.8 1.9,-1.8 0,-1 -0.8,-1.8 -1.8,-1.9 z"
   id="path94" />
	<path
   class="st13"
   d="m 237.8,416.7 c -1.6,-0.1 -2.8,-1.4 -2.8,-3 0.1,-1.6 1.4,-2.8 3,-2.8 1.6,0.1 2.8,1.4 2.8,3 -0.1,1.7 -1.4,2.9 -3,2.8 z M 238,412 c -1,0 -1.9,0.8 -1.9,1.8 0,1 0.8,1.9 1.8,1.9 1,0 1.9,-0.8 1.9,-1.8 0,-1 -0.8,-1.8 -1.8,-1.9 z"
   id="path95" />
	<path
   class="st13"
   d="m 258.5,424.9 c -1.6,-0.1 -2.8,-1.4 -2.8,-3 0.1,-1.6 1.4,-2.8 3,-2.8 1.6,0.1 2.8,1.4 2.8,3 -0.1,1.6 -1.5,2.8 -3,2.8 z m 0.1,-4.8 c -1,0 -1.9,0.8 -1.9,1.8 0,1 0.8,1.9 1.8,1.9 1,0 1.9,-0.8 1.9,-1.8 0,-1 -0.7,-1.8 -1.8,-1.9 z"
   id="path96" />
	<path
   class="st13"
   d="m 340.6,414.7 c -1.6,-0.1 -2.8,-1.4 -2.8,-3 0.1,-1.6 1.4,-2.8 3,-2.8 1.6,0.1 2.8,1.4 2.8,3 -0.1,1.6 -1.4,2.9 -3,2.8 z m 0.2,-4.7 c -1,0 -1.9,0.8 -1.9,1.8 0,1 0.8,1.9 1.8,1.9 1,0 1.9,-0.8 1.9,-1.8 0,-1 -0.8,-1.9 -1.8,-1.9 z"
   id="path97" />
	<path
   class="st13"
   d="m 354.8,400.2 c -1.6,-0.1 -2.8,-1.4 -2.8,-3 0.1,-1.6 1.4,-2.8 3,-2.8 1.6,0.1 2.8,1.4 2.8,3 -0.1,1.6 -1.4,2.9 -3,2.8 z m 0.2,-4.7 c -1,0 -1.9,0.8 -1.9,1.8 0,1 0.8,1.9 1.8,1.9 1,0 1.9,-0.8 1.9,-1.8 0,-1 -0.8,-1.9 -1.8,-1.9 z"
   id="path98" />
	<path
   class="st13"
   d="m 366.9,386 c -1.6,-0.1 -2.8,-1.4 -2.8,-3 0.1,-1.6 1.4,-2.8 3,-2.8 1.6,0.1 2.8,1.4 2.8,3 -0.1,1.6 -1.5,2.8 -3,2.8 z m 0.1,-4.8 c -1,0 -1.9,0.8 -1.9,1.8 0,1 0.8,1.9 1.8,1.9 1,0 1.9,-0.8 1.9,-1.8 0,-1 -0.8,-1.8 -1.8,-1.9 z"
   id="path99" />
	<path
   class="st13"
   d="m 280.3,431.5 c -1.6,-0.1 -2.8,-1.4 -2.8,-3 0.1,-1.6 1.4,-2.8 3,-2.8 1.6,0.1 2.8,1.4 2.8,3 -0.1,1.6 -1.4,2.8 -3,2.8 z m 0.2,-4.8 c -1,0 -1.9,0.8 -1.9,1.8 0,1 0.8,1.9 1.8,1.9 1,0 1.9,-0.8 1.9,-1.8 0,-1 -0.8,-1.8 -1.8,-1.9 z"
   id="path100" />
	<path
   class="st13"
   d="m 304.2,437.6 c -1.6,-0.1 -2.8,-1.4 -2.8,-3 0.1,-1.6 1.4,-2.8 3,-2.8 1.6,0.1 2.8,1.4 2.8,3 -0.1,1.6 -1.4,2.9 -3,2.8 z m 0.1,-4.7 c -1,0 -1.9,0.8 -1.9,1.8 0,1 0.8,1.9 1.8,1.9 1,0 1.9,-0.8 1.9,-1.8 0.1,-1 -0.7,-1.9 -1.8,-1.9 z"
   id="path101" />
	<path
   class="st13"
   d="m 324.9,429.8 c -1.6,-0.1 -2.8,-1.4 -2.8,-3 0.1,-1.6 1.4,-2.8 3,-2.8 1.6,0 2.8,1.4 2.8,3 -0.1,1.6 -1.4,2.8 -3,2.8 z m 0.2,-4.8 c -1,0 -1.9,0.8 -1.9,1.8 0,1 0.8,1.9 1.8,1.9 1,0 1.9,-0.8 1.9,-1.8 0,-1 -0.8,-1.8 -1.8,-1.9 z"
   id="path102" />
	<path
   class="st13"
   d="m 223.8,442.5 c -1.6,-0.1 -2.8,-1.4 -2.8,-3 0.1,-1.6 1.4,-2.8 3,-2.8 1.6,0.1 2.8,1.4 2.8,3 -0.1,1.6 -1.4,2.8 -3,2.8 z m 0.2,-4.7 c -1,0 -1.9,0.8 -1.9,1.8 0,1 0.8,1.9 1.8,1.9 1,0 1.9,-0.8 1.9,-1.8 0,-1.1 -0.8,-1.9 -1.8,-1.9 z"
   id="path103" />
	<path
   class="st13"
   d="m 243.4,450.6 c -1.6,-0.1 -2.8,-1.4 -2.8,-3 0.1,-1.6 1.4,-2.8 3,-2.8 1.6,0.1 2.8,1.4 2.8,3 -0.1,1.6 -1.4,2.8 -3,2.8 z m 0.2,-4.8 c -1,0 -1.9,0.8 -1.9,1.8 0,1 0.8,1.9 1.8,1.9 1,0 1.9,-0.8 1.9,-1.8 0,-1 -0.8,-1.8 -1.8,-1.9 z"
   id="path104" />
	<path
   class="st13"
   d="m 264.1,458.7 c -1.6,-0.1 -2.8,-1.4 -2.8,-3 0.1,-1.6 1.4,-2.8 3,-2.8 1.6,0.1 2.8,1.4 2.8,3 -0.1,1.6 -1.4,2.8 -3,2.8 z m 0.1,-4.8 c -1,0 -1.9,0.8 -1.9,1.8 0,1 0.8,1.9 1.8,1.9 1,0 1.9,-0.8 1.9,-1.8 0,-1 -0.7,-1.8 -1.8,-1.9 z"
   id="path105" />
	<path
   class="st13"
   d="m 346.2,447.5 c -1.6,-0.1 -2.8,-1.4 -2.8,-3 0.1,-1.6 1.4,-2.8 3,-2.8 1.6,0.1 2.8,1.4 2.8,3 0,1.6 -1.4,2.8 -3,2.8 z m 0.2,-4.7 c -1,0 -1.9,0.8 -1.9,1.8 0,1 0.8,1.9 1.8,1.9 1,0 1.9,-0.8 1.9,-1.8 0,-1.1 -0.8,-1.9 -1.8,-1.9 z"
   id="path106" />
	<path
   class="st13"
   d="m 360.4,433 c -1.6,-0.1 -2.8,-1.4 -2.8,-3 0.1,-1.6 1.4,-2.8 3,-2.8 1.6,0.1 2.8,1.4 2.8,3 0,1.6 -1.4,2.8 -3,2.8 z m 0.2,-4.8 c -1,0 -1.9,0.8 -1.9,1.8 0,1 0.8,1.9 1.8,1.9 1,0 1.9,-0.8 1.9,-1.8 0,-1 -0.8,-1.8 -1.8,-1.9 z"
   id="path107" />
	<path
   class="st13"
   d="m 371.4,419.8 c -1.6,-0.1 -2.8,-1.4 -2.8,-3 0.1,-1.6 1.4,-2.8 3,-2.8 1.6,0.1 2.8,1.4 2.8,3 -0.1,1.6 -1.4,2.8 -3,2.8 z m 0.2,-4.8 c -1,0 -1.9,0.8 -1.9,1.8 0,1 0.8,1.9 1.8,1.9 1,0 1.9,-0.8 1.9,-1.8 0,-1 -0.8,-1.8 -1.8,-1.9 z"
   id="path108" />
	<path
   class="st13"
   d="m 285.9,465.3 c -1.6,-0.1 -2.8,-1.4 -2.8,-3 0.1,-1.6 1.4,-2.8 3,-2.8 1.6,0.1 2.8,1.4 2.8,3 -0.1,1.6 -1.4,2.9 -3,2.8 z m 0.2,-4.7 c -1,0 -1.9,0.8 -1.9,1.8 0,1 0.8,1.9 1.8,1.9 1,0 1.9,-0.8 1.9,-1.8 0,-1 -0.8,-1.9 -1.8,-1.9 z"
   id="path109" />
	<path
   class="st13"
   d="m 309.8,471.4 c -1.6,-0.1 -2.8,-1.4 -2.8,-3 0.1,-1.6 1.4,-2.8 3,-2.8 1.6,0.1 2.8,1.4 2.8,3 -0.1,1.7 -1.4,2.9 -3,2.8 z m 0.2,-4.7 c -1,0 -1.9,0.8 -1.9,1.8 0,1 0.8,1.9 1.8,1.9 1,0 1.9,-0.8 1.9,-1.8 0,-1 -0.8,-1.9 -1.8,-1.9 z"
   id="path110" />
	<path
   class="st13"
   d="m 329.5,461.4 c -1.6,-0.1 -2.8,-1.4 -2.8,-3 0.1,-1.6 1.4,-2.8 3,-2.8 1.6,0.1 2.8,1.4 2.8,3 0,1.6 -1.4,2.9 -3,2.8 z m 0.2,-4.7 c -1,0 -1.9,0.8 -1.9,1.8 0,1 0.8,1.9 1.8,1.9 1,0 1.9,-0.8 1.9,-1.8 0,-1 -0.8,-1.9 -1.8,-1.9 z"
   id="path111" />
	<path
   class="st13"
   d="m 124.8,374.5 c -1.3,0 -2.3,-1.1 -2.3,-2.4 0,-1.3 1.1,-2.3 2.4,-2.3 1.3,0 2.3,1.1 2.3,2.4 0,1.3 -1.1,2.3 -2.4,2.3 z m 0.2,-3.7 c -0.7,0 -1.3,0.5 -1.3,1.2 0,0.7 0.5,1.3 1.2,1.3 0.7,0 1.3,-0.5 1.3,-1.2 0,-0.6 -0.5,-1.2 -1.2,-1.3 z"
   id="path112" />
	<path
   class="st13"
   d="m 146.3,390 c -1.3,0 -2.3,-1.1 -2.3,-2.4 0,-1.3 1.1,-2.3 2.4,-2.3 1.3,0 2.3,1.1 2.3,2.4 0,1.3 -1.1,2.3 -2.4,2.3 z m 0.1,-3.7 c -0.7,0 -1.3,0.5 -1.3,1.2 0,0.7 0.5,1.3 1.2,1.3 0.7,0 1.3,-0.5 1.3,-1.2 0.1,-0.7 -0.5,-1.3 -1.2,-1.3 z"
   id="path113" />
	<path
   class="st13"
   d="m 165.8,400.1 c -1.3,0 -2.3,-1.1 -2.3,-2.4 0,-1.3 1.1,-2.3 2.4,-2.3 1.3,0 2.3,1.1 2.3,2.4 0,1.4 -1.1,2.4 -2.4,2.3 z m 0.1,-3.6 c -0.7,0 -1.3,0.5 -1.3,1.2 0,0.7 0.5,1.3 1.2,1.3 0.7,0 1.3,-0.5 1.3,-1.2 0.1,-0.7 -0.4,-1.3 -1.2,-1.3 z"
   id="path114" />
	<path
   class="st13"
   d="m 186.5,407.2 c -1.3,0 -2.3,-1.1 -2.3,-2.4 0,-1.3 1.1,-2.3 2.4,-2.3 1.3,0 2.3,1.1 2.3,2.4 0,1.3 -1.1,2.3 -2.4,2.3 z m 0.1,-3.6 c -0.7,0 -1.3,0.5 -1.3,1.2 0,0.7 0.5,1.3 1.2,1.3 0.7,0 1.3,-0.5 1.3,-1.2 0.1,-0.7 -0.4,-1.3 -1.2,-1.3 z"
   id="path115" />
	<path
   class="st13"
   d="m 382.9,368.5 c -1.3,0 -2.3,-1.1 -2.3,-2.4 0,-1.3 1.1,-2.3 2.4,-2.3 1.3,0 2.3,1.1 2.3,2.4 0,1.3 -1.1,2.3 -2.4,2.3 z m 0.2,-3.6 c -0.7,0 -1.3,0.5 -1.3,1.2 0,0.7 0.5,1.3 1.2,1.3 0.7,0 1.3,-0.5 1.3,-1.2 0.1,-0.7 -0.5,-1.3 -1.2,-1.3 z"
   id="path116" />
	<path
   class="st13"
   d="m 398.1,355.4 c -1.3,0 -2.3,-1.1 -2.3,-2.4 0,-1.3 1.1,-2.3 2.4,-2.3 1.3,0 2.3,1.1 2.3,2.4 0,1.4 -1.1,2.4 -2.4,2.3 z m 0.2,-3.6 c -0.7,0 -1.3,0.5 -1.3,1.2 0,0.7 0.5,1.3 1.2,1.3 0.7,0 1.3,-0.5 1.3,-1.2 0,-0.7 -0.5,-1.3 -1.2,-1.3 z"
   id="path117" />
	<path
   class="st13"
   d="m 202.7,409.9 c -1.3,0 -2.3,-1.1 -2.3,-2.4 0,-1.3 1.1,-2.3 2.4,-2.3 1.3,0 2.3,1.1 2.3,2.4 0,1.3 -1.1,2.4 -2.4,2.3 z m 0.2,-3.6 c -0.7,0 -1.3,0.5 -1.3,1.2 0,0.7 0.5,1.3 1.2,1.3 0.7,0 1.3,-0.5 1.3,-1.2 0.1,-0.7 -0.5,-1.3 -1.2,-1.3 z"
   id="path118" />
	<path
   class="st13"
   d="m 410.3,339.1 c -1.3,0 -2.3,-1.1 -2.3,-2.4 0,-1.3 1.1,-2.3 2.4,-2.3 1.3,0 2.3,1.1 2.3,2.4 -0.1,1.4 -1.1,2.4 -2.4,2.3 z m 0.1,-3.6 c -0.7,0 -1.3,0.5 -1.3,1.2 0,0.7 0.5,1.3 1.2,1.3 0.7,0 1.3,-0.5 1.3,-1.2 0.1,-0.7 -0.5,-1.3 -1.2,-1.3 z"
   id="path119" />
	<path
   class="st13"
   d="m 418.4,318.5 c -1.3,0 -2.3,-1.1 -2.3,-2.4 0,-1.3 1.1,-2.3 2.4,-2.3 1.3,0 2.3,1.1 2.3,2.4 0,1.3 -1.1,2.3 -2.4,2.3 z m 0.1,-3.7 c -0.7,0 -1.3,0.5 -1.3,1.2 0,0.7 0.5,1.3 1.2,1.3 0.7,0 1.3,-0.5 1.3,-1.2 0.1,-0.6 -0.5,-1.2 -1.2,-1.3 z"
   id="path120" />
	<path
   class="st13"
   d="m 421.4,293.4 c -1.3,0 -2.3,-1.1 -2.3,-2.4 0,-1.3 1.1,-2.3 2.4,-2.3 1.3,0 2.3,1.1 2.3,2.4 0,1.4 -1.1,2.4 -2.4,2.3 z m 0.2,-3.6 c -0.7,0 -1.3,0.5 -1.3,1.2 0,0.7 0.5,1.3 1.2,1.3 0.7,0 1.3,-0.5 1.3,-1.2 0,-0.7 -0.5,-1.3 -1.2,-1.3 z"
   id="path121" />
	<path
   class="st13"
   d="m 421.2,270.4 c -1.3,0 -2.3,-1.1 -2.3,-2.4 0,-1.3 1.1,-2.3 2.4,-2.3 1.3,0 2.3,1.1 2.3,2.4 0,1.3 -1.1,2.3 -2.4,2.3 z m 0.2,-3.7 c -0.7,0 -1.3,0.5 -1.3,1.2 0,0.7 0.5,1.3 1.2,1.3 0.7,0 1.3,-0.5 1.3,-1.2 0.1,-0.7 -0.5,-1.3 -1.2,-1.3 z"
   id="path122" />
	<path
   class="st13"
   d="m 242.6,471 c -2.2,-0.1 -4.4,-0.9 -6.3,-2.2 -4,-2.8 -4.7,-15.1 -4.7,-16.5 l 2.1,-0.1 c 0.2,4.9 1.4,13.3 3.8,14.9 2.9,2 7.1,2.7 9.4,0.2 2.3,-2.6 1.3,-7 1.3,-7.1 l 2,-0.5 c 0.1,0.2 1.3,5.5 -1.8,8.9 -1.4,1.8 -3.6,2.5 -5.8,2.4 z"
   id="path123" />
	<path
   class="st13"
   d="m 230.1,464.8 c -1.7,-0.1 -4.6,-1.3 -4.9,-1.4 l 0.8,-1.9 c 1.1,0.5 3.2,1.2 4.2,1.3 0,0 0,0 0,0 0.2,0 0.9,0 1.5,-1 0.8,-1.3 0.8,-3.3 0.6,-3.7 0,0 0.1,0.2 0.3,0.2 l 0.6,-2 c 1.6,0.5 1.3,3 1.2,3.8 -0.5,2.8 -2.1,4.7 -4.3,4.7 z"
   id="path124" />
	<path
   class="st13"
   d="m 241.7,480.7 -0.6,-2 c 0.1,0 1.5,-0.5 1.7,-1.8 0.2,-1.3 -0.6,-4.7 -1.2,-6.5 l 2,-0.6 c 0.2,0.5 1.7,5.3 1.2,7.5 -0.4,2.6 -3,3.3 -3.1,3.4 z"
   id="path125" />
	<path
   class="st13"
   d="m 252.7,484.4 c -1.6,-0.1 -3.3,-0.6 -4.9,-1.6 -3.7,-2.4 -4.9,-6.3 -4.9,-6.5 l 2,-0.6 c 0,0 1.1,3.4 4.1,5.4 1.7,1.1 3.7,1.6 5.3,1.1 1.3,-0.3 2.2,-1.1 2.8,-2.3 1.3,-2.6 0.5,-5.8 0.5,-5.8 l 2,-0.5 c 0,0.2 1,4.1 -0.7,7.3 -0.9,1.7 -2.3,2.9 -4.2,3.4 -0.5,0 -1.2,0.1 -2,0.1 z"
   id="path126" />
	<path
   class="st13"
   d="m 256.8,475.7 c -1.5,-0.1 -3,-0.4 -4.2,-1.3 -3.2,-2.3 -3.8,-11.4 -3.9,-12.5 l 2.1,-0.1 c 0.2,3.5 1.3,9.6 3,10.9 2.5,1.8 7.2,0.6 8.8,-0.6 0.9,-0.8 1.1,-4.1 1,-6.2 l 2.1,-0.2 c 0.1,1 0.4,6.2 -1.7,7.9 -1.4,1.1 -4.3,2.2 -7.2,2.1 z"
   id="path127" />
	<path
   class="st13"
   d="m 254.3,494.2 -1.7,-1.2 c 0,0 1.5,-2.2 1.3,-4.2 -0.2,-2.3 -1.1,-5.2 -1.1,-5.2 l 2,-0.6 c 0,0.1 0.9,3.1 1.1,5.6 0.4,2.8 -1.5,5.5 -1.6,5.6 z"
   id="path128" />
	<path
   class="st13"
   d="m 273.3,477.1 c -1.3,0 -2.7,-0.4 -4.1,-0.9 -5.6,-2.2 -5.6,-7.8 -5.6,-8 h 2.1 c 0,0.2 0.1,4.4 4.3,6 3.1,1.2 5.6,1 7.8,-0.6 0.9,-0.7 0.8,-2.5 0.7,-3.1 l 2.1,-0.4 c 0,0.1 0.6,3.5 -1.5,5.2 -1.8,1.3 -3.7,1.9 -5.8,1.8 z"
   id="path129" />
	<path
   class="st13"
   d="m 266.4,487.2 c -0.3,0 -0.7,0 -1,-0.1 -2,-0.3 -3.6,-1.3 -4.6,-2.8 -1.4,-2 -2.7,-9.2 -2.8,-10 l 2.1,-0.4 c 0.5,2.9 1.6,8 2.5,9.2 0.9,1.3 2.3,1.8 3.3,1.9 1.7,0.3 3.8,-0.2 5.1,-1.3 1.8,-1.3 1,-6 0.6,-7.5 l 2,-0.6 c 0.2,0.7 1.9,7.3 -1.3,9.7 -1.7,1.3 -3.9,2 -5.9,1.9 z"
   id="path130" />
	<path
   class="st13"
   d="m 261.9,496 c -1.2,0 -2.5,-0.5 -3.8,-1.3 -3.3,-2.1 -4.1,-5.6 -4.1,-5.8 l 2.1,-0.4 -1,0.2 1,-0.2 c 0,0 0.6,2.8 3.2,4.5 1.3,0.8 2.5,1.1 3.7,0.9 1.1,-0.3 2.2,-1.1 3,-2.3 1.3,-2.1 1.2,-5.4 1.2,-5.4 l 2.1,-0.1 c 0,0.2 0.2,3.9 -1.5,6.6 -1.1,1.7 -2.6,2.9 -4.3,3.3 -0.6,0 -1.1,0 -1.6,0 z"
   id="path131" />
	<path
   class="st13"
   d="m 263.4,500.3 c 0,0 0,0 0,0 l 0.1,-2.1 c -0.2,0 -0.4,0.1 -0.6,0.2 -0.2,0.2 -0.3,0.4 -0.3,0.4 0,-0.4 -0.5,-2.1 -1.2,-3.5 l 1.9,-0.9 c 1.9,4.2 1.4,4.9 1.1,5.3 -0.2,0.5 -0.6,0.7 -1,0.6 z"
   id="path132" />
	<path
   class="st13"
   d="m 289.3,483.3 c -2.4,-0.1 -4.9,-0.9 -6.7,-2.3 -2.3,-1.8 -3.4,-8.2 -3.6,-9.5 l 2.1,-0.3 c 0.4,2.8 1.6,7.2 2.8,8.1 1.8,1.4 4.7,2.1 7,1.8 1.2,-0.2 2.1,-0.7 2.7,-1.5 0.9,-1.2 0.5,-4.3 0.3,-5.3 l 2.1,-0.4 c 0.1,0.5 0.9,4.7 -0.7,6.9 -0.9,1.3 -2.3,2.1 -4.1,2.3 -0.6,0.2 -1.2,0.2 -1.9,0.2 z"
   id="path133" />
	<path
   class="st13"
   d="m 278.2,491.7 c -1.4,-0.1 -2.8,-0.6 -4.1,-1.7 -1.6,-1.3 -3.3,-4.7 -3.5,-5 l 1.9,-0.9 c 0.4,0.9 1.8,3.5 2.9,4.3 1.2,1 2.5,1.4 3.7,1.2 1.7,-0.3 3,-1.6 3.7,-2.7 0.8,-1.3 0,-4.9 -0.5,-6.4 l 2,-0.7 c 0.2,0.6 1.9,5.7 0.3,8.2 -0.5,0.7 -2.2,3.1 -5.2,3.6 -0.4,0.1 -0.8,0.2 -1.2,0.1 z"
   id="path134" />
	<path
   class="st13"
   d="m 273.8,498.7 c -1.6,-0.1 -3.2,-0.6 -4.6,-1.5 -2.8,-1.8 -2.5,-6.8 -2.4,-7.3 l 2.1,0.2 c -0.1,1.1 0,4.5 1.5,5.4 1.6,1 3.5,1.4 5.1,1 1,-0.2 1.8,-0.7 2.2,-1.4 0.6,-0.9 0.7,-3.3 0.6,-4.5 l 2.1,-0.1 c 0,0.4 0.2,4 -0.9,5.7 -0.7,1.1 -2,1.9 -3.5,2.3 -0.7,0.1 -1.4,0.2 -2.2,0.2 z"
   id="path135" />
	
		<rect
   x="273.10001"
   y="497.70001"
   transform="matrix(0.03776462,-0.9993,0.9993,0.03776462,-234.4072,754.0516)"
   class="st13"
   width="2.4000001"
   height="2.0999999"
   id="rect135" />
	<path
   class="st13"
   d="m 376,443.6 c -0.1,0 -3.1,-0.1 -5,-1.4 -1.8,-1.3 -3.2,-7.3 -3.5,-9.1 l 2.1,-0.4 c 0.7,3.3 1.9,7.2 2.7,7.8 1.1,0.8 3.2,1 3.9,1 z"
   id="path136" />
	<path
   class="st13"
   d="m 364.3,454.2 c -1.4,-0.1 -2.8,-0.5 -3.9,-1.2 -2.2,-1.4 -3.5,-6.3 -3.8,-7.3 l 2,-0.5 c 0.5,2.1 1.8,5.3 2.9,6 1.6,1 3.6,1.2 5.6,0.4 1.7,-0.7 3,-1.9 3.3,-3.3 0.8,-3 0.3,-6.8 0.3,-6.8 l 2.1,-0.3 c 0,0.2 0.6,4.2 -0.3,7.6 -0.5,2 -2.3,3.8 -4.6,4.8 -1.2,0.5 -2.4,0.7 -3.6,0.6 z"
   id="path137" />
	<path
   class="st13"
   d="m 371.2,458.5 c -0.2,0 -1.6,-0.2 -2.7,-1.3 -1,-1 -1.6,-3.8 -1.7,-4.6 l 2.1,-0.4 c 0.3,1.5 0.8,3.2 1.1,3.5 0.6,0.6 1.5,0.7 1.5,0.7 z"
   id="path138" />
	<path
   class="st13"
   d="m 287,496.9 c -1.6,-0.1 -3.2,-0.6 -4.8,-1.9 -1.7,-1.4 -2.5,-5.1 -2.6,-5.5 l 2.1,-0.4 c 0.2,1.3 1,3.5 1.8,4.2 2.9,2.3 6.1,1.6 7.8,-0.4 1.1,-1.3 0,-7 -1,-10.4 l 2,-0.6 c 0.5,1.6 2.9,9.8 0.6,12.4 -1.5,1.7 -3.6,2.7 -5.9,2.6 z"
   id="path139" />
	<path
   class="st13"
   d="m 286.1,500.8 -1.6,-1.4 1.5,-1.7 c 0,-0.8 0.1,-1.9 0.1,-1.9 l 2.1,0.1 c 0,0 -0.1,1.4 -0.1,2.2 v 0.4 z"
   id="path140" />
	<path
   class="st13"
   d="m 353.3,461.2 c -1.2,0 -2.4,-0.5 -3.7,-1.3 -2.5,-1.6 -2.9,-4.7 -2.9,-4.8 l 2.1,-0.2 c 0,0 0.3,2.2 1.9,3.3 1.5,1 2.8,1.2 4.3,0.7 0.2,-0.1 0.4,-0.1 0.6,-0.2 1,-0.3 1.8,-0.5 2.3,-2 0.9,-2.6 0.2,-6.8 0.2,-6.8 l 2.1,-0.3 c 0,0.2 0.7,4.7 -0.3,7.8 -0.8,2.5 -2.5,3 -3.7,3.3 -0.2,0 -0.3,0.1 -0.5,0.1 -0.8,0.3 -1.6,0.4 -2.4,0.4 z"
   id="path141" />
	<path
   class="st13"
   d="m 363.3,469.9 c -1.2,0 -2.5,-0.5 -3.7,-1.5 -2.7,-2.4 -3.7,-8.1 -3.7,-8.3 l 2.1,-0.4 c 0.2,1.4 1.3,5.5 3,7.1 2.9,2.6 6.4,-0.6 6.5,-0.7 l 1.4,1.5 c -1,1.1 -3.2,2.4 -5.6,2.3 z"
   id="path142" />
	<path
   class="st13"
   d="m 342.1,471.2 c -1,0 -2,-0.3 -2.7,-0.6 -2.2,-1.2 -4.8,-5.5 -5.1,-6 l 1.8,-1.1 c 0.7,1.2 2.8,4.4 4.3,5.2 1.5,0.8 6,0.3 7.5,-2.2 1.1,-1.7 1.2,-6 1.2,-7.5 h 2.1 c 0,0.6 0.1,6.1 -1.5,8.7 -1.5,2.5 -4.9,3.6 -7.6,3.5 z"
   id="path143" />
	<path
   class="st13"
   d="m 355.5,479 c -3,-0.1 -5.5,-1.4 -6.8,-3.4 -1.4,-2.2 -2.5,-6.9 -2.5,-7.1 l 2,-0.5 c 0.3,1.3 1.2,4.9 2.2,6.5 1,1.5 3.1,2.5 5.6,2.4 2,0 3.6,-0.7 3.9,-1.3 0.6,-1 0.6,-4.6 0.4,-6.8 l 2.1,-0.2 c 0.1,1 0.5,6.2 -0.7,8.1 -1,1.7 -3.6,2.3 -5.7,2.3 -0.1,0 -0.3,0 -0.5,0 z"
   id="path144" />
	<path
   class="st13"
   d="m 361.9,483.3 c -0.2,0 -1.7,-0.1 -2.8,-1.5 -1,-1.2 -2.3,-3.8 -2.3,-3.9 l 1.9,-0.9 c 0.3,0.7 1.4,2.6 2.1,3.4 0.6,0.7 1.3,0.8 1.3,0.8 z"
   id="path145" />
	<path
   class="st13"
   d="m 333.3,480.2 c -1.3,-0.1 -2.6,-0.3 -3.5,-0.9 -2.2,-1.3 -4.6,-6.9 -5.1,-8 l 1.9,-0.8 c 1,2.5 3,6.3 4.1,7 1.3,0.7 3.7,0.8 5.5,0.2 1,-0.3 1.7,-0.8 2,-1.4 0.8,-1.7 0.7,-5.3 0.5,-6.5 l 2.1,-0.2 c 0,0.2 0.5,5 -0.7,7.6 -0.5,1.1 -1.7,2 -3.3,2.5 -1,0.4 -2.2,0.6 -3.5,0.5 z"
   id="path146" />
	<path
   class="st13"
   d="m 344.3,486.2 c -1.3,0 -2.6,-0.4 -4,-1.1 -3.1,-1.5 -3.2,-6.3 -3.2,-6.8 h 2.1 c 0,1.1 0.4,4.2 2,5 2.9,1.4 5,1.2 7.4,-0.7 1.5,-1.2 0.6,-5.3 -0.1,-7.1 l 2,-0.7 c 0.3,0.7 2.5,7.1 -0.6,9.5 -1.8,1.3 -3.6,2 -5.6,1.9 z"
   id="path147" />
	<path
   class="st13"
   d="m 354.5,490.5 c -0.4,-0.1 -3.6,-0.9 -4.7,-1.5 -1.3,-0.6 -2.1,-3.4 -2.6,-5.6 l 2.1,-0.4 c 0.4,1.9 1.1,3.8 1.4,4.1 0.8,0.3 3.4,1.1 4.3,1.3 z"
   id="path148" />
	<path
   class="st13"
   d="m 303.1,488.2 c -1.3,0 -2.7,-0.4 -4,-1.2 -4.4,-2.7 -4.9,-8.9 -4.9,-9.2 l 2.1,-0.2 c 0,0.1 0.4,5.4 3.9,7.5 3.3,2 7.1,0.2 7.9,-1 0.5,-0.7 0.4,-4 -0.1,-6.6 l 2.1,-0.3 c 0.2,1.5 0.9,6.4 -0.3,8.1 -0.9,1.4 -3.6,3 -6.7,2.9 z"
   id="path149" />
	<path
   class="st13"
   d="m 323.9,488 c -1.3,0 -2.6,-0.5 -4,-1.2 -3.8,-2.1 -3.5,-9.3 -3.5,-10.1 l 2.1,0.1 c -0.1,1.8 0.1,6.9 2.4,8.2 2.8,1.6 4.8,1.3 7.2,-1.1 2.2,-2.2 1.8,-5.5 1.8,-5.5 l 2.1,-0.3 c 0,0.2 0.5,4.3 -2.4,7.2 -1.9,1.9 -3.7,2.7 -5.7,2.7 z"
   id="path150" />
	<path
   class="st13"
   d="m 298.2,497.6 c -0.7,0 -1.4,-0.2 -2.1,-0.3 l -0.5,-0.1 c -4.2,-0.7 -4.5,-3.2 -4.5,-3.4 l 2.1,-0.2 c 0,0 0.2,1.1 2.8,1.6 l 0.6,0.1 c 2,0.4 3.2,0.6 5,-1.1 1.6,-1.5 1.3,-5.6 1,-6.9 l 2.1,-0.4 c 0.1,0.6 1,6.3 -1.7,8.8 -1.9,1.6 -3.4,2 -4.8,1.9 z"
   id="path151" />
	
		<rect
   x="297.89999"
   y="496.89999"
   transform="matrix(0.03776462,-0.9993,0.9993,0.03776462,-209.3685,778.4309)"
   class="st13"
   width="3.2"
   height="2.0999999"
   id="rect151" />
	<path
   class="st13"
   d="m 316.2,493 c -1.4,-0.1 -2.9,-0.4 -4.1,-0.8 -3,-1.1 -4,-6.7 -4.1,-7.3 l 2.1,-0.4 c 0.4,2.1 1.4,5.2 2.8,5.7 2.1,0.7 5.1,1.2 6.9,-0.1 1.4,-1 1,-3.1 1,-3.2 l 2,-0.5 c 0,0.1 0.8,3.5 -1.8,5.4 -1.4,1 -3.1,1.3 -4.8,1.2 z"
   id="path152" />
	<path
   class="st13"
   d="m 306.3,499.9 c -1.3,-0.1 -3.1,-0.4 -3.8,-1.5 -0.8,-1.3 -1.4,-3 -1.4,-3.1 l 2,-0.6 c 0,0 0.5,1.6 1.1,2.6 0.3,0.4 1.9,0.7 3.4,0.5 0.8,-0.1 3.1,-0.8 3.7,-2.3 0.7,-1.8 0.1,-4 0.1,-4 l 2,-0.5 c 0,0.1 0.7,2.9 -0.2,5.3 -1.1,2.9 -5.2,3.6 -5.4,3.6 -0.2,0 -0.8,0 -1.5,0 z"
   id="path153" />
	<path
   class="st13"
   d="m 334.3,492.2 c -0.7,0 -1.3,-0.1 -1.9,-0.3 -2.8,-0.7 -4.3,-6.1 -4.6,-7.1 l 2,-0.5 c 0.5,2.1 1.8,5.3 3,5.6 2.2,0.5 5.1,-0.1 5.8,-1 0.9,-1.1 0.9,-1.9 1,-4.7 h 1 1 c -0.1,2.9 -0.2,4.4 -1.5,6 -0.9,1.5 -3.5,2.1 -5.8,2 z"
   id="path154" />
	
		<rect
   x="336.29999"
   y="490.89999"
   transform="matrix(0.9643,-0.2647,0.2647,0.9643,-118.2055,106.8163)"
   class="st13"
   width="2.0999999"
   height="2.4000001"
   id="rect154" />
	<path
   class="st13"
   d="m 324.1,497.3 c -0.2,-0.1 -2.4,-1 -3.4,-2.7 -0.3,-0.5 -1.2,-2.7 -1.4,-3.1 l 1.9,-0.8 c 0.4,0.9 1.1,2.5 1.3,2.9 0.5,0.9 1.9,1.6 2.4,1.8 z"
   id="path155" />
	<path
   class="st13"
   d="m 328.4,496.9 -0.8,-2 c 1.5,-0.6 3,-1.4 3.2,-1.7 0.3,-0.5 0.6,-1.9 0.8,-2.5 l 2,0.4 c 0,0.2 -0.5,2.1 -1,3.1 -0.5,1.2 -2.9,2.2 -4.2,2.7 z"
   id="path156" />
	<path
   class="st13"
   d="m 311.4,474.8 c -5.9,-0.2 -30.9,-6.5 -44.9,-10.6 -15.1,-4.5 -49.3,-22.2 -49.7,-22.4 l 0.5,-0.9 c 0.3,0.2 34.5,17.8 49.5,22.3 15.8,4.7 40.5,10.7 45,10.6 4.5,-0.1 23.9,-12.8 34.6,-22.7 10.7,-9.9 29.8,-32.7 30,-32.9 l 0.8,0.7 c -0.2,0.2 -19.4,23 -30.1,33 -11,10.2 -30.5,22.8 -35.3,22.9 -0.1,0 -0.2,0 -0.4,0 z"
   id="path157" />
	<path
   class="st13"
   d="m 274.8,508.4 c -1.3,0 -2.2,-1.1 -2.2,-2.4 0,-1.3 1.1,-2.2 2.4,-2.2 1.3,0 2.2,1.1 2.2,2.4 -0.1,1.3 -1.1,2.3 -2.4,2.2 z m 0.1,-3.5 c -0.7,0 -1.2,0.5 -1.3,1.2 0,0.7 0.5,1.3 1.2,1.3 0.7,0 1.2,-0.5 1.3,-1.2 0,-0.7 -0.5,-1.3 -1.2,-1.3 z"
   id="path158" />
	<path
   class="st13"
   d="m 290.2,509 c -1.3,0 -2.2,-1.1 -2.2,-2.4 0,-1.3 1.1,-2.2 2.4,-2.2 1.3,0 2.2,1.1 2.2,2.4 -0.1,1.3 -1.2,2.2 -2.4,2.2 z m 0.1,-3.5 c -0.7,0 -1.2,0.5 -1.3,1.2 0,0.7 0.5,1.3 1.2,1.3 0.7,0 1.3,-0.5 1.3,-1.2 0,-0.7 -0.5,-1.3 -1.2,-1.3 z"
   id="path159" />
	<path
   class="st13"
   d="m 305.5,507.9 c -1.3,0 -2.2,-1.1 -2.2,-2.4 0,-1.3 1.1,-2.2 2.4,-2.2 1.3,0 2.2,1.1 2.2,2.4 -0.1,1.3 -1.1,2.3 -2.4,2.2 z m 0.1,-3.5 c -0.7,0 -1.2,0.5 -1.3,1.2 0,0.7 0.5,1.2 1.2,1.3 0.7,0 1.2,-0.5 1.3,-1.2 0,-0.7 -0.5,-1.2 -1.2,-1.3 z"
   id="path160" />
	<path
   class="st13"
   d="m 335.1,504.2 c -1.3,0 -2.2,-1.1 -2.2,-2.4 0,-1.3 1.1,-2.2 2.4,-2.2 1.3,0 2.2,1.1 2.2,2.4 0,1.3 -1.2,2.2 -2.4,2.2 z m 0.1,-3.5 c -0.7,0 -1.3,0.5 -1.3,1.2 0,0.7 0.5,1.2 1.2,1.3 0.7,0.1 1.2,-0.5 1.3,-1.2 0,-0.7 -0.5,-1.3 -1.2,-1.3 z"
   id="path161" />
	<path
   class="st13"
   d="m 347.9,500.9 c -1.3,0 -2.2,-1.1 -2.2,-2.4 0,-1.3 1.1,-2.2 2.4,-2.2 1.3,0 2.2,1.1 2.2,2.4 0,1.3 -1.1,2.3 -2.4,2.2 z m 0.2,-3.5 c -0.7,0 -1.2,0.5 -1.3,1.2 0,0.7 0.5,1.2 1.2,1.3 0.7,0 1.3,-0.5 1.3,-1.2 0,-0.7 -0.5,-1.3 -1.2,-1.3 z"
   id="path162" />
	<path
   class="st13"
   d="m 320.9,506.8 c -1.3,0 -2.2,-1.1 -2.2,-2.4 0,-1.3 1.1,-2.2 2.4,-2.2 1.3,0 2.2,1.1 2.2,2.4 -0.1,1.2 -1.2,2.2 -2.4,2.2 z m 0.1,-3.5 c -0.7,0 -1.2,0.5 -1.3,1.2 0,0.7 0.5,1.3 1.2,1.3 0.7,0 1.3,-0.5 1.3,-1.2 0,-0.7 -0.5,-1.3 -1.2,-1.3 z"
   id="path163" />
</g>
<circle
   transform="rotate(-87.835761)"
   class="st15"
   cx="-117.35118"
   cy="224.57204"
   id="ellipse163"
   r="6.8000908"
   style="stroke-width:1.00001" />
<circle
   transform="rotate(-87.835761)"
   class="st15"
   cx="-106.62028"
   cy="295.75729"
   id="ellipse164"
   r="6.8000908"
   style="stroke-width:1.00001" />
</svg>
