<?xml version="1.0" encoding="UTF-8" standalone="no"?>
<!-- Generator: Adobe Illustrator 21.1.0, SVG Export Plug-In . SVG Version: 6.00 Build 0)  -->

<svg
   version="1.1"
   id="Layer_1"
   x="0px"
   y="0px"
   viewBox="0 0 466.27345 608.90784"
   xml:space="preserve"
   sodipodi:docname="unicorn.svg"
   width="466.27347"
   height="608.90784"
   inkscape:version="1.3.2 (091e20e, 2023-11-25)"
   xmlns:inkscape="http://www.inkscape.org/namespaces/inkscape"
   xmlns:sodipodi="http://sodipodi.sourceforge.net/DTD/sodipodi-0.dtd"
   xmlns="http://www.w3.org/2000/svg"
   xmlns:svg="http://www.w3.org/2000/svg"><defs
   id="defs86" /><sodipodi:namedview
   id="namedview86"
   pagecolor="#ffffff"
   bordercolor="#111111"
   borderopacity="1"
   inkscape:showpageshadow="0"
   inkscape:pageopacity="0"
   inkscape:pagecheckerboard="1"
   inkscape:deskcolor="#d1d1d1"
   inkscape:zoom="0.32395333"
   inkscape:cx="234.60169"
   inkscape:cy="299.42585"
   inkscape:window-width="1312"
   inkscape:window-height="449"
   inkscape:window-x="81"
   inkscape:window-y="57"
   inkscape:window-maximized="0"
   inkscape:current-layer="Layer_1" />
<style
   type="text/css"
   id="style1">
	.st0{fill:#F4E5F0;}
	.st1{fill:#EBF1F4;}
	.st2{fill:#EE708E;}
	.st3{fill:#D668A8;}
	.st4{fill:#905EA1;}
	.st5{fill:#A7A9AC;}
	.st6{opacity:0.7;fill:#B1D235;}
	.st7{fill:#4098D3;}
	.st8{fill:#5E98D1;}
	.st9{fill:#6551A2;}
	.st10{fill:#433643;}
	.st11{fill:#FAEF60;}
	.st12{fill:#F05E7C;}
	.st13{fill:#F58862;}
	.st14{fill:#A1CF64;}
	.st15{fill:#6EB0E0;}
	.st16{fill:#9066AC;}
	.st17{fill:#FFFFFF;}
	.st18{opacity:0.4;fill:#55285B;}
	.st19{opacity:0.3;fill:#FFFFFF;}
	.st20{opacity:0.75;fill:#FFFFFF;}
	.st21{fill:#010101;}
</style>
<g
   id="g86"
   transform="translate(-24.727329,-64.392192)">
	<path
   class="st0"
   d="m 247.8,311.6 c 0,0 0.9,-11.9 2.3,-19.7 1.9,-10.1 -8.6,-21.8 -8.6,-21.8 l 9.8,2.6 9.8,5.8 c 0,0 -3,-16.2 -6.4,-23.8 -4.8,-10.7 -15.3,-19.4 -15.3,-19.4 0,0 -13.9,3.4 -26,-0.2 -5.9,-1.8 -17.5,-11.9 -12.5,-15.2 5,-3.3 27.8,-7 33.4,-6.4 5.6,0.6 19.1,3.1 19.1,3.1 0,0 9.9,-4.6 19.3,-6.9 13.4,-3.2 57.1,5.6 57.1,5.6 l 4.1,-18.1 c 0,0 16,8.6 27,8 11,-0.6 22.3,-2.3 29.4,-1.1 10.7,1.8 23.8,16.4 20.6,24.4 -1.5,3.7 -38.8,16.6 -48.1,19.7 -1.2,0.4 -2,1.7 -1.8,2.9 0.8,4.8 10.6,14.1 15.5,15.8 10.2,3.4 27.8,0.6 28.9,2.3 1.1,1.7 0.8,10.8 -1.9,12.2 -2.7,1.4 -26.8,16.6 -61.5,1.4 -2.4,-1.1 -14.8,11 -14.8,11 l 5.9,11.3 c 0,0 -11.6,10.9 -22.8,14.3 -11.2,3.4 -20.4,2.2 -20.4,2.2 0,0 -7.4,-7.9 -14.9,-11.6 -11,-5.5 -27.2,1.6 -27.2,1.6 z"
   id="path1" />
	<path
   class="st0"
   d="m 371.5,349.5 c 0,0 -2.1,-9.1 -3.8,-14.1 -1.8,-5.3 -4.8,-10.1 -4.8,-10.1 l 7.9,-10.1 c 0,0 36.3,-11 43.6,-14.7 7.3,-3.6 26.3,-15.4 26.3,-15.4 0,0 3,29.3 5.5,32.1 3.9,4.5 19.6,1.9 19.6,1.9 0,0 3.7,0.3 1.3,4.7 -2.4,4.4 -38.2,18.1 -50,20.5 -11.8,2.6 -45.6,5.2 -45.6,5.2 z"
   id="path2" />
	<path
   class="st0"
   d="m 232.1,348.5 c 0,0 15,-4.2 25.8,0.9 10.8,5.2 25.7,19.7 25.7,19.7 0,0 -39.6,12.4 -51.5,21.8 -11.9,9.4 -36.4,40.7 -41.9,41.2 -5.5,0.5 -21.7,1.2 -27.9,-4.3 -6.2,-5.5 -12.6,-13.9 -10.9,-18.7 1.7,-4.8 24,-31.8 34.9,-39.6 11,-7.7 45.8,-21 45.8,-21 z"
   id="path3" />
	<path
   class="st0"
   d="m 335.6,464.7 c 0,0 -3.5,-18.6 0,-24 3.5,-5.4 11.1,-17.9 11.1,-17.9 0,0 23.8,-4.2 47,2.5 23.2,6.7 53.7,43.4 52.9,51.2 -0.8,7.8 -8.3,11.7 -17.1,15.1 -8.8,3.4 -20.1,6.8 -24.8,3.8 -4.8,-3.1 -22.8,-25.5 -31.5,-28.2 -8.7,-2.7 -37.6,-2.5 -37.6,-2.5 z"
   id="path4" />
	<path
   class="st0"
   d="m 391.9,419.2 c 0,0 -0.1,-2.5 3.4,-8.3 3.5,-5.8 -0.1,-11.9 -0.1,-11.9 0,0 27.5,-3.4 51.5,9.3 26.1,13.8 40.7,32.4 42,38.8 1.3,6.4 -16,12.1 -19.2,16.6 -3.2,4.5 -13.2,4.4 -16.4,2.4 -3.2,-2 -22,-15.6 -22,-15.6 l -14.1,5.6 -21.7,-30.8 z"
   id="path5" />
	<path
   class="st0"
   d="m 296.2,172.8 2.4,-12.9 c 0,0 49.4,-93.9 55.4,-92.2 6,1.6 -33.8,89 -33.8,89 0,0 -7.1,3.3 -12.3,7.2 z"
   id="path6" />
	<path
   class="st1"
   d="m 358.4,249.7 c 0,0 22.8,3.7 31.9,-0.2 9.1,-3.9 14.1,-10.7 14.1,-10.7 v -3.5 l -33.9,8 z"
   id="path7" />
	<path
   class="st2"
   d="m 358.4,249.7 16.4,1.6 c 0,0 9.2,5 12,7.9 2.8,2.9 5.1,9.5 5.1,9.5 h -9.6 l -14.9,-6.3 -9.1,-9.4 v -3.3 z"
   id="path8" />
	<path
   class="st3"
   d="m 209.4,326.2 c 0,0 -34.9,-3 -42.1,-8.9 -7.2,-5.9 -18.7,-14.2 -18.7,-14.2 0,0 13,-0.3 19.6,0 6.7,0.3 14.4,-4.2 14.4,-4.2 0,0 -18.1,-7.3 -24.3,-13.6 -6.2,-6.3 -12,-15 -12,-15 0,0 16.4,-0.3 26,-0.3 7.9,0 18.9,-8.2 18.9,-8.2 L 179.8,253 c 0,0 13.9,-1.3 20.8,-5.9 6.6,-4.3 12.9,-12 12.9,-12 l 26,0.2 c 0,0 9.6,7.5 15.3,19.4 6.7,13.9 6.4,23.8 6.4,23.8 0,0 -2.9,-3.1 -9.8,-5.8 -9.4,-3.7 -16.1,-5 -16.1,-5 0,0 11.9,6 14.1,15.1 2.2,9.1 -1.5,28.8 -1.5,28.8 l -14.2,5.8 z"
   id="path9" />
	<path
   class="st4"
   d="m 151.1,412.1 c 0,0 10.6,-18.7 13.5,-20.4 2.8,-1.7 11.6,-9.1 11.6,-9.1 0,0 0.2,10.8 10.1,18.7 10.8,8.6 26.9,7.9 26.9,7.9 l -22.9,22.9 c 0,0 -21.3,-0.6 -27.9,-4.3 -6.7,-3.6 -11.3,-15.7 -11.3,-15.7 z"
   id="path10" />
	<path
   class="st5"
   d="m 232.1,348.5 c 0,0 -7.4,-16.1 -1,-25 6.4,-8.9 17.5,-15.8 30.8,-15.5 17.8,0.4 28.1,13.6 28.1,13.6 0,0 23.2,-1.1 30,-5.6 6,-4 13.2,-10.9 13.2,-10.9 l -4,-7.6 c 0,0 20.7,-2.7 27.6,-1.4 6.9,1.2 20.4,5 20.6,7.8 0.2,2.8 -13.2,21.5 -13.2,21.5 0,0 3.2,8.7 4.3,12.7 1.1,4.1 2.9,11.4 2.9,11.4 0,0 -8.8,10.9 -13,12.1 -4.3,1.2 -32.6,3.1 -40.9,2.5 -8.4,-0.7 -10.7,0.1 -10.7,0.1 l -13.2,8.1 -3.6,-1.6 c 0,0 -25.1,-20 -35.6,-21.3 -10.5,-1.3 -22.3,-0.9 -22.3,-0.9 z"
   id="path11" />
	<path
   class="st5"
   d="m 385.9,390.2 c 0,9.9 -9.5,17.9 -21.1,17.9 -11.7,0 -24.8,-8.7 -21.1,-17.9 4.1,-10.1 9.5,-16.5 21.1,-16.5 11.6,0 21.1,6.6 21.1,16.5 z"
   id="path12" />
	<path
   class="st3"
   d="m 232,213.3 c 0,0 7.9,-20 10.2,-23.7 4.9,-7.9 33.6,-15.2 36,-27.6 2.4,-12.5 -6.2,-14.7 -6.2,-14.7 0,0 8.1,-2.9 21.5,7.9 7.3,5.9 2.7,15.3 2.7,15.3 0,0 7.4,-0.8 11.7,-6.5 4.4,-5.7 29.2,-12.9 29.2,-12.9 0,0 -1.4,5.8 -2.7,11.9 -1.3,6.1 -0.8,13.5 -3.6,16.2 -2.8,2.7 -12.1,7.3 -12.1,7.3 0,0 14,-2.1 13.2,10.8 -0.8,12.9 -2.2,19.5 -2.2,19.5 0,0 -33.7,-6.4 -46.1,-7.7 -18.2,-2 -30.3,9.9 -30.3,9.9 z"
   id="path13" />
	<path
   class="st6"
   d="m 267.8,229.8 31.5,28.7 c 0,0 60.3,-54.7 65.1,-57.5 6,-3.5 9.3,-5.8 9.3,-5.8 l -26.6,-31 c 0,0 -1,-2.8 -8.3,1.3 -9.3,5.3 -71,64.3 -71,64.3 z"
   id="path14" />
	<polygon
   class="st5"
   points="281.2,229.8 281.2,235.3 291.3,243.3 296.2,243.3 305.6,251.3 299.4,258.5 267.8,229.8 273.6,224.3 "
   id="polygon14" />
	<path
   class="st1"
   d="m 478.8,317.2 -31.2,3.1 c -2.1,0.2 -4,-1.3 -4.2,-3.4 L 437.6,259 c -0.2,-2.1 1.3,-4 3.4,-4.2 l 31.2,-3.1 c 2.1,-0.2 4,1.3 4.2,3.4 l 5.8,57.9 c 0.2,2.1 -1.3,4 -3.4,4.2 z"
   id="path15" />
	<path
   class="st6"
   d="m 473.2,305.2 -21.9,2.2 c -1.6,0.2 -3.1,-1 -3.2,-2.6 L 444,264.2 c -0.2,-1.6 1,-3.1 2.6,-3.2 l 21.9,-2.2 c 1.6,-0.2 3.1,1 3.2,2.6 l 4.1,40.6 c 0.2,1.5 -1,3 -2.6,3.2 z"
   id="path16" />
	<path
   class="st7"
   d="m 204.2,357.6 c 0,0 -1.1,-22.5 5.2,-31.4 6.3,-8.9 24.2,-8.9 24.2,-8.9 0,0 -8.6,11.8 -8.2,16.7 0.5,4.9 6.7,14.5 6.7,14.5 z"
   id="path17" />
	<path
   class="st3"
   d="m 294,441.4 c 0,0 6.2,-10.4 21.6,-19.6 15.5,-9.3 34.3,-16.4 34.3,-16.4 0,0 14.7,4.9 21.5,1.7 14.1,-6.6 14.5,-17 14.5,-17 h 6 c 0,0 6.7,12.4 3.4,20.7 -3.3,8.3 -6.8,13.1 -6.8,13.1 0,0 -14,-3.5 -24.1,-2.6 -10.1,0.9 -15,1.4 -15,1.4 0,0 -8.9,7.5 -13.8,17.9 -5.4,11.4 1.3,25.3 1.3,25.3 l -23.7,4.4 c 0,0 6.9,-11.3 -1.9,-21 -8.6,-9.6 -17.3,-7.9 -17.3,-7.9 z"
   id="path18" />
	<path
   class="st8"
   d="m 220.8,402.1 c 0,0 22.6,57 51.6,76.7 30.1,20.5 74.9,9.6 90.6,2.5 15.7,-7.1 14.5,-8.7 14.5,-8.7 0,0 -0.7,-2 -7.2,-5.5 -11.4,-6.1 -55.6,3.3 -55.6,3.3 0,0 5,-12.8 -3.2,-21 -10.7,-10.9 -20.6,-6.9 -20.6,-6.9 0,0 5,-14.4 -1.3,-22.1 -6.3,-7.7 -20.7,-7.7 -20.7,-7.7 0,0 4.3,-14.7 -1.4,-22.3 -7.5,-10 -15.6,-7.9 -15.6,-7.9 z"
   id="path19" />
	<path
   class="st5"
   d="m 394.2,485.1 -14.3,-13.4 c 0,0 3.9,-22.9 13.9,-29.1 8.4,-5.2 21.2,-7.8 21.2,-7.8 l 7.4,5.9 c 0,0 0,-9.4 4.8,-15.4 7.2,-9 22.2,-14 22.2,-14 l 15.9,10.2 c 0,0 -19.7,9.4 -23.2,13.2 -3.5,3.8 -8.8,15.7 -8.8,15.7 0,0 -17.8,-5.4 -27.6,6.7 -11,13.6 -11.5,28 -11.5,28 z"
   id="path20" />
	<path
   class="st3"
   d="m 365.8,356 c 0,0 6.3,3.8 10.7,8.4 4.4,4.6 7.6,9.4 7.6,9.4 l -5.3,1.7 c 0,0 -6.7,-4.9 -19,-1 -12.3,3.9 -13.3,9.1 -13.3,9.1 l -29.2,11.5 c 0,0 0.5,-6.9 -4.9,-13.7 -5.4,-6.9 -11.3,-10.9 -11.3,-10.9 l 7,-7.5 c 0,0 35.6,3.7 43.6,0.5 8.1,-3 14.1,-7.5 14.1,-7.5 z"
   id="path21" />
	<path
   class="st4"
   d="m 446.4,334.7 c 0,0 -17.5,-5.8 -20.8,-14.7 -3.3,-8.9 -2.2,-24.3 -2.2,-24.3 l 17.4,-10.5 3.5,25.5 c 0,0 -1.1,8.2 4.6,9.5 5.7,1.3 19.1,-1.9 19.1,-1.9 l -0.8,5.7 z"
   id="path22" />
	<path
   class="st4"
   d="m 394.2,485.1 c 0,0 -0.5,-17.8 11.5,-28 15.5,-13 27.6,-6.7 27.6,-6.7 0,0 4.3,-13.9 13.3,-19.8 8.9,-5.8 18.7,-9.1 18.7,-9.1 0,0 24.7,22.6 23.3,25.6 -3.8,8.1 -5.2,7.3 -12.2,11.9 -7,4.7 -17,11.2 -23.4,7 -6.4,-4.1 -16.7,-10 -16.7,-10 0,0 11.6,13.9 12.2,20.2 0.7,8.5 -11,12.5 -19,15.4 -8,2.8 -16.1,7.8 -24.8,3.8 -8.7,-4.1 -10.5,-10.3 -10.5,-10.3 z"
   id="path23" />
	<path
   class="st9"
   d="m 253.2,381.3 c 0,0 10.2,1.6 14.3,9.2 6.4,11.8 2.8,22.3 2.8,22.3 0,0 7.9,0.8 11.2,2.3 3.3,1.5 6.8,4.1 6.8,4.1 0,0 5,-7.8 12.9,-13.8 9.8,-7.3 16.2,-10.1 16.2,-10.1 0,0 0.1,-8.1 -4.9,-13.7 -5,-5.6 -11.3,-10.9 -11.3,-10.9 l -7.5,1.8 -9.9,-4.5 c 0,0 -15.9,5.6 -18.9,7.2 -3.1,1.4 -11.7,6.1 -11.7,6.1 z"
   id="path24" />
	<path
   class="st5"
   d="m 197.1,363.5 c 0,0 -6.8,-17.9 -3.7,-23.9 3.1,-6 16,-13.4 16,-13.4 0,0 -5.6,9.4 -5.3,14.3 0.3,4.9 1.4,17.1 1.4,17.1 z"
   id="path25" />
	<path
   class="st5"
   d="m 209.4,414.8 11.3,-12.7 c 0,0 25.5,64.1 51.6,76.7 26,12.6 60.9,12.6 75.7,7.6 14.8,-5 31.8,-14.7 31.8,-14.7 0,0 5.7,7.4 6,8.3 0.3,0.9 -23.3,14.9 -37.6,19.2 -19.8,6 -72.5,3.1 -87.2,-9.4 -29,-24.8 -51.6,-75 -51.6,-75 z"
   id="path26" />
	<path
   class="st5"
   d="m 201,532.4 c -30.2,-27.7 -41.3,-59.1 -34.4,-67.4 7.5,-9 14.1,-8.4 19.7,-5.9 5.6,2.5 12.5,-5.2 12.5,-5.2 0,0 15.3,29.9 30.1,41.2 14.8,11.4 48.5,24 48.5,24 L 264,530.5 c 0,0 9.6,8.9 2.6,16.1 -7,7.3 -15.9,9.7 -26,6.8 -10.1,-2.8 -39.6,-21 -39.6,-21 z"
   id="path27" />
	<path
   class="st10"
   d="m 290.9,442.6 c 0,0 2.8,-7.8 1.8,-13.4 -1.7,-9.2 -4.5,-10.1 -4.5,-10.1 0,0 12.7,-15.3 29.1,-23.9 16.3,-8.6 29.2,-11.5 29.2,-11.5 0,0 -4,8.8 -2.1,12.3 5.6,10.2 5.6,9.4 5.6,9.4 0,0 -26.5,9.1 -34.3,16.4 -18,16.9 -24.8,20.8 -24.8,20.8 z"
   id="path28" />
	<path
   class="st10"
   d="m 385.9,390.2 c 0,0 3.5,-0.9 -1.8,-7.8 -5.3,-6.8 -5.3,-6.8 -5.3,-6.8 l 5.3,-1.7 c 0,0 2.9,6.6 5.7,8.2 2.8,1.6 2.1,8.2 2.1,8.2 h -6 z"
   id="path29" />
	<path
   class="st1"
   d="m 320.8,504.3 c 0,0 -30.6,17.5 -43.3,14.9 -19.5,-4.1 -45.1,-16 -56.4,-32.2 -14.1,-20.2 -21.8,-28.1 -21.8,-39.1 0,-21.6 10.2,-33.2 10.2,-33.2 0,0 18.8,49.8 48.5,69.2 29.7,19.5 62.8,20.4 62.8,20.4 z"
   id="path30" />
	<path
   class="st11"
   d="m 87.4,584.1 c 0,0 -33,17 -29.7,27 4.7,14 49.8,20.9 49.8,20.9 0,0 -12.2,12.7 -2,16.1 10.2,3.4 24.8,-11.3 24.8,-11.3 0,0 -19.9,7.8 6.6,16.9 14.6,5 37.2,-31.9 37.2,-31.9 l 38.7,-77.7 c 0,0 4.7,3.4 -11.7,-11.6 -16.4,-15 -19.8,-21 -19.8,-21 z"
   id="path31" />
	<path
   class="st12"
   d="m 50.2,505.8 c 0,0 3.2,15.3 12.9,21.3 9.7,6 24,10.9 55,-4 29.3,-14.1 46.5,-31.9 46.9,-34.8 l 13.9,22.2 c 0,0 -96.3,75.7 -107.6,68.6 C 60,572 28.1,553 28.1,528.2 c 0.1,-25 22.1,-22.4 22.1,-22.4 z"
   id="path32" />
	<path
   class="st13"
   d="m 45,559.9 c 0,0 55,1.6 80.5,-15.9 25.5,-17.5 48.9,-37.3 48.9,-37.3 l 11.7,11.1 c 0,0 -25.5,27.5 -40,42.2 -33.8,34.1 -65.8,60.2 -75.4,58.5 -5.6,-1 -1.9,1.8 -7.1,-0.6 -4.5,-2 -5.9,-2.2 -5.9,-6.8 -0.2,-16.7 37.7,-26.9 37.7,-26.9 0,0 -16.3,3.2 -24.5,-2.7 C 62.7,575.6 45,559.9 45,559.9 Z"
   id="path33" />
	<path
   class="st13"
   d="m 95.5,507.9 c 0,6.3 -5.1,11.4 -11.4,11.4 -6.3,0 -11.4,-5.1 -11.4,-11.4 0,-6.3 5.1,-12.7 11.4,-12.7 6.3,0 11.4,6.4 11.4,12.7 z"
   id="path34" />
	<ellipse
   class="st12"
   cx="75.300003"
   cy="463.60001"
   rx="10.9"
   ry="2.5999999"
   id="ellipse34" />
	<path
   class="st14"
   d="m 141.3,655 c -17.5,-2.2 -18.4,-13.7 -18.4,-13.7 0,0 -48.7,19.2 0.6,-20.2 29.9,-23.9 77.5,-88.6 77.5,-88.6 l 12.9,9.9 c 0,0 -20,45.1 -21.9,75.6 -1.4,23 10.1,40.5 10.1,40.5 l -15.6,-22 c 0,0 4,14.6 -4.4,14.6 -12.5,0 -8.9,-35.7 -8.9,-35.7 0,0 -19.7,41.1 -31.9,39.6 z"
   id="path35" />
	<path
   class="st15"
   d="m 186.3,648.9 c -11.7,5.1 -11.6,-37.8 5.8,-71.7 13.3,-25.9 21.9,-34.9 21.9,-34.9 l 14.7,6.4 c 0,0 -16.3,32.7 -19.1,61.1 -2.7,26.7 20.5,35.4 20.5,35.4 0,0 29,15.3 12.2,22.7 -16.8,7.4 -38.4,-7.1 -45,-16.8 -6.7,-9.6 -10.5,-14.8 -10.5,-14.8 z"
   id="path36" />
	<path
   class="st16"
   d="m 240.7,553.5 c 0,0 -19,28.1 -17.5,41.9 1.5,13.9 5.9,35.8 28.6,41.5 22.7,5.7 18.9,1 17,5 -1.9,4 -16.8,7 -25.5,5.4 -8.7,-1.7 -27.5,-3.4 -33.9,-16.6 -6.4,-13.3 -5.7,-23 0,-42.1 5.7,-19.1 19.1,-39.8 19.1,-39.8 z"
   id="path37" />
	<circle
   class="st16"
   cx="317.89999"
   cy="606.09998"
   r="7.6999998"
   id="circle37" />
	<ellipse
   class="st15"
   cx="282.20001"
   cy="618.40002"
   rx="14.4"
   ry="7.9000001"
   id="ellipse37" />
	<path
   class="st17"
   d="m 266.2,592.8 c 0,0 9.3,-8.9 13.1,-7.1 0,0 -5.4,-13 -0.5,-18.5 0,0 -7.9,9.4 -16.1,5.2 -2,-1 5.7,3.3 5,9.7 -0.7,6.4 -1.5,10.7 -1.5,10.7 z"
   id="path38" />
	<path
   class="st17"
   d="m 309.6,555.9 c 0,0 4.7,-1.2 5.5,-3.7 0.4,-1.2 0.9,-2.9 0.9,-2.9 l 3.5,6 2.5,2.5 -3.5,3.9 -0.8,2.6 -3.1,-5.9 z"
   id="path39" />
	<path
   class="st17"
   d="m 103.4,477.1 c 0,0 4.5,-4 4.5,-7.3 0,-1.4 -0.8,-8.3 -0.8,-8.3 0,0 5.2,4.9 8.1,5.8 2.9,0.9 8.7,1.5 8.7,1.5 0,0 -3.2,7.7 -2.9,9.3 0.3,1.6 1.3,5.3 1.3,5.3 0,0 -5.9,-6.5 -9.6,-6.6 -3.8,-0.2 -9.3,0.3 -9.3,0.3 z"
   id="path40" />
	<path
   class="st18"
   d="m 273.6,286 c 0,0 3.9,15.6 29.3,23.3 21.7,6.6 33.2,-2.8 30.4,-7.2 l -6,-8.4 9.4,-11 c 0,0 -21.9,14.1 -31.1,15 -17.1,1.8 -32,-11.7 -32,-11.7 z"
   id="path41" />
	<path
   class="st18"
   d="m 267.8,227.6 -2.1,3.5 34.5,31.6 c 0,0 28.9,-27.5 45,-41.2 10.1,-8.6 17.2,-15.8 17.2,-15.8 l -3.5,-2.2 -57.9,53.1 z"
   id="path42" />
	<path
   class="st18"
   d="m 311.1,319.4 c 0,0 -2.9,5.4 3.6,21.6 8.5,21.1 41,21.2 41,21.2 0,0 -23.9,6.5 -34.2,3.8 -10.3,-2.7 -12.7,-2.9 -12.7,-2.9 0,0 -0.5,-8.2 -7,-20.1 -6.5,-11.8 -11.1,-21.4 -11.1,-21.4 z"
   id="path43" />
	<path
   class="st18"
   d="m 287.3,368.7 c 0,0 -12.2,-11 -24,-16.1 -11.8,-5.1 -34.9,-5.7 -34.9,-5.7 0,0 16.5,2.8 24.7,9.1 -14.8,6.2 -41.5,18.8 -54,28.9 -19.2,15.6 -38.1,40.3 -38.1,40.3 0,0 3,4.2 8.5,5.5 8.5,2.1 13.9,0 13.9,0 0,0 21.7,-20.1 34.7,-32.2 13.1,-12.2 34.3,-20.7 49.6,-28.5 1.4,1.7 3,3.3 3,3.3 z"
   id="path44" />
	
		<ellipse
   transform="matrix(0.7855,-0.6189,0.6189,0.7855,-123.6282,282.1152)"
   class="st19"
   cx="345.10001"
   cy="319.39999"
   rx="5.5"
   ry="10.8"
   id="ellipse44" />
	
		<ellipse
   transform="matrix(0.6178,-0.7864,0.7864,0.6178,-148.8965,340.6249)"
   class="st19"
   cx="275.89999"
   cy="323.5"
   rx="6.0999999"
   ry="14.5"
   id="ellipse45" />
	<path
   class="st18"
   d="m 258,311.6 c 0,0 -8.7,1.2 -6.1,17.3 2.6,16.1 45.8,39.8 45.8,39.8 l -4.1,3.6 c 0,0 -24.4,-19.4 -35.6,-21.6 -11.2,-2.2 -17.8,-3.8 -17.8,-3.8 0,0 -9.2,1.1 -8.1,-12.9 1.5,-19.9 25.9,-22.4 25.9,-22.4 z"
   id="path45" />
	<path
   class="st18"
   d="m 351.9,308.5 c 0,0 6.9,2.7 11,3.1 4.1,0.4 10.9,-1.6 10.9,-1.6 l -10.4,16.3 z"
   id="path46" />
	<path
   class="st18"
   d="m 367.7,335.4 c 0,0 12.6,1.4 36.7,-4.1 24.1,-5.6 35.9,-17.4 35.9,-17.4 l -3.9,-26 4.3,-2.6 c 0,0 -2.5,27.6 5.5,32.1 7.9,4.5 21.7,1 21.7,1 0,0 -1.6,-1.1 -1.9,2.2 -0.3,3.3 -29.2,15.1 -50.6,20.7 -21.4,5.6 -47.1,5.4 -47.1,5.4 0,0 2.8,1.4 1.5,-3.6 -1.3,-5 -2.1,-7.7 -2.1,-7.7 z"
   id="path47" />
	<polygon
   class="st18"
   points="358.4,251.3 379.9,242.3 378.8,250 "
   id="polygon47" />
	<path
   class="st18"
   d="m 358.4,251.3 16.8,0.2 c 0,0 4.1,1.5 6.6,3.6 2.5,2.1 -4.8,0.4 -8,3.4 -3.2,3.1 2.8,8.5 2.8,8.5 z"
   id="path48" />
	<path
   class="st18"
   d="m 392.5,416.4 c 0,0 19,0.8 38.6,16.4 19.6,15.7 22.5,25 31.9,26.2 9.4,1.2 18.1,-3 18.1,-3 0,0 -10.7,12 -21.4,11.2 -10.7,-0.9 -28.8,-16.7 -28.8,-16.7 0,0 -16.5,-17.5 -29.5,-22 -13,-4.5 -11.7,-6.5 -11.7,-6.5 z"
   id="path49" />
	<path
   class="st18"
   d="m 417.8,485.1 c -9.1,-2 -10.4,-30.8 -31.9,-41 -21.5,-10.2 -33.5,-1.5 -57.1,-3.3 -23.5,-1.9 -29.7,-19.4 -43.6,-35.3 -8.8,-10.1 -13.6,-20 -16,-26 l 10.6,-5.6 c 0,0 13,3.5 19.3,1.8 6.3,-1.8 8.3,-6.9 8.3,-6.9 0,0 32.7,1.3 42.5,-0.9 9.8,-2.2 15.9,-11.8 15.9,-11.8 0,0 -10,6.1 -20.7,8.6 -10.7,2.4 -36.3,-1.5 -36.3,-1.5 0,0 -2.1,1.1 -11.2,5.7 -9.1,4.5 -14.5,0 -14.5,0 l -15.8,5.4 c 0,-0.1 -0.1,-0.2 -0.1,-0.2 l -1.1,0.6 -1.4,0.5 v 0.3 l -12.9,7.3 c 0,0 9.2,-1.5 15.6,7.9 6.4,9.4 1,24 1,24 0,0 13.6,-6.5 21.5,5.5 4.3,6.6 -0.4,21.8 -0.4,21.8 0,0 14.8,-1.7 23.9,10.3 6.4,8.4 1.2,18.3 1.2,18.3 0,0 44.9,-5.1 60.1,-0.5 15.2,4.6 26.6,26.4 36.3,26.9 9.8,0.6 24,-8.6 24,-8.6 0,0 -8.1,-1.3 -17.2,-3.3 z"
   id="path50" />
	<path
   class="st18"
   d="m 233.6,346.7 -38,17.6 c 0,0 -6.1,-16.4 -2.2,-24.6 3.9,-8.2 35.1,-22.3 35.1,-22.3 L 237,316 c 0,0 -12.1,7.4 -10.1,15.6 2,8.2 6.7,15.1 6.7,15.1 z"
   id="path51" />
	<path
   class="st18"
   d="m 263.5,386.3 c 0,0 -21.4,6 -26.5,12.3 -5.2,6.2 -9.7,9.7 -5,16.2 4.7,6.5 20.4,2.1 20.4,2.1 0,0 -11.2,12.4 -0.5,24.9 10.6,12.6 24.1,9.7 24.1,9.7 0,0 -9.5,15.1 5.1,21.4 14.6,6.3 33.6,-2.5 33.6,-2.5 0,0 39.6,-8 49.8,-4.3 10.3,3.7 21.4,13.7 21.4,13.7 0,0 -30.6,23 -56.6,22.2 -26,-0.8 -68.8,-6.7 -82.7,-26.6 -13.8,-19.9 -33.1,-50.5 -33.5,-56.5 -0.4,-6 -3.4,-8.7 -3.4,-8.7 l 45,-29.7 z"
   id="path52" />
	
		<ellipse
   transform="matrix(0.9406,-0.3394,0.3394,0.9406,-119.7206,112.5139)"
   class="st19"
   cx="261.79999"
   cy="398.5"
   rx="3.9000001"
   ry="7"
   id="ellipse52" />
	
		<ellipse
   transform="matrix(0.9406,-0.3394,0.3394,0.9406,-128.0483,120.7927)"
   class="st19"
   cx="281.29999"
   cy="426.5"
   rx="3.9000001"
   ry="7"
   id="ellipse53" />
	<ellipse
   transform="matrix(0.7396,-0.6731,0.6731,0.7396,-226.6787,322.1711)"
   class="st19"
   cx="303"
   cy="454"
   rx="3.9000001"
   ry="7"
   id="ellipse54" />
	<path
   class="st18"
   d="m 317.3,505 c 0,0 -29.8,0.7 -53.2,-8.4 -13.5,-5.2 -23,-11.9 -26.1,-14.3 -0.6,-0.5 -1.5,-0.3 -1.9,0.3 l -2.9,4 c -0.7,1 -0.7,2.4 0.2,3.4 2.4,2.6 7.2,7.7 10.1,10.6 3.9,3.9 16.5,11.6 16.5,11.6 0.4,2.2 -26.9,-3.7 -47.3,-36.6 -14.4,-23.3 -2.2,-61.1 -0.9,-60.4 0,0 24.1,48.3 32.3,57.9 20,23.5 73.2,31.9 73.2,31.9 z"
   id="path54" />
	<path
   class="st18"
   d="m 192.6,465 5.3,-5.9 0.6,-6.2 c 0,0 19,33.8 33.4,44.5 14.4,10.7 42.7,21.2 42.7,21.2 0,0 -19.2,3.2 -50.4,-19.8 C 207.6,486.5 208.7,485 208.7,485 l -3.9,3.3 z"
   id="path55" />
	<path
   class="st18"
   d="m 186.2,465.7 13,22.6 c 0,0 -5.8,-1.5 -10.6,3.9 -4.8,5.4 -6.5,8.3 -6.5,8.3 0,0 14.9,22.7 34.5,36.2 15.2,10.5 43.4,15.2 43.4,15.2 0,0 -37.6,1.6 -55.8,-14.4 -35,-30.7 -39.6,-63.2 -39.6,-63.2 l 3.2,5.7 c 0,0 -1.1,-8.5 5.1,-13.7 8.3,-7.1 13.3,-0.6 13.3,-0.6 z"
   id="path56" />
	<path
   class="st19"
   d="m 203.4,493.1 c 0,0 13.2,23 33.9,31.6 11.1,4.6 23.3,7.9 26.6,10.8 2.6,2.2 1.8,3.8 -3.6,3.7 -4.3,-0.1 -23.4,-8.5 -31.2,-13.4 -13.4,-8.4 -25.7,-32.7 -25.7,-32.7 z"
   id="path57" />
	<path
   class="st19"
   d="m 434.5,462.3 c 4.3,5.5 9,11.1 7.1,12.6 -1.9,1.5 -6.2,-4.4 -10.5,-9.9 -4.3,-5.5 -9.7,-8.5 -7.8,-9.9 1.9,-1.5 6.9,1.7 11.2,7.2 z"
   id="path58" />
	<path
   class="st19"
   d="m 474.8,436.8 c 4.3,5.5 9.5,11 7.7,12.5 -1.8,1.5 -6.7,-4.3 -11,-9.8 -4.3,-5.5 -9.7,-8.5 -7.8,-9.9 1.8,-1.5 6.8,1.8 11.1,7.2 z"
   id="path59" />
	<path
   class="st19"
   d="m 371.5,304 c -0.3,1.1 -6.9,0.9 -11.5,-0.3 -4.6,-1.2 -8.1,-3.1 -7.8,-4.2 0.3,-1.1 4.2,-0.9 8.8,0.3 4.7,1.3 10.8,3.1 10.5,4.2 z"
   id="path60" />
	<path
   class="st19"
   d="m 365.3,383.7 c 7.3,0 13.6,3.9 16.7,9.6 0.2,-0.9 0.3,-1.7 0.3,-2.6 0,-7.6 -7.7,-13.8 -17.1,-13.8 -9.5,0 -17.1,6.2 -17.1,13.8 0,1 0.1,1.9 0.4,2.8 3,-5.8 9.4,-9.8 16.8,-9.8 z"
   id="path61" />
	<polygon
   class="st20"
   points="473,252.4 476.4,259.1 452.8,320 446.2,317.4 444.2,310 465.4,252.4 "
   id="polygon61" />
	<path
   class="st18"
   d="m 241.2,236.1 15.2,-2.3 -2.8,7.4 c 0,0 2,0.5 6.2,11.3 4.1,10.8 0.7,28.3 0.7,28.3 0,0 -0.6,-23.6 -6.8,-30.5 -7.3,-8 -12.5,-14.2 -12.5,-14.2 z"
   id="path62" />
	<path
   class="st18"
   d="m 258,220.6 c 0,0 3.8,-3.9 9.9,-5.7 6.3,-1.9 18.9,-4 18.9,-4 0,0 -9.8,-4.1 -19.6,0 -9.7,4.1 -14.5,7.7 -14.5,7.7 z"
   id="path63" />
	<path
   class="st18"
   d="m 261.8,282 c 0,-0.5 -5,-3.6 -7.6,-4.8 -2.8,-1.3 -3.1,-1.1 -3.1,-1.1 0,0 2.7,5.7 3.7,13.7 1.5,12 0.2,19.8 -0.6,18.4 l -6.8,0.9 c 0,0 6.1,-24 0,-29.9 -6.1,-6 -7.1,-10 -7.1,-10 0,0 12.8,3.6 16.4,6.3 3.6,2.6 5.1,6.5 5.1,6.5 z"
   id="path64" />
	<path
   class="st18"
   d="m 248.8,304.7 c 0,0 -15.1,5.6 -24.6,3.8 -18.5,-3.6 -25.8,-25.7 -25.8,-25.7 0,0 -4,12.6 1.3,21.9 5.3,9.3 10,12.6 10,12.6 0,0 -6.1,2.7 -20.5,1.3 -19.7,-1.9 -39.8,-16.9 -39.8,-16.9 0,0 15.6,17.7 26.7,20.1 11.1,2.4 33.5,5.1 33.5,5.1 L 247.3,309 Z"
   id="path65" />
	<path
   class="st18"
   d="m 245.6,241.4 c 0,0 -8.6,-0.2 -17.1,-0.8 -8.5,-0.6 -18.1,-6.8 -18.1,-6.8 v 0 c 0,0 11.3,3.3 17.3,2.9 6,-0.4 9.3,0 9.3,0 z"
   id="path66" />
	<path
   class="st18"
   d="m 301.1,161.1 c 0,0 1.4,1.4 7,0.9 5.6,-0.6 4,-0.9 4,-0.9 0,0 -7.5,6.2 -9.2,7 -1.7,0.8 -8.3,2.8 -8.3,2.8 l 3.3,-7.6 z"
   id="path67" />
	<g
   id="g85">
		<path
   class="st21"
   d="m 420.4,395.8 c -9.9,-1.8 -20,-0.8 -24.2,-0.3 -0.7,-3.6 -1.9,-7.5 -3.5,-11.9 -5.3,-14 -18.4,-24.7 -23.6,-28.5 0.8,-1 1.4,-2 1.9,-3.1 l 1.3,-0.3 c 1.1,-0.1 3,-0.2 4.9,-0.3 7.2,-0.3 19.4,-0.8 35.7,-4.2 22.2,-4.7 36.4,-11.3 44.8,-15.3 1.8,-0.8 3.3,-1.6 4.5,-2.1 5.9,-2.5 7.6,-7.2 8.1,-9.7 l 5,-0.6 c 5.1,-0.6 8.7,-5.2 8.1,-10.2 l -5.9,-52 c -0.6,-5.1 -5.2,-8.7 -10.2,-8.1 l -22.9,2.6 c -5.1,0.6 -8.7,5.2 -8.1,10.2 l 2.4,21.1 c -2.1,1.8 -12.8,10.9 -28.8,17.4 -14.3,5.9 -30.4,10.5 -36.3,12.1 0.8,-1.1 1.5,-2 2.3,-2.9 1.9,-2.3 3.4,-4.2 2.9,-6.4 -0.4,-1.6 -1.8,-3 -4.8,-4.5 -13.3,-6.5 -36.9,-4.4 -44,-3.5 l -1,-1.9 c 1,-0.9 2,-1.8 3,-2.7 1,-0.8 1.9,-1.7 2.9,-2.5 0.5,-0.4 1,-0.8 1.5,-1.1 0.2,-0.2 0.5,-0.3 0.7,-0.4 0.3,-0.2 0.3,-0.1 0.4,-0.3 2.2,-0.4 4.7,-0.3 7.2,0.2 5.1,0.9 10.3,2.7 15.7,4 1.4,0.3 2.8,0.7 4.2,0.9 1.5,0.2 2.9,0.2 4.3,0.4 2.8,0 5.7,0 8.4,-0.3 5.6,-0.6 10.9,-1.8 16,-3.4 2.6,-0.8 5,-1.7 7.5,-2.9 0.6,-0.3 1.2,-0.6 1.8,-0.9 l 0.9,-0.5 0.9,-0.6 c 0.1,-0.1 0.3,-0.2 0.5,-0.4 0.2,-0.2 0.4,-0.4 0.5,-0.5 0.3,-0.3 0.5,-0.7 0.7,-1 0.4,-0.7 0.7,-1.3 0.9,-2 0.9,-2.6 1.3,-5.3 0.6,-8.2 -0.4,-1.4 -1.1,-3 -2.6,-3.9 -0.4,-0.2 -0.9,-0.5 -1.3,-0.6 -0.4,-0.1 -0.8,-0.2 -1.1,-0.2 -0.7,-0.1 -1.4,-0.1 -2,0 -2.5,0.1 -4.5,0.6 -6.6,0.9 -0.4,0.1 -0.8,0.1 -1.2,0.2 -0.1,-1.3 -0.9,-3.4 -3.2,-6.6 -2.6,-3.5 -7.6,-6.8 -11.1,-8.9 2,-0.3 4,-0.6 6.1,-1 15.1,-2.9 22.1,-10.6 22.4,-11 l 0.6,-0.7 -1.8,-3.6 c 1.6,-0.7 3.2,-1.4 4.9,-2.5 0.6,-0.4 1.2,-0.8 1.8,-1.4 0.6,-0.6 1.3,-1.3 1.6,-2.6 0.3,-2 -0.1,-3.4 -0.4,-4.8 -0.8,-2.8 -2,-5.3 -3.4,-7.8 -1.4,-2.4 -3,-4.8 -5.1,-7 -0.5,-0.5 -1.2,-1.1 -1.7,-1.5 l -1.6,-1.3 c -1.1,-0.9 -2.1,-1.8 -3.3,-2.6 -1.1,-0.9 -2.3,-1.7 -3.7,-2.4 -1.4,-0.7 -2.9,-1.2 -4.5,-1.4 -1.7,-0.2 -3.1,0 -4.5,0.1 -1.4,0.2 -2.8,0.3 -4.1,0.6 -5.4,0.8 -10.6,1.7 -15.6,2.1 -0.8,0.1 -1.5,0.1 -2.2,0.2 2.9,-2.1 5.1,-3.5 7.4,-4.7 1.3,-0.7 2.2,-1.9 2.5,-3.4 0.3,-1.5 -0.1,-3 -1.1,-4.1 L 349,163.7 c -0.9,-1 -2.3,-1.6 -3.6,-1.5 -3,0.2 -6.8,2.3 -10.3,4.7 1.6,-7.3 4,-15.8 4,-15.9 l 0.6,-2.3 -2.3,0.6 c -0.6,0.2 -8,2.2 -15.6,5.3 10.8,-23.9 37.2,-83.6 34.7,-89.1 -0.2,-0.5 -0.6,-0.9 -1.1,-1 -1.8,-0.5 -4.2,-1.3 -31.8,49.1 -10.7,19.4 -21,39.1 -24.9,46.6 -0.7,-2.8 -2.4,-5.6 -5.7,-7.5 -9.7,-5.8 -20.7,-7.4 -21.2,-7.5 l -4.4,-0.6 3.3,2.9 c 0.1,0.1 8.3,7.5 6.2,14.7 -1.6,5.7 -11.5,11.1 -20.2,15.7 -2.7,1.4 -5.2,2.8 -7.6,4.2 -9.3,5.5 -16.5,24.4 -18.5,29.9 -22.8,2.7 -31.1,4.7 -32.6,8 -0.8,1.8 -0.3,4.3 1.4,7 2.1,3.4 5.7,6.9 10.4,9.1 -1.7,1.9 -6.3,7 -10.9,10.5 -5.6,4.3 -19,6.6 -19.2,6.6 l -3.3,0.5 11.7,8.1 c -1.2,1.6 -4.5,4.9 -12.2,6 -10.9,1.5 -29.5,0 -29.7,0 l -2.4,-0.2 1.1,2.2 c 0.1,0.3 3.7,6.8 13.3,15.7 7,6.4 15.7,11.8 20.1,14.4 l -7.4,2 c -2,0.5 -4,0.7 -6,0.6 l -17.4,-1.2 1,2.1 c 0.2,0.5 6,11.9 24.8,17.8 11.5,3.6 24.3,4.8 31.2,5.2 -6.1,3.6 -11.1,8 -12.8,13.2 -2.5,7.6 0.8,20.9 1.9,24.8 -2.6,1.7 -5.1,3.6 -7.4,5.4 -17.8,14.5 -36.6,36.3 -36.6,42.5 0,5.7 7.8,14.2 13.2,17.6 4.5,2.8 14.8,4.3 21.7,4.3 2.3,0 4.2,-0.2 5.5,-0.5 2,-0.6 5.5,-3.6 11.3,-9.3 -1.6,6.9 -3.8,17.8 -3.8,23.1 0,0.6 0,1.2 0.1,1.8 l -8.5,9.5 c -2.7,-2.6 -5.7,-4.3 -9.7,-4.4 -9.1,-0.3 -17.6,10.1 -17.9,18.5 -0.1,2.7 0.7,8.3 3.4,15.6 -6.2,5 -32.2,25.6 -59.2,36.1 -16.8,6.5 -30.1,7 -39.4,1.4 -11.2,-6.7 -12.9,-20.2 -12.9,-20.3 l -0.2,-2 -2,0.3 c -0.8,0.1 -19.2,2.7 -24.9,15.6 -3.6,8.2 -1,18.5 7.6,30.6 18.1,25.4 35.6,33.9 45.4,36.8 -7.9,3.1 -19.7,9.4 -23.2,19.8 -0.8,2.3 -0.5,4.7 0.8,6.9 6.4,10.8 37.2,17.7 47.9,19.8 -2.2,3.1 -5.1,7.9 -4.5,11.6 0.2,1.6 1,2.8 2.3,3.6 4.3,2.7 13.8,-1.3 20.2,-4.6 -0.2,1.4 -0.2,3 0.4,4.6 1.5,3.9 5.8,6.5 12.8,7.7 14.5,2.5 27.5,-15.7 33.7,-26.5 0.3,8.2 1.9,19.8 8.2,22.6 3.2,1.4 5.5,0.7 6.9,-0.2 2.3,-1.4 3.5,-4.2 4.2,-6.8 6.6,8.7 23.2,27.8 41.9,27.8 2.6,0 5.3,-0.4 7.9,-1.2 7.2,-2.2 11.1,-5.5 11.5,-9.7 0.5,-5 -4.4,-9.9 -9,-13.4 9,0.8 22,0.8 27.5,-4.5 0.6,-0.6 2.3,-2.2 1.6,-4.1 -0.7,-2.2 -3.3,-2.6 -8,-3.2 -9.1,-1.3 -24.3,-3.5 -32.5,-19.3 -11.3,-21.8 5.7,-54.3 10.7,-63 2.7,0.5 5.2,0.8 7.5,0.8 1.2,0 2.2,-0.1 3.2,-0.2 7.9,-1.1 15.2,-5.7 18.2,-11.4 1.7,-3.3 1.9,-6.7 0.4,-9.7 -0.8,-1.7 -1.9,-3 -3.2,-4.1 l 10.7,-9.6 c 3,0.5 5.1,0.6 6.3,0.7 0.2,0 0.3,0 0.5,0 6.2,0 18.2,-5.3 28.8,-10 6.1,-2.7 13.7,-6.1 15.5,-6.1 0,0 0,0 0,0 0.6,0 1.1,-0.2 1.5,-0.6 14.7,-1.3 28.8,-5.2 41.2,-11.9 8.8,-4.7 12.9,-9.1 14.9,-11.9 2.6,2.6 5.1,5.3 7.4,7.7 4.9,5.3 8.7,9.4 12,10.4 1.3,0.4 2.6,0.6 4.1,0.6 5.7,0 12.4,-2.8 18.4,-5.4 1.2,-0.5 2.3,-1 3.4,-1.4 7,-2.8 18.8,-9.4 19.2,-16.1 0.1,-2.3 -3.3,-8.5 -8.7,-15.9 5.3,4.2 10,7.8 11.5,8.4 0.8,0.4 1.9,0.5 3.1,0.5 5.6,0 14.7,-3.5 21.9,-8.6 l 1.1,-0.8 c 7.9,-5.7 11.5,-8.3 11.5,-13.4 0.2,-6.3 -37.1,-45.1 -70.6,-51.1 z m 32.8,23.7 c -0.5,0.4 -1.3,0.4 -1.7,-0.2 -0.2,-0.3 -0.3,-0.6 -0.3,-0.9 0,-0.3 0.2,-0.6 0.4,-0.8 0.5,-0.4 1.3,-0.4 1.7,0.2 0.5,0.5 0.4,1.3 -0.1,1.7 z m 0,-4.8 c -1.1,-0.2 -2.4,0 -3.3,0.8 v 0 c -0.8,0.7 -1.3,1.6 -1.4,2.7 -0.1,1 0.2,2.1 0.9,2.9 0.8,0.9 1.9,1.4 3,1.4 0.9,0 1.8,-0.3 2.5,-0.9 1.5,-1.3 1.8,-3.5 0.8,-5.1 2.5,1.8 5,3.7 7.3,5.6 -3.9,0.6 -9.5,2.3 -15.6,6.7 -6.3,4.5 -13.4,11.4 -14.2,19.8 -2.1,-1.7 -4.1,-3.4 -5.8,-4.9 -0.9,-0.9 -1.7,-1.7 -2.6,-2.6 0,-0.1 0,-0.2 0,-0.2 -0.5,-4.4 0.4,-13.1 11.5,-21.4 6.8,-5.1 11.8,-6.2 14.4,-6.4 0.8,0.5 1.7,1.1 2.5,1.6 z m -56.4,-15.2 c 4.1,-0.5 13.7,-1.4 22.9,0.3 9.4,1.7 18.9,5.9 27.5,11.1 -3.1,0.8 -7.4,2.5 -12.5,6.4 -10.3,7.7 -12.5,15.8 -12.7,21.2 -5.6,-5.1 -11.4,-9.5 -16.9,-12.3 -3.5,-1.7 -7.4,-3.1 -11.7,-4.2 2,-3.4 5,-10.6 3.4,-22.5 z m -17.7,70.2 c -2.3,-1.5 -4.6,-2.8 -7,-3.7 -7.9,-3 -21.8,-2.6 -33.7,-1.6 -1.3,-2.9 -4.6,-11.2 -3.2,-18.4 3.2,-16.4 14.4,-22.2 17.3,-23.5 15.7,-0.4 37.3,0.5 50.7,7.2 2.6,1.3 5.2,2.9 7.8,4.8 -4.6,0.1 -11.6,1.3 -18,7 -12.5,11.3 -14,22.5 -13.9,28.2 z m -102,-21.5 c -2.6,1.3 -5,2.9 -7.3,4.8 -1.1,1 -2.2,2 -3.1,3.2 -0.9,1.2 -1.8,2.4 -2.5,3.7 -1.3,2.3 -2.2,4.9 -2.4,7.5 -9.3,-9 -17.3,-21.8 -23.6,-33.8 0.9,-1.7 2,-3.2 3.1,-4.7 1.8,-2.4 4,-4.5 6.3,-6.4 2.4,-1.8 5,-3.3 7.8,-4.5 2.8,-1.2 5.8,-2.1 8.9,-2.7 -3.2,-0.4 -6.4,0 -9.5,0.9 -0.8,0.2 -1.5,0.5 -2.3,0.7 -0.7,0.3 -1.5,0.6 -2.2,1 -1.5,0.7 -2.9,1.6 -4.2,2.5 -2.6,1.9 -4.9,4.4 -6.6,7.2 -0.8,1.4 -1.5,2.9 -2,4.5 -7,-13.7 -11.7,-26.1 -13.1,-30 2.6,-2.3 5,-4.3 7.1,-5.8 4.8,-3.4 14,-8.4 23.5,-13.2 3,0.4 8.1,2 11.5,8.2 5.2,9.6 2.7,21.3 2.6,21.4 l -0.4,1.7 1.7,-0.1 c 0.1,0 14.1,-0.4 18.7,7.4 4.6,7.9 0.6,19.9 0.6,20 l -1,3 2.9,-1.4 c 0.3,-0.1 7.5,-3.4 17.6,5.1 2,2.5 6.7,9.7 5.8,14.2 -1.2,6.3 -1.5,7.7 -1.5,7.7 l -0.6,2.6 2.4,-1 c 0.5,-0.2 1.2,-0.5 2,-0.8 0.2,0.1 0.5,0.1 0.8,0 0.4,-0.1 38.4,-6.8 52.8,-1.4 1.5,0.5 2.9,1.3 4.4,2.1 -9.9,7.4 -56.7,30.9 -103.9,3 -3.2,-1.9 -6.3,-4.3 -9.2,-7.2 1.1,-2.4 2.4,-4.6 3.9,-6.6 1.7,-2.2 3.5,-4.2 5.6,-6 1,-0.9 2.1,-1.8 3.3,-2.6 1.1,-0.9 2.3,-1.7 3.4,-2.5 2.3,-1.6 4.6,-3.2 7.2,-4.5 -3.2,0.3 -6,1.5 -8.5,2.8 z M 228.6,345.7 c -3.8,1.6 -11.8,5.2 -20.6,9.9 -0.6,-4.6 -1.5,-12.9 -0.6,-17.4 1.2,-6.2 8.7,-13 8.8,-13.1 l -0.1,-0.1 c 4.4,-1.8 9.4,-3.6 15.1,-5.4 -0.6,0.8 -1.2,1.6 -1.7,2.4 -7,10.6 -3.4,19.6 -0.9,23.7 z m 4.2,-21.6 c 4.2,-6.5 12.6,-11.7 21.7,-13.6 9.3,-1.9 18.4,-0.3 25.6,4.4 16.7,11.1 26.1,41.2 25.2,46.6 -0.6,3.5 -8.3,7.1 -12.4,8.5 -1.5,-0.5 -4.6,-2.5 -7.9,-4.7 -0.1,-0.1 -0.2,-0.2 -0.3,-0.2 -0.7,-0.5 -1.4,-0.9 -2,-1.4 -6.5,-4.4 -14.6,-10 -22.7,-13.6 -10.9,-4.9 -20.8,-5.7 -25.6,-5.7 -0.8,0 -1.4,0 -1.9,0 -1.6,-2.3 -6.2,-10.3 0.3,-20.3 z m 61.1,-1.3 c 5,0.2 13.3,-0.2 21.9,-3.6 7.7,-3 12.8,-7.6 16.5,-11 2,-1.8 4.2,-3.8 5.1,-3.7 3.4,0.2 12.8,6.4 19,14.6 6.4,8.5 11.9,22.9 11.9,27.5 0,4.6 -5.6,11.3 -15,14.5 -9,3.1 -38,0.6 -43.9,0 0.1,-6.7 -5.4,-24.8 -15.5,-38.3 z m 48.9,73.7 c 0.8,3.2 2.7,5.9 5.3,8 -4.1,1.8 -14.6,6.5 -27.9,13.4 -17.3,9 -25.8,21.5 -26.1,22 0,0 0,0.1 -0.1,0.2 -0.4,0 -0.9,0.1 -1.2,0.2 1,-4.2 2.5,-13.1 -1.5,-19.9 -0.4,-0.6 -0.8,-1.2 -1.3,-1.8 2,-2.4 11.3,-13 26.1,-20.7 12.2,-6.4 22.7,-10.1 27.7,-11.8 -1.5,3.4 -1.9,6.9 -1,10.4 z m 17.9,-20.6 c 2.2,-0.6 4.3,-0.8 6.4,-0.8 8.1,0 15,4.1 16.8,10.6 1,3.9 0,8.1 -2.8,11.9 -2.9,3.8 -7.4,6.7 -12.6,8.1 -10.6,2.8 -21,-1.6 -23.2,-9.8 -2.1,-8.3 4.8,-17.2 15.4,-20 z m -45.9,19.7 c -15.1,7.9 -24.4,18.3 -26.8,21.2 -3.6,-2.9 -8.5,-4.2 -12.2,-4.7 0.9,-3.3 4.4,-13.2 16.1,-21.6 8.7,-6.2 17.9,-9.5 18,-9.5 5.1,7.8 5.9,12.7 6,14.1 -0.3,0.1 -0.7,0.3 -1.1,0.5 z m -24.4,-7.3 c -13,9.3 -16.5,20.1 -17.3,23.5 -0.5,0 -0.9,-0.1 -1.3,-0.1 0.6,-3.7 1.3,-12.9 -3,-21.2 0,-0.1 0.1,-0.1 0.1,-0.2 0,-0.1 1.3,-5.7 8.4,-11.2 5.5,-4.3 9.8,-6.1 11.4,-6.7 1.7,1 3,1.6 4.1,1.8 l 0.5,0.1 0.5,-0.1 c 0.6,-0.2 3.2,-1 6.1,-2.4 1.9,1 5.8,3.4 8.6,7 -2.5,0.8 -10.4,4 -18.1,9.5 z m -6.7,-19.1 c 0.8,0.5 1.5,1 2.2,1.4 -2.3,1 -5.9,2.9 -10.2,6.3 -5.2,4.1 -7.6,8.2 -8.6,10.7 -2.6,-3.6 -5.7,-5.4 -8.5,-6.3 11.1,-5.6 21.8,-10.6 25.1,-12.1 z M 389.2,421 c -21.7,-4.4 -43.4,-2.5 -50,-1.8 l -3.5,0.4 c -0.7,0.1 -1.4,0.3 -2.1,0.5 -0.9,0.4 -2.2,0.9 -2.9,1.5 -1,0.8 -3.1,3.5 -3.1,3.5 0,0 1.1,-0.5 2.7,-0.8 2.3,-0.4 4.5,-0.7 4.6,-0.7 2.2,-0.2 6.4,-0.6 11.9,-0.8 -4.9,3.4 -11.7,10.3 -14.2,22.8 -1.5,7.4 1.4,15.5 3,19.2 -9.9,1 -17.7,2.4 -18.5,2.5 -0.2,0 -0.4,0.1 -0.5,0.2 0.2,-1.1 0.5,-2.4 0.8,-4.2 1.3,-6.7 -6.1,-16.1 -6.4,-16.5 l -0.2,-0.2 c -5.3,-4.5 -10,-6.1 -13.6,-6.4 2.6,-3.4 10.7,-12.8 24.2,-19.8 15.8,-8.3 27.6,-13.3 29.3,-14 3.3,1.8 7.2,2.8 11.4,2.8 2.3,0 4.7,-0.3 7.1,-0.9 5.8,-1.5 10.8,-4.7 14,-9.1 1.8,-2.4 3,-5 3.5,-7.7 v 0 c 0,0 1.5,-1.1 3.9,-1.4 5.9,19.4 0.1,28.9 -1.4,30.9 z m -0.3,-36 c 0.3,0.8 0.6,1.6 0.9,2.4 -1.1,0.2 -2,0.5 -2.8,0.8 0,-1.1 -0.2,-2.2 -0.5,-3.3 -1,-3.7 -3.4,-6.8 -6.6,-9 1.1,-0.3 2.4,-0.6 3.7,-0.7 2.1,3.1 4,6.3 5.3,9.8 z m -7.1,-12.2 c -2.3,0.4 -4.3,1.1 -5.2,1.4 -4.7,-2 -10.6,-2.5 -16.5,-0.9 -6.2,1.6 -11.2,5.1 -14.3,9.5 -2,0.6 -13.2,4 -27.3,11 -0.4,-2.6 -1.9,-8.1 -7.4,-15.9 -2.5,-3.6 -6.1,-6.2 -8.5,-7.7 2.3,-1.4 4.5,-3.1 5.8,-5.2 2.3,0.2 16.4,1.6 29,1.6 7,0 13.6,-0.4 17.3,-1.7 4.9,-1.7 8.8,-4.1 11.6,-6.8 3,2.2 9.8,7.5 15.5,14.7 z m 63,-117.1 22.9,-2.6 c 0.2,0 0.4,0 0.6,0 2.6,0 4.9,2 5.2,4.6 l 5.9,52 c 0.3,2.9 -1.7,5.4 -4.6,5.8 l -22.9,2.6 c -2.9,0.3 -5.4,-1.7 -5.8,-4.6 l -5.9,-52 c -0.3,-2.9 1.8,-5.5 4.6,-5.8 z m -18.6,41.1 c 6,-3.5 10.4,-6.9 13,-9 l 3,26.1 c 0.5,4.7 4.5,8.2 9.2,8.2 0.3,0 0.7,0 1.1,-0.1 l 13.6,-1.6 c -0.6,1.8 -2,4.1 -5.3,5.5 -1.3,0.5 -2.9,1.3 -4.7,2.2 -2.8,1.3 -6.1,2.9 -10.2,4.6 -2.2,-0.3 -13.5,-2.4 -18.3,-14.5 -5,-12.3 -3.2,-18.5 -1.4,-21.4 z m -14.8,7.4 c 4,-1.6 7.6,-3.4 10.9,-5.2 -1.2,4.1 -1.1,10.5 2.7,20.2 3.9,9.9 11.5,13.8 16.4,15.3 -7.6,3 -17.3,6.1 -29.4,8.7 -16,3.4 -27.9,3.8 -35,4.1 -1.9,0.1 -3.5,0.1 -4.7,0.3 0,-0.4 0.1,-0.7 0.1,-1.1 0,-4.1 -3,-12.8 -7.1,-20.8 0.5,-1 1.7,-3.3 5.2,-8.4 0.8,-0.1 1.5,-0.3 1.7,-0.3 0.2,0.1 21.2,-5.4 39.2,-12.8 z m -38.6,-2.9 c 2.6,1.3 3.2,2.1 3.3,2.6 0.2,0.9 -1,2.4 -2.4,4.1 -1.4,1.7 -3.1,3.8 -4.5,6.5 l -0.1,0.2 c -2.7,3.9 -4.3,6.5 -5.3,8.3 -1.3,-2.3 -2.7,-4.4 -4.1,-6.3 -6.7,-8.9 -17.1,-15.8 -22,-16.2 -1.5,-0.1 -2.9,0.6 -4.4,1.7 l -2.1,-4.3 c 7.9,-0.8 29.6,-2.5 41.6,3.4 z m 14.8,-38.9 c 2.4,3.2 2.7,4.7 2.7,5.3 -0.6,0.1 -1.3,0.1 -1.9,0.1 -1.8,0.1 -3.5,0 -5.1,-0.3 -0.8,-0.1 -1.5,-0.4 -2.2,-0.5 -0.7,-0.3 -1.4,-0.5 -2.1,-0.8 -2.7,-1.1 -4.9,-2.4 -6.7,-3.5 -1.8,-1.1 -3.1,-2.1 -4,-2.8 -0.9,-0.7 -1.3,-1.1 -1.3,-1.1 0,0 -0.5,-0.4 -1.3,-1.1 -0.8,-0.7 -2.1,-1.9 -3.4,-3.4 -0.4,-0.4 -0.7,-0.8 -1,-1.2 -0.2,-0.2 -0.3,-0.4 -0.4,-0.7 -0.1,-0.1 -0.1,-0.2 -0.2,-0.3 3.2,0.3 6.1,0.4 8.7,0.4 1.6,0 3.1,-0.1 4.5,-0.1 2.2,1.1 10.3,5.5 13.7,10 z m -3.4,-14.1 c -3.3,0.6 -6.4,1.1 -9.8,1.4 -0.4,0.1 -0.9,0.1 -1.2,0.1 -3,0.2 -6.1,0.1 -9.8,-0.1 2.1,-1.2 4.6,-2.4 7.4,-3.5 3.5,-1.4 7.4,-2.7 11.6,-3.7 2.1,-0.5 4.4,-0.9 6.7,-1.5 2.3,-0.5 4.7,-1.2 7.1,-1.9 2.4,-0.7 4.8,-1.5 7.3,-2.4 0,0 0,0 0,0 l 1.1,2.1 c -2.1,1.9 -8.7,7.3 -20.4,9.5 z m -38.7,-83.6 c 0.5,0 1,0.2 1.4,0.6 l 23.8,27.6 c 0.4,0.5 0.6,1.2 0.5,1.8 -0.1,0.7 -0.5,1.2 -1.1,1.5 -3.2,1.7 -6.1,3.6 -10.7,7.2 -0.2,0 -0.4,0 -0.5,0 -1.2,-0.1 -2.3,-0.2 -3.5,-0.4 -0.6,-0.1 -1.2,-0.2 -1.7,-0.3 l -0.9,-0.2 c -0.3,-0.1 -0.6,-0.1 -0.6,-0.1 -3.5,-0.8 -6.4,-1.8 -7.8,-2.3 -4.3,-1.5 -7.2,-2.2 -10.7,-2.9 -0.2,-3.3 -0.8,-6.2 -2.1,-7.5 -2.1,-2.3 -4.7,-3.5 -6.8,-4.1 3.5,-2.2 8.5,-6.1 9,-11.1 0.1,-1.1 0.3,-2.4 0.6,-3.9 4.6,-3.6 8.7,-5.7 11.1,-5.9 z m -54.8,81 5.2,-0.9 7.9,7 c -1.7,1.6 -3.3,3.1 -4.8,4.5 l -29.7,-26.6 c 1.3,-1.3 2.9,-2.8 4.7,-4.5 l 5.8,5.3 v 4.7 z m 6,-3.8 -5.1,0.9 -9,-8.8 v -4.7 l -6.6,-5.9 c 3.9,-3.7 8.4,-8.1 13.4,-12.7 18,1.6 40.5,7.6 40.8,7.7 l 1.4,0.4 0.3,-1.4 c 0.4,-2.5 1.9,-11.4 1.8,-18.6 2.7,2 5.3,3.5 9.5,5 1.5,0.5 4.4,1.5 8.1,2.4 0,0 0.3,0.1 0.6,0.1 l 0.9,0.2 c 0.6,0.1 1.2,0.3 1.9,0.3 0.1,0 0.2,0 0.3,0 -10.4,8.3 -33.6,28.8 -49.2,43.2 z m 23.9,-54.3 c 0.1,0 5.4,0.2 8.9,3.9 2.4,2.6 1.3,15.4 -0.1,23.8 -5.1,-1.3 -22.3,-5.6 -37.4,-7.2 13.7,-12.9 29.5,-27.4 39.1,-35.2 -0.1,0.4 -0.1,0.9 -0.1,1.3 -0.6,6 -10.8,10.7 -10.9,10.7 l -5.4,2.4 z m -21.5,-23.5 0.3,0.2 c 17.9,-34.5 47.3,-88.7 54.6,-96.5 -1.4,9.7 -21.9,57.5 -35.9,88.2 -5.1,2.3 -9.8,5 -11.8,7.8 -2,2.8 -5.7,4.6 -8.2,5.5 0.6,-1.5 0.9,-3.3 1,-5.2 z m -48.6,20.1 c 2.3,-1.4 4.8,-2.7 7.5,-4.1 9.6,-5.2 19.6,-10.6 21.6,-17.4 1.6,-5.6 -1.6,-11 -4.2,-14.3 4,0.9 10.4,2.9 16.2,6.3 8.4,5 3.3,15.7 3.1,16.2 l -1.3,2.6 2.8,-0.7 c 0.3,-0.1 8.6,-2.2 12.4,-7.4 1.7,-2.4 6.1,-4.9 11.1,-7.1 l 0.3,0.2 c 0.1,-0.1 0.1,-0.3 0.2,-0.4 5.4,-2.4 11.5,-4.4 15.6,-5.6 -1,3.7 -2.9,10.9 -4,16.7 -0.2,0.2 -0.4,0.3 -0.6,0.5 -9.8,7.7 -27.8,24.2 -42.8,38.3 -4,-0.3 -7.8,-0.4 -11.1,-0.1 -14.3,1.2 -21.6,6.5 -24.3,8.9 -4.9,-2.1 -12.8,-5 -19.5,-5.1 2.4,-6.4 9.1,-22.9 17,-27.5 z m -47.3,41.1 c -1.4,-2.1 -1.6,-3.5 -1.5,-3.7 1.4,-1.7 11.5,-3.7 29.9,-5.8 9.2,-1.1 24,6.6 24.2,6.7 0.1,0.1 0.2,0.1 0.3,0.1 0,0 0,0 0,0 0.5,0.2 1.4,0.7 1.8,1 0.4,0.3 2.3,1.3 3.4,1.9 0.3,0.1 0.6,-0.1 0.5,-0.4 -0.3,-0.9 -0.8,-2.3 -1.2,-3.1 -0.6,-1.2 -2.4,-2.8 -2.9,-2.9 0,0 -0.1,-0.1 -0.1,-0.1 -0.1,-0.1 -0.8,-0.4 -1.9,-0.9 3,-2.4 9.8,-6.4 21.8,-7.5 2.4,-0.2 5.2,-0.2 8.2,0 -8.2,7.7 -15.2,14.5 -19.3,18.5 l -1,1 33.6,30.1 0.9,-0.9 c 14.7,-14 45.9,-41.8 57.6,-50.9 0.5,-0.4 0.9,-0.7 1.4,-1.1 2.5,0.1 5,0 7.6,-0.2 5.3,-0.4 10.6,-1.4 15.9,-2.2 1.3,-0.2 2.6,-0.4 3.9,-0.5 1.3,-0.1 2.6,-0.2 3.6,-0.1 2.3,0.3 4.4,1.5 6.5,3.1 1,0.8 2.1,1.7 3.2,2.5 l 1.6,1.3 c 0.6,0.5 0.9,0.7 1.4,1.2 1.7,1.7 3.2,4 4.5,6.2 1.3,2.3 2.4,4.6 3.1,7 0.3,1.1 0.5,2.4 0.4,3.1 0,0 -0.2,0.4 -0.5,0.7 -0.3,0.3 -0.8,0.7 -1.3,1 -2,1.3 -4.3,2.2 -6.7,3.1 -2.3,0.9 -4.7,1.6 -7,2.3 -2.3,0.7 -4.6,1.3 -6.9,1.8 -2.2,0.6 -4.5,0.9 -6.7,1.5 -4.4,1.1 -8.4,2.4 -12.1,3.9 -3.6,1.5 -6.9,2.9 -9.7,4.9 -0.7,0.5 -1.4,1 -2,1.8 -0.3,0.3 -0.7,1.1 -0.9,1.7 -0.2,0.7 0,1.3 0.2,2 0.1,0.2 0.2,0.5 0.3,0.7 0.1,0.2 0.2,0.4 0.3,0.5 0.2,0.3 0.4,0.6 0.6,0.9 0.4,0.5 0.8,1 1.2,1.5 1.5,1.7 2.8,3 3.7,3.8 0.9,0.8 1.4,1.2 1.4,1.2 0,0 0.5,0.4 1.4,1.2 1,0.7 2.4,1.8 4.3,3 1.9,1.2 4.3,2.6 7.3,3.9 0.8,0.3 1.6,0.6 2.4,0.9 0.9,0.2 1.8,0.5 2.7,0.6 1.9,0.4 3.8,0.4 5.8,0.3 2,-0.1 4.1,-0.3 6.2,-0.6 2.1,-0.3 4.2,-0.7 6.2,-0.8 1,-0.1 2,0.1 2.2,0.2 0.5,0.3 0.8,0.9 1.1,1.8 0.4,1.7 0.2,4 -0.5,6 -0.3,1 -0.9,2.1 -1.3,2.3 l -0.6,0.4 -0.7,0.4 c -0.5,0.3 -1,0.5 -1.6,0.8 -2.2,1 -4.6,1.9 -7,2.7 -4.9,1.5 -10,2.7 -15.3,3.2 -5.3,0.5 -10.6,0.6 -15.7,-0.8 -5.2,-1.3 -10.4,-3.1 -16,-4.1 -2.8,-0.4 -5.7,-0.8 -8.7,-0.1 -0.2,0.1 -0.5,0.2 -0.7,0.3 l -0.4,0.2 -0.3,0.2 c -0.3,0.2 -0.7,0.4 -1,0.6 -0.6,0.4 -1.2,0.9 -1.7,1.3 -1.1,0.9 -2,1.7 -3,2.6 -3.9,3.4 -7.6,6.7 -11.4,9.3 -1.9,1.3 -3.9,2.5 -5.8,3.3 -0.5,0.2 -1,0.4 -1.4,0.5 -0.5,0.2 -1,0.3 -1.4,0.4 -0.5,0.1 -1,0.2 -1.5,0.3 -0.4,0 -0.8,0.1 -1.2,0.1 -0.8,0.1 -1.5,0 -2.1,0.1 -0.7,0 -1.3,-0.1 -1.8,-0.1 -0.5,-0.1 -1,-0.1 -1.3,-0.2 -5.2,-0.8 -8.3,-1.7 -13.2,-2.2 3.9,2.6 6.7,4.8 12.6,5.8 0.4,0.1 0.9,0.1 1.5,0.2 0.6,0 1.3,0.1 2,0.1 0.8,0 1.6,0 2.5,-0.1 0.5,0 0.9,-0.1 1.4,-0.1 0.6,0 1.2,-0.2 1.8,-0.3 0.6,-0.1 1.2,-0.3 1.8,-0.5 0.6,-0.2 1.2,-0.4 1.7,-0.7 2.3,-1 4.4,-2.2 6.4,-3.6 2.3,-1.6 4.5,-3.3 6.7,-5.1 l 1.4,2.8 v 0.3 c 0,0 0,0 0.1,0 l 2.8,5.7 c -0.5,0.4 -1,0.9 -1.5,1.4 -3.5,3.2 -8.3,7.5 -15.3,10.2 -10.8,4.2 -21.5,3.3 -24,3 -2.4,-2.7 -5.1,-5 -7.9,-6.9 -8.1,-5.4 -18.3,-7.2 -28.7,-5 -1.7,0.4 -3.4,0.8 -5.1,1.4 0.8,-3.8 2.5,-12.9 2.5,-21.3 0,-6.5 -3.8,-11.7 -7.2,-14.9 1.8,0.5 3.8,1 5.4,1.6 4.3,1.4 11,7.3 11.1,7.4 l 2.4,2.1 -0.1,-3.2 c 0,-0.8 -0.9,-18.9 -7.9,-29.5 -3.7,-5.6 -7.9,-9.5 -11,-12 3.5,-0.1 5.8,-0.2 6.1,-0.2 0.3,0 0.5,-0.1 0.8,-0.2 0.8,-0.2 2.2,-0.6 3,-1.1 1.5,-0.9 2.8,-2.7 2.8,-2.9 0,-0.5 -1.8,0 -2.4,0 -1.2,0 -4.3,0.2 -4.3,0.2 -0.2,0 -20.4,0.8 -31.8,0 -7.1,-1.1 -12.4,-5.6 -14.9,-9.3 z m -29,93.1 C 161.4,314.3 155,307.5 152.4,304.1 l 12.4,0.9 c 2.3,0.2 4.6,-0.1 6.9,-0.7 l 13.9,-3.7 -3,-1.6 c -0.1,-0.1 -13.1,-7 -22.5,-15.6 -6.1,-5.6 -9.7,-10.3 -11.4,-12.8 5.6,0.4 18.8,1 27.6,-0.2 11.7,-1.6 14.7,-8.2 14.9,-8.5 l 0.4,-1 -8.3,-5.7 c 4.5,-1 12.8,-3.1 17.2,-6.6 5.7,-4.4 11.1,-10.7 11.9,-11.6 1.7,0.5 3.4,0.9 5.2,1 4,0.3 8.9,0.3 13.7,0.3 2.8,0 5.6,0 8,-0.1 2.8,1.9 8.4,6.3 13.1,13.4 4.9,7.4 6.7,19.4 7.2,25 -2.5,-2 -6.4,-4.9 -9.5,-5.9 -4.6,-1.5 -11.4,-3 -11.7,-3.1 l -8,-1.8 7,4.2 c 0.1,0.1 10.9,6.7 10.9,16.5 0,9.9 -2.5,21.2 -2.8,22.4 -2.6,1.1 -5,2.4 -7.2,3.9 -7,2.1 -19.9,4.1 -28.3,-6.1 -6.3,-7.7 -8.2,-16.3 -8.8,-20.9 3.7,3.1 10.6,8.5 14.8,9.8 6.7,2 11.4,1.7 13.3,1.3 0.3,-0.1 1.7,-0.8 1.9,-0.9 l 2.3,-1.8 c -0.1,0 -9.9,1 -16.7,-1.1 -5.2,-1.6 -16.2,-11.3 -16.3,-11.4 l -2.2,-2 v 3 c 0,0.6 0.1,14.1 9.7,25.7 4.9,6 11.1,8.2 17,8.7 -4.6,1.5 -10.3,3.6 -15.8,6.3 -2.5,0.2 -20,-0.2 -35,-5 z m 21.5,22.2 c 1.2,-3.9 5.1,-7.6 11.5,-11.3 -1.7,2.4 -3.2,5.3 -3.8,8.1 -1.1,5.7 0.2,15.9 0.8,20.3 -2.3,1.3 -4.7,2.7 -7,4.2 -1.3,-5.6 -3.3,-15.9 -1.5,-21.3 z m -18.3,42.3 c 3.6,-3.4 7.4,-6.9 11.5,-10.2 15.3,-12.5 40.4,-23 43.2,-24.1 1.8,-0.1 13.5,-0.6 26.3,5.2 7.4,3.4 15,8.5 21.3,12.8 -10.1,4.7 -40.2,18.9 -50.8,26.5 -4.4,3.1 -10,8.3 -15.7,13.9 -3.4,1.1 -13.7,3.1 -26.9,-7.6 -10.9,-8.8 -8.9,-16 -8.8,-16.3 z m 11.7,46.7 c -4.1,1.1 -19.1,-0.3 -24,-3.4 -5.4,-3.3 -11.3,-10.8 -11.3,-14.2 0,-2.4 8.3,-14 20.9,-26.5 0.2,3.5 2,9.4 9.9,15.8 9.1,7.3 17,9.1 22.6,9.1 0.9,0 1.8,-0.1 2.6,-0.1 -1.6,1.6 -3.1,3.1 -4.6,4.6 -6.4,6.3 -14.2,14.1 -16.1,14.7 z m 37.3,190.1 c 9.1,17.7 26.3,20.1 35.5,21.4 1.3,0.2 2.9,0.4 3.9,0.6 -5.9,5.3 -25.7,3.3 -32.8,2.1 l -12.7,-2.2 11.4,6 c 5.9,3.1 15,9.7 14.6,14.4 -0.3,3 -4.9,5 -8.7,6.2 -23.9,7.4 -48,-28.7 -48.2,-29.1 l -3.5,-5.3 -0.2,6.3 c -0.1,2.2 -0.9,7.3 -3.1,8.6 -0.3,0.2 -1.2,0.7 -3.1,-0.1 -5.3,-2.3 -6.3,-17.8 -5.7,-27 l 0.7,-10.6 -4.5,9.6 c -0.2,0.3 -16.4,34.5 -33.3,31.6 -5.4,-1 -8.8,-2.7 -9.7,-5.1 -1.1,-3 1.6,-6.5 1.6,-6.6 l 6.8,-8.6 -9.4,5.6 c -8.3,4.9 -18.7,9.1 -21.3,7.5 -0.3,-0.2 -0.5,-0.4 -0.5,-0.8 -0.4,-2.5 3.1,-8 5.7,-11.1 l 2.2,-2.7 -3.4,-0.6 c -11.6,-2.1 -43,-9.4 -48.4,-18.5 -0.7,-1.2 -0.9,-2.4 -0.5,-3.6 C 64.5,594 87.6,588 87.8,588 l 15.3,-3.8 -15.8,-0.1 c -0.2,0 -24.6,-0.6 -50.2,-36.5 C 29.4,536.8 27,527.8 29.9,521 c 3.7,-8.6 15.2,-11.9 19.8,-12.8 1,4.5 4.3,15 14.5,21.1 10.5,6.3 25,6 43,-1.1 26.2,-10.2 51.5,-29.7 59.3,-36 4.3,10.1 12.1,22.6 25.5,35.2 15.1,14.2 31.6,22.9 44.4,26.5 -5.8,10.5 -21.9,42.7 -10,65.8 z M 266,542.1 c -2.4,4.6 -8.5,8.4 -15.2,9.3 -11.6,1.7 -35.6,-8 -55.9,-27 -24.6,-23.1 -29.5,-45.5 -29.2,-51.6 0.3,-6.4 6.9,-14.7 13.5,-14.7 0.1,0 0.2,0 0.3,0 6.9,0.2 10.4,6.8 15.7,16.7 5.4,10.1 12.1,22.6 25.5,34 14.9,12.6 26,16.8 34.2,19.8 6.1,2.3 9.7,3.6 11.6,7.3 1,2.5 0.3,4.7 -0.5,6.2 z m -2.7,-14.2 c -2,-1 -4.4,-1.9 -7.1,-2.9 -7.9,-2.9 -18.7,-6.9 -33,-19.1 -12.8,-10.9 -19.4,-23.1 -24.6,-32.9 -2.3,-4.3 -4.4,-8.2 -6.7,-11.4 l 6.9,-7.7 c 4.2,14 19.4,31.9 28,40.5 16.3,16.2 34.2,22.6 45.7,25.1 z m 48.1,-20.4 c -10,4.4 -22.5,9.9 -27.5,9.7 -5,-0.2 -31.3,-2.6 -54.3,-25.6 -13.9,-13.8 -27.9,-33.5 -27.9,-44.3 0,-7.6 5.1,-28 5.2,-28.5 0.3,-0.3 0.7,-0.7 1,-1 0.5,-0.5 1,-1 1.6,-1.6 4.1,11.8 22.5,59.4 57,76.5 15.8,7.8 33.3,11.9 50.7,12.3 -1.7,0.7 -3.6,1.6 -5.8,2.5 z m 58,-18.4 c -29.4,15.8 -69.1,15.8 -101.1,0 -35,-17.3 -53.5,-69.7 -55.6,-76 2.8,-2.8 5.6,-5.5 8.3,-8 4.5,12.2 22.7,58.1 48.2,73.2 17.1,10.2 34.7,13.8 50.6,13.8 27.9,0 51,-11.1 58.8,-17.9 1.6,1.2 3.1,2.4 4.6,3.8 -1.3,2.1 -4.9,6.3 -13.8,11.1 z m 24,-6.7 c -3.5,-3.7 -7.3,-7.5 -11.4,-10.7 -0.5,-3.6 -1,-15.7 12.9,-28.1 8.1,-7.3 17.6,-6.5 20,-6.1 3.2,2.6 6.4,5.6 9.4,8.7 l -0.1,0.1 c 0.2,0.2 0.5,0.4 0.8,0.6 0.1,0.1 0.2,0.2 0.3,0.3 -4.6,0.1 -11.6,1.3 -18,7 -12.5,11.3 -14.1,22.5 -13.9,28.2 z m 53.3,-5.9 c -0.2,3.2 -7.8,9 -16.7,12.6 -1.1,0.5 -2.3,0.9 -3.5,1.4 -6.9,2.9 -14.7,6.2 -19.8,4.6 -2.2,-0.7 -6.1,-4.9 -10.2,-9.3 0,0 -0.1,-0.1 -0.1,-0.1 0,-0.1 0,-0.1 0,-0.2 -0.2,-0.6 -3.5,-14.7 12.7,-29.2 7.1,-6.4 15.3,-6.5 18.8,-6.2 10.8,11.6 18.7,23.8 18.8,26.4 z m 30.6,-19.4 -1.1,0.8 c -8.3,6 -18.5,8.7 -21.1,7.6 -1.7,-0.7 -10.7,-7.9 -19.2,-14.9 -0.4,-8.2 6.8,-15.3 13.1,-19.8 7.1,-5.1 13.7,-6.2 16.9,-6.5 12.2,10.3 20.6,20.4 21.2,22.6 0,3 -2.3,4.8 -9.8,10.2 z"
   id="path68" />
		<ellipse
   transform="matrix(0.866,-0.5,0.5,0.866,-73.3648,185.7707)"
   class="st21"
   cx="310"
   cy="229.8"
   rx="4.9000001"
   ry="7.5"
   id="ellipse68" />
		<ellipse
   class="st21"
   cx="385.39999"
   cy="215.2"
   rx="3.0999999"
   ry="1.6"
   id="ellipse69" />
		<path
   class="st21"
   d="m 282.2,606.5 c -10.1,0 -18.1,5 -18.1,11.4 0,6.4 7.9,11.4 18.1,11.4 10.1,0 18.1,-5 18.1,-11.4 -0.1,-6.4 -8,-11.4 -18.1,-11.4 z m 0,18.7 c -8.3,0 -14.1,-3.9 -14.1,-7.3 0,-3.5 5.8,-7.3 14.1,-7.3 8.3,0 14.1,3.9 14.1,7.3 -0.1,3.4 -5.9,7.3 -14.1,7.3 z"
   id="path69" />
		<path
   class="st21"
   d="m 318.4,594.3 c -5.8,0 -10.4,4.7 -10.4,10.4 0,5.7 4.7,10.4 10.4,10.4 5.8,0 10.4,-4.7 10.4,-10.4 0,-5.7 -4.6,-10.4 -10.4,-10.4 z m 0,16.9 c -3.5,0 -6.4,-2.9 -6.4,-6.4 0,-3.5 2.9,-6.4 6.4,-6.4 3.5,0 6.4,2.9 6.4,6.4 0,3.5 -2.9,6.4 -6.4,6.4 z"
   id="path70" />
		<path
   class="st21"
   d="m 72.8,506.7 c 0,8.3 5.1,15.1 11.4,15.1 6.3,0 11.4,-6.8 11.4,-15.1 0,-8.3 -5.1,-15.1 -11.4,-15.1 -6.3,0 -11.4,6.8 -11.4,15.1 z m 18.7,0 c 0,6 -3.4,11.1 -7.3,11.1 -3.9,0 -7.3,-5.1 -7.3,-11.1 0,-6 3.4,-11.1 7.3,-11.1 3.9,0 7.3,5.1 7.3,11.1 z"
   id="path71" />
		<path
   class="st21"
   d="m 75.3,469.8 c 6.3,0 10.9,-2.6 10.9,-6.1 0,-3.6 -4.6,-6.1 -10.9,-6.1 -6.3,0 -10.9,2.6 -10.9,6.1 0,3.5 4.5,6.1 10.9,6.1 z m 0,-8.3 c 4.5,0 6.7,1.6 6.9,2.1 -0.1,0.5 -2.4,2.1 -6.9,2.1 -4.5,0 -6.8,-1.6 -6.9,-2.1 0.1,-0.5 2.4,-2.1 6.9,-2.1 z"
   id="path72" />
		<path
   class="st21"
   d="m 181.2,476.3 c -2.8,0 -5,2.3 -5,5 0,2.7 2.3,5 5,5 2.7,0 5,-2.3 5,-5 0,-2.7 -2.2,-5 -5,-5 z m 0,7.4 c -1.3,0 -2.3,-1.1 -2.3,-2.3 0,-1.3 1.1,-2.3 2.3,-2.3 1.3,0 2.3,1.1 2.3,2.3 0.1,1.2 -1,2.3 -2.3,2.3 z"
   id="path73" />
		<path
   class="st21"
   d="m 195.8,500.6 c -1.3,0.3 -2.4,1.2 -3.1,2.3 -0.7,1.2 -0.9,2.5 -0.5,3.8 0.3,1.3 1.2,2.4 2.3,3.1 0.8,0.5 1.6,0.7 2.5,0.7 0.4,0 0.9,-0.1 1.3,-0.2 2.7,-0.7 4.3,-3.5 3.6,-6.2 -0.7,-2.6 -3.4,-4.2 -6.1,-3.5 z m 1.9,7.2 c -0.6,0.2 -1.2,0.1 -1.8,-0.2 -0.5,-0.3 -0.9,-0.8 -1.1,-1.4 -0.2,-0.6 -0.1,-1.2 0.2,-1.8 0.3,-0.5 0.8,-0.9 1.4,-1.1 0.2,-0.1 0.4,-0.1 0.6,-0.1 1,0 2,0.7 2.3,1.7 0.4,1.3 -0.4,2.5 -1.6,2.9 z"
   id="path74" />
		<path
   class="st21"
   d="m 216.9,520.7 c -2.7,0.7 -4.3,3.5 -3.6,6.2 0.6,2.3 2.6,3.7 4.9,3.7 0.4,0 0.9,-0.1 1.3,-0.2 2.7,-0.7 4.3,-3.5 3.6,-6.2 -0.8,-2.6 -3.5,-4.2 -6.2,-3.5 z m 1.9,7.1 c -1.2,0.3 -2.5,-0.4 -2.9,-1.7 -0.2,-0.6 -0.1,-1.2 0.2,-1.8 0.3,-0.5 0.8,-0.9 1.4,-1.1 1.2,-0.3 2.5,0.4 2.9,1.7 0.4,1.3 -0.4,2.6 -1.6,2.9 z"
   id="path75" />
		<path
   class="st21"
   d="m 245.5,534.1 c -2.7,0.7 -4.3,3.5 -3.6,6.2 0.6,2.3 2.6,3.7 4.9,3.7 0.4,0 0.9,-0.1 1.3,-0.2 1.3,-0.3 2.4,-1.2 3.1,-2.3 0.7,-1.2 0.9,-2.5 0.5,-3.8 -0.8,-2.7 -3.5,-4.3 -6.2,-3.6 z m 3.3,6.1 c -0.3,0.5 -0.8,0.9 -1.4,1.1 -1.3,0.3 -2.5,-0.4 -2.9,-1.7 -0.3,-1.3 0.4,-2.5 1.7,-2.9 1.3,-0.3 2.5,0.4 2.9,1.7 0.1,0.6 0,1.2 -0.3,1.8 z"
   id="path76" />
		<path
   class="st21"
   d="m 447.5,302.8 c 0.2,1.7 1,3.2 2.4,4.3 1.2,0.9 2.5,1.4 4,1.4 0.2,0 0.5,0 0.7,0 l 16.1,-1.8 c 1.7,-0.2 3.2,-1 4.3,-2.4 1.1,-1.3 1.6,-3 1.4,-4.7 L 472.2,263 c -0.2,-1.7 -1,-3.2 -2.4,-4.3 -1.3,-1.1 -3,-1.6 -4.7,-1.4 L 449,259 c -1.7,0.2 -3.2,1 -4.3,2.4 -1.1,1.3 -1.6,3 -1.4,4.7 z m -0.7,-39.7 c 0.6,-0.8 1.5,-1.3 2.5,-1.4 l 16.1,-1.8 c 0.1,0 0.3,0 0.4,0 0.8,0 1.7,0.3 2.3,0.8 0.8,0.6 1.3,1.5 1.4,2.5 l 4.2,36.6 c 0.1,1 -0.2,2 -0.8,2.8 -0.6,0.8 -1.5,1.3 -2.5,1.4 l -16.1,1.8 c -1,0.1 -2,-0.2 -2.8,-0.8 -0.8,-0.6 -1.3,-1.5 -1.4,-2.5 l -4.2,-36.6 c 0,-1 0.2,-2 0.9,-2.8 z"
   id="path77" />
		<path
   class="st21"
   d="m 106.3,464.7 c 0.2,0.7 0.4,1.5 0.5,2.3 l 0.2,1.1 c 0.1,0.4 0.1,0.7 0.1,1.1 0.1,1.4 -0.3,2.9 -1,4.3 -0.7,1.3 -1.7,2.6 -2.8,3.6 1.3,-0.9 2.5,-2 3.4,-3.3 0.9,-1.3 1.6,-2.9 1.6,-4.6 0,-0.4 0,-0.8 0,-1.3 l -0.1,-1.2 c -0.1,-0.8 -0.2,-1.6 -0.3,-2.4 0,-0.2 -0.1,-0.4 -0.1,-0.5 0.3,0.3 0.5,0.6 0.8,0.9 1.3,1.2 2.8,2.3 4.4,3.2 1.7,0.9 3.5,1.4 5.3,1.7 1.1,0.2 2.2,0.3 3.2,0.3 -0.3,0.7 -0.6,1.4 -0.8,2.1 -0.5,1.4 -0.9,2.9 -0.9,4.6 0.1,1.4 0.4,2.6 0.8,3.8 -0.2,-0.2 -0.4,-0.3 -0.6,-0.5 -1.6,-1.2 -3.3,-2.2 -5.1,-3 -0.9,-0.4 -1.8,-0.7 -2.9,-1 -1,-0.2 -2,-0.2 -3,-0.1 -2,0.2 -3.9,0.6 -5.7,1.1 1.9,-0.2 3.9,-0.3 5.7,-0.2 0.9,0 1.9,0.1 2.7,0.4 0.8,0.3 1.7,0.7 2.5,1.1 1.7,0.8 3.2,1.9 4.6,3.1 1.4,1.2 2.8,2.6 3.8,4 l 5,6.6 -3.2,-7.7 c -0.5,-1.2 -1,-2.6 -1.4,-3.9 -0.4,-1.3 -0.7,-2.6 -0.7,-3.8 0,-1.1 0.4,-2.4 0.8,-3.7 0.5,-1.3 1.1,-2.5 1.7,-3.7 l 1.2,-2.2 -2.5,0.2 c -1.5,0.1 -3.3,0 -4.8,-0.2 -1.6,-0.3 -3.2,-0.7 -4.6,-1.4 -1.4,-0.7 -2.8,-1.6 -4,-2.7 -1.2,-1.1 -2.4,-2.3 -3.4,-3.6 l -4.4,-5.6 2.6,6.6 c 0.6,1.5 1,3.1 1.4,4.5 z"
   id="path78" />
		<path
   class="st21"
   d="m 313.7,558.8 c 0.3,0.4 0.6,0.9 0.9,1.3 0.6,0.9 1,2 1.3,3 0.3,1 0.6,2.2 0.7,3.2 l 0.8,7.9 1.4,-8 c 0.1,-0.8 0.3,-1.6 0.5,-2.4 0.2,-0.8 0.5,-1.5 0.8,-2.1 0.3,-0.5 0.9,-1 1.5,-1.5 0.6,-0.5 1.3,-1 2,-1.3 l 2.2,-1.3 -2.3,-1.1 c -0.8,-0.4 -1.6,-0.9 -2.3,-1.5 -0.7,-0.6 -1.4,-1.3 -1.9,-2 -0.5,-0.8 -0.9,-1.6 -1.2,-2.5 -0.3,-0.9 -0.6,-1.9 -0.7,-2.8 l -1.1,-7.3 -0.9,7.2 c -0.1,0.8 -0.3,1.7 -0.6,2.6 l -0.4,1.3 -0.2,0.7 c -0.1,0.2 -0.1,0.4 -0.2,0.6 -0.7,1.5 -2.4,2.6 -4.3,3 1,0 1.9,-0.2 2.8,-0.6 0.9,-0.4 1.8,-1 2.4,-1.9 0.2,-0.2 0.3,-0.5 0.4,-0.7 l 0.3,-0.6 0.3,-0.6 c 0.3,1 0.7,1.9 1.2,2.9 0.6,1 1.4,1.9 2.3,2.7 0.3,0.3 0.7,0.6 1,0.8 -0.2,0.1 -0.4,0.3 -0.5,0.4 -0.7,0.6 -1.4,1.3 -2,2.3 -0.2,0.4 -0.4,0.8 -0.5,1.2 -0.4,-0.9 -0.9,-1.7 -1.5,-2.5 -0.4,-0.5 -0.7,-0.9 -1.3,-1.4 -0.5,-0.4 -1.1,-0.7 -1.6,-1 -1.1,-0.5 -2.2,-0.8 -3.4,-1.1 1,0.6 2,1.2 3,1.8 0.4,0.6 0.8,0.9 1.1,1.3 z"
   id="path79" />
		<path
   class="st21"
   d="m 265.1,593.4 -3.2,7.7 5.1,-6.7 c 0.8,-1.1 1.7,-2.2 2.6,-3.2 0.9,-1 1.9,-1.9 3,-2.5 1,-0.6 2.3,-0.9 3.6,-1.1 1.3,-0.2 2.7,-0.3 4,-0.4 l 2.5,-0.1 -1.4,-2.1 c -0.9,-1.3 -1.6,-2.8 -2.2,-4.3 -0.6,-1.5 -0.9,-3.1 -1.1,-4.7 -0.1,-1.6 0,-3.2 0.3,-4.9 0.3,-1.6 0.8,-3.3 1.4,-4.7 l 2.7,-6.6 -4.4,5.6 c -0.9,1.1 -2,2.2 -3.1,3.3 -0.6,0.5 -1.1,1.1 -1.7,1.6 l -0.9,0.8 c -0.3,0.2 -0.6,0.5 -0.9,0.7 -1.2,0.8 -2.7,1.2 -4.2,1.2 -1.5,0.1 -3.1,-0.2 -4.6,-0.6 1.4,0.7 2.9,1.2 4.6,1.3 1.6,0.1 3.3,-0.1 4.8,-0.9 0.4,-0.2 0.7,-0.4 1.1,-0.7 l 1,-0.7 c 0.6,-0.5 1.3,-0.9 1.9,-1.4 0.1,-0.1 0.3,-0.2 0.4,-0.3 -0.1,0.4 -0.2,0.7 -0.3,1.1 -0.4,1.8 -0.6,3.6 -0.6,5.5 0.1,1.9 0.5,3.7 1.1,5.5 0.4,1 0.8,2 1.3,3 -0.7,0.1 -1.5,0.2 -2.2,0.3 -1.5,0.3 -3,0.6 -4.5,1.5 -1.2,0.8 -2.1,1.7 -2.9,2.6 0,-0.3 0.1,-0.5 0.1,-0.8 0.2,-2 0.3,-4 0.1,-6 -0.1,-1 -0.3,-1.9 -0.6,-3 -0.4,-1 -0.9,-1.8 -1.4,-2.7 -1.1,-1.6 -2.4,-3.1 -3.8,-4.4 1.1,1.6 2.2,3.2 3,4.9 0.4,0.8 0.8,1.7 1,2.6 0.2,0.8 0.3,1.8 0.3,2.7 0.1,1.9 -0.1,3.7 -0.4,5.6 -0.3,1.8 -0.8,3.7 -1.5,5.3 z"
   id="path80" />
		<path
   class="st21"
   d="m 389.8,461 c -2.2,0 -3.9,1.8 -3.9,3.9 0,2.1 1.8,3.9 3.9,3.9 2.1,0 3.9,-1.8 3.9,-3.9 0,-2.1 -1.7,-3.9 -3.9,-3.9 z m 0,5.2 c -0.7,0 -1.2,-0.6 -1.2,-1.2 0,-0.6 0.6,-1.2 1.2,-1.2 0.7,0 1.2,0.6 1.2,1.2 0,0.6 -0.5,1.2 -1.2,1.2 z"
   id="path81" />
		<path
   class="st21"
   d="m 398,448.2 c -1,-0.1 -2.1,0.2 -2.9,0.9 -0.8,0.7 -1.3,1.6 -1.4,2.7 -0.1,1 0.2,2.1 0.9,2.9 0.7,0.8 1.6,1.3 2.7,1.4 0.1,0 0.2,0 0.4,0 0.9,0 1.8,-0.3 2.5,-0.9 0.8,-0.7 1.3,-1.6 1.4,-2.7 0.1,-1 -0.2,-2.1 -0.9,-2.9 -0.7,-0.8 -1.7,-1.3 -2.7,-1.4 z m 0.4,4.9 c -0.3,0.2 -0.6,0.3 -0.9,0.3 -0.3,0 -0.6,-0.2 -0.8,-0.4 -0.2,-0.3 -0.3,-0.6 -0.3,-0.9 0,-0.3 0.2,-0.6 0.4,-0.8 0.2,-0.2 0.5,-0.3 0.8,-0.3 0,0 0.1,0 0.1,0 0.3,0 0.6,0.2 0.8,0.4 0.2,0.3 0.3,0.6 0.3,0.9 0,0.3 -0.1,0.6 -0.4,0.8 z"
   id="path82" />
		<path
   class="st21"
   d="m 410.7,448 c 0.1,0 0.2,0 0.4,0 0.9,0 1.8,-0.3 2.5,-0.9 0.8,-0.7 1.3,-1.6 1.4,-2.7 0.1,-1 -0.2,-2.1 -0.9,-2.9 -0.7,-0.8 -1.6,-1.3 -2.7,-1.4 -1,-0.1 -2.1,0.2 -2.9,0.9 -0.8,0.7 -1.3,1.6 -1.4,2.7 -0.1,1 0.2,2.1 0.9,2.9 0.7,0.8 1.7,1.3 2.7,1.4 z m -0.4,-4.9 c 0.2,-0.2 0.5,-0.3 0.8,-0.3 0,0 0.1,0 0.1,0 0.3,0 0.6,0.2 0.8,0.4 0.2,0.3 0.3,0.6 0.3,0.9 0,0.3 -0.2,0.6 -0.4,0.8 -0.3,0.2 -0.6,0.3 -0.9,0.3 -0.3,0 -0.6,-0.2 -0.8,-0.4 -0.2,-0.3 -0.3,-0.6 -0.3,-0.9 0,-0.3 0.1,-0.6 0.4,-0.8 z"
   id="path83" />
		<path
   class="st21"
   d="m 431.2,432.9 c -2.2,0 -3.9,1.8 -3.9,3.9 0,2.1 1.8,3.9 3.9,3.9 2.1,0 3.9,-1.8 3.9,-3.9 0,-2.1 -1.8,-3.9 -3.9,-3.9 z m 0,5.1 c -0.7,0 -1.2,-0.6 -1.2,-1.2 0,-0.7 0.6,-1.2 1.2,-1.2 0.7,0 1.2,0.6 1.2,1.2 0,0.7 -0.5,1.2 -1.2,1.2 z"
   id="path84" />
		<path
   class="st21"
   d="m 440.3,429.2 c 0.9,0 1.8,-0.3 2.5,-0.9 1.7,-1.4 1.9,-3.9 0.5,-5.5 -1.4,-1.7 -3.9,-1.9 -5.5,-0.5 v 0 c -0.8,0.7 -1.3,1.6 -1.4,2.7 -0.1,1 0.2,2.1 0.9,2.9 0.8,0.8 1.9,1.3 3,1.3 z m -0.8,-4.9 c 0.5,-0.4 1.3,-0.4 1.7,0.2 0.4,0.5 0.4,1.3 -0.2,1.7 -0.5,0.4 -1.3,0.4 -1.7,-0.2 -0.2,-0.3 -0.3,-0.6 -0.3,-0.9 0,-0.3 0.3,-0.6 0.5,-0.8 z"
   id="path85" />
	</g>
</g>
</svg>
